<?xml version="1.0" encoding="utf-8"?>
<!-- Generator: Adobe Illustrator 17.0.0, SVG Export Plug-In . SVG Version: 6.00 Build 0)  -->
<!DOCTYPE svg PUBLIC "-//W3C//DTD SVG 1.1//EN" "http://www.w3.org/Graphics/SVG/1.1/DTD/svg11.dtd">
<svg version="1.1" id="Layer_1" xmlns="http://www.w3.org/2000/svg" xmlns:xlink="http://www.w3.org/1999/xlink" x="0px" y="0px"
	 width="344.255px" height="267.333px" viewBox="0 0 344.255 267.333" enable-background="new 0 0 344.255 267.333"
	 xml:space="preserve">
<g>
	<path fill="none" stroke="#FFFFFF" stroke-width="2" stroke-linecap="round" stroke-linejoin="round" stroke-miterlimit="10" d="
		M1.409,106.129C1.143,105.29,1,104.396,1,103.469c0-4.856,3.936-8.792,8.792-8.792s8.792,3.936,8.792,8.792
		c0,1.214-0.246,2.37-0.691,3.422l-0.898,1.616l-7.203,13.299l-7.914-14.505L1.409,106.129z"/>
	<g>
		<g>
			<g>
				<g>
					<path fill="#FFFFFF" d="M83.781,73.873c-3.45,0-6.256-2.807-6.256-6.256s2.806-6.256,6.256-6.256s6.256,2.807,6.256,6.256
						S87.231,73.873,83.781,73.873z M83.781,63.361c-2.347,0-4.256,1.909-4.256,4.256s1.909,4.256,4.256,4.256
						s4.256-1.909,4.256-4.256S86.128,63.361,83.781,63.361z"/>
				</g>
				<g>
					<path fill="#FFFFFF" d="M72.802,85.553c-2.806,0-5.088-2.282-5.088-5.088s2.282-5.088,5.088-5.088s5.088,2.282,5.088,5.088
						S75.608,85.553,72.802,85.553z M72.802,77.377c-1.703,0-3.088,1.385-3.088,3.088s1.385,3.088,3.088,3.088
						s3.088-1.385,3.088-3.088S74.505,77.377,72.802,77.377z"/>
				</g>
			</g>
			<g>
				<g>
					<path fill="#FF9800" d="M260.092,72.674c-3.45,0-6.256-2.807-6.256-6.256s2.806-6.256,6.256-6.256s6.256,2.807,6.256,6.256
						S263.541,72.674,260.092,72.674z M260.092,62.162c-2.347,0-4.256,1.909-4.256,4.256s1.909,4.256,4.256,4.256
						s4.256-1.909,4.256-4.256S262.438,62.162,260.092,62.162z"/>
				</g>
				<g>
					<path fill="#FF9800" d="M273.468,84.354c-2.806,0-5.088-2.282-5.088-5.088s2.282-5.088,5.088-5.088s5.088,2.282,5.088,5.088
						S276.274,84.354,273.468,84.354z M273.468,76.178c-1.703,0-3.088,1.385-3.088,3.088s1.385,3.088,3.088,3.088
						s3.088-1.385,3.088-3.088S275.171,76.178,273.468,76.178z"/>
				</g>
			</g>
			<g>
				<g>
					<g>
						<path fill="#FFFFFF" d="M46.145,175.966c-0.607,0-1.208-0.275-1.601-0.799c-0.664-0.884-0.485-2.137,0.398-2.801
							c1.252-0.94,2.29-2.08,3.082-3.388c0.84-1.385,1.488-2.969,1.927-4.706c0.271-1.07,1.358-1.714,2.429-1.449
							c1.071,0.271,1.719,1.358,1.449,2.43c-0.536,2.122-1.338,4.073-2.384,5.799c-1.059,1.747-2.438,3.265-4.101,4.514
							C46.985,175.835,46.563,175.966,46.145,175.966z"/>
					</g>
					<g>
						<path fill="#FFFFFF" d="M79.752,174.87c-0.423,0-0.849-0.134-1.211-0.409c-4.751-3.622-5.708-5.152-6.018-6.171
							c-0.172-0.565-0.42-1.32-0.694-2.135c-0.353-1.047,0.209-2.181,1.256-2.534c1.048-0.354,2.181,0.211,2.534,1.257
							c0.289,0.857,0.55,1.653,0.731,2.249l0,0c0.007,0,0.551,1.055,4.615,4.152c0.878,0.67,1.048,1.925,0.378,2.803
							C80.951,174.599,80.355,174.87,79.752,174.87z"/>
					</g>
					<g>
						<g>
							<path fill="#FFFFFF" d="M64.313,232.184c-22.674,0-50.35-0.892-50.626-0.9c-1.017-0.033-1.847-0.824-1.929-1.838
								c-0.272-3.372-2.486-33.154,3.466-40.479c5.879-7.236,27.28-15.802,28.188-16.163c1.024-0.409,2.188,0.092,2.597,1.119
								c0.408,1.026-0.093,2.189-1.119,2.598c-5.918,2.354-22.226,9.632-26.562,14.969c-3.547,4.366-3.568,23.566-2.717,35.853
								c6.5,0.196,29.42,0.843,48.701,0.843c19.035,0,38.368-0.024,44.355-0.032c0.687-12.716,0.465-32.194-2.986-35.646
								c-5.353-5.353-25.815-16.595-26.021-16.708c-0.968-0.531-1.323-1.746-0.792-2.715s1.746-1.322,2.715-0.793
								c0.862,0.473,21.173,11.634,26.927,17.388c5.956,5.956,4.409,34.865,4.039,40.6c-0.068,1.051-0.939,1.869-1.993,1.871
								C110.556,232.148,87.219,232.184,64.313,232.184z"/>
						</g>
						<g>
							<path fill="#FFFFFF" d="M34.063,230.011c-1.104,0-2-0.896-2-2V202.55c0-1.104,0.896-2,2-2s2,0.896,2,2v25.461
								C36.063,229.115,35.167,230.011,34.063,230.011z"/>
						</g>
						<g>
							<path fill="#FFFFFF" d="M91.971,230.875c-1.104,0-2-0.896-2-2v-27.728c0-1.104,0.896-2,2-2s2,0.896,2,2v27.728
								C93.971,229.979,93.075,230.875,91.971,230.875z"/>
						</g>
						<g>
							<path fill="#FFFFFF" d="M62.925,186.262c-11.297,0-18.754-10.717-19.065-11.173c-0.624-0.912-0.39-2.156,0.522-2.78
								c0.912-0.621,2.154-0.389,2.778,0.52l0,0c0.065,0.095,6.6,9.434,15.765,9.434c9.18,0,15.326-9.298,15.387-9.392
								c0.602-0.927,1.839-1.188,2.767-0.587c0.926,0.602,1.189,1.84,0.587,2.767C81.369,175.508,74.252,186.262,62.925,186.262z"/>
						</g>
						<g>
							<path fill="#FFFFFF" d="M62.741,171.11c-10.506,0-19.763-9.985-23.454-25.065c-3.844,0.113-6.852-4.06-6.852-9.346
								c0-5.241,2.966-9.347,6.753-9.347c1.104,0,2,0.896,2,2s-0.896,2-2,2c-1.3,0-2.753,2.286-2.753,5.347s1.454,5.347,2.753,5.347
								c0.199,0,0.407-0.061,0.634-0.187c0.558-0.307,1.227-0.332,1.804-0.065c0.578,0.266,0.994,0.791,1.122,1.414
								c2.938,14.297,10.973,23.902,19.993,23.902c9.055,0,17.327-10.072,20.118-24.493c0.127-0.66,0.578-1.211,1.199-1.468
								c0.62-0.258,1.329-0.186,1.886,0.191c0.272,0.184,0.528,0.273,0.783,0.273c1.3,0,2.753-2.286,2.753-5.347
								s-1.454-5.347-2.753-5.347c-1.104,0-2-0.896-2-2s0.896-2,2-2c3.787,0,6.753,4.105,6.753,9.347s-2.966,9.347-6.753,9.347
								c-0.139,0-0.277-0.006-0.416-0.018C82.698,160.952,73.408,171.11,62.741,171.11z"/>
						</g>
						<g>
							<path fill="#FFFFFF" d="M42.944,131.59c-1.171,0-2.34-0.07-3.504-0.212c-0.056-0.007-0.111-0.016-0.165-0.027
								c-0.629,0.049-1.294-0.259-1.703-0.821c-0.162-0.223-3.941-5.593-1.643-17.544c2.27-11.805,13.751-24.958,26.597-24.958
								c7.611,0,15.473,4.312,18.576,10.012c4.302,0.509,5.543,3.575,6.471,5.868c0.171,0.422,0.343,0.851,0.538,1.271
								c5.525,11.972-0.212,23.71-0.459,24.204c-0.321,0.642-0.962,1.063-1.678,1.103c-0.71,0.046-1.399-0.308-1.79-0.91
								l-8.466-13.084c-2.838,1.687-8.991,5.407-15.539,9.772C54.95,129.749,48.94,131.59,42.944,131.59z M40.434,127.464
								c3.715,0.369,10.501,0.154,17.525-4.528c9.023-6.017,17.31-10.823,17.393-10.871c0.922-0.535,2.102-0.25,2.681,0.644
								l7.33,11.327c1.124-3.942,2.146-10.614-0.885-17.181c-0.221-0.479-0.419-0.966-0.614-1.447
								c-0.956-2.362-1.392-3.44-4.053-3.44c-0.808,0-1.536-0.485-1.846-1.23c-1.745-4.188-8.144-8.709-15.44-8.709
								c-10.584,0-20.698,11.464-22.669,21.714C38.358,121.534,39.719,125.87,40.434,127.464z"/>
						</g>
					</g>
				</g>
			</g>
			<g>
				<g>
					<g>
						<path fill="#FF9800" d="M283.142,235.502c-22.674,0-50.35-0.892-50.626-0.9c-1.017-0.033-1.847-0.824-1.929-1.838
							c-0.272-3.372-2.486-33.154,3.466-40.479c5.879-7.235,27.28-15.801,28.188-16.162c1.025-0.409,2.188,0.092,2.597,1.119
							c0.408,1.026-0.093,2.189-1.119,2.598c-5.918,2.354-22.226,9.632-26.562,14.969c-3.547,4.365-3.568,23.565-2.717,35.852
							c6.5,0.196,29.42,0.843,48.701,0.843c19.035,0,38.368-0.024,44.355-0.032c0.688-12.716,0.465-32.194-2.986-35.646
							c-5.353-5.353-25.815-16.595-26.021-16.708c-0.968-0.531-1.323-1.746-0.792-2.715c0.531-0.969,1.748-1.322,2.715-0.793
							c0.862,0.473,21.173,11.634,26.927,17.388c5.957,5.956,4.41,34.865,4.039,40.6c-0.068,1.051-0.939,1.869-1.993,1.871
							C329.385,235.467,306.048,235.502,283.142,235.502z"/>
					</g>
					<g>
						<path fill="#FF9800" d="M252.892,233.33c-1.104,0-2-0.896-2-2v-25.462c0-1.104,0.896-2,2-2s2,0.896,2,2v25.462
							C254.892,232.435,253.996,233.33,252.892,233.33z"/>
					</g>
					<g>
						<path fill="#FF9800" d="M310.8,234.194c-1.104,0-2-0.896-2-2v-27.728c0-1.104,0.896-2,2-2s2,0.896,2,2v27.728
							C312.8,233.299,311.905,234.194,310.8,234.194z"/>
					</g>
					<g>
						<path fill="#FF9800" d="M281.579,198.01L281.579,198.01c-0.559,0-1.093-0.234-1.472-0.646l-17.239-18.731
							c-0.748-0.813-0.695-2.078,0.117-2.826s2.077-0.696,2.826,0.117l15.768,17.133l15.768-17.133
							c0.749-0.814,2.014-0.864,2.826-0.117c0.813,0.748,0.865,2.014,0.117,2.826l-17.24,18.731
							C282.672,197.775,282.138,198.01,281.579,198.01z"/>
					</g>
					<g>
						<path fill="#FF9800" d="M281.571,174.43c-10.505,0-19.762-9.986-23.454-25.065c-0.033,0.001-0.065,0.001-0.099,0.001
							c-3.787,0-6.753-4.105-6.753-9.347s2.966-9.347,6.753-9.347c1.104,0,2,0.896,2,2s-0.896,2-2,2c-1.3,0-2.753,2.286-2.753,5.347
							s1.454,5.347,2.753,5.347c0.199,0,0.405-0.061,0.631-0.186c0.558-0.309,1.228-0.334,1.805-0.068
							c0.578,0.267,0.996,0.791,1.124,1.415c2.939,14.297,10.973,23.903,19.993,23.903c9.054,0,17.327-10.072,20.117-24.494
							c0.127-0.66,0.578-1.211,1.199-1.468c0.621-0.258,1.329-0.186,1.886,0.191c0.272,0.184,0.528,0.273,0.783,0.273
							c1.3,0,2.753-2.286,2.753-5.347s-1.454-5.347-2.753-5.347c-1.104,0-2-0.896-2-2s0.896-2,2-2c3.787,0,6.753,4.105,6.753,9.347
							s-2.966,9.347-6.753,9.347c-0.139,0-0.277-0.006-0.416-0.018C301.527,164.271,292.237,174.43,281.571,174.43z"/>
					</g>
					<g>
						<path fill="#FF9800" d="M258.663,134.221c-0.107,0-0.219-0.007-0.334-0.021c-0.067-0.009-0.133-0.021-0.197-0.038
							c-0.506,0.048-1.01-0.172-1.327-0.608c-0.157-0.215-3.813-5.415-1.556-17.155c2.234-11.613,13.504-24.553,26.106-24.553
							c7.545,0,15.334,4.317,18.26,9.981c4.217,0.38,5.378,3.249,6.324,5.586c0.174,0.43,0.349,0.865,0.547,1.293
							c5.425,11.756-0.21,23.287-0.452,23.772c-0.259,0.52-0.758,0.828-1.376,0.829c-0.58-0.014-1.101-0.361-1.336-0.892
							l-5.469-12.323c-3.903,0.073-18.375,0.332-27.629,0.332c-5.18,0-6.784,4.094-8.212,9.039
							C261.304,131.906,260.636,134.221,258.663,134.221z M281.355,94.846c-11.141,0-21.147,11.657-23.16,22.119
							c-1.362,7.085-0.375,11.416,0.388,13.448c0.188-0.547,0.383-1.221,0.545-1.781c1.21-4.191,3.236-11.207,11.094-11.207
							c10.692,0,28.39-0.347,28.567-0.351c0.01,0,0.02,0,0.03,0c0.592,0,1.13,0.349,1.371,0.892l4.381,9.873
							c1.183-3.972,2.375-10.974-0.81-17.875c-0.218-0.473-0.413-0.952-0.604-1.426c-0.947-2.341-1.519-3.753-4.516-3.753
							c-0.605,0-1.152-0.364-1.385-0.923C295.449,99.525,288.856,94.846,281.355,94.846z"/>
					</g>
				</g>
			</g>
			<g>
				<path fill="#FFFFFF" d="M43.288,124.007c-0.526,0-0.967-0.411-0.998-0.942c-0.024-0.423-0.537-10.427,4.384-17.909
					c6.131-9.321,12.541-10.655,12.811-10.707c0.541-0.108,1.066,0.249,1.172,0.791c0.105,0.543-0.25,1.067-0.792,1.172
					c-0.053,0.012-5.893,1.29-11.52,9.844c-4.551,6.92-4.063,16.599-4.058,16.695c0.031,0.551-0.391,1.023-0.942,1.055
					C43.327,124.006,43.307,124.007,43.288,124.007z"/>
			</g>
			<g>
				<path fill="#FF9800" d="M262.487,117.642c-0.095,0-0.191-0.014-0.286-0.042c-0.529-0.157-0.831-0.715-0.673-1.244
					c0.634-2.125,1.948-5.507,4.606-9.549c5.709-8.68,13.833-9.904,14.177-9.952c0.539-0.079,1.052,0.304,1.128,0.852
					s-0.305,1.053-0.852,1.129c-0.073,0.011-7.591,1.179-12.782,9.071c-2.525,3.838-3.765,7.024-4.36,9.021
					C263.316,117.361,262.918,117.642,262.487,117.642z"/>
			</g>
			<g>
				<path fill="#FF9800" d="M324.089,228.869c-0.005,0-0.01,0-0.015,0c-0.552-0.008-0.994-0.462-0.986-1.014
					c0.172-12.198-0.245-25.678-1.24-27.121c-2.002-2.905-15.789-11.612-20.933-14.723c-0.473-0.285-0.624-0.9-0.338-1.373
					c0.287-0.472,0.9-0.622,1.374-0.338c1.93,1.167,18.935,11.512,21.544,15.299c1.857,2.695,1.652,24.033,1.593,28.283
					C325.081,228.431,324.634,228.869,324.089,228.869z"/>
			</g>
			<g>
				<path fill="#FFFFFF" d="M105.65,225.222c-0.005,0-0.01,0-0.015,0c-0.552-0.008-0.994-0.462-0.986-1.014
					c0.169-11.981-0.24-25.227-1.215-26.653c-1.967-2.854-15.519-11.413-20.574-14.47c-0.473-0.285-0.624-0.9-0.338-1.373
					c0.286-0.473,0.901-0.622,1.374-0.338c1.898,1.147,18.618,11.319,21.186,15.046c1.828,2.653,1.627,23.637,1.568,27.815
					C106.642,224.783,106.196,225.222,105.65,225.222z"/>
			</g>
			<g>
				<path fill="#FF9800" d="M285.633,166.912c-0.333,0-0.66-0.167-0.849-0.471c-0.292-0.469-0.15-1.085,0.319-1.378
					c2.589-1.615,4.746-3.88,6.412-6.732c3.287-5.625,5.067-12.929,5.085-13.002c0.129-0.537,0.672-0.864,1.206-0.738
					c0.537,0.13,0.868,0.67,0.738,1.207c-0.075,0.31-1.868,7.666-5.303,13.543c-1.831,3.134-4.213,5.631-7.08,7.42
					C285.996,166.863,285.813,166.912,285.633,166.912z"/>
			</g>
			<g>
				<path fill="#FFFFFF" d="M61.548,165.479c-0.485,0-0.911-0.354-0.987-0.848c-0.084-0.545,0.289-1.055,0.833-1.141
					c0.094-0.015,6.773-1.178,11.184-8.726c3.287-5.625,5.067-12.929,5.084-13.002c0.129-0.537,0.672-0.863,1.206-0.738
					c0.537,0.13,0.868,0.67,0.738,1.207c-0.075,0.31-1.868,7.666-5.302,13.543c-4.92,8.422-12.292,9.645-12.603,9.692
					C61.65,165.475,61.598,165.479,61.548,165.479z"/>
			</g>
			<g>
				<g>
					<g>
						<path fill="#FF9800" d="M281.12,223.111c-5.014,0-9.095-4.079-9.095-9.094c0-5.015,4.081-9.095,9.095-9.095
							c4.385,0,8.056,3.121,8.908,7.259h3.897c-0.896-6.267-6.295-11.102-12.805-11.102c-7.135,0-12.939,5.804-12.939,12.938
							c0,7.134,5.804,12.936,12.939,12.936c6.511,0,11.91-4.833,12.805-11.099h-3.897
							C289.176,219.991,285.505,223.111,281.12,223.111"/>
					</g>
				</g>
				<g>
					<path fill="#FF9800" d="M283.25,216.985c-0.114,0.199-0.397,0.362-0.626,0.362h-3.009c-0.23,0-0.512-0.163-0.627-0.362
						l-1.504-2.607c-0.115-0.198-0.115-0.525,0-0.723l1.504-2.607c0.116-0.198,0.397-0.362,0.627-0.362h3.009
						c0.229,0,0.512,0.163,0.626,0.362l0.653,1.132h3.518c-0.796-2.731-3.318-4.733-6.303-4.733c-3.622,0-6.569,2.947-6.569,6.569
						c0,3.622,2.947,6.569,6.569,6.569c2.985,0,5.507-2.002,6.303-4.732h-3.518L283.25,216.985z"/>
				</g>
			</g>
			<g>
				<path fill="#FF9800" d="M264.776,180.762c-0.607,0-1.208-0.275-1.601-0.799c-0.664-0.884-0.485-2.137,0.398-2.801
					c1.253-0.94,2.29-2.08,3.082-3.387c0.84-1.387,1.489-2.971,1.928-4.707c0.271-1.07,1.358-1.716,2.429-1.449
					c1.071,0.271,1.719,1.358,1.449,2.43c-0.536,2.121-1.338,4.073-2.385,5.799c-1.058,1.746-2.438,3.265-4.1,4.514
					C265.615,180.631,265.194,180.762,264.776,180.762z"/>
			</g>
			<g>
				<path fill="#FF9800" d="M298.383,179.666c-0.423,0-0.849-0.134-1.211-0.409c-4.751-3.621-5.708-5.151-6.018-6.17
					c-0.172-0.567-0.42-1.322-0.694-2.136c-0.353-1.047,0.209-2.181,1.256-2.534c1.048-0.353,2.181,0.21,2.534,1.257
					c0.29,0.858,0.55,1.654,0.731,2.25l0,0c0.007,0,0.554,1.057,4.615,4.151c0.878,0.67,1.048,1.925,0.378,2.803
					C299.581,179.395,298.985,179.666,298.383,179.666z"/>
			</g>
			<g>
				<path fill="#FF9800" d="M259.988,242.779v2.664c0,0.467-0.167,0.869-0.501,1.207c-0.334,0.339-0.739,0.508-1.213,0.508h-0.963
					l2.678,3.191v0.198H258.3l-2.849-3.39h-3.245c-0.07,0-0.167-0.009-0.29-0.026v3.416h-1.424v-9.482h7.781
					c0.475,0,0.879,0.169,1.213,0.508C259.821,241.911,259.988,242.313,259.988,242.779z M252.206,245.733h6.067
					c0.079,0,0.147-0.028,0.205-0.085c0.057-0.058,0.085-0.126,0.085-0.205v-2.664c0-0.079-0.028-0.146-0.085-0.204
					c-0.058-0.058-0.125-0.086-0.205-0.086h-6.067c-0.079,0-0.147,0.028-0.205,0.086s-0.085,0.125-0.085,0.204v2.664
					c0,0.079,0.028,0.147,0.085,0.205C252.059,245.705,252.127,245.733,252.206,245.733z"/>
				<path fill="#FF9800" d="M270.117,241.052v1.425h-7.28v2.611h5.856v1.424h-5.856v2.611h7.28v1.425h-8.705v-9.496H270.117z"/>
				<path fill="#FF9800" d="M276.83,245.443l3.68-4.392h1.702v9.496h-1.425v-7.597l-3.957,4.708l-3.957-4.708v7.597h-1.424v-9.496
					h1.688L276.83,245.443z"/>
				<path fill="#FF9800" d="M285.376,241.052h6.067c0.475,0,0.879,0.167,1.213,0.501c0.334,0.335,0.501,0.739,0.501,1.214v6.066
					c0,0.475-0.167,0.88-0.501,1.214s-0.739,0.501-1.213,0.501h-6.067c-0.475,0-0.879-0.167-1.213-0.501
					c-0.334-0.334-0.501-0.739-0.501-1.214v-6.066c0-0.475,0.167-0.879,0.501-1.214
					C284.497,241.219,284.902,241.052,285.376,241.052z M285.376,249.123h6.067c0.079,0,0.147-0.028,0.205-0.085
					c0.057-0.058,0.085-0.126,0.085-0.205v-6.066c0-0.079-0.028-0.147-0.085-0.205c-0.058-0.057-0.125-0.085-0.205-0.085h-6.067
					c-0.079,0-0.147,0.028-0.205,0.085c-0.057,0.058-0.085,0.126-0.085,0.205v6.066c0,0.079,0.028,0.147,0.085,0.205
					C285.229,249.095,285.297,249.123,285.376,249.123z"/>
				<path fill="#FF9800" d="M294.134,241.052h9.496v1.425h-4.036v8.071h-1.424v-8.071h-4.036V241.052z"/>
				<path fill="#FF9800" d="M313.35,241.052v1.425h-7.28v2.611h5.856v1.424h-5.856v2.611h7.28v1.425h-8.705v-9.496H313.35z"/>
				<path fill="#FF9800" d="M230.61,256.639h7.781c0.475,0,0.879,0.167,1.213,0.501c0.334,0.335,0.501,0.739,0.501,1.214v6.066
					c0,0.475-0.167,0.88-0.501,1.214s-0.738,0.501-1.213,0.501h-7.781V256.639z M238.681,264.42v-6.066
					c0-0.079-0.028-0.147-0.085-0.205c-0.058-0.057-0.125-0.085-0.205-0.085h-6.067c-0.079,0-0.147,0.028-0.205,0.085
					c-0.057,0.058-0.085,0.126-0.085,0.205v6.066c0,0.079,0.028,0.147,0.085,0.205c0.057,0.057,0.125,0.085,0.205,0.085h6.067
					c0.079,0,0.147-0.028,0.205-0.085C238.653,264.567,238.681,264.499,238.681,264.42z"/>
				<path fill="#FF9800" d="M250.314,256.639v1.425h-7.28v2.611h5.856v1.424h-5.856v2.611h7.28v1.425h-8.705v-9.496H250.314z"/>
				<path fill="#FF9800" d="M257.607,264.525l4.55-7.887h1.636l-5.474,9.496h-1.424l-5.487-9.496h1.649L257.607,264.525z"/>
				<path fill="#FF9800" d="M273.645,256.639v1.425h-7.28v2.611h5.856v1.424h-5.856v2.611h7.28v1.425h-8.705v-9.496H273.645z"/>
				<path fill="#FF9800" d="M275.03,266.135v-9.509h1.424v8.084h8.072v1.425H275.03z"/>
				<path fill="#FF9800" d="M286.978,256.639h6.067c0.475,0,0.879,0.167,1.213,0.501c0.334,0.335,0.501,0.739,0.501,1.214v6.066
					c0,0.475-0.167,0.88-0.501,1.214s-0.739,0.501-1.213,0.501h-6.067c-0.475,0-0.879-0.167-1.213-0.501
					c-0.334-0.334-0.501-0.739-0.501-1.214v-6.066c0-0.475,0.167-0.879,0.501-1.214
					C286.099,256.806,286.504,256.639,286.978,256.639z M286.978,264.71h6.067c0.079,0,0.147-0.028,0.205-0.085
					c0.057-0.058,0.085-0.126,0.085-0.205v-6.066c0-0.079-0.028-0.147-0.085-0.205c-0.058-0.057-0.125-0.085-0.205-0.085h-6.067
					c-0.079,0-0.147,0.028-0.205,0.085c-0.057,0.058-0.085,0.126-0.085,0.205v6.066c0,0.079,0.028,0.147,0.085,0.205
					C286.831,264.682,286.899,264.71,286.978,264.71z"/>
				<path fill="#FF9800" d="M296.211,256.652h7.781c0.475,0,0.879,0.169,1.213,0.508c0.334,0.338,0.501,0.74,0.501,1.206v2.664
					c0,0.467-0.167,0.869-0.501,1.207c-0.334,0.339-0.739,0.508-1.213,0.508h-6.067c-0.07,0-0.167-0.009-0.29-0.026v3.416h-1.424
					V256.652z M304.282,261.03v-2.664c0-0.079-0.028-0.146-0.085-0.204c-0.058-0.058-0.125-0.086-0.205-0.086h-6.067
					c-0.079,0-0.147,0.028-0.205,0.086s-0.085,0.125-0.085,0.204v2.664c0,0.079,0.028,0.147,0.085,0.205
					c0.057,0.057,0.125,0.085,0.205,0.085h6.067c0.079,0,0.147-0.028,0.205-0.085C304.254,261.178,304.282,261.109,304.282,261.03z"
					/>
				<path fill="#FF9800" d="M315.374,256.639v1.425h-7.28v2.611h5.856v1.424h-5.856v2.611h7.28v1.425h-8.705v-9.496H315.374z"/>
				<path fill="#FF9800" d="M326.228,258.366v2.664c0,0.467-0.167,0.869-0.501,1.207c-0.334,0.339-0.739,0.508-1.213,0.508h-0.963
					l2.678,3.191v0.198h-1.688l-2.849-3.39h-3.245c-0.07,0-0.167-0.009-0.29-0.026v3.416h-1.424v-9.482h7.781
					c0.475,0,0.879,0.169,1.213,0.508C326.061,257.498,326.228,257.9,326.228,258.366z M318.447,261.32h6.067
					c0.079,0,0.147-0.028,0.205-0.085c0.057-0.058,0.085-0.126,0.085-0.205v-2.664c0-0.079-0.028-0.146-0.085-0.204
					c-0.058-0.058-0.125-0.086-0.205-0.086h-6.067c-0.079,0-0.147,0.028-0.205,0.086s-0.085,0.125-0.085,0.204v2.664
					c0,0.079,0.028,0.147,0.085,0.205C318.299,261.292,318.367,261.32,318.447,261.32z"/>
				<path fill="#FF9800" d="M337.056,258.354v0.554h-1.424v-0.554c0-0.079-0.028-0.147-0.085-0.205
					c-0.058-0.057-0.125-0.085-0.205-0.085h-6.067c-0.079,0-0.147,0.028-0.205,0.085c-0.057,0.058-0.085,0.126-0.085,0.205v2.031
					c0,0.079,0.028,0.146,0.085,0.204s0.125,0.086,0.205,0.086h6.067c0.475,0,0.879,0.167,1.213,0.501
					c0.334,0.334,0.501,0.738,0.501,1.213v2.031c0,0.475-0.167,0.88-0.501,1.214c-0.334,0.334-0.739,0.501-1.213,0.501h-6.067
					c-0.475,0-0.879-0.167-1.213-0.501c-0.334-0.334-0.501-0.739-0.501-1.214v-0.554h1.424v0.554c0,0.079,0.028,0.147,0.085,0.205
					c0.057,0.057,0.125,0.085,0.205,0.085h6.067c0.079,0,0.147-0.028,0.205-0.085c0.057-0.058,0.085-0.126,0.085-0.205v-2.031
					c0-0.079-0.028-0.146-0.085-0.204c-0.058-0.057-0.125-0.086-0.205-0.086h-6.067c-0.475,0-0.879-0.167-1.213-0.501
					c-0.334-0.334-0.501-0.738-0.501-1.213v-2.031c0-0.475,0.167-0.879,0.501-1.214c0.334-0.334,0.739-0.501,1.213-0.501h6.067
					c0.475,0,0.879,0.167,1.213,0.501C336.889,257.475,337.056,257.879,337.056,258.354z"/>
			</g>
			<g>
				<path fill="#FFFFFF" d="M25.077,251.746v-9.496h1.424v9.496H25.077z"/>
				<path fill="#FFFFFF" d="M36.036,249.847v-7.597h1.425v9.496h-1.688l-6.383-7.597v7.597h-1.424v-9.496h1.688L36.036,249.847z"/>
				<path fill="#FFFFFF" d="M44.253,247.13v1.425h-5.275v-1.425H44.253z"/>
				<path fill="#FFFFFF" d="M54.066,242.25h1.424v9.496h-1.424v-4.036h-6.872v4.036H45.77v-9.496h1.424v4.036h6.872V242.25z"/>
				<path fill="#FFFFFF" d="M58.669,242.25h6.067c0.475,0,0.879,0.167,1.213,0.501c0.334,0.335,0.501,0.739,0.501,1.214v6.066
					c0,0.475-0.167,0.88-0.501,1.214s-0.739,0.501-1.213,0.501h-6.067c-0.475,0-0.879-0.167-1.213-0.501
					c-0.334-0.334-0.501-0.739-0.501-1.214v-6.066c0-0.475,0.167-0.879,0.501-1.214C57.789,242.417,58.194,242.25,58.669,242.25z
					 M58.669,250.321h6.067c0.079,0,0.147-0.028,0.205-0.085c0.057-0.058,0.085-0.126,0.085-0.205v-6.066
					c0-0.079-0.028-0.147-0.085-0.205c-0.058-0.057-0.125-0.085-0.205-0.085h-6.067c-0.079,0-0.147,0.028-0.205,0.085
					c-0.057,0.058-0.085,0.126-0.085,0.205v6.066c0,0.079,0.028,0.147,0.085,0.205C58.521,250.293,58.59,250.321,58.669,250.321z"/>
				<path fill="#FFFFFF" d="M75.946,250.031v-7.781h1.424v7.781c0,0.475-0.167,0.88-0.501,1.214s-0.739,0.501-1.213,0.501h-6.067
					c-0.475,0-0.879-0.167-1.213-0.501c-0.334-0.334-0.501-0.739-0.501-1.214v-7.781h1.424v7.781c0,0.079,0.028,0.147,0.085,0.205
					c0.057,0.057,0.125,0.085,0.205,0.085h6.067c0.079,0,0.147-0.028,0.205-0.085C75.918,250.179,75.946,250.11,75.946,250.031z"/>
				<path fill="#FFFFFF" d="M88.251,243.965v0.554h-1.424v-0.554c0-0.079-0.028-0.147-0.085-0.205
					c-0.058-0.057-0.125-0.085-0.205-0.085H80.47c-0.079,0-0.147,0.028-0.205,0.085c-0.057,0.058-0.085,0.126-0.085,0.205v2.031
					c0,0.079,0.028,0.146,0.085,0.204s0.125,0.086,0.205,0.086h6.067c0.475,0,0.879,0.167,1.213,0.501
					c0.334,0.334,0.501,0.738,0.501,1.213v2.031c0,0.475-0.167,0.88-0.501,1.214c-0.334,0.334-0.739,0.501-1.213,0.501H80.47
					c-0.475,0-0.879-0.167-1.213-0.501c-0.334-0.334-0.501-0.739-0.501-1.214v-0.554h1.424v0.554c0,0.079,0.028,0.147,0.085,0.205
					c0.057,0.057,0.125,0.085,0.205,0.085h6.067c0.079,0,0.147-0.028,0.205-0.085c0.057-0.058,0.085-0.126,0.085-0.205V248
					c0-0.079-0.028-0.146-0.085-0.204c-0.058-0.057-0.125-0.086-0.205-0.086H80.47c-0.475,0-0.879-0.167-1.213-0.501
					c-0.334-0.334-0.501-0.738-0.501-1.213v-2.031c0-0.475,0.167-0.879,0.501-1.214c0.334-0.334,0.739-0.501,1.213-0.501h6.067
					c0.475,0,0.879,0.167,1.213,0.501C88.084,243.086,88.251,243.49,88.251,243.965z"/>
				<path fill="#FFFFFF" d="M98.394,242.25v1.425h-7.28v2.611h5.856v1.424h-5.856v2.611h7.28v1.425h-8.705v-9.496H98.394z"/>
				<path fill="#FFFFFF" d="M8.498,257.837h7.781c0.475,0,0.879,0.167,1.213,0.501c0.334,0.335,0.501,0.739,0.501,1.214v6.066
					c0,0.475-0.167,0.88-0.501,1.214s-0.738,0.501-1.213,0.501H8.498V257.837z M16.57,265.618v-6.066
					c0-0.079-0.028-0.147-0.085-0.205c-0.058-0.057-0.125-0.085-0.205-0.085h-6.067c-0.079,0-0.147,0.028-0.205,0.085
					c-0.057,0.058-0.085,0.126-0.085,0.205v6.066c0,0.079,0.028,0.147,0.085,0.205c0.057,0.057,0.125,0.085,0.205,0.085h6.067
					c0.079,0,0.147-0.028,0.205-0.085C16.541,265.766,16.57,265.697,16.57,265.618z"/>
				<path fill="#FFFFFF" d="M28.202,257.837v1.425h-7.28v2.611h5.856v1.424h-5.856v2.611h7.28v1.425h-8.705v-9.496H28.202z"/>
				<path fill="#FFFFFF" d="M35.496,265.724l4.55-7.887h1.636l-5.474,9.496h-1.424l-5.487-9.496h1.649L35.496,265.724z"/>
				<path fill="#FFFFFF" d="M51.533,257.837v1.425h-7.28v2.611h5.856v1.424h-5.856v2.611h7.28v1.425h-8.705v-9.496H51.533z"/>
				<path fill="#FFFFFF" d="M52.918,267.333v-9.509h1.424v8.084h8.072v1.425H52.918z"/>
				<path fill="#FFFFFF" d="M64.867,257.837h6.067c0.475,0,0.879,0.167,1.213,0.501c0.334,0.335,0.501,0.739,0.501,1.214v6.066
					c0,0.475-0.167,0.88-0.501,1.214s-0.739,0.501-1.213,0.501h-6.067c-0.475,0-0.879-0.167-1.213-0.501
					c-0.334-0.334-0.501-0.739-0.501-1.214v-6.066c0-0.475,0.167-0.879,0.501-1.214C63.988,258.004,64.392,257.837,64.867,257.837z
					 M64.867,265.908h6.067c0.079,0,0.147-0.028,0.205-0.085c0.057-0.058,0.085-0.126,0.085-0.205v-6.066
					c0-0.079-0.028-0.147-0.085-0.205c-0.058-0.057-0.125-0.085-0.205-0.085h-6.067c-0.079,0-0.147,0.028-0.205,0.085
					c-0.057,0.058-0.085,0.126-0.085,0.205v6.066c0,0.079,0.028,0.147,0.085,0.205C64.719,265.88,64.788,265.908,64.867,265.908z"/>
				<path fill="#FFFFFF" d="M74.099,257.851h7.781c0.475,0,0.879,0.169,1.213,0.508c0.334,0.338,0.501,0.74,0.501,1.206v2.664
					c0,0.467-0.167,0.869-0.501,1.207c-0.334,0.339-0.739,0.508-1.213,0.508h-6.067c-0.07,0-0.167-0.009-0.29-0.026v3.416h-1.424
					V257.851z M82.171,262.229v-2.664c0-0.079-0.028-0.146-0.085-0.204c-0.058-0.058-0.125-0.086-0.205-0.086h-6.067
					c-0.079,0-0.147,0.028-0.205,0.086s-0.085,0.125-0.085,0.204v2.664c0,0.079,0.028,0.147,0.085,0.205
					c0.057,0.057,0.125,0.085,0.205,0.085h6.067c0.079,0,0.147-0.028,0.205-0.085C82.142,262.376,82.171,262.308,82.171,262.229z"/>
				<path fill="#FFFFFF" d="M93.262,257.837v1.425h-7.28v2.611h5.856v1.424h-5.856v2.611h7.28v1.425h-8.705v-9.496H93.262z"/>
				<path fill="#FFFFFF" d="M104.117,259.564v2.664c0,0.467-0.167,0.869-0.501,1.207c-0.334,0.339-0.739,0.508-1.213,0.508h-0.963
					l2.678,3.191v0.198h-1.688l-2.849-3.39h-3.245c-0.07,0-0.167-0.009-0.29-0.026v3.416h-1.424v-9.482h7.781
					c0.475,0,0.879,0.169,1.213,0.508C103.949,258.696,104.117,259.099,104.117,259.564z M96.335,262.519h6.067
					c0.079,0,0.147-0.028,0.205-0.085c0.057-0.058,0.085-0.126,0.085-0.205v-2.664c0-0.079-0.028-0.146-0.085-0.204
					c-0.058-0.058-0.125-0.086-0.205-0.086h-6.067c-0.079,0-0.147,0.028-0.205,0.086s-0.085,0.125-0.085,0.204v2.664
					c0,0.079,0.028,0.147,0.085,0.205C96.188,262.49,96.256,262.519,96.335,262.519z"/>
				<path fill="#FFFFFF" d="M114.945,259.552v0.554h-1.424v-0.554c0-0.079-0.028-0.147-0.085-0.205
					c-0.058-0.057-0.125-0.085-0.205-0.085h-6.067c-0.079,0-0.147,0.028-0.205,0.085c-0.057,0.058-0.085,0.126-0.085,0.205v2.031
					c0,0.079,0.028,0.146,0.085,0.204s0.125,0.086,0.205,0.086h6.067c0.475,0,0.879,0.167,1.213,0.501
					c0.334,0.334,0.501,0.738,0.501,1.213v2.031c0,0.475-0.167,0.88-0.501,1.214c-0.334,0.334-0.739,0.501-1.213,0.501h-6.067
					c-0.475,0-0.879-0.167-1.213-0.501c-0.334-0.334-0.501-0.739-0.501-1.214v-0.554h1.424v0.554c0,0.079,0.028,0.147,0.085,0.205
					c0.057,0.057,0.125,0.085,0.205,0.085h6.067c0.079,0,0.147-0.028,0.205-0.085c0.057-0.058,0.085-0.126,0.085-0.205v-2.031
					c0-0.079-0.028-0.146-0.085-0.204c-0.058-0.057-0.125-0.086-0.205-0.086h-6.067c-0.475,0-0.879-0.167-1.213-0.501
					c-0.334-0.334-0.501-0.738-0.501-1.213v-2.031c0-0.475,0.167-0.879,0.501-1.214c0.334-0.334,0.739-0.501,1.213-0.501h6.067
					c0.475,0,0.879,0.167,1.213,0.501C114.778,258.673,114.945,259.077,114.945,259.552z"/>
			</g>
			<g>
				<g>
					<path fill="#FF9800" d="M324.982,109.536c-2.553,0-4.63-1.897-4.63-4.229h4c0-0.012-0.003-0.023-0.004-0.026
						c0.023,0.057,0.233,0.256,0.634,0.256c0.401,0,0.611-0.199,0.635-0.256l3.996,0.026
						C329.612,107.639,327.535,109.536,324.982,109.536z"/>
				</g>
				<g>
					<path fill="#FF9800" d="M328.986,97.595c-1.104,0-2-0.896-2-2v-2.86c0-0.74,0.409-1.42,1.063-1.767
						c2.566-1.361,4.161-4.007,4.161-6.903c0-4.307-3.504-7.811-7.811-7.811s-7.811,3.504-7.811,7.811
						c0,2.941,1.633,5.605,4.262,6.951c0.668,0.342,1.089,1.029,1.089,1.78v2.799c0,1.104-0.896,2-2,2s-2-0.896-2-2v-1.649
						c-3.329-2.17-5.351-5.853-5.351-9.881c0-6.513,5.298-11.811,11.811-11.811s11.811,5.298,11.811,11.811
						c0,3.966-1.974,7.618-5.224,9.801v1.729C330.986,96.699,330.09,97.595,328.986,97.595z"/>
				</g>
				<g>
					<path fill="#FF9800" d="M328.42,101.644h-7.677c-1.906,0-3.457-1.363-3.457-3.038c0-1.676,1.551-3.039,3.457-3.039h7.677
						c1.906,0,3.457,1.363,3.457,3.039C331.877,100.28,330.326,101.644,328.42,101.644z M320.743,97.566
						c-0.79,0-1.457,0.476-1.457,1.039c0,0.563,0.667,1.038,1.457,1.038h7.677c0.79,0,1.457-0.476,1.457-1.038
						c0-0.563-0.667-1.039-1.457-1.039H320.743z"/>
				</g>
				<g>
					<path fill="#FF9800" d="M328.42,105.609h-7.677c-1.906,0-3.457-1.363-3.457-3.038c0-1.676,1.551-3.039,3.457-3.039h7.677
						c1.906,0,3.457,1.363,3.457,3.039C331.877,104.246,330.326,105.609,328.42,105.609z M320.743,101.532
						c-0.79,0-1.457,0.476-1.457,1.039c0,0.563,0.667,1.038,1.457,1.038h7.677c0.79,0,1.457-0.476,1.457-1.038
						c0-0.563-0.667-1.039-1.457-1.039H320.743z"/>
				</g>
				<g>
					<path fill="#FF9800" d="M313.227,75.987c-0.29,0-0.577-0.125-0.775-0.367l-3.211-3.93c-0.35-0.428-0.286-1.058,0.142-1.407
						c0.428-0.348,1.058-0.287,1.407,0.142l3.211,3.93c0.35,0.428,0.286,1.058-0.142,1.407
						C313.674,75.913,313.45,75.987,313.227,75.987z"/>
				</g>
				<g>
					<path fill="#FF9800" d="M335.78,75.997c-0.223,0-0.446-0.074-0.632-0.226c-0.428-0.35-0.491-0.979-0.142-1.407l3.21-3.93
						c0.35-0.428,0.979-0.49,1.407-0.142c0.428,0.35,0.491,0.979,0.142,1.407l-3.21,3.93
						C336.358,75.872,336.07,75.997,335.78,75.997z"/>
				</g>
				<g>
					<path fill="#FF9800" d="M310.015,97.402c-0.223,0-0.446-0.074-0.632-0.226c-0.428-0.35-0.491-0.979-0.142-1.407l3.211-3.93
						c0.35-0.429,0.98-0.489,1.407-0.142c0.428,0.35,0.491,0.979,0.142,1.407l-3.211,3.93
						C310.592,97.277,310.305,97.402,310.015,97.402z"/>
				</g>
				<g>
					<path fill="#FF9800" d="M338.992,97.393c-0.29,0-0.577-0.125-0.775-0.367l-3.21-3.93c-0.35-0.428-0.286-1.058,0.142-1.407
						c0.428-0.349,1.057-0.287,1.407,0.142l3.21,3.93c0.35,0.428,0.286,1.058-0.142,1.407
						C339.438,97.318,339.215,97.393,338.992,97.393z"/>
				</g>
				<g>
					<path fill="#FF9800" d="M324.768,71.055c-0.552,0-1-0.447-1-1v-5.032c0-0.553,0.448-1,1-1s1,0.447,1,1v5.032
						C325.768,70.607,325.321,71.055,324.768,71.055z"/>
				</g>
				<g>
					<path fill="#FF9800" d="M343.255,84.108h-5.032c-0.552,0-1-0.447-1-1s0.448-1,1-1h5.032c0.552,0,1,0.447,1,1
						S343.807,84.108,343.255,84.108z"/>
				</g>
				<g>
					<path fill="#FF9800" d="M311.338,84.108h-5.031c-0.552,0-1-0.447-1-1s0.448-1,1-1h5.031c0.552,0,1,0.447,1,1
						S311.89,84.108,311.338,84.108z"/>
				</g>
			</g>
		</g>
		<g>
			<g>
				<path fill="#FF9800" d="M193.825,161.271h-35.34c-1.104,0-2-0.896-2-2s0.896-2,2-2h35.34c1.104,0,2,0.896,2,2
					S194.93,161.271,193.825,161.271z"/>
			</g>
			<g>
				<path fill="#FF9800" d="M193.825,171.865h-35.34c-1.104,0-2-0.896-2-2s0.896-2,2-2h35.34c1.104,0,2,0.896,2,2
					S194.93,171.865,193.825,171.865z"/>
			</g>
		</g>
		<g>
			<path fill="#FFFFFF" d="M9.792,108.084c-2.837,0-5.145-2.309-5.145-5.146s2.308-5.145,5.145-5.145s5.145,2.308,5.145,5.145
				S12.629,108.084,9.792,108.084z M9.792,99.794c-1.734,0-3.145,1.41-3.145,3.145s1.411,3.146,3.145,3.146
				c1.734,0,3.145-1.411,3.145-3.146S11.526,99.794,9.792,99.794z"/>
		</g>
		<g>
			<g>
				<path fill="#FF9800" d="M235.601,122.808c-0.366,0-0.703-0.2-0.878-0.521l-7.914-14.504c-0.019-0.034-0.036-0.07-0.051-0.107
					l-0.469-1.174c-0.009-0.022-0.017-0.046-0.024-0.069c-0.303-0.955-0.456-1.951-0.456-2.961c0-5.399,4.393-9.792,9.792-9.792
					s9.792,4.393,9.792,9.792c0,1.321-0.259,2.604-0.77,3.812c-0.014,0.033-0.029,0.064-0.047,0.096l-0.898,1.616l-7.198,13.29
					c-0.175,0.322-0.511,0.522-0.878,0.523C235.602,122.808,235.601,122.808,235.601,122.808z M228.593,106.877l7.004,12.837
					l7.204-13.259c0.393-0.946,0.592-1.95,0.592-2.984c0-4.297-3.496-7.792-7.792-7.792s-7.792,3.495-7.792,7.792
					c0,0.793,0.118,1.574,0.352,2.323L228.593,106.877z"/>
			</g>
			<g>
				<path fill="#FF9800" d="M235.601,108.085c-2.837,0-5.145-2.308-5.145-5.145s2.308-5.146,5.145-5.146s5.145,2.309,5.145,5.146
					S238.438,108.085,235.601,108.085z M235.601,99.795c-1.734,0-3.145,1.411-3.145,3.146s1.411,3.145,3.145,3.145
					c1.734,0,3.145-1.41,3.145-3.145S237.335,99.795,235.601,99.795z"/>
			</g>
		</g>
		<g>
			<path fill="#FFFFFF" d="M114.544,9.025c0.288,0,0.534,0.103,0.739,0.307c0.205,0.205,0.307,0.451,0.307,0.739v2.922
				c0,0.288-0.103,0.535-0.307,0.739c-0.205,0.205-0.451,0.307-0.739,0.307h-3.354v1.988h-0.709V9.025H114.544z M114.881,12.994
				v-2.922c0-0.092-0.033-0.171-0.099-0.238c-0.066-0.066-0.146-0.099-0.238-0.099h-3.009c-0.092,0-0.173,0.033-0.242,0.099
				c-0.069,0.066-0.104,0.146-0.104,0.238v2.922c0,0.092,0.035,0.171,0.104,0.238c0.069,0.066,0.15,0.099,0.242,0.099h3.009
				c0.092,0,0.171-0.033,0.238-0.099C114.848,13.165,114.881,13.086,114.881,12.994z"/>
			<path fill="#FFFFFF" d="M120.259,9.025c0.294,0,0.543,0.103,0.748,0.307c0.205,0.205,0.307,0.451,0.307,0.739v3.968h-4.063
				c-0.288,0-0.535-0.102-0.739-0.307c-0.205-0.204-0.307-0.451-0.307-0.739v-1.815h4.392v-1.107c0-0.092-0.033-0.171-0.1-0.238
				c-0.066-0.066-0.146-0.099-0.237-0.099h-4.055V9.025H120.259z M120.595,13.331v-1.444h-3.683v1.107
				c0,0.092,0.033,0.171,0.099,0.238c0.066,0.066,0.146,0.099,0.238,0.099H120.595z"/>
			<path fill="#FFFFFF" d="M123.206,9.025h2.818v0.709h-2.818c-0.092,0-0.171,0.033-0.238,0.099
				c-0.066,0.066-0.099,0.146-0.099,0.238v3.968h-0.709v-3.968c0-0.288,0.102-0.534,0.307-0.739
				C122.672,9.128,122.918,9.025,123.206,9.025z"/>
			<path fill="#FFFFFF" d="M129.474,9.734h-2.17v3.259c0,0.092,0.033,0.171,0.1,0.238c0.066,0.066,0.146,0.099,0.238,0.099h1.833
				v0.709h-1.833c-0.294,0-0.542-0.102-0.744-0.307c-0.202-0.204-0.303-0.451-0.303-0.739V7.383h0.709v1.643h2.17V9.734z"/>
			<path fill="#FFFFFF" d="M135.206,10.071v0.069h-0.718v-0.069c0-0.092-0.033-0.171-0.099-0.238
				c-0.066-0.066-0.146-0.099-0.238-0.099h-3.009c-0.092,0-0.171,0.033-0.238,0.099c-0.066,0.066-0.099,0.146-0.099,0.238v0.77
				c0,0.092,0.033,0.171,0.099,0.238s0.146,0.1,0.238,0.1h3.009c0.294,0,0.543,0.102,0.748,0.307s0.307,0.451,0.307,0.739v0.77
				c0,0.288-0.103,0.535-0.307,0.739c-0.205,0.205-0.454,0.307-0.748,0.307h-3.009c-0.288,0-0.535-0.102-0.739-0.307
				c-0.205-0.204-0.307-0.451-0.307-0.739v-0.069h0.709v0.069c0,0.092,0.033,0.171,0.099,0.238c0.066,0.066,0.146,0.099,0.238,0.099
				h3.009c0.092,0,0.171-0.033,0.238-0.099c0.066-0.066,0.099-0.146,0.099-0.238v-0.77c0-0.092-0.033-0.171-0.099-0.238
				c-0.066-0.066-0.146-0.1-0.238-0.1h-3.009c-0.288,0-0.535-0.102-0.739-0.307s-0.307-0.451-0.307-0.739v-0.77
				c0-0.288,0.102-0.534,0.307-0.739c0.205-0.204,0.451-0.307,0.739-0.307h3.009c0.294,0,0.543,0.103,0.748,0.307
				C135.103,9.537,135.206,9.783,135.206,10.071z"/>
			<path fill="#F7971D" d="M139.139,8.956v0.709h-0.709V8.956H139.139z M138.43,13.331h0.709v0.709h-0.709V13.331z"/>
			<path fill="#F7971D" d="M144.793,10.296v0.708h-4.469v-0.708H144.793z M144.793,12.025v0.708h-4.469v-0.708H144.793z"/>
			<path fill="#FFFFFF" d="M153.205,10.071v0.069h-0.718v-0.069c0-0.092-0.033-0.171-0.099-0.238
				c-0.066-0.066-0.146-0.099-0.238-0.099h-3.009c-0.092,0-0.171,0.033-0.238,0.099c-0.066,0.066-0.099,0.146-0.099,0.238v0.77
				c0,0.092,0.033,0.171,0.099,0.238s0.146,0.1,0.238,0.1h3.009c0.294,0,0.543,0.102,0.748,0.307s0.307,0.451,0.307,0.739v0.77
				c0,0.288-0.103,0.535-0.307,0.739c-0.205,0.205-0.454,0.307-0.748,0.307h-3.009c-0.288,0-0.535-0.102-0.739-0.307
				c-0.205-0.204-0.307-0.451-0.307-0.739v-0.069h0.709v0.069c0,0.092,0.033,0.171,0.099,0.238c0.066,0.066,0.146,0.099,0.238,0.099
				h3.009c0.092,0,0.171-0.033,0.238-0.099c0.066-0.066,0.099-0.146,0.099-0.238v-0.77c0-0.092-0.033-0.171-0.099-0.238
				c-0.066-0.066-0.146-0.1-0.238-0.1h-3.009c-0.288,0-0.535-0.102-0.739-0.307s-0.307-0.451-0.307-0.739v-0.77
				c0-0.288,0.102-0.534,0.307-0.739c0.205-0.204,0.451-0.307,0.739-0.307h3.009c0.294,0,0.543,0.103,0.748,0.307
				C153.102,9.537,153.205,9.783,153.205,10.071z"/>
			<path fill="#FFFFFF" d="M156.947,9.734h-2.17v3.259c0,0.092,0.033,0.171,0.1,0.238c0.066,0.066,0.146,0.099,0.238,0.099h1.833
				v0.709h-1.833c-0.294,0-0.542-0.102-0.744-0.307c-0.202-0.204-0.303-0.451-0.303-0.739V7.383h0.709v1.643h2.17V9.734z"/>
			<path fill="#FFFFFF" d="M158.651,9.025h2.818v0.709h-2.818c-0.092,0-0.171,0.033-0.238,0.099
				c-0.066,0.066-0.099,0.146-0.099,0.238v3.968h-0.709v-3.968c0-0.288,0.102-0.534,0.307-0.739
				C158.116,9.128,158.363,9.025,158.651,9.025z"/>
			<path fill="#FFFFFF" d="M166.112,9.025c0.288,0,0.534,0.103,0.739,0.307c0.205,0.205,0.307,0.451,0.307,0.739v3.968h-0.709
				v-3.968c0-0.092-0.033-0.171-0.099-0.238c-0.066-0.066-0.146-0.099-0.238-0.099h-3.009c-0.092,0-0.173,0.033-0.242,0.099
				c-0.069,0.066-0.104,0.146-0.104,0.238v3.968h-0.709V9.025H166.112z"/>
			<path fill="#FFFFFF" d="M173.053,14.964c0,0.294-0.101,0.543-0.303,0.748s-0.449,0.307-0.743,0.307h-3.13v-0.718h3.13
				c0.092,0,0.171-0.033,0.238-0.1c0.066-0.066,0.099-0.146,0.099-0.238V14.04h-3.346c-0.288,0-0.535-0.102-0.739-0.307
				c-0.205-0.204-0.307-0.451-0.307-0.739v-2.922c0-0.288,0.102-0.534,0.307-0.739c0.205-0.204,0.451-0.307,0.739-0.307h3.009
				c0.294,0,0.542,0.103,0.743,0.307c0.202,0.205,0.303,0.451,0.303,0.739V14.964z M168.999,13.331h3.009
				c0.092,0,0.171-0.033,0.238-0.099c0.066-0.066,0.099-0.146,0.099-0.238v-2.922c0-0.092-0.033-0.171-0.099-0.238
				c-0.066-0.066-0.146-0.099-0.238-0.099h-3.009c-0.092,0-0.171,0.033-0.238,0.099c-0.066,0.066-0.099,0.146-0.099,0.238v2.922
				c0,0.092,0.033,0.171,0.099,0.238C168.827,13.297,168.906,13.331,168.999,13.331z"/>
			<path fill="#FFFFFF" d="M178.846,10.071v0.069h-0.718v-0.069c0-0.092-0.033-0.171-0.099-0.238
				c-0.066-0.066-0.146-0.099-0.238-0.099h-3.009c-0.092,0-0.171,0.033-0.238,0.099c-0.066,0.066-0.099,0.146-0.099,0.238v0.77
				c0,0.092,0.033,0.171,0.099,0.238s0.146,0.1,0.238,0.1h3.009c0.294,0,0.543,0.102,0.748,0.307s0.307,0.451,0.307,0.739v0.77
				c0,0.288-0.103,0.535-0.307,0.739c-0.205,0.205-0.454,0.307-0.748,0.307h-3.009c-0.288,0-0.535-0.102-0.739-0.307
				c-0.205-0.204-0.307-0.451-0.307-0.739v-0.069h0.709v0.069c0,0.092,0.033,0.171,0.099,0.238c0.066,0.066,0.146,0.099,0.238,0.099
				h3.009c0.092,0,0.171-0.033,0.238-0.099c0.066-0.066,0.099-0.146,0.099-0.238v-0.77c0-0.092-0.033-0.171-0.099-0.238
				c-0.066-0.066-0.146-0.1-0.238-0.1h-3.009c-0.288,0-0.535-0.102-0.739-0.307s-0.307-0.451-0.307-0.739v-0.77
				c0-0.288,0.102-0.534,0.307-0.739c0.205-0.204,0.451-0.307,0.739-0.307h3.009c0.294,0,0.543,0.103,0.748,0.307
				C178.743,9.537,178.846,9.783,178.846,10.071z"/>
			<path fill="#FFFFFF" d="M180.428,13.331v0.709h-0.709v-0.709H180.428z"/>
			<path fill="#F7971D" d="M190.119,8.853v0.242h-0.7V8.853c0-0.092-0.033-0.171-0.1-0.238s-0.146-0.1-0.238-0.1h-4.149
				c-0.092,0-0.172,0.033-0.238,0.1c-0.066,0.066-0.1,0.146-0.1,0.238v1.392c0,0.092,0.033,0.17,0.1,0.233
				c0.066,0.063,0.146,0.095,0.238,0.095h4.149c0.288,0,0.533,0.101,0.735,0.303s0.303,0.447,0.303,0.735v1.392
				c0,0.289-0.101,0.533-0.303,0.735c-0.202,0.202-0.447,0.303-0.735,0.303h-4.149c-0.289,0-0.533-0.101-0.735-0.303
				c-0.202-0.202-0.303-0.446-0.303-0.735V12.76h0.7v0.242c0,0.092,0.033,0.172,0.1,0.238c0.066,0.066,0.146,0.1,0.238,0.1h4.149
				c0.092,0,0.171-0.033,0.238-0.1c0.066-0.066,0.1-0.146,0.1-0.238V11.61c0-0.092-0.033-0.17-0.1-0.233s-0.146-0.095-0.238-0.095
				h-4.149c-0.289,0-0.533-0.101-0.735-0.303c-0.202-0.202-0.303-0.446-0.303-0.735V8.853c0-0.288,0.101-0.533,0.303-0.735
				c0.202-0.202,0.446-0.303,0.735-0.303h4.149c0.288,0,0.533,0.101,0.735,0.303C190.018,8.319,190.119,8.564,190.119,8.853z"/>
			<path fill="#F7971D" d="M195.09,9.025c0.288,0,0.534,0.103,0.739,0.307c0.205,0.205,0.307,0.451,0.307,0.739v2.922
				c0,0.288-0.103,0.535-0.307,0.739c-0.205,0.205-0.451,0.307-0.739,0.307h-3.354v1.988h-0.709V9.025H195.09z M195.427,12.994
				v-2.922c0-0.092-0.033-0.171-0.099-0.238c-0.066-0.066-0.146-0.099-0.238-0.099h-3.009c-0.092,0-0.173,0.033-0.242,0.099
				c-0.069,0.066-0.104,0.146-0.104,0.238v2.922c0,0.092,0.035,0.171,0.104,0.238c0.069,0.066,0.15,0.099,0.242,0.099h3.009
				c0.092,0,0.171-0.033,0.238-0.099C195.394,13.165,195.427,13.086,195.427,12.994z"/>
			<path fill="#F7971D" d="M196.75,7.383h0.709v5.611c0,0.092,0.033,0.171,0.099,0.238c0.066,0.066,0.146,0.099,0.238,0.099h0.847
				v0.709h-0.847c-0.288,0-0.535-0.102-0.739-0.307c-0.205-0.204-0.307-0.451-0.307-0.739V7.383z"/>
			<path fill="#F7971D" d="M199.361,7.383h0.709v0.709h-0.709V7.383z M199.361,14.04V9.025h0.709v5.014H199.361z"/>
			<path fill="#F7971D" d="M204.046,9.734h-2.17v3.259c0,0.092,0.033,0.171,0.1,0.238c0.066,0.066,0.146,0.099,0.238,0.099h1.833
				v0.709h-1.833c-0.294,0-0.542-0.102-0.744-0.307c-0.202-0.204-0.303-0.451-0.303-0.739V7.383h0.709v1.643h2.17V9.734z"/>
			<path fill="#FFFFFF" d="M205.749,13.331H206v0.709h-0.25c-0.288,0-0.535-0.102-0.739-0.307c-0.205-0.204-0.307-0.451-0.307-0.739
				V8.87c0-0.294,0.102-0.543,0.307-0.748c0.205-0.205,0.451-0.307,0.739-0.307H206v0.718h-0.25c-0.092,0-0.171,0.033-0.238,0.099
				c-0.066,0.066-0.099,0.146-0.099,0.238v4.124c0,0.092,0.033,0.171,0.099,0.238C205.578,13.297,205.657,13.331,205.749,13.331z"/>
			<path fill="#FFFFFF" d="M211.178,9.025h0.934l-2.274,2.507l2.265,2.507h-0.925l-1.971-2.153h-1.383v2.153h-0.709V7.383h0.709
				v3.795h1.383L211.178,9.025z"/>
			<path fill="#FFFFFF" d="M216.685,9.025c0.294,0,0.543,0.103,0.748,0.307c0.205,0.205,0.307,0.451,0.307,0.739v1.815h-4.4v1.107
				c0,0.092,0.033,0.171,0.099,0.238c0.066,0.066,0.146,0.099,0.238,0.099h4.063v0.709h-4.063c-0.288,0-0.535-0.102-0.739-0.307
				c-0.205-0.204-0.307-0.451-0.307-0.739v-2.922c0-0.288,0.102-0.534,0.307-0.739c0.204-0.204,0.451-0.307,0.739-0.307H216.685z
				 M213.34,11.178h3.683v-1.107c0-0.092-0.033-0.171-0.099-0.238c-0.066-0.066-0.146-0.099-0.238-0.099h-3.009
				c-0.092,0-0.171,0.033-0.238,0.099c-0.066,0.066-0.099,0.146-0.099,0.238V11.178z"/>
			<path fill="#FFFFFF" d="M223.636,14.973c0,0.294-0.101,0.543-0.303,0.748s-0.45,0.307-0.744,0.307h-3.129v-0.717h3.129
				c0.092,0,0.172-0.033,0.238-0.1c0.066-0.066,0.1-0.146,0.1-0.238V14.04h-3.346c-0.288,0-0.535-0.102-0.739-0.307
				c-0.205-0.204-0.307-0.451-0.307-0.739V9.042h0.708v3.951c0,0.092,0.033,0.171,0.1,0.238c0.066,0.066,0.146,0.099,0.238,0.099
				h3.008c0.092,0,0.172-0.033,0.238-0.099c0.066-0.066,0.1-0.146,0.1-0.238V9.042h0.709V14.973z"/>
			<path fill="#FFFFFF" d="M224.561,13.331h0.709v0.847c0,0.23-0.066,0.437-0.199,0.618c-0.133,0.182-0.303,0.307-0.51,0.376V13.331
				z"/>
			<path fill="#FFFFFF" d="M229.238,9.7h-0.718V8.853c0-0.23,0.066-0.438,0.199-0.623c0.133-0.185,0.306-0.308,0.519-0.372V9.7z
				 M230.794,9.7h-0.709V8.853c0-0.23,0.065-0.438,0.194-0.623c0.13-0.185,0.301-0.308,0.515-0.372V9.7z"/>
			<path fill="#FFFFFF" d="M231.304,13.123l4.375-5.308v0.899l-4.375,5.326V13.123z"/>
			<path fill="#FFFFFF" d="M236.223,7.806h0.718v0.848c0,0.23-0.066,0.438-0.199,0.622c-0.132,0.185-0.305,0.309-0.519,0.372V7.806z
				 M237.788,7.806h0.709v0.848c0,0.23-0.066,0.438-0.199,0.622c-0.132,0.185-0.302,0.309-0.51,0.372V7.806z"/>
			<path fill="#FFFFFF" d="M239.379,14.04v-0.709h0.242c0.092,0,0.171-0.033,0.238-0.099c0.066-0.066,0.1-0.146,0.1-0.238V8.87
				c0-0.092-0.033-0.171-0.1-0.238c-0.066-0.066-0.146-0.099-0.238-0.099h-0.242V7.815h0.242c0.288,0,0.536,0.103,0.744,0.307
				c0.208,0.205,0.311,0.454,0.311,0.748v4.124c0,0.288-0.104,0.535-0.311,0.739c-0.208,0.205-0.456,0.307-0.744,0.307H239.379z"/>
			<path fill="#FFFFFF" d="M115.469,24.186c0,0.294-0.101,0.543-0.303,0.748s-0.449,0.307-0.743,0.307h-3.13v-0.718h3.13
				c0.092,0,0.171-0.033,0.238-0.1c0.066-0.066,0.099-0.146,0.099-0.238v-0.925h-3.346c-0.288,0-0.535-0.102-0.739-0.307
				c-0.205-0.204-0.307-0.451-0.307-0.739v-2.922c0-0.288,0.102-0.534,0.307-0.739c0.205-0.204,0.451-0.307,0.739-0.307h3.009
				c0.294,0,0.542,0.103,0.743,0.307c0.202,0.205,0.303,0.451,0.303,0.739V24.186z M111.414,22.552h3.009
				c0.092,0,0.171-0.033,0.238-0.099c0.066-0.066,0.099-0.146,0.099-0.238v-2.922c0-0.092-0.033-0.171-0.099-0.238
				c-0.066-0.066-0.146-0.099-0.238-0.099h-3.009c-0.092,0-0.171,0.033-0.238,0.099c-0.066,0.066-0.099,0.146-0.099,0.238v2.922
				c0,0.092,0.033,0.171,0.099,0.238C111.243,22.519,111.322,22.552,111.414,22.552z"/>
			<path fill="#FFFFFF" d="M117.284,18.247h2.818v0.709h-2.818c-0.092,0-0.171,0.033-0.238,0.099
				c-0.066,0.066-0.099,0.146-0.099,0.238v3.968h-0.709v-3.968c0-0.288,0.102-0.534,0.307-0.739
				C116.75,18.35,116.996,18.247,117.284,18.247z"/>
			<path fill="#FFFFFF" d="M121.659,18.247h3.009c0.294,0,0.543,0.103,0.748,0.307c0.205,0.205,0.307,0.451,0.307,0.739v2.922
				c0,0.288-0.103,0.535-0.307,0.739c-0.205,0.205-0.454,0.307-0.748,0.307h-3.009c-0.288,0-0.535-0.102-0.739-0.307
				c-0.205-0.204-0.307-0.451-0.307-0.739v-2.922c0-0.288,0.102-0.534,0.307-0.739C121.124,18.35,121.371,18.247,121.659,18.247z
				 M124.668,18.956h-3.009c-0.092,0-0.171,0.033-0.238,0.099c-0.066,0.066-0.099,0.146-0.099,0.238v2.922
				c0,0.092,0.033,0.171,0.099,0.238c0.066,0.066,0.146,0.099,0.238,0.099h3.009c0.092,0,0.171-0.033,0.238-0.099
				c0.066-0.066,0.099-0.146,0.099-0.238v-2.922c0-0.092-0.033-0.171-0.099-0.238C124.839,18.989,124.759,18.956,124.668,18.956z"/>
			<path fill="#FFFFFF" d="M130.814,18.247h0.709v3.968c0,0.288-0.102,0.535-0.307,0.739c-0.205,0.205-0.454,0.307-0.748,0.307
				h-3.008c-0.289,0-0.535-0.102-0.739-0.307c-0.205-0.204-0.307-0.451-0.307-0.739v-3.968h0.709v3.968
				c0,0.092,0.033,0.171,0.1,0.238c0.066,0.066,0.146,0.099,0.238,0.099h3.008c0.092,0,0.173-0.033,0.242-0.099
				c0.069-0.066,0.104-0.146,0.104-0.238V18.247z"/>
			<path fill="#FFFFFF" d="M136.364,18.247c0.288,0,0.534,0.103,0.739,0.307c0.205,0.205,0.307,0.451,0.307,0.739v2.922
				c0,0.288-0.103,0.535-0.307,0.739c-0.205,0.205-0.451,0.307-0.739,0.307h-3.354v1.988h-0.709v-7.002H136.364z M136.701,22.215
				v-2.922c0-0.092-0.033-0.171-0.099-0.238c-0.066-0.066-0.146-0.099-0.238-0.099h-3.009c-0.092,0-0.173,0.033-0.242,0.099
				c-0.069,0.066-0.104,0.146-0.104,0.238v2.922c0,0.092,0.035,0.171,0.104,0.238c0.069,0.066,0.15,0.099,0.242,0.099h3.009
				c0.092,0,0.171-0.033,0.238-0.099C136.668,22.387,136.701,22.308,136.701,22.215z"/>
			<path fill="#FFFFFF" d="M137.747,17.037h6.225v0.7h-2.758v5.524h-0.7v-5.524h-2.767V17.037z"/>
			<path fill="#FFFFFF" d="M148.814,24.195c0,0.294-0.101,0.543-0.303,0.748s-0.45,0.307-0.744,0.307h-3.129v-0.717h3.129
				c0.092,0,0.172-0.033,0.238-0.1c0.066-0.066,0.1-0.146,0.1-0.238v-0.934h-3.346c-0.288,0-0.535-0.102-0.739-0.307
				c-0.205-0.204-0.307-0.451-0.307-0.739v-3.951h0.708v3.951c0,0.092,0.033,0.171,0.1,0.238c0.066,0.066,0.146,0.099,0.238,0.099
				h3.008c0.092,0,0.172-0.033,0.238-0.099c0.066-0.066,0.1-0.146,0.1-0.238v-3.951h0.709V24.195z"/>
			<path fill="#FFFFFF" d="M153.802,18.247c0.288,0,0.534,0.103,0.739,0.307c0.205,0.205,0.307,0.451,0.307,0.739v2.922
				c0,0.288-0.103,0.535-0.307,0.739c-0.205,0.205-0.451,0.307-0.739,0.307h-3.354v1.988h-0.709v-7.002H153.802z M154.139,22.215
				v-2.922c0-0.092-0.033-0.171-0.099-0.238c-0.066-0.066-0.146-0.099-0.238-0.099h-3.009c-0.092,0-0.173,0.033-0.242,0.099
				c-0.069,0.066-0.104,0.146-0.104,0.238v2.922c0,0.092,0.035,0.171,0.104,0.238c0.069,0.066,0.15,0.099,0.242,0.099h3.009
				c0.092,0,0.171-0.033,0.238-0.099C154.106,22.387,154.139,22.308,154.139,22.215z"/>
			<path fill="#FFFFFF" d="M159.508,18.247c0.294,0,0.543,0.103,0.748,0.307c0.205,0.205,0.307,0.451,0.307,0.739v1.815h-4.4v1.107
				c0,0.092,0.033,0.171,0.099,0.238c0.066,0.066,0.146,0.099,0.238,0.099h4.063v0.709h-4.063c-0.288,0-0.535-0.102-0.739-0.307
				c-0.205-0.204-0.307-0.451-0.307-0.739v-2.922c0-0.288,0.102-0.534,0.307-0.739c0.204-0.204,0.451-0.307,0.739-0.307H159.508z
				 M156.162,20.4h3.683v-1.107c0-0.092-0.033-0.171-0.099-0.238c-0.066-0.066-0.146-0.099-0.238-0.099h-3.009
				c-0.092,0-0.171,0.033-0.238,0.099c-0.066,0.066-0.099,0.146-0.099,0.238V20.4z"/>
			<path fill="#F7971D" d="M164.521,18.178v0.709h-0.709v-0.709H164.521z M163.812,22.552h0.709v0.709h-0.709V22.552z"/>
			<path fill="#F7971D" d="M170.175,19.518v0.708h-4.469v-0.708H170.175z M170.175,21.247v0.708h-4.469v-0.708H170.175z"/>
			<path fill="#FFFFFF" d="M177.593,18.247c0.288,0,0.534,0.103,0.739,0.307c0.205,0.205,0.307,0.451,0.307,0.739v2.922
				c0,0.288-0.103,0.535-0.307,0.739c-0.205,0.205-0.451,0.307-0.739,0.307h-3.354v1.988h-0.709v-7.002H177.593z M177.93,22.215
				v-2.922c0-0.092-0.033-0.171-0.099-0.238c-0.066-0.066-0.146-0.099-0.238-0.099h-3.009c-0.092,0-0.173,0.033-0.242,0.099
				c-0.069,0.066-0.104,0.146-0.104,0.238v2.922c0,0.092,0.035,0.171,0.104,0.238c0.069,0.066,0.15,0.099,0.242,0.099h3.009
				c0.092,0,0.171-0.033,0.238-0.099C177.897,22.387,177.93,22.308,177.93,22.215z"/>
			<path fill="#FFFFFF" d="M183.307,18.247c0.294,0,0.543,0.103,0.748,0.307c0.205,0.205,0.307,0.451,0.307,0.739v3.968h-4.063
				c-0.288,0-0.535-0.102-0.739-0.307c-0.205-0.204-0.307-0.451-0.307-0.739V20.4h4.392v-1.107c0-0.092-0.033-0.171-0.1-0.238
				c-0.066-0.066-0.146-0.099-0.237-0.099h-4.055v-0.709H183.307z M183.644,22.552v-1.444h-3.683v1.107
				c0,0.092,0.033,0.171,0.099,0.238c0.066,0.066,0.146,0.099,0.238,0.099H183.644z"/>
			<path fill="#FFFFFF" d="M186.255,18.247h2.818v0.709h-2.818c-0.092,0-0.171,0.033-0.238,0.099
				c-0.066,0.066-0.099,0.146-0.099,0.238v3.968h-0.709v-3.968c0-0.288,0.102-0.534,0.307-0.739
				C185.72,18.35,185.967,18.247,186.255,18.247z"/>
			<path fill="#FFFFFF" d="M192.523,18.956h-2.17v3.259c0,0.092,0.033,0.171,0.1,0.238c0.066,0.066,0.146,0.099,0.238,0.099h1.833
				v0.709h-1.833c-0.294,0-0.542-0.102-0.744-0.307c-0.202-0.204-0.303-0.451-0.303-0.739v-5.611h0.709v1.643h2.17V18.956z"/>
			<path fill="#FFFFFF" d="M198.255,19.293v0.069h-0.718v-0.069c0-0.092-0.033-0.171-0.099-0.238
				c-0.066-0.066-0.146-0.099-0.238-0.099h-3.009c-0.092,0-0.171,0.033-0.238,0.099c-0.066,0.066-0.099,0.146-0.099,0.238v0.77
				c0,0.092,0.033,0.171,0.099,0.238s0.146,0.1,0.238,0.1h3.009c0.294,0,0.543,0.102,0.748,0.307s0.307,0.451,0.307,0.739v0.77
				c0,0.288-0.103,0.535-0.307,0.739c-0.205,0.205-0.454,0.307-0.748,0.307h-3.009c-0.288,0-0.535-0.102-0.739-0.307
				c-0.205-0.204-0.307-0.451-0.307-0.739v-0.069h0.709v0.069c0,0.092,0.033,0.171,0.099,0.238c0.066,0.066,0.146,0.099,0.238,0.099
				h3.009c0.092,0,0.171-0.033,0.238-0.099c0.066-0.066,0.099-0.146,0.099-0.238v-0.77c0-0.092-0.033-0.171-0.099-0.238
				c-0.066-0.066-0.146-0.1-0.238-0.1h-3.009c-0.288,0-0.535-0.102-0.739-0.307s-0.307-0.451-0.307-0.739v-0.77
				c0-0.288,0.102-0.534,0.307-0.739c0.205-0.204,0.451-0.307,0.739-0.307h3.009c0.294,0,0.543,0.103,0.748,0.307
				C198.152,18.759,198.255,19.005,198.255,19.293z"/>
			<path fill="#FFFFFF" d="M201.479,23.261v-6.233h1.297v0.718h-0.588v4.807h0.588v0.709H201.479z"/>
			<path fill="#F7971D" d="M204.928,17.037h4.193c0.288,0,0.534,0.103,0.739,0.307s0.307,0.454,0.307,0.748v4.124
				c0,0.288-0.103,0.535-0.307,0.739c-0.205,0.205-0.451,0.307-0.739,0.307h-4.193c-0.294,0-0.542-0.102-0.744-0.307
				c-0.202-0.204-0.303-0.451-0.303-0.739v-4.124c0-0.294,0.101-0.543,0.303-0.748S204.634,17.037,204.928,17.037z M209.363,17.754
				h-4.435c-0.092,0-0.172,0.033-0.238,0.099c-0.066,0.066-0.1,0.146-0.1,0.238v3.605L209.363,17.754z M204.677,22.552h4.444
				c0.092,0,0.171-0.033,0.238-0.099c0.066-0.066,0.099-0.146,0.099-0.238V18.61L204.677,22.552z"/>
			<path fill="#FFFFFF" d="M211.04,17.746v-0.718h1.297v6.233h-1.297v-0.709h0.579v-4.807H211.04z"/>
			<path fill="#F7971D" d="M115.728,27.469h0.83l-2.775,5.014h-0.821l-2.767-5.014h0.83l2.351,4.323L115.728,27.469z"/>
			<path fill="#F7971D" d="M121.348,27.469c0.294,0,0.543,0.103,0.748,0.307c0.205,0.205,0.307,0.451,0.307,0.739v3.968h-4.063
				c-0.288,0-0.535-0.102-0.739-0.307c-0.205-0.204-0.307-0.451-0.307-0.739v-1.815h4.392v-1.107c0-0.092-0.033-0.171-0.1-0.238
				c-0.066-0.066-0.146-0.099-0.237-0.099h-4.055v-0.709H121.348z M121.685,31.774V30.33h-3.683v1.107
				c0,0.092,0.033,0.171,0.099,0.238c0.066,0.066,0.146,0.099,0.238,0.099H121.685z"/>
			<path fill="#F7971D" d="M124.296,27.469h2.818v0.709h-2.818c-0.092,0-0.171,0.033-0.238,0.099
				c-0.066,0.066-0.099,0.146-0.099,0.238v3.968h-0.709v-3.968c0-0.288,0.102-0.534,0.307-0.739
				C123.761,27.571,124.008,27.469,124.296,27.469z"/>
			<path fill="#FFFFFF" d="M130.028,25.826h0.709v0.709h-0.709V25.826z M130.028,32.483v-5.014h0.709v5.014H130.028z"/>
			<path fill="#FFFFFF" d="M135.69,27.469c0.288,0,0.534,0.103,0.739,0.307c0.205,0.205,0.307,0.451,0.307,0.739v2.922
				c0,0.288-0.103,0.535-0.307,0.739c-0.205,0.205-0.451,0.307-0.739,0.307h-3.354v1.988h-0.709v-7.002H135.69z M136.027,31.437
				v-2.922c0-0.092-0.033-0.171-0.099-0.238c-0.066-0.066-0.146-0.099-0.238-0.099h-3.009c-0.092,0-0.173,0.033-0.242,0.099
				c-0.069,0.066-0.104,0.146-0.104,0.238v2.922c0,0.092,0.035,0.171,0.104,0.238c0.069,0.066,0.15,0.099,0.242,0.099h3.009
				c0.092,0,0.171-0.033,0.238-0.099C135.994,31.608,136.027,31.529,136.027,31.437z"/>
			<path fill="#F7971D" d="M144.776,28.515v0.069h-0.718v-0.069c0-0.092-0.033-0.171-0.099-0.238
				c-0.066-0.066-0.146-0.099-0.238-0.099h-3.009c-0.092,0-0.171,0.033-0.238,0.099c-0.066,0.066-0.099,0.146-0.099,0.238v0.77
				c0,0.092,0.033,0.171,0.099,0.238s0.146,0.1,0.238,0.1h3.009c0.294,0,0.543,0.102,0.748,0.307s0.307,0.451,0.307,0.739v0.77
				c0,0.288-0.103,0.535-0.307,0.739c-0.205,0.205-0.454,0.307-0.748,0.307h-3.009c-0.288,0-0.535-0.102-0.739-0.307
				c-0.205-0.204-0.307-0.451-0.307-0.739v-0.069h0.709v0.069c0,0.092,0.033,0.171,0.099,0.238c0.066,0.066,0.146,0.099,0.238,0.099
				h3.009c0.092,0,0.171-0.033,0.238-0.099c0.066-0.066,0.099-0.146,0.099-0.238v-0.77c0-0.092-0.033-0.171-0.099-0.238
				c-0.066-0.066-0.146-0.1-0.238-0.1h-3.009c-0.288,0-0.535-0.102-0.739-0.307s-0.307-0.451-0.307-0.739v-0.77
				c0-0.288,0.102-0.534,0.307-0.739c0.205-0.204,0.451-0.307,0.739-0.307h3.009c0.294,0,0.543,0.103,0.748,0.307
				C144.674,27.98,144.776,28.227,144.776,28.515z"/>
			<path fill="#F7971D" d="M148.519,28.178h-2.17v3.259c0,0.092,0.033,0.171,0.1,0.238c0.066,0.066,0.146,0.099,0.238,0.099h1.833
				v0.709h-1.833c-0.294,0-0.542-0.102-0.744-0.307c-0.202-0.204-0.303-0.451-0.303-0.739v-5.611h0.709v1.643h2.17V28.178z"/>
			<path fill="#F7971D" d="M150.222,27.469h2.818v0.709h-2.818c-0.092,0-0.171,0.033-0.238,0.099
				c-0.066,0.066-0.099,0.146-0.099,0.238v3.968h-0.709v-3.968c0-0.288,0.102-0.534,0.307-0.739
				C149.687,27.571,149.934,27.469,150.222,27.469z"/>
			<path fill="#F7971D" d="M153.602,25.826h0.709v0.709h-0.709V25.826z M153.602,32.483v-5.014h0.709v5.014H153.602z"/>
			<path fill="#F7971D" d="M159.351,27.469c0.288,0,0.534,0.103,0.739,0.307c0.205,0.205,0.307,0.451,0.307,0.739v3.968h-0.709
				v-3.968c0-0.092-0.033-0.171-0.099-0.238c-0.066-0.066-0.146-0.099-0.238-0.099h-3.009c-0.092,0-0.173,0.033-0.242,0.099
				c-0.069,0.066-0.104,0.146-0.104,0.238v3.968h-0.709v-5.014H159.351z"/>
			<path fill="#F7971D" d="M166.293,33.408c0,0.293-0.101,0.543-0.303,0.748c-0.202,0.203-0.449,0.307-0.743,0.307h-3.13v-0.719
				h3.13c0.092,0,0.171-0.033,0.238-0.098c0.066-0.066,0.099-0.146,0.099-0.238v-0.925h-3.346c-0.288,0-0.535-0.102-0.739-0.307
				c-0.205-0.204-0.307-0.451-0.307-0.739v-2.922c0-0.288,0.102-0.534,0.307-0.739c0.205-0.204,0.451-0.307,0.739-0.307h3.009
				c0.294,0,0.542,0.103,0.743,0.307c0.202,0.205,0.303,0.451,0.303,0.739V33.408z M162.238,31.774h3.009
				c0.092,0,0.171-0.033,0.238-0.099c0.066-0.066,0.099-0.146,0.099-0.238v-2.922c0-0.092-0.033-0.171-0.099-0.238
				c-0.066-0.066-0.146-0.099-0.238-0.099h-3.009c-0.092,0-0.171,0.033-0.238,0.099c-0.066,0.066-0.099,0.146-0.099,0.238v2.922
				c0,0.092,0.033,0.171,0.099,0.238C162.067,31.741,162.146,31.774,162.238,31.774z"/>
			<path fill="#F7971D" d="M110.464,35.047h0.709v0.709h-0.709V35.047z M110.464,41.704v-5.015h0.709v5.015H110.464z"/>
			<path fill="#F7971D" d="M112.91,35.756c-0.092,0-0.172,0.033-0.238,0.1c-0.066,0.066-0.1,0.146-0.1,0.238v0.596h2.17v0.709h-2.17
				v4.306h-0.709v-5.61c0-0.294,0.101-0.542,0.303-0.744c0.202-0.201,0.45-0.303,0.744-0.303h1.833v0.709H112.91z"/>
			<path fill="#F7971D" d="M117.725,35.047h0.709v5.611c0,0.092,0.033,0.171,0.099,0.237s0.146,0.1,0.238,0.1h0.847v0.709h-0.847
				c-0.288,0-0.535-0.103-0.739-0.307c-0.205-0.205-0.307-0.451-0.307-0.739V35.047z"/>
			<path fill="#F7971D" d="M124.252,36.689c0.294,0,0.543,0.103,0.748,0.308c0.205,0.204,0.307,0.451,0.307,0.739v1.815h-4.4v1.106
				c0,0.092,0.033,0.171,0.099,0.237c0.066,0.066,0.146,0.1,0.238,0.1h4.063v0.709h-4.063c-0.288,0-0.535-0.103-0.739-0.307
				c-0.205-0.205-0.307-0.451-0.307-0.739v-2.922c0-0.288,0.102-0.535,0.307-0.739c0.204-0.205,0.451-0.308,0.739-0.308H124.252z
				 M120.906,38.843h3.683v-1.106c0-0.093-0.033-0.172-0.099-0.238c-0.066-0.066-0.146-0.1-0.238-0.1h-3.009
				c-0.092,0-0.171,0.033-0.238,0.1c-0.066,0.066-0.099,0.146-0.099,0.238V38.843z"/>
			<path fill="#F7971D" d="M130.269,36.689c0.288,0,0.534,0.103,0.739,0.308c0.205,0.204,0.307,0.451,0.307,0.739v3.968h-0.709
				v-3.968c0-0.093-0.033-0.172-0.099-0.238c-0.066-0.066-0.146-0.1-0.238-0.1h-3.009c-0.092,0-0.173,0.033-0.242,0.1
				c-0.069,0.066-0.104,0.146-0.104,0.238v3.968h-0.709v-5.015H130.269z"/>
			<path fill="#FFFFFF" d="M133.252,40.995h0.25v0.709h-0.25c-0.288,0-0.535-0.103-0.739-0.307
				c-0.205-0.205-0.307-0.451-0.307-0.739v-4.124c0-0.294,0.102-0.543,0.307-0.748c0.205-0.204,0.451-0.307,0.739-0.307h0.25v0.718
				h-0.25c-0.092,0-0.171,0.033-0.238,0.1s-0.099,0.146-0.099,0.237v4.124c0,0.092,0.033,0.171,0.099,0.237
				S133.159,40.995,133.252,40.995z"/>
			<path fill="#FFFFFF" d="M138.681,36.689c0.288,0,0.534,0.103,0.739,0.308c0.205,0.204,0.307,0.451,0.307,0.739v2.922
				c0,0.288-0.103,0.534-0.307,0.739c-0.205,0.204-0.451,0.307-0.739,0.307h-3.354v1.988h-0.709v-7.003H138.681z M139.018,40.658
				v-2.922c0-0.093-0.033-0.172-0.099-0.238c-0.066-0.066-0.146-0.1-0.238-0.1h-3.009c-0.092,0-0.173,0.033-0.242,0.1
				c-0.069,0.066-0.104,0.146-0.104,0.238v2.922c0,0.092,0.035,0.171,0.104,0.237c0.069,0.066,0.15,0.1,0.242,0.1h3.009
				c0.092,0,0.171-0.033,0.238-0.1C138.985,40.829,139.018,40.75,139.018,40.658z"/>
			<path fill="#FFFFFF" d="M144.396,36.689c0.294,0,0.543,0.103,0.748,0.308c0.205,0.204,0.307,0.451,0.307,0.739v3.968h-4.063
				c-0.288,0-0.535-0.103-0.739-0.307c-0.205-0.205-0.307-0.451-0.307-0.739v-1.815h4.392v-1.106c0-0.093-0.033-0.172-0.1-0.238
				c-0.066-0.066-0.146-0.1-0.237-0.1h-4.055v-0.709H144.396z M144.733,40.995v-1.443h-3.683v1.106c0,0.092,0.033,0.171,0.099,0.237
				s0.146,0.1,0.238,0.1H144.733z"/>
			<path fill="#FFFFFF" d="M147.343,36.689h2.818v0.709h-2.818c-0.092,0-0.171,0.033-0.238,0.1s-0.099,0.146-0.099,0.238v3.968
				h-0.709v-3.968c0-0.288,0.102-0.535,0.307-0.739C146.809,36.792,147.055,36.689,147.343,36.689z"/>
			<path fill="#FFFFFF" d="M153.611,37.398h-2.17v3.26c0,0.092,0.033,0.171,0.1,0.237c0.066,0.066,0.146,0.1,0.238,0.1h1.833v0.709
				h-1.833c-0.294,0-0.542-0.103-0.744-0.307c-0.202-0.205-0.303-0.451-0.303-0.739v-5.611h0.709v1.643h2.17V37.398z"/>
			<path fill="#FFFFFF" d="M159.343,37.736v0.068h-0.718v-0.068c0-0.093-0.033-0.172-0.099-0.238c-0.066-0.066-0.146-0.1-0.238-0.1
				h-3.009c-0.092,0-0.171,0.033-0.238,0.1s-0.099,0.146-0.099,0.238v0.769c0,0.093,0.033,0.172,0.099,0.238s0.146,0.1,0.238,0.1
				h3.009c0.294,0,0.543,0.103,0.748,0.307c0.205,0.205,0.307,0.451,0.307,0.739v0.77c0,0.288-0.103,0.534-0.307,0.739
				c-0.205,0.204-0.454,0.307-0.748,0.307h-3.009c-0.288,0-0.535-0.103-0.739-0.307c-0.205-0.205-0.307-0.451-0.307-0.739v-0.069
				h0.709v0.069c0,0.092,0.033,0.171,0.099,0.237s0.146,0.1,0.238,0.1h3.009c0.092,0,0.171-0.033,0.238-0.1
				c0.066-0.066,0.099-0.146,0.099-0.237v-0.77c0-0.092-0.033-0.172-0.099-0.238c-0.066-0.065-0.146-0.099-0.238-0.099h-3.009
				c-0.288,0-0.535-0.103-0.739-0.308c-0.205-0.204-0.307-0.45-0.307-0.739v-0.769c0-0.288,0.102-0.535,0.307-0.739
				c0.205-0.205,0.451-0.308,0.739-0.308h3.009c0.294,0,0.543,0.103,0.748,0.308C159.24,37.201,159.343,37.448,159.343,37.736z"/>
			<path fill="#FFFFFF" d="M160.233,41.704v-0.709h0.242c0.092,0,0.171-0.033,0.238-0.1s0.1-0.146,0.1-0.237v-4.124
				c0-0.092-0.033-0.171-0.1-0.237s-0.146-0.1-0.238-0.1h-0.242v-0.718h0.242c0.288,0,0.536,0.103,0.744,0.307
				c0.208,0.205,0.311,0.454,0.311,0.748v4.124c0,0.288-0.104,0.534-0.311,0.739c-0.208,0.204-0.456,0.307-0.744,0.307H160.233z"/>
			<path fill="#FFFFFF" d="M165.014,41.583v-0.821l2.766-1.6l-2.766-1.599v-0.821l3.475,1.997v0.838L165.014,41.583z"/>
			<path fill="#F7971D" d="M170.97,37.425l1.634-1.945h0.968v6.225h-0.718v-5.429c-0.081,0.104-0.241,0.297-0.479,0.579
				c-0.239,0.282-0.399,0.473-0.48,0.57H170.97z"/>
			<path fill="#FFFFFF" d="M178.007,39.188v1.47c0,0.092,0.033,0.171,0.1,0.237c0.066,0.066,0.146,0.1,0.238,0.1h0.25v0.709h-0.25
				c-0.289,0-0.535-0.103-0.739-0.307c-0.205-0.205-0.307-0.451-0.307-0.739v-1.409c-0.034-0.023-0.101-0.065-0.199-0.126
				s-0.167-0.102-0.208-0.125v-0.83l0.406-0.216v-1.418c0-0.294,0.103-0.543,0.307-0.748c0.205-0.204,0.451-0.307,0.739-0.307h0.25
				v0.718h-0.25c-0.092,0-0.172,0.033-0.238,0.1c-0.066,0.066-0.1,0.146-0.1,0.237v1.479l-0.726,0.579L178.007,39.188z"/>
			<path fill="#FFFFFF" d="M143.383,44.269h0.709v0.709h-0.709V44.269z M143.383,50.926v-5.015h0.709v5.015H143.383z"/>
			<path fill="#FFFFFF" d="M149.046,45.911c0.288,0,0.534,0.103,0.739,0.308c0.205,0.204,0.307,0.451,0.307,0.739v2.922
				c0,0.288-0.103,0.534-0.307,0.739c-0.205,0.204-0.451,0.307-0.739,0.307h-3.354v1.988h-0.709v-7.003H149.046z M149.383,49.88
				v-2.922c0-0.093-0.033-0.172-0.099-0.238c-0.066-0.066-0.146-0.1-0.238-0.1h-3.009c-0.092,0-0.173,0.033-0.242,0.1
				c-0.069,0.066-0.104,0.146-0.104,0.238v2.922c0,0.092,0.035,0.171,0.104,0.237c0.069,0.066,0.15,0.1,0.242,0.1h3.009
				c0.092,0,0.171-0.033,0.238-0.1C149.349,50.051,149.383,49.972,149.383,49.88z"/>
			<path fill="#FFFFFF" d="M157.587,47.183v0.709h-4.469v-0.709H157.587z M157.587,48.911v0.709h-4.469v-0.709H157.587z"/>
			<path fill="#FFFFFF" d="M165.004,45.911c0.288,0,0.534,0.103,0.739,0.308c0.205,0.204,0.307,0.451,0.307,0.739v2.922
				c0,0.288-0.103,0.534-0.307,0.739c-0.205,0.204-0.451,0.307-0.739,0.307h-3.354v1.988h-0.709v-7.003H165.004z M165.341,49.88
				v-2.922c0-0.093-0.033-0.172-0.099-0.238c-0.066-0.066-0.146-0.1-0.238-0.1h-3.009c-0.092,0-0.173,0.033-0.242,0.1
				c-0.069,0.066-0.104,0.146-0.104,0.238v2.922c0,0.092,0.035,0.171,0.104,0.237c0.069,0.066,0.15,0.1,0.242,0.1h3.009
				c0.092,0,0.171-0.033,0.238-0.1C165.308,50.051,165.341,49.972,165.341,49.88z"/>
			<path fill="#FFFFFF" d="M170.719,45.911c0.294,0,0.543,0.103,0.748,0.308c0.205,0.204,0.307,0.451,0.307,0.739v3.968h-4.063
				c-0.288,0-0.535-0.103-0.739-0.307c-0.205-0.205-0.307-0.451-0.307-0.739v-1.815h4.392v-1.106c0-0.093-0.033-0.172-0.1-0.238
				c-0.066-0.066-0.146-0.1-0.237-0.1h-4.055v-0.709H170.719z M171.056,50.217v-1.443h-3.683v1.106c0,0.092,0.033,0.171,0.099,0.237
				s0.146,0.1,0.238,0.1H171.056z"/>
			<path fill="#FFFFFF" d="M173.667,45.911h2.818v0.709h-2.818c-0.092,0-0.171,0.033-0.238,0.1s-0.099,0.146-0.099,0.238v3.968
				h-0.709v-3.968c0-0.288,0.102-0.535,0.307-0.739C173.132,46.014,173.379,45.911,173.667,45.911z"/>
			<path fill="#FFFFFF" d="M179.934,46.62h-2.17v3.26c0,0.092,0.033,0.171,0.1,0.237c0.066,0.066,0.146,0.1,0.238,0.1h1.833v0.709
				h-1.833c-0.294,0-0.542-0.103-0.744-0.307c-0.202-0.205-0.303-0.451-0.303-0.739v-5.611h0.709v1.643h2.17V46.62z"/>
			<path fill="#FFFFFF" d="M185.666,46.958v0.068h-0.718v-0.068c0-0.093-0.033-0.172-0.099-0.238c-0.066-0.066-0.146-0.1-0.238-0.1
				h-3.009c-0.092,0-0.171,0.033-0.238,0.1s-0.099,0.146-0.099,0.238v0.769c0,0.093,0.033,0.172,0.099,0.238s0.146,0.1,0.238,0.1
				h3.009c0.294,0,0.543,0.103,0.748,0.307c0.205,0.205,0.307,0.451,0.307,0.739v0.77c0,0.288-0.103,0.534-0.307,0.739
				c-0.205,0.204-0.454,0.307-0.748,0.307h-3.009c-0.288,0-0.535-0.103-0.739-0.307c-0.205-0.205-0.307-0.451-0.307-0.739v-0.069
				h0.709v0.069c0,0.092,0.033,0.171,0.099,0.237s0.146,0.1,0.238,0.1h3.009c0.092,0,0.171-0.033,0.238-0.1
				c0.066-0.066,0.099-0.146,0.099-0.237v-0.77c0-0.092-0.033-0.172-0.099-0.238c-0.066-0.065-0.146-0.099-0.238-0.099h-3.009
				c-0.288,0-0.535-0.103-0.739-0.308c-0.205-0.204-0.307-0.45-0.307-0.739v-0.769c0-0.288,0.102-0.535,0.307-0.739
				c0.205-0.205,0.451-0.308,0.739-0.308h3.009c0.294,0,0.543,0.103,0.748,0.308C185.564,46.423,185.666,46.67,185.666,46.958z"/>
			<path fill="#FFFFFF" d="M188.89,50.926v-6.233h1.297v0.718h-0.588v4.807h0.588v0.709H188.89z"/>
			<path fill="#F7971D" d="M192.34,44.701h4.193c0.288,0,0.534,0.103,0.739,0.307c0.205,0.205,0.307,0.454,0.307,0.748v4.124
				c0,0.288-0.103,0.534-0.307,0.739c-0.205,0.204-0.451,0.307-0.739,0.307h-4.193c-0.294,0-0.542-0.103-0.744-0.307
				c-0.202-0.205-0.303-0.451-0.303-0.739v-4.124c0-0.294,0.101-0.543,0.303-0.748C191.798,44.804,192.046,44.701,192.34,44.701z
				 M196.775,45.419h-4.435c-0.092,0-0.172,0.033-0.238,0.1c-0.066,0.066-0.1,0.146-0.1,0.237v3.605L196.775,45.419z
				 M192.089,50.217h4.444c0.092,0,0.171-0.033,0.238-0.1c0.066-0.066,0.099-0.146,0.099-0.237v-3.605L192.089,50.217z"/>
			<path fill="#FFFFFF" d="M198.452,45.41v-0.718h1.297v6.233h-1.297v-0.709h0.579V45.41H198.452z"/>
			<path fill="#FFFFFF" d="M148.388,61.072c0,0.294-0.101,0.543-0.303,0.748c-0.202,0.204-0.449,0.307-0.743,0.307h-3.13v-0.718
				h3.13c0.092,0,0.171-0.033,0.238-0.099c0.066-0.066,0.099-0.146,0.099-0.238v-0.925h-3.346c-0.288,0-0.535-0.103-0.739-0.307
				c-0.205-0.205-0.307-0.451-0.307-0.739V56.18c0-0.288,0.102-0.535,0.307-0.739c0.205-0.205,0.451-0.308,0.739-0.308h3.009
				c0.294,0,0.542,0.103,0.743,0.308c0.202,0.204,0.303,0.451,0.303,0.739V61.072z M144.334,59.438h3.009
				c0.092,0,0.171-0.033,0.238-0.1c0.066-0.066,0.099-0.146,0.099-0.237V56.18c0-0.093-0.033-0.172-0.099-0.238
				c-0.066-0.066-0.146-0.1-0.238-0.1h-3.009c-0.092,0-0.171,0.033-0.238,0.1c-0.066,0.066-0.099,0.146-0.099,0.238v2.922
				c0,0.092,0.033,0.171,0.099,0.237C144.162,59.405,144.241,59.438,144.334,59.438z"/>
			<path fill="#FFFFFF" d="M150.204,55.133h2.818v0.709h-2.818c-0.092,0-0.171,0.033-0.238,0.1s-0.099,0.146-0.099,0.238v3.968
				h-0.709V56.18c0-0.288,0.102-0.535,0.307-0.739C149.669,55.235,149.916,55.133,150.204,55.133z"/>
			<path fill="#FFFFFF" d="M154.578,55.133h3.009c0.294,0,0.543,0.103,0.748,0.308c0.205,0.204,0.307,0.451,0.307,0.739v2.922
				c0,0.288-0.103,0.534-0.307,0.739c-0.205,0.204-0.454,0.307-0.748,0.307h-3.009c-0.288,0-0.535-0.103-0.739-0.307
				c-0.205-0.205-0.307-0.451-0.307-0.739V56.18c0-0.288,0.102-0.535,0.307-0.739C154.044,55.235,154.29,55.133,154.578,55.133z
				 M157.587,55.842h-3.009c-0.092,0-0.171,0.033-0.238,0.1c-0.066,0.066-0.099,0.146-0.099,0.238v2.922
				c0,0.092,0.033,0.171,0.099,0.237c0.066,0.066,0.146,0.1,0.238,0.1h3.009c0.092,0,0.171-0.033,0.238-0.1
				c0.066-0.066,0.099-0.146,0.099-0.237V56.18c0-0.093-0.033-0.172-0.099-0.238C157.759,55.875,157.679,55.842,157.587,55.842z"/>
			<path fill="#FFFFFF" d="M163.734,55.133h0.709v3.969c0,0.288-0.102,0.534-0.307,0.739c-0.205,0.204-0.454,0.307-0.748,0.307
				h-3.008c-0.289,0-0.535-0.103-0.739-0.307c-0.205-0.205-0.307-0.451-0.307-0.739v-3.969h0.709v3.969
				c0,0.092,0.033,0.171,0.1,0.237c0.066,0.066,0.146,0.1,0.238,0.1h3.008c0.092,0,0.173-0.033,0.242-0.1s0.104-0.146,0.104-0.237
				V55.133z"/>
			<path fill="#FFFFFF" d="M169.284,55.133c0.288,0,0.534,0.103,0.739,0.308c0.205,0.204,0.307,0.451,0.307,0.739v2.922
				c0,0.288-0.103,0.534-0.307,0.739c-0.205,0.204-0.451,0.307-0.739,0.307h-3.354v1.988h-0.709v-7.003H169.284z M169.621,59.102
				V56.18c0-0.093-0.033-0.172-0.099-0.238c-0.066-0.066-0.146-0.1-0.238-0.1h-3.009c-0.092,0-0.173,0.033-0.242,0.1
				c-0.069,0.066-0.104,0.146-0.104,0.238v2.922c0,0.092,0.035,0.171,0.104,0.237c0.069,0.066,0.15,0.1,0.242,0.1h3.009
				c0.092,0,0.171-0.033,0.238-0.1C169.588,59.272,169.621,59.193,169.621,59.102z"/>
			<path fill="#FFFFFF" d="M170.667,53.923h6.225v0.7h-2.758v5.524h-0.7v-5.524h-2.767V53.923z"/>
			<path fill="#FFFFFF" d="M181.733,61.081c0,0.294-0.101,0.543-0.303,0.748c-0.202,0.204-0.45,0.307-0.744,0.307h-3.129v-0.718
				h3.129c0.092,0,0.172-0.033,0.238-0.099c0.066-0.066,0.1-0.146,0.1-0.238v-0.934h-3.346c-0.288,0-0.535-0.103-0.739-0.307
				c-0.205-0.205-0.307-0.451-0.307-0.739V55.15h0.708v3.951c0,0.092,0.033,0.171,0.1,0.237s0.146,0.1,0.238,0.1h3.008
				c0.092,0,0.172-0.033,0.238-0.1c0.066-0.066,0.1-0.146,0.1-0.237V55.15h0.709V61.081z"/>
			<path fill="#FFFFFF" d="M186.721,55.133c0.288,0,0.534,0.103,0.739,0.308c0.205,0.204,0.307,0.451,0.307,0.739v2.922
				c0,0.288-0.103,0.534-0.307,0.739c-0.205,0.204-0.451,0.307-0.739,0.307h-3.354v1.988h-0.709v-7.003H186.721z M187.058,59.102
				V56.18c0-0.093-0.033-0.172-0.099-0.238c-0.066-0.066-0.146-0.1-0.238-0.1h-3.009c-0.092,0-0.173,0.033-0.242,0.1
				c-0.069,0.066-0.104,0.146-0.104,0.238v2.922c0,0.092,0.035,0.171,0.104,0.237c0.069,0.066,0.15,0.1,0.242,0.1h3.009
				c0.092,0,0.171-0.033,0.238-0.1C187.025,59.272,187.058,59.193,187.058,59.102z"/>
			<path fill="#FFFFFF" d="M192.427,55.133c0.294,0,0.543,0.103,0.748,0.308c0.205,0.204,0.307,0.451,0.307,0.739v1.815h-4.4v1.106
				c0,0.092,0.033,0.171,0.099,0.237c0.066,0.066,0.146,0.1,0.238,0.1h4.063v0.709h-4.063c-0.288,0-0.535-0.103-0.739-0.307
				c-0.205-0.205-0.307-0.451-0.307-0.739V56.18c0-0.288,0.102-0.535,0.307-0.739c0.204-0.205,0.451-0.308,0.739-0.308H192.427z
				 M189.081,57.286h3.683V56.18c0-0.093-0.033-0.172-0.099-0.238c-0.066-0.066-0.146-0.1-0.238-0.1h-3.009
				c-0.092,0-0.171,0.033-0.238,0.1c-0.066,0.066-0.099,0.146-0.099,0.238V57.286z"/>
			<path fill="#FFFFFF" d="M201.244,56.404v0.709h-4.469v-0.709H201.244z M201.244,58.133v0.709h-4.469v-0.709H201.244z"/>
			<path fill="#FFFFFF" d="M208.662,55.133c0.288,0,0.534,0.103,0.739,0.308c0.205,0.204,0.307,0.451,0.307,0.739v2.922
				c0,0.288-0.103,0.534-0.307,0.739c-0.205,0.204-0.451,0.307-0.739,0.307h-3.354v1.988h-0.709v-7.003H208.662z M208.999,59.102
				V56.18c0-0.093-0.033-0.172-0.099-0.238c-0.066-0.066-0.146-0.1-0.238-0.1h-3.009c-0.092,0-0.173,0.033-0.242,0.1
				c-0.069,0.066-0.104,0.146-0.104,0.238v2.922c0,0.092,0.035,0.171,0.104,0.237c0.069,0.066,0.15,0.1,0.242,0.1h3.009
				c0.092,0,0.171-0.033,0.238-0.1C208.966,59.272,208.999,59.193,208.999,59.102z"/>
			<path fill="#FFFFFF" d="M214.377,55.133c0.294,0,0.543,0.103,0.748,0.308c0.205,0.204,0.307,0.451,0.307,0.739v3.968h-4.063
				c-0.288,0-0.535-0.103-0.739-0.307c-0.205-0.205-0.307-0.451-0.307-0.739v-1.815h4.392V56.18c0-0.093-0.033-0.172-0.1-0.238
				c-0.066-0.066-0.146-0.1-0.237-0.1h-4.055v-0.709H214.377z M214.714,59.438v-1.443h-3.683v1.106c0,0.092,0.033,0.171,0.099,0.237
				s0.146,0.1,0.238,0.1H214.714z"/>
			<path fill="#FFFFFF" d="M217.324,55.133h2.818v0.709h-2.818c-0.092,0-0.171,0.033-0.238,0.1s-0.099,0.146-0.099,0.238v3.968
				h-0.709V56.18c0-0.288,0.102-0.535,0.307-0.739C216.79,55.235,217.036,55.133,217.324,55.133z"/>
			<path fill="#FFFFFF" d="M223.592,55.842h-2.17v3.26c0,0.092,0.033,0.171,0.1,0.237c0.066,0.066,0.146,0.1,0.238,0.1h1.833v0.709
				h-1.833c-0.294,0-0.542-0.103-0.744-0.307c-0.202-0.205-0.303-0.451-0.303-0.739V53.49h0.709v1.643h2.17V55.842z"/>
			<path fill="#FFFFFF" d="M229.324,56.18v0.068h-0.718V56.18c0-0.093-0.033-0.172-0.099-0.238c-0.066-0.066-0.146-0.1-0.238-0.1
				h-3.009c-0.092,0-0.171,0.033-0.238,0.1s-0.099,0.146-0.099,0.238v0.769c0,0.093,0.033,0.172,0.099,0.238s0.146,0.1,0.238,0.1
				h3.009c0.294,0,0.543,0.103,0.748,0.307c0.205,0.205,0.307,0.451,0.307,0.739v0.77c0,0.288-0.103,0.534-0.307,0.739
				c-0.205,0.204-0.454,0.307-0.748,0.307h-3.009c-0.288,0-0.535-0.103-0.739-0.307c-0.205-0.205-0.307-0.451-0.307-0.739v-0.069
				h0.709v0.069c0,0.092,0.033,0.171,0.099,0.237s0.146,0.1,0.238,0.1h3.009c0.092,0,0.171-0.033,0.238-0.1
				c0.066-0.066,0.099-0.146,0.099-0.237v-0.77c0-0.092-0.033-0.172-0.099-0.238c-0.066-0.065-0.146-0.099-0.238-0.099h-3.009
				c-0.288,0-0.535-0.103-0.739-0.308c-0.205-0.204-0.307-0.45-0.307-0.739V56.18c0-0.288,0.102-0.535,0.307-0.739
				c0.205-0.205,0.451-0.308,0.739-0.308h3.009c0.294,0,0.543,0.103,0.748,0.308C229.221,55.645,229.324,55.892,229.324,56.18z"/>
			<path fill="#FFFFFF" d="M232.548,60.147v-6.233h1.297v0.718h-0.588v4.807h0.588v0.709H232.548z"/>
			<path fill="#F7971D" d="M234.467,55.868l1.634-1.945h0.968v6.225h-0.718v-5.429c-0.081,0.104-0.241,0.297-0.479,0.579
				c-0.239,0.282-0.399,0.473-0.48,0.57H234.467z"/>
			<path fill="#FFFFFF" d="M238.28,54.632v-0.718h1.297v6.233h-1.297v-0.709h0.579v-4.807H238.28z"/>
			<path fill="#FFFFFF" d="M111.043,68.323v-1.461l0.726-0.597l-0.726-0.57v-1.496c0-0.092-0.033-0.171-0.1-0.237
				s-0.146-0.1-0.238-0.1h-0.25v-0.718h0.25c0.289,0,0.535,0.103,0.739,0.307c0.205,0.205,0.307,0.454,0.307,0.748v1.418
				c0.046,0.023,0.118,0.064,0.216,0.125c0.098,0.061,0.159,0.097,0.182,0.108v0.821l-0.397,0.251v1.4
				c0,0.288-0.103,0.534-0.307,0.739c-0.205,0.204-0.451,0.307-0.739,0.307h-0.25V68.66h0.25c0.092,0,0.171-0.033,0.238-0.1
				S111.043,68.415,111.043,68.323z"/>
		</g>
		<g>
			<path fill="#FF9800" d="M236.728,76.5h-122.5c-7.168,0-13-5.832-13-13V13c0-7.168,5.832-13,13-13h122.5c7.168,0,13,5.832,13,13
				v50.5C249.728,70.668,243.896,76.5,236.728,76.5z M114.228,2c-6.065,0-11,4.935-11,11v50.5c0,6.065,4.935,11,11,11h122.5
				c6.065,0,11-4.935,11-11V13c0-6.065-4.935-11-11-11H114.228z"/>
		</g>
	</g>
</g>
</svg>
