<?xml version="1.0" encoding="utf-8"?>
<!-- Generator: Adobe Illustrator 18.0.0, SVG Export Plug-In . SVG Version: 6.00 Build 0)  -->
<!DOCTYPE svg PUBLIC "-//W3C//DTD SVG 1.1//EN" "http://www.w3.org/Graphics/SVG/1.1/DTD/svg11.dtd">
<svg version="1.1" id="Layer_1" xmlns="http://www.w3.org/2000/svg" xmlns:xlink="http://www.w3.org/1999/xlink" x="0px" y="0px"
	 viewBox="0 0 106.5 41.7" enable-background="new 0 0 106.5 41.7" xml:space="preserve">
<g>
	<g opacity="0.2">
		<path d="M21.5,35.6c-7.8,0-14.1-6.3-14.1-14.1c0-7.8,6.3-14.1,14.1-14.1c6.8,0,12.5,4.8,13.8,11.2h6C39.9,9,31.6,1.5,21.5,1.5
			c-11,0-20,9-20,20c0,11,9,20,20,20c10.1,0,18.4-7.5,19.8-17.2h-6C34,30.7,28.3,35.6,21.5,35.6"/>
		<path d="M24.8,26.1c-0.2,0.3-0.6,0.6-1,0.6h-4.7c-0.4,0-0.8-0.3-1-0.6l-2.3-4c-0.2-0.3-0.2-0.8,0-1.1l2.3-4c0.2-0.3,0.6-0.6,1-0.6
			h4.7c0.4,0,0.8,0.3,1,0.6l1,1.8h5.4c-1.2-4.2-5.1-7.3-9.7-7.3c-5.6,0-10.2,4.6-10.2,10.2c0,5.6,4.6,10.2,10.2,10.2
			c4.6,0,8.5-3.1,9.7-7.3h-5.4L24.8,26.1z"/>
		<path d="M57,10.5c0.3,0.3,0.3,0.5,0,0.7l-1,1c-0.3,0.3-0.4,0.3-0.7,0l-0.7-0.8h-3.8l-1.1,1.1v2.9l1.1,1.1h3.9l0.7-0.8
			c0.3-0.3,0.4-0.3,0.7,0l1,1c0.3,0.3,0.3,0.5,0,0.7l-0.9,0.9c-0.3,0.3-0.5,0.4-0.9,0.4h-5.1c-0.4,0-0.6-0.1-0.9-0.4l-1.7-1.7
			c-0.3-0.3-0.4-0.5-0.4-0.9v-3.5c0-0.4,0.1-0.6,0.4-0.9l1.7-1.7c0.3-0.3,0.5-0.4,0.9-0.4h5.1c0.4,0,0.6,0.1,0.9,0.4L57,10.5z"/>
		<path d="M59.6,10.9c-0.3-0.3-0.3-0.5,0-0.7l1-1c0.3-0.3,0.5-0.3,0.7,0l3.3,3.4l3.3-3.4c0.3-0.3,0.5-0.3,0.7,0l1,1
			c0.3,0.3,0.3,0.5,0,0.7l-3.8,3.8l0,3.5c0,0.4-0.1,0.5-0.5,0.5h-1.3c-0.4,0-0.5-0.1-0.5-0.5l0-3.6L59.6,10.9z"/>
		<path d="M78.7,16.7l1-0.8l-1-0.9h-4.1v1.7H78.7z M78.7,11.3h-4.1V13h4.1l1-0.8L78.7,11.3z M72.2,9.9c0-0.4,0.1-0.5,0.5-0.5h6.9
			c0.4,0,0.6,0.1,0.9,0.4l1,0.9c0.3,0.3,0.4,0.4,0.4,0.9l0,0.7c0,0.4-0.1,0.6-0.4,0.9L80.7,14l0.9,0.9c0.3,0.3,0.3,0.5,0.3,0.9
			l0,0.8c0,0.3-0.1,0.6-0.3,0.8c0,0-0.8,0.8-0.9,0.9c-0.3,0.2-0.5,0.4-0.9,0.4h-7c-0.4,0-0.5-0.1-0.5-0.5V9.9z"/>
		<path d="M87,15L87,15L87,15l4.7,0c0.3,0,0.4-0.2,0.4-0.5v-0.9c0-0.4-0.1-0.5-0.5-0.5L87,13v-1.6l5.1,0c0.4,0,0.5-0.1,0.5-0.5v-1
			c0-0.4-0.1-0.5-0.5-0.5h-6.8c-0.4,0-0.5,0.1-0.5,0.5v8.2c0,0.4,0.1,0.5,0.5,0.5h6.9c0.4,0,0.5-0.1,0.5-0.5v-0.9
			c0-0.4-0.1-0.5-0.5-0.5l-5.1,0V15z"/>
		<path d="M102.7,12.9l-0.7,0.7h-4.1v-2.2h4.1v0h0l0.7,0.7V12.9z M105,17.4l-2.1-2l0.2,0c0.1,0,0.3-0.1,0.5-0.3l1.1-1.1
			c0.3-0.3,0.4-0.5,0.4-0.9v-1.2c0-0.4-0.1-0.6-0.4-0.9l-1.1-1.1c-0.3-0.3-0.5-0.4-0.9-0.4h-6.6c-0.4,0-0.5,0.1-0.5,0.5v8.2
			c0,0.3,0.1,0.5,0.3,0.5h1.7c0.3,0,0.4-0.2,0.4-0.5v-2.4h2.2l3.1,3.2c0.3,0.3,0.5,0.3,0.8,0l0.9-0.8
			C105.3,17.9,105.3,17.7,105,17.4"/>
		<path d="M57,25.5c0.3,0.3,0.3,0.5,0,0.7l-1,1c-0.3,0.3-0.5,0.3-0.7,0l-0.7-0.8h-3.8l-1.1,1.1v2.9l1.1,1.1h3.9l0.7-0.8
			c0.3-0.3,0.4-0.3,0.7,0l1,1c0.3,0.3,0.3,0.5,0,0.7l-0.9,0.9c-0.3,0.3-0.5,0.4-0.9,0.4h-5.1c-0.4,0-0.6-0.1-0.9-0.4l-1.7-1.7
			c-0.3-0.3-0.4-0.5-0.4-0.9v-3.5c0-0.4,0.1-0.6,0.4-0.9l1.7-1.7c0.3-0.3,0.5-0.4,0.9-0.4h5.1c0.4,0,0.6,0.1,0.9,0.4L57,25.5z"/>
		<path d="M67.1,27.9l-0.7,0.7h-4.1v-2.2h4.1v0h0l0.7,0.7V27.9z M69.4,32.4l-2.1-2l0.2,0c0.1,0,0.3-0.1,0.5-0.3l1.1-1.1
			c0.3-0.3,0.4-0.5,0.4-0.9v-1.2c0-0.4-0.1-0.6-0.4-0.9L68,24.7c-0.3-0.3-0.5-0.4-0.9-0.4h-6.6c-0.4,0-0.5,0.1-0.5,0.5v8.2
			c0,0.3,0.1,0.5,0.3,0.5h1.7c0.3,0,0.4-0.2,0.4-0.5v-2.4h2.2l3.1,3.2c0.3,0.3,0.5,0.3,0.8,0l0.9-0.8C69.6,32.9,69.6,32.7,69.4,32.4
			"/>
		<path d="M91.9,24.4h-6.3c-0.4,0-0.5,0.1-0.5,0.5v8.2c0,0.4,0.1,0.5,0.5,0.5h1.2c0.4,0,0.6-0.1,0.6-0.5V30h4.3
			c0.4,0,0.5-0.1,0.5-0.5v-0.9c0-0.4-0.1-0.5-0.5-0.5l-4.3,0v-1.6h0v0h4.5c0.4,0,0.5-0.1,0.5-0.5v-1C92.4,24.5,92.3,24.4,91.9,24.4"
			/>
		<path d="M104.5,24.4h-8.1c-0.4,0-0.5,0.1-0.5,0.5v1c0,0.3,0.1,0.5,0.3,0.5h3v0v6.8c0,0.4,0.1,0.5,0.5,0.5h1.3
			c0.4,0,0.5-0.1,0.5-0.5l0-6.7h0v0h3.1c0.2,0,0.3-0.2,0.3-0.5v-1C105.1,24.5,105,24.4,104.5,24.4"/>
		<path d="M74.6,29.4v-0.9l2.5-2.4l2.4,2.4l0,0.8H74.6z M81.5,27.4l-2.7-2.8c-0.3-0.3-0.5-0.4-0.9-0.4h-1.5c-0.4,0-0.6,0.1-0.9,0.4
			l-2.8,2.8c-0.3,0.3-0.4,0.5-0.4,0.9l0,4.9c0,0.4,0.1,0.5,0.4,0.5l1.5,0c0.3,0,0.4-0.1,0.4-0.4v-1.9v1.9c0,0,0-0.1,0-0.1l0-1.8h4.9
			l0,1.7c0,0.4,0.1,0.5,0.4,0.5H81l0.3,0c0.4,0,0.6-0.2,0.6-0.6v-4.8C81.9,27.9,81.8,27.7,81.5,27.4"/>
	</g>
	<g>
		<g>
			<path fill="#FFFFFF" d="M20.5,34.6c-7.8,0-14.1-6.3-14.1-14.1c0-7.8,6.3-14.1,14.1-14.1c6.8,0,12.5,4.8,13.8,11.2h6
				C38.9,8,30.6,0.5,20.5,0.5c-11,0-20,9-20,20c0,11,9,20,20,20c10.1,0,18.4-7.5,19.8-17.2h-6C33,29.7,27.3,34.6,20.5,34.6"/>
			<path fill="#FFFFFF" d="M23.8,25.1c-0.2,0.3-0.6,0.6-1,0.6h-4.7c-0.4,0-0.8-0.3-1-0.6l-2.3-4c-0.2-0.3-0.2-0.8,0-1.1l2.3-4
				c0.2-0.3,0.6-0.6,1-0.6h4.7c0.4,0,0.8,0.3,1,0.6l1,1.8h5.4c-1.2-4.2-5.1-7.3-9.7-7.3c-5.6,0-10.2,4.6-10.2,10.2
				c0,5.6,4.6,10.2,10.2,10.2c4.6,0,8.5-3.1,9.7-7.3h-5.4L23.8,25.1z"/>
			<path fill="#FFFFFF" d="M56,9.5c0.3,0.3,0.3,0.5,0,0.7l-1,1c-0.3,0.3-0.4,0.3-0.7,0l-0.7-0.8h-3.8l-1.1,1.1v2.9l1.1,1.1h3.9
				l0.7-0.8c0.3-0.3,0.4-0.3,0.7,0l1,1c0.3,0.3,0.3,0.5,0,0.7l-0.9,0.9c-0.3,0.3-0.5,0.4-0.9,0.4h-5.1c-0.4,0-0.6-0.1-0.9-0.4
				l-1.7-1.7c-0.3-0.3-0.4-0.5-0.4-0.9v-3.5c0-0.4,0.1-0.6,0.4-0.9l1.7-1.7c0.3-0.3,0.5-0.4,0.9-0.4h5.1c0.4,0,0.6,0.1,0.9,0.4
				L56,9.5z"/>
			<path fill="#FFFFFF" d="M58.6,9.9c-0.3-0.3-0.3-0.5,0-0.7l1-1c0.3-0.3,0.5-0.3,0.7,0l3.3,3.4l3.3-3.4c0.3-0.3,0.5-0.3,0.7,0l1,1
				c0.3,0.3,0.3,0.5,0,0.7l-3.8,3.8l0,3.5c0,0.4-0.1,0.5-0.5,0.5h-1.3c-0.4,0-0.5-0.1-0.5-0.5l0-3.6L58.6,9.9z"/>
			<path fill="#FFFFFF" d="M77.7,15.7l1-0.8l-1-0.9h-4.1v1.7H77.7z M77.7,10.3h-4.1V12h4.1l1-0.8L77.7,10.3z M71.2,8.9
				c0-0.4,0.1-0.5,0.5-0.5h6.9c0.4,0,0.6,0.1,0.9,0.4l1,0.9c0.3,0.3,0.4,0.4,0.4,0.9l0,0.7c0,0.4-0.1,0.6-0.4,0.9L79.7,13l0.9,0.9
				c0.3,0.3,0.3,0.5,0.3,0.9l0,0.8c0,0.3-0.1,0.6-0.3,0.8c0,0-0.8,0.8-0.9,0.9c-0.3,0.2-0.5,0.4-0.9,0.4h-7c-0.4,0-0.5-0.1-0.5-0.5
				V8.9z"/>
			<path fill="#FFFFFF" d="M86,14L86,14L86,14l4.7,0c0.3,0,0.4-0.2,0.4-0.5v-0.9c0-0.4-0.1-0.5-0.5-0.5L86,12v-1.6l5.1,0
				c0.4,0,0.5-0.1,0.5-0.5v-1c0-0.4-0.1-0.5-0.5-0.5h-6.8c-0.4,0-0.5,0.1-0.5,0.5v8.2c0,0.4,0.1,0.5,0.5,0.5h6.9
				c0.4,0,0.5-0.1,0.5-0.5v-0.9c0-0.4-0.1-0.5-0.5-0.5l-5.1,0V14z"/>
			<path fill="#FFFFFF" d="M101.7,11.9l-0.7,0.7h-4.1v-2.2h4.1v0h0l0.7,0.7V11.9z M104,16.4l-2.1-2l0.2,0c0.1,0,0.3-0.1,0.5-0.3
				l1.1-1.1c0.3-0.3,0.4-0.5,0.4-0.9v-1.2c0-0.4-0.1-0.6-0.4-0.9l-1.1-1.1c-0.3-0.3-0.5-0.4-0.9-0.4h-6.6c-0.4,0-0.5,0.1-0.5,0.5
				v8.2c0,0.3,0.1,0.5,0.3,0.5h1.7c0.3,0,0.4-0.2,0.4-0.5v-2.4h2.2l3.1,3.2c0.3,0.3,0.5,0.3,0.8,0l0.9-0.8
				C104.3,16.9,104.3,16.7,104,16.4"/>
			<path fill="#FFFFFF" d="M56,24.5c0.3,0.3,0.3,0.5,0,0.7l-1,1c-0.3,0.3-0.5,0.3-0.7,0l-0.7-0.8h-3.8l-1.1,1.1v2.9l1.1,1.1h3.9
				l0.7-0.8c0.3-0.3,0.4-0.3,0.7,0l1,1c0.3,0.3,0.3,0.5,0,0.7l-0.9,0.9c-0.3,0.3-0.5,0.4-0.9,0.4h-5.1c-0.4,0-0.6-0.1-0.9-0.4
				l-1.7-1.7c-0.3-0.3-0.4-0.5-0.4-0.9v-3.5c0-0.4,0.1-0.6,0.4-0.9l1.7-1.7c0.3-0.3,0.5-0.4,0.9-0.4h5.1c0.4,0,0.6,0.1,0.9,0.4
				L56,24.5z"/>
			<path fill="#FFFFFF" d="M66.1,26.9l-0.7,0.7h-4.1v-2.2h4.1v0h0l0.7,0.7V26.9z M68.4,31.4l-2.1-2l0.2,0c0.1,0,0.3-0.1,0.5-0.3
				l1.1-1.1c0.3-0.3,0.4-0.5,0.4-0.9v-1.2c0-0.4-0.1-0.6-0.4-0.9L67,23.7c-0.3-0.3-0.5-0.4-0.9-0.4h-6.6c-0.4,0-0.5,0.1-0.5,0.5v8.2
				c0,0.3,0.1,0.5,0.3,0.5h1.7c0.3,0,0.4-0.2,0.4-0.5v-2.4h2.2l3.1,3.2c0.3,0.3,0.5,0.3,0.8,0l0.9-0.8
				C68.6,31.9,68.6,31.7,68.4,31.4"/>
			<path fill="#FFFFFF" d="M90.9,23.4h-6.3c-0.4,0-0.5,0.1-0.5,0.5v8.2c0,0.4,0.1,0.5,0.5,0.5h1.2c0.4,0,0.6-0.1,0.6-0.5V29h4.3
				c0.4,0,0.5-0.1,0.5-0.5v-0.9c0-0.4-0.1-0.5-0.5-0.5l-4.3,0v-1.6h0v0h4.5c0.4,0,0.5-0.1,0.5-0.5v-1C91.4,23.5,91.3,23.4,90.9,23.4
				"/>
			<path fill="#FFFFFF" d="M103.5,23.4h-8.1c-0.4,0-0.5,0.1-0.5,0.5v1c0,0.3,0.1,0.5,0.3,0.5h3v0v6.8c0,0.4,0.1,0.5,0.5,0.5h1.3
				c0.4,0,0.5-0.1,0.5-0.5l0-6.7h0v0h3.1c0.2,0,0.3-0.2,0.3-0.5v-1C104.1,23.5,104,23.4,103.5,23.4"/>
			<path fill="#FFFFFF" d="M73.6,28.4v-0.9l2.5-2.4l2.4,2.4l0,0.8H73.6z M80.5,26.4l-2.7-2.8c-0.3-0.3-0.5-0.4-0.9-0.4h-1.5
				c-0.4,0-0.6,0.1-0.9,0.4l-2.8,2.8c-0.3,0.3-0.4,0.5-0.4,0.9l0,4.9c0,0.4,0.1,0.5,0.4,0.5l1.5,0c0.3,0,0.4-0.1,0.4-0.4v-1.9v1.9
				c0,0,0-0.1,0-0.1l0-1.8h4.9l0,1.7c0,0.4,0.1,0.5,0.4,0.5H80l0.3,0c0.4,0,0.6-0.2,0.6-0.6v-4.8C80.9,26.9,80.8,26.7,80.5,26.4"/>
		</g>
	</g>
</g>
</svg>
