<?xml version="1.0" encoding="utf-8"?>
<!-- Generator: Adobe Illustrator 16.0.2, SVG Export Plug-In . SVG Version: 6.00 Build 0)  -->
<!DOCTYPE svg PUBLIC "-//W3C//DTD SVG 1.1//EN" "http://www.w3.org/Graphics/SVG/1.1/DTD/svg11.dtd">
<svg version="1.1" id="Layer_1" xmlns="http://www.w3.org/2000/svg" xmlns:xlink="http://www.w3.org/1999/xlink" x="0px" y="0px"
	 width="103.715px" height="40px" viewBox="0 0 103.715 40" enable-background="new 0 0 103.715 40" xml:space="preserve">
<g>
	<g>
		<path fill="#384046" d="M19.866,33.825c-7.698,0-13.964-6.261-13.964-13.961c0-7.701,6.266-13.964,13.964-13.964
			c6.732,0,12.369,4.791,13.678,11.144h5.983C38.151,7.422,29.862,0,19.866,0C8.911,0,0,8.911,0,19.864
			c0,10.952,8.911,19.859,19.866,19.859c9.996,0,18.285-7.419,19.661-17.041h-5.983C32.235,29.035,26.598,33.825,19.866,33.825"/>
		<path fill="#384046" d="M23.136,24.42c-0.176,0.307-0.609,0.556-0.961,0.556h-4.62c-0.353,0-0.786-0.249-0.963-0.556l-2.309-4.001
			c-0.177-0.305-0.177-0.806,0-1.11l2.309-4.003c0.177-0.304,0.61-0.555,0.963-0.555h4.62c0.352,0,0.786,0.25,0.961,0.555
			l1.002,1.739h5.402c-1.222-4.193-5.094-7.267-9.677-7.267c-5.561,0-10.085,4.525-10.085,10.086
			c0,5.561,4.524,10.084,10.085,10.084c4.583,0,8.455-3.072,9.677-7.266h-5.402L23.136,24.42z"/>
		<path fill="#384046" d="M55.137,8.982c0.273,0.274,0.273,0.448,0,0.722l-1.024,1.038c-0.273,0.274-0.446,0.261-0.735-0.042
			l-0.735-0.778h-3.808l-1.081,1.081v2.854l1.081,1.082h3.835l0.737-0.765c0.273-0.288,0.446-0.288,0.722-0.015l0.993,1.011
			c0.275,0.273,0.26,0.446-0.027,0.735l-0.865,0.85c-0.275,0.275-0.49,0.361-0.895,0.361h-5.062c-0.404,0-0.635-0.102-0.909-0.375
			l-1.672-1.672c-0.274-0.274-0.375-0.506-0.375-0.91v-3.431c0-0.403,0.086-0.621,0.36-0.894l1.701-1.73
			c0.275-0.275,0.491-0.361,0.895-0.361h5.075c0.404,0,0.621,0.085,0.895,0.361L55.137,8.982z"/>
		<path fill="#384046" d="M57.682,9.33c-0.273-0.274-0.261-0.461,0.015-0.736l0.967-0.967c0.273-0.273,0.461-0.287,0.736,0
			l3.243,3.375l3.245-3.375c0.273-0.287,0.446-0.287,0.72-0.013l0.952,0.966c0.275,0.274,0.275,0.448,0,0.722l-3.794,3.749
			l0.016,3.503c0,0.39-0.13,0.52-0.533,0.52h-1.312c-0.403,0-0.533-0.13-0.533-0.52l0.029-3.532L57.682,9.33z"/>
		<path fill="#384046" d="M76.706,15.083l0.972-0.822l-0.968-0.865h-4.108v1.688H76.706z M76.709,9.776h-4.108v1.674h4.11
			l0.958-0.82L76.709,9.776z M70.25,8.348c0-0.403,0.13-0.533,0.533-0.533h6.85c0.405,0,0.634,0.087,0.923,0.375l0.952,0.938
			c0.287,0.287,0.361,0.418,0.361,0.85l-0.016,0.722c0,0.39-0.101,0.605-0.388,0.894L78.643,12.4l0.908,0.923
			c0.275,0.274,0.285,0.468,0.299,0.857l0.004,0.788c0,0.347-0.072,0.547-0.318,0.792c0,0-0.813,0.831-0.937,0.922
			c-0.25,0.186-0.489,0.36-0.893,0.36h-6.923c-0.403,0-0.533-0.13-0.533-0.533V8.348z"/>
		<path fill="#384046" d="M84.942,13.381L84.942,13.381v-0.003h4.646c0.273-0.033,0.37-0.179,0.37-0.526V11.98
			c0-0.405-0.128-0.535-0.52-0.535l-4.496,0.002V9.86l5.045,0.001c0.39,0,0.52-0.13,0.52-0.534V8.348
			c0-0.403-0.13-0.533-0.533-0.533h-6.791c-0.405,0-0.535,0.13-0.535,0.533v8.162c0,0.403,0.13,0.533,0.535,0.533h6.849
			c0.404,0,0.534-0.13,0.534-0.533v-0.902c0-0.403-0.13-0.534-0.521-0.534l-5.103,0.006V13.381z"/>
		<path fill="#384046" d="M100.552,11.32l-0.698,0.715h-4.076V9.857h4.076v0.006h0.005l0.693,0.677V11.32z M102.789,15.79
			l-2.051-1.99l0.19,0.029c0.128,0.015,0.258-0.058,0.531-0.333l1.111-1.124c0.287-0.288,0.375-0.519,0.375-0.922v-1.212
			c0-0.403-0.102-0.634-0.375-0.908l-1.139-1.14c-0.275-0.274-0.504-0.375-0.909-0.375H93.96c-0.403,0-0.533,0.13-0.533,0.533v8.191
			c0,0.31,0.08,0.458,0.293,0.51h1.666c0.295-0.037,0.392-0.19,0.392-0.539v-2.408h2.179l3.113,3.187
			c0.289,0.288,0.464,0.303,0.766,0.043l0.924-0.809C103.076,16.25,103.076,16.078,102.789,15.79"/>
		<path fill="#384046" d="M55.161,23.868c0.273,0.274,0.273,0.447,0,0.721l-1.024,1.039c-0.273,0.274-0.446,0.259-0.735-0.042
			l-0.735-0.78H48.86l-1.083,1.081v2.855l1.083,1.082h3.835l0.735-0.765c0.273-0.289,0.446-0.289,0.722-0.014l0.993,1.009
			c0.275,0.273,0.26,0.447-0.029,0.735l-0.863,0.852c-0.275,0.273-0.491,0.36-0.895,0.36h-5.063c-0.404,0-0.634-0.101-0.908-0.376
			l-1.672-1.672c-0.275-0.273-0.376-0.505-0.376-0.908v-3.433c0-0.403,0.087-0.621,0.361-0.895l1.701-1.73
			c0.276-0.273,0.491-0.36,0.895-0.36h5.076c0.403,0,0.621,0.087,0.895,0.36L55.161,23.868z"/>
		<path fill="#384046" d="M65.147,26.205l-0.698,0.715h-4.077v-2.178h4.077v0.006h0.006l0.692,0.678V26.205z M67.382,30.674
			l-2.049-1.989l0.188,0.029c0.13,0.015,0.26-0.058,0.533-0.332l1.109-1.124c0.289-0.289,0.376-0.52,0.376-0.923v-1.213
			c0-0.403-0.101-0.634-0.376-0.907l-1.139-1.139c-0.273-0.274-0.504-0.376-0.907-0.376h-6.563c-0.403,0-0.533,0.13-0.533,0.535
			v8.188c0,0.313,0.078,0.458,0.291,0.511h1.668c0.293-0.037,0.392-0.19,0.392-0.539v-2.408h2.179l3.113,3.188
			c0.289,0.289,0.461,0.303,0.764,0.043l0.924-0.807C67.67,31.137,67.67,30.963,67.382,30.674"/>
		<path fill="#384046" d="M89.755,22.7h-6.302c-0.403,0-0.533,0.131-0.533,0.534v8.189c0,0.404,0.13,0.534,0.533,0.534h1.231
			c0.433,0,0.566-0.13,0.566-0.52v-3.162h4.285c0.356-0.01,0.479-0.144,0.479-0.531v-0.881c0-0.403-0.129-0.533-0.521-0.533h-4.24
			V24.75l0,0v-0.004h4.516c0.388,0,0.519-0.129,0.519-0.533v-0.979C90.29,22.831,90.159,22.7,89.755,22.7"/>
		<path fill="#384046" d="M102.336,22.7h-8.019c-0.403,0-0.533,0.131-0.533,0.534v0.98c0,0.321,0.085,0.467,0.315,0.514h3.03v0.02
			v6.713c0.006,0.371,0.138,0.497,0.533,0.497h1.312c0.405,0,0.533-0.13,0.533-0.534V24.75l0,0v-0.021h3.053
			c0.224-0.05,0.307-0.194,0.307-0.51v-0.984C102.868,22.831,102.738,22.7,102.336,22.7"/>
		<path fill="#384046" d="M72.63,27.66V26.81l2.437-2.351l2.423,2.364v0.837H72.63z M79.437,25.7l-2.712-2.783
			c-0.287-0.289-0.504-0.39-0.907-0.39h-1.486c-0.403,0-0.62,0.101-0.907,0.39l-2.741,2.797c-0.287,0.289-0.374,0.52-0.374,0.909
			l-0.002,4.828c0,0.354,0.108,0.491,0.429,0.515l1.468-0.012c0.293-0.021,0.407-0.143,0.425-0.435v-1.842v1.842
			c0.002-0.026,0.004-0.053,0.004-0.08l-0.002-1.759h4.859v1.73c0,0.378,0.136,0.52,0.443,0.543h1.052l0.279-0.002
			c0.417,0,0.547-0.151,0.547-0.557v-4.772C79.811,26.218,79.726,25.987,79.437,25.7"/>
	</g>
</g>
</svg>
