<?xml version="1.0" encoding="utf-8"?>
<!-- Generator: Adobe Illustrator 18.0.0, SVG Export Plug-In . SVG Version: 6.00 Build 0)  -->
<!DOCTYPE svg PUBLIC "-//W3C//DTD SVG 1.1//EN" "http://www.w3.org/Graphics/SVG/1.1/DTD/svg11.dtd">
<svg version="1.1" id="Layer_1" xmlns="http://www.w3.org/2000/svg" xmlns:xlink="http://www.w3.org/1999/xlink" x="0px" y="0px"
	 viewBox="0 0 256 148.7" enable-background="new 0 0 256 148.7" xml:space="preserve">
<path fill="#F39600" d="M129.2,72.2c-15.5,0-28.1-12.6-28.1-28.1c0-15.5,12.6-28.1,28.1-28.1c13.5,0,24.9,9.6,27.5,22.4h12
	C166,19.1,149.3,4.2,129.2,4.2c-22,0-39.9,17.9-39.9,39.9c0,22,17.9,39.9,39.9,39.9c20.1,0,36.7-14.9,39.5-34.2h-12
	C154.1,62.5,142.8,72.2,129.2,72.2z"/>
<path fill="#FFFFFF" d="M135.8,53.3c-0.4,0.6-1.2,1.1-1.9,1.1h-9.3c-0.7,0-1.6-0.5-1.9-1.1l-4.6-8c-0.4-0.6-0.4-1.6,0-2.2l4.6-8
	c0.4-0.6,1.2-1.1,1.9-1.1h9.3c0.7,0,1.6,0.5,1.9,1.1l2,3.5h10.9c-2.5-8.4-10.2-14.6-19.4-14.6c-11.2,0-20.3,9.1-20.3,20.3
	c0,11.2,9.1,20.3,20.3,20.3c9.2,0,17-6.2,19.4-14.6h-10.9L135.8,53.3z"/>
<g>
	<g>
		<path fill="#FFFFFF" d="M25.7,107c0.6,0.6,0.6,0.9,0,1.4l-2.1,2.1c-0.6,0.6-0.9,0.5-1.5-0.1l-1.5-1.6H13l-2.2,2.2v5.7l2.2,2.2h7.7
			l1.5-1.5c0.6-0.6,0.9-0.6,1.4,0l2,2c0.5,0.6,0.5,0.9-0.1,1.5l-1.7,1.7c-0.6,0.6-1,0.7-1.8,0.7H11.9c-0.8,0-1.3-0.2-1.8-0.8
			l-3.4-3.4c-0.6-0.5-0.8-1-0.8-1.8v-6.9c0-0.8,0.2-1.2,0.7-1.8l3.4-3.5c0.6-0.6,1-0.7,1.8-0.7h10.2c0.8,0,1.2,0.2,1.8,0.7L25.7,107
			z"/>
		<path fill="#FFFFFF" d="M30.8,107.6c-0.6-0.6-0.5-0.9,0-1.5l1.9-1.9c0.5-0.6,0.9-0.6,1.5,0l6.5,6.8l6.5-6.8c0.6-0.6,0.9-0.6,1.4,0
			l1.9,1.9c0.6,0.6,0.6,0.9,0,1.4l-7.6,7.5l0,7c0,0.8-0.3,1-1.1,1h-2.6c-0.8,0-1.1-0.3-1.1-1l0.1-7.1L30.8,107.6z"/>
		<path fill="#FFFFFF" d="M56.1,105.7c0-0.8,0.3-1.1,1.1-1.1h13.8c0.8,0,1.3,0.2,1.9,0.8l1.9,1.9c0.6,0.6,0.7,0.8,0.7,1.7l0,1.5
			c0,0.8-0.2,1.2-0.8,1.8l-1.7,1.6l1.8,1.9c0.6,0.5,0.6,0.9,0.6,1.7l0,1.6c0,0.7-0.1,1.1-0.6,1.6c0,0-1.6,1.7-1.9,1.9
			c-0.5,0.4-1,0.7-1.8,0.7H57.1c-0.8,0-1.1-0.3-1.1-1.1V105.7z M69,108.5h-8.3v3.4H69l1.9-1.6L69,108.5z M69,119.2l2-1.7l-1.9-1.7
			h-8.3v3.4H69z"/>
		<path fill="#FFFFFF" d="M85.6,115.8L85.6,115.8L85.6,115.8l9.3,0c0.6-0.1,0.7-0.4,0.7-1.1V113c0-0.8-0.3-1.1-1-1.1l-9,0v-3.2
			l10.1,0c0.8,0,1-0.3,1-1.1v-2c0-0.8-0.3-1.1-1.1-1.1H82c-0.8,0-1.1,0.3-1.1,1.1v16.4c0,0.8,0.3,1.1,1.1,1.1h13.8
			c0.8,0,1.1-0.3,1.1-1.1v-1.8c0-0.8-0.3-1.1-1-1.1l-10.3,0V115.8z"/>
		<path fill="#FFFFFF" d="M121.4,120.6l-4.1-4l0.4,0.1c0.3,0,0.5-0.1,1.1-0.7l2.2-2.3c0.6-0.6,0.8-1,0.8-1.9v-2.4
			c0-0.8-0.2-1.3-0.8-1.8l-2.3-2.3c-0.5-0.6-1-0.8-1.8-0.8h-13.2c-0.8,0-1.1,0.3-1.1,1.1v16.5c0,0.6,0.2,0.9,0.6,1h3.3
			c0.6-0.1,0.8-0.4,0.8-1.1v-4.8h4.4l6.3,6.4c0.6,0.6,0.9,0.6,1.5,0.1l1.9-1.6C122,121.6,122,121.2,121.4,120.6z M117,111.6
			l-1.4,1.4h-8.2v-4.4h8.2v0h0l1.4,1.4V111.6z"/>
	</g>
	<g>
		<path fill="#FFFFFF" d="M156.2,107c0.6,0.6,0.6,0.9,0,1.4l-2.1,2.1c-0.6,0.6-0.9,0.5-1.5-0.1l-1.5-1.6h-7.7l-2.2,2.2v5.7l2.2,2.2
			h7.7l1.5-1.5c0.6-0.6,0.9-0.6,1.4,0l2,2c0.6,0.6,0.5,0.9-0.1,1.5l-1.7,1.7c-0.6,0.6-1,0.7-1.8,0.7h-10.2c-0.8,0-1.3-0.2-1.8-0.8
			l-3.4-3.4c-0.6-0.5-0.8-1-0.8-1.8v-6.9c0-0.8,0.2-1.2,0.7-1.8l3.4-3.5c0.6-0.6,1-0.7,1.8-0.7h10.2c0.8,0,1.2,0.2,1.8,0.7
			L156.2,107z"/>
		<path fill="#FFFFFF" d="M180.8,120.6l-4.1-4l0.4,0.1c0.3,0,0.5-0.1,1.1-0.7l2.2-2.3c0.6-0.6,0.8-1,0.8-1.9v-2.4
			c0-0.8-0.2-1.3-0.8-1.8l-2.3-2.3c-0.5-0.6-1-0.8-1.8-0.8h-13.2c-0.8,0-1.1,0.3-1.1,1.1v16.5c0,0.6,0.2,0.9,0.6,1h3.3
			c0.6-0.1,0.8-0.4,0.8-1.1v-4.8h4.4l6.3,6.4c0.6,0.6,0.9,0.6,1.5,0.1l1.9-1.6C181.4,121.6,181.4,121.2,180.8,120.6z M176.3,111.6
			l-1.4,1.4h-8.2v-4.4h8.2v0h0l1.4,1.4V111.6z"/>
		<path fill="#FFFFFF" d="M225.7,104.6h-12.7c-0.8,0-1.1,0.3-1.1,1.1v16.5c0,0.8,0.3,1.1,1.1,1.1h2.5c0.9,0,1.1-0.3,1.1-1v-4.4h0
			v-1.9h8.6c0.7,0,1-0.3,1-1.1V113c0-0.8-0.3-1.1-1-1.1l-5.1,0h-3.4v-3.2h0v0h9.1c0.8,0,1-0.3,1-1.1v-2
			C226.8,104.9,226.6,104.6,225.7,104.6z"/>
		<path fill="#FFFFFF" d="M251,104.6h-16.1c-0.8,0-1.1,0.3-1.1,1.1v2c0,0.6,0.2,0.9,0.6,1h6.1v0v3.1v10.4c0,0.7,0.3,1,1.1,1h2.6
			c0.8,0,1.1-0.3,1.1-1.1v-12.8h0v-0.7h0v0h6.1c0.4-0.1,0.6-0.4,0.6-1v-2C252.1,104.9,251.8,104.6,251,104.6z"/>
		<path fill="#FFFFFF" d="M205,110.6l-5.4-5.6c-0.6-0.6-1-0.8-1.8-0.8h-3c-0.8,0-1.2,0.2-1.8,0.8l-5.5,5.6c-0.6,0.6-0.8,1-0.8,1.8
			l0,9.7c0,0.7,0.2,1,0.9,1l2.9,0c0.6,0,0.8-0.3,0.9-0.9v-3.7v3.7c0-0.1,0-0.1,0-0.2l0-3.5h9.8l0,3.5c0,0.8,0.3,1,0.9,1.1h2.1l0.6,0
			c0.8,0,1.1-0.3,1.1-1.1v-9.6C205.8,111.7,205.6,111.2,205,110.6z M191.3,114.6v-1.7l4.9-4.7l4.9,4.7l0,1.7H191.3z"/>
	</g>
</g>
<g>
	<path fill="#F39600" d="M18.9,139c0,0.4,0,0.7-0.1,1c-0.1,0.3-0.1,0.6-0.3,0.9c-0.1,0.3-0.3,0.5-0.5,0.8c-0.2,0.2-0.4,0.4-0.7,0.6
		c-0.3,0.2-0.6,0.3-1,0.4c-0.4,0.1-0.8,0.1-1.3,0.1h-1.5c-0.1,0-0.1-0.1-0.1-0.1v-7.3c0-0.1,0.1-0.1,0.1-0.1h1.7c0.1,0,0.2,0,0.3,0
		c0,0,1.9,0.1,2.6,0.9C18.5,136.9,18.9,137.7,18.9,139z M17.8,139.1c0-0.5-0.1-1-0.2-1.4c-0.1-0.4-0.3-0.7-0.5-0.9
		c-0.2-0.2-0.5-0.4-0.8-0.5c-0.3-0.1-0.7-0.2-1.1-0.2h-0.8c-0.1,0-0.1,0.1-0.1,0.1v5.6c0,0.1,0.1,0.1,0.1,0.1h0.6
		C16.9,142,17.8,141,17.8,139.1z"/>
	<path fill="#F39600" d="M25.5,139.6c0,0.1,0,0.3,0,0.4c0,0.1,0,0.2,0,0.3h-4c-0.1,0-0.1,0.1-0.1,0.1c0,0,0.1,0.9,0.5,1.2
		c0.3,0.3,0.8,0.5,1.4,0.5c0.2,0,0.3,0,0.5,0c0.2,0,0.3,0,0.5-0.1c0.2,0,0.3,0,0.5-0.1c0.1,0,0.3-0.1,0.4-0.1v0.7
		c0,0.1-0.1,0.1-0.1,0.2c0,0-0.5,0.1-0.8,0.2c-0.3,0-0.7,0.1-1.1,0.1c-0.5,0-0.9-0.1-1.3-0.2c-0.4-0.1-0.7-0.3-0.9-0.6
		c-0.2-0.3-0.4-0.6-0.5-0.9c-0.1-0.4-0.2-0.8-0.2-1.3c0-0.4,0.1-0.8,0.2-1.2c0.1-0.4,0.3-0.7,0.5-1c0.2-0.3,0.5-0.5,0.8-0.7
		c0.3-0.2,0.7-0.2,1.1-0.2c0.4,0,0.8,0.1,1.1,0.2c0.3,0.1,0.6,0.3,0.8,0.5c0.2,0.2,0.4,0.5,0.5,0.9
		C25.4,138.9,25.5,139.2,25.5,139.6z M24.3,139.5c0.1,0,0.1-0.1,0.1-0.1c0,0,0-0.4-0.1-0.6c-0.1-0.2-0.2-0.4-0.3-0.6
		c-0.1-0.2-0.3-0.3-0.5-0.4c-0.2-0.1-0.4-0.1-0.7-0.1c-0.2,0-0.4,0-0.6,0.1c-0.2,0.1-0.3,0.2-0.5,0.4c-0.1,0.2-0.2,0.3-0.3,0.6
		c-0.1,0.2-0.1,0.5-0.2,0.7H24.3z"/>
	<path fill="#F39600" d="M26.7,137.2c0-0.1,0-0.1,0.1-0.1h0.9c0.1,0,0.1,0.1,0.2,0.1l1.3,3.6c0,0.1,0.1,0.2,0.1,0.2l0.2,0.7
		c0,0.1,0.1,0.1,0.1,0l0.2-0.7c0-0.1,0.1-0.2,0.1-0.2l1.3-3.6c0-0.1,0.1-0.1,0.2-0.1h0.9c0.1,0,0.1,0.1,0.1,0.1l-2.2,5.6
		c0,0.1-0.1,0.1-0.2,0.1h-0.9c-0.1,0-0.1-0.1-0.2-0.1L26.7,137.2z"/>
	<path fill="#F39600" d="M38.8,139.6c0,0.1,0,0.3,0,0.4c0,0.1,0,0.2,0,0.3h-4c-0.1,0-0.1,0.1-0.1,0.1c0,0,0.1,0.9,0.5,1.2
		c0.3,0.3,0.8,0.5,1.4,0.5c0.2,0,0.3,0,0.5,0c0.2,0,0.3,0,0.5-0.1c0.2,0,0.3,0,0.5-0.1c0.1,0,0.3-0.1,0.4-0.1v0.7
		c0,0.1-0.1,0.1-0.1,0.2c0,0-0.5,0.1-0.8,0.2c-0.3,0-0.7,0.1-1.1,0.1c-0.5,0-0.9-0.1-1.3-0.2c-0.4-0.1-0.7-0.3-0.9-0.6
		c-0.2-0.3-0.4-0.6-0.5-0.9c-0.1-0.4-0.2-0.8-0.2-1.3c0-0.4,0.1-0.8,0.2-1.2c0.1-0.4,0.3-0.7,0.5-1c0.2-0.3,0.5-0.5,0.8-0.7
		c0.3-0.2,0.7-0.2,1.1-0.2c0.4,0,0.8,0.1,1.1,0.2c0.3,0.1,0.6,0.3,0.8,0.5c0.2,0.2,0.4,0.5,0.5,0.9
		C38.7,138.9,38.8,139.2,38.8,139.6z M37.6,139.5c0.1,0,0.1-0.1,0.1-0.1c0,0,0-0.4-0.1-0.6c-0.1-0.2-0.2-0.4-0.3-0.6
		c-0.1-0.2-0.3-0.3-0.5-0.4c-0.2-0.1-0.4-0.1-0.7-0.1c-0.2,0-0.4,0-0.6,0.1c-0.2,0.1-0.3,0.2-0.5,0.4c-0.1,0.2-0.2,0.3-0.3,0.6
		c-0.1,0.2-0.1,0.5-0.2,0.7H37.6z"/>
	<path fill="#F39600" d="M42.4,135.6c0-0.1-0.1-0.1-0.1-0.1h-1.5c-0.1,0-0.1-0.1-0.1-0.1v-0.6c0-0.1,0.1-0.1,0.1-0.1h2.5
		c0.1,0,0.1,0.1,0.1,0.1v7.1c0,0.1,0.1,0.1,0.1,0.1H45c0.1,0,0.1,0.1,0.1,0.1v0.6c0,0.1-0.1,0.1-0.1,0.1h-4.4
		c-0.1,0-0.1-0.1-0.1-0.1v-0.6c0-0.1,0.1-0.1,0.1-0.1h1.7c0.1,0,0.1-0.1,0.1-0.1V135.6z"/>
	<path fill="#F39600" d="M52.1,139.9c0,0.5-0.1,0.9-0.2,1.2c-0.1,0.4-0.3,0.7-0.6,1s-0.5,0.5-0.9,0.6c-0.3,0.1-0.7,0.2-1.2,0.2
		c-0.4,0-0.8-0.1-1.1-0.2c-0.3-0.1-0.6-0.3-0.8-0.6c-0.2-0.3-0.4-0.6-0.5-0.9c-0.1-0.4-0.2-0.8-0.2-1.3c0-0.5,0.1-0.9,0.2-1.2
		c0.1-0.4,0.3-0.7,0.6-1c0.2-0.3,0.5-0.5,0.9-0.6c0.3-0.1,0.7-0.2,1.2-0.2c0.4,0,0.8,0.1,1.1,0.2c0.3,0.1,0.6,0.3,0.8,0.6
		c0.2,0.2,0.4,0.6,0.5,0.9C52,139,52.1,139.4,52.1,139.9z M51,140c0-0.4,0-0.7-0.1-0.9c-0.1-0.3-0.2-0.5-0.3-0.7
		c-0.1-0.2-0.3-0.3-0.5-0.4c-0.2-0.1-0.4-0.1-0.7-0.1c-0.3,0-0.6,0.1-0.8,0.2c-0.2,0.1-0.4,0.3-0.5,0.5c-0.1,0.2-0.2,0.4-0.3,0.7
		c-0.1,0.3-0.1,0.5-0.1,0.8c0,0.4,0,0.7,0.1,0.9c0.1,0.3,0.2,0.5,0.3,0.7c0.1,0.2,0.3,0.3,0.5,0.4c0.2,0.1,0.4,0.1,0.7,0.1
		c0.3,0,0.6-0.1,0.8-0.2c0.2-0.1,0.4-0.3,0.5-0.5c0.1-0.2,0.2-0.4,0.3-0.7C51,140.5,51,140.2,51,140z"/>
	<path fill="#F39600" d="M58.9,139.8c0,0.5-0.1,1-0.2,1.4c-0.1,0.4-0.3,0.7-0.6,1c-0.3,0.3-0.6,0.4-0.9,0.6s-0.7,0.2-1.1,0.2
		c-0.2,0-0.4,0-0.6,0c-0.2,0-0.4-0.1-0.6-0.1v2.3c0,0.1-0.1,0.1-0.1,0.1h-0.8c-0.1,0-0.1-0.1-0.1-0.1v-7.9c0-0.1,0.1-0.1,0.1-0.1
		h0.6c0.1,0,0.1,0.1,0.1,0.1l0,0.7c0,0.1,0,0.1,0.1,0c0,0,0.5-0.6,0.8-0.7c0.3-0.2,0.7-0.2,1.1-0.2c0.3,0,0.6,0.1,0.9,0.2
		c0.3,0.1,0.5,0.3,0.6,0.6c0.2,0.3,0.3,0.6,0.4,0.9C58.9,139,58.9,139.4,58.9,139.8z M57.9,139.9c0-0.3,0-0.6-0.1-0.8
		c0-0.3-0.1-0.5-0.2-0.7c-0.1-0.2-0.2-0.3-0.4-0.4c-0.2-0.1-0.3-0.2-0.5-0.2c-0.1,0-0.3,0-0.4,0.1c-0.1,0-0.3,0.1-0.4,0.2
		c-0.1,0.1-0.3,0.2-0.4,0.4c-0.2,0.2-0.3,0.4-0.5,0.6v2.7c0,0.1,0.1,0.1,0.1,0.2c0,0,0.3,0.1,0.5,0.1c0.2,0,0.4,0.1,0.6,0.1
		c0.5,0,1-0.2,1.3-0.6C57.7,141.2,57.9,140.6,57.9,139.9z"/>
	<path fill="#F39600" d="M62.4,138c0-0.1-0.1-0.1-0.1-0.1h-1.5c-0.1,0-0.1-0.1-0.1-0.1v-0.6c0-0.1,0.1-0.1,0.1-0.1h2.5
		c0.1,0,0.1,0.1,0.1,0.1v4.7c0,0.1,0.1,0.1,0.1,0.1H65c0.1,0,0.1,0.1,0.1,0.1v0.6c0,0.1-0.1,0.1-0.1,0.1h-4.4
		c-0.1,0-0.1-0.1-0.1-0.1v-0.6c0-0.1,0.1-0.1,0.1-0.1h1.7c0.1,0,0.1-0.1,0.1-0.1V138z M62.7,134.6c0.1,0,0.2,0,0.3,0.1
		c0.1,0,0.2,0.1,0.3,0.2c0.1,0.1,0.1,0.2,0.2,0.3c0,0.1,0.1,0.2,0.1,0.3c0,0.1,0,0.2-0.1,0.3c0,0.1-0.1,0.2-0.2,0.3
		c-0.1,0.1-0.2,0.1-0.3,0.2c-0.1,0-0.2,0.1-0.3,0.1c-0.1,0-0.2,0-0.3-0.1c-0.1,0-0.2-0.1-0.3-0.2c-0.1-0.1-0.1-0.2-0.2-0.3
		c0-0.1-0.1-0.2-0.1-0.3c0-0.1,0-0.2,0.1-0.3c0-0.1,0.1-0.2,0.2-0.3c0.1-0.1,0.2-0.1,0.3-0.2C62.5,134.6,62.6,134.6,62.7,134.6z"/>
	<path fill="#F39600" d="M67,137.2c0-0.1,0.1-0.1,0.1-0.1h0.6c0.1,0,0.1,0.1,0.1,0.1l0,0.7c0,0.1,0,0.1,0.1,0c0,0,0.2-0.3,0.4-0.4
		c0.2-0.1,0.3-0.2,0.5-0.3c0.2-0.1,0.3-0.1,0.5-0.2c0.2,0,0.3,0,0.5,0c0.6,0,1.1,0.2,1.4,0.5c0.3,0.4,0.5,0.9,0.5,1.6v3.7
		c0,0.1-0.1,0.1-0.1,0.1h-0.8c-0.1,0-0.1-0.1-0.1-0.1v-3.5c0-0.1,0-0.2,0-0.3c0,0-0.1-0.7-0.2-0.9c-0.2-0.2-0.4-0.3-0.8-0.3
		c-0.1,0-0.2,0-0.4,0.1c-0.1,0-0.2,0.1-0.4,0.2c-0.1,0.1-0.3,0.2-0.4,0.4c-0.1,0.2-0.3,0.3-0.5,0.6v3.7c0,0.1-0.1,0.1-0.1,0.1h-0.8
		c-0.1,0-0.1-0.1-0.1-0.1V137.2z"/>
	<path fill="#F39600" d="M78.2,137.9c-0.1,0-0.1,0-0.1,0.1c0,0,0.1,0.2,0.2,0.4c0.1,0.2,0.1,0.4,0.1,0.6c0,0.3-0.1,0.6-0.2,0.8
		c-0.1,0.2-0.3,0.5-0.5,0.6c-0.2,0.2-0.4,0.3-0.7,0.4c-0.3,0.1-0.6,0.1-0.9,0.1c-0.2,0-0.5,0-0.7-0.1c-0.2-0.1-0.4-0.1-0.5-0.2
		c-0.1,0.1-0.1,0.2-0.2,0.3c-0.1,0.1-0.1,0.2-0.1,0.3c0,0.1,0.1,0.3,0.2,0.4c0.1,0.1,0.3,0.1,0.6,0.2l1.4,0.1c0.1,0,0.2,0,0.3,0
		c0,0,0.4,0,0.7,0.1c0.2,0.1,0.5,0.2,0.6,0.3c0.2,0.1,0.3,0.3,0.4,0.5c0.1,0.2,0.1,0.4,0.1,0.6c0,0.3-0.1,0.5-0.2,0.7
		c-0.1,0.2-0.3,0.4-0.5,0.6c-0.2,0.2-0.5,0.3-0.9,0.4c-0.4,0.1-0.8,0.2-1.3,0.2c-0.5,0-0.9,0-1.2-0.1c-0.3-0.1-0.6-0.2-0.8-0.3
		c-0.2-0.1-0.4-0.3-0.5-0.5c-0.1-0.2-0.1-0.4-0.1-0.6c0-0.3,0.1-0.5,0.2-0.7c0.1-0.2,0.3-0.4,0.6-0.6c-0.1,0-0.2-0.1-0.3-0.2
		c-0.1-0.1-0.1-0.1-0.2-0.2c0-0.1-0.1-0.2-0.1-0.3c0-0.1,0-0.2,0-0.3c0-0.3,0.1-0.5,0.2-0.7c0.1-0.2,0.3-0.4,0.4-0.6
		c-0.1-0.1-0.1-0.2-0.2-0.3c-0.1-0.1-0.1-0.2-0.1-0.3c0-0.1-0.1-0.2-0.1-0.3c0-0.1,0-0.2,0-0.4c0-0.3,0.1-0.6,0.2-0.8
		c0.1-0.2,0.3-0.5,0.5-0.6c0.2-0.2,0.4-0.3,0.7-0.4c0.3-0.1,0.6-0.1,0.9-0.1c0.1,0,0.3,0,0.4,0c0.1,0,0.2,0,0.3,0.1h2
		c0.1,0,0.1,0.1,0.1,0.1v0.6c0,0.1-0.1,0.1-0.1,0.1H78.2z M74.5,143.7c0,0.3,0.1,0.5,0.4,0.6c0.3,0.1,0.7,0.2,1.2,0.2
		c0.3,0,0.6,0,0.8-0.1c0.2-0.1,0.4-0.1,0.5-0.2c0.1-0.1,0.2-0.2,0.3-0.3c0.1-0.1,0.1-0.2,0.1-0.4c0-0.2-0.1-0.4-0.3-0.5
		c-0.2-0.1-0.5-0.2-0.9-0.2l-1.4,0c-0.1,0-0.2,0-0.2,0.1c0,0-0.1,0.1-0.2,0.2c-0.1,0.1-0.1,0.2-0.2,0.2c0,0.1-0.1,0.2-0.1,0.2
		C74.6,143.5,74.5,143.6,74.5,143.7z M74.8,138.9c0,0.2,0,0.4,0.1,0.5c0.1,0.2,0.1,0.3,0.3,0.4c0.1,0.1,0.2,0.2,0.4,0.3
		c0.2,0.1,0.3,0.1,0.5,0.1c0.2,0,0.4,0,0.5-0.1c0.2-0.1,0.3-0.2,0.4-0.3c0.1-0.1,0.2-0.2,0.2-0.4c0.1-0.2,0.1-0.3,0.1-0.5
		c0-0.2,0-0.4-0.1-0.5c-0.1-0.2-0.1-0.3-0.3-0.4c-0.1-0.1-0.2-0.2-0.4-0.3c-0.2-0.1-0.3-0.1-0.5-0.1c-0.2,0-0.4,0-0.5,0.1
		c-0.2,0.1-0.3,0.2-0.4,0.3c-0.1,0.1-0.2,0.2-0.2,0.4C74.9,138.6,74.8,138.8,74.8,138.9z"/>
	<path fill="#F39600" d="M90,142.7c0,0.1-0.1,0.1-0.1,0.2c0,0-0.3,0.1-0.6,0.1c-0.2,0-0.5,0-0.7,0c-0.7,0-1.3-0.2-1.6-0.5
		c-0.4-0.3-0.5-0.8-0.5-1.5V138c0-0.1-0.1-0.1-0.1-0.1h-1.4c-0.1,0-0.1-0.1-0.1-0.1v-0.6c0-0.1,0.1-0.1,0.1-0.1h1.4
		c0.1,0,0.1-0.1,0.1-0.1v-1.3c0-0.1,0.1-0.1,0.1-0.2l0.8-0.2c0.1,0,0.1,0,0.1,0.1v1.6c0,0.1,0.1,0.1,0.1,0.1h2.4
		c0.1,0,0.1,0.1,0.1,0.1v0.6c0,0.1-0.1,0.1-0.1,0.1h-2.4c-0.1,0-0.1,0.1-0.1,0.1v2.7c0,0.1,0,0.2,0,0.3c0,0,0.1,0.6,0.3,0.8
		s0.6,0.3,1,0.3c0.2,0,0.4,0,0.6,0c0.2,0,0.5-0.1,0.7-0.1V142.7z"/>
	<path fill="#F39600" d="M96.8,139.6c0,0.1,0,0.3,0,0.4c0,0.1,0,0.2,0,0.3h-4c-0.1,0-0.1,0.1-0.1,0.1c0,0,0.1,0.9,0.5,1.2
		c0.3,0.3,0.8,0.5,1.4,0.5c0.2,0,0.3,0,0.5,0c0.2,0,0.3,0,0.5-0.1c0.2,0,0.3,0,0.5-0.1c0.1,0,0.3-0.1,0.4-0.1v0.7
		c0,0.1-0.1,0.1-0.1,0.2c0,0-0.5,0.1-0.8,0.2c-0.3,0-0.7,0.1-1.1,0.1c-0.5,0-0.9-0.1-1.3-0.2c-0.4-0.1-0.7-0.3-0.9-0.6
		c-0.2-0.3-0.4-0.6-0.5-0.9c-0.1-0.4-0.2-0.8-0.2-1.3c0-0.4,0.1-0.8,0.2-1.2c0.1-0.4,0.3-0.7,0.5-1c0.2-0.3,0.5-0.5,0.8-0.7
		c0.3-0.2,0.7-0.2,1.1-0.2c0.4,0,0.8,0.1,1.1,0.2c0.3,0.1,0.6,0.3,0.8,0.5c0.2,0.2,0.4,0.5,0.5,0.9
		C96.7,138.9,96.8,139.2,96.8,139.6z M95.6,139.5c0.1,0,0.1-0.1,0.1-0.1c0,0,0-0.4-0.1-0.6c-0.1-0.2-0.2-0.4-0.3-0.6
		c-0.1-0.2-0.3-0.3-0.5-0.4c-0.2-0.1-0.4-0.1-0.7-0.1c-0.2,0-0.4,0-0.6,0.1c-0.2,0.1-0.3,0.2-0.5,0.4c-0.1,0.2-0.2,0.3-0.3,0.6
		c-0.1,0.2-0.1,0.5-0.2,0.7H95.6z"/>
	<path fill="#F39600" d="M102.5,142.9c-0.1,0-0.1-0.1-0.1-0.1l0-0.5c0-0.1,0-0.1-0.1,0c0,0-0.5,0.5-0.9,0.6c-0.3,0.1-0.7,0.2-1,0.2
		c-0.3,0-0.6,0-0.9-0.1c-0.2-0.1-0.4-0.2-0.6-0.4c-0.2-0.1-0.3-0.3-0.3-0.5c-0.1-0.2-0.1-0.4-0.1-0.7c0-0.6,0.2-1,0.7-1.4
		c0.4-0.3,1.1-0.5,1.9-0.5h1.1c0.1,0,0.1-0.1,0.1-0.1v-0.3c0-0.1,0-0.2,0-0.2c0,0-0.1-0.5-0.3-0.7c-0.2-0.2-0.6-0.3-1-0.3
		c-0.3,0-0.7,0-1,0.1c-0.3,0.1-0.6,0.2-1,0.3v-0.8c0-0.1,0.1-0.1,0.1-0.2c0,0,0.2-0.1,0.3-0.1c0.2,0,0.3-0.1,0.5-0.1
		c0.2,0,0.4-0.1,0.5-0.1c0.2,0,0.4,0,0.6,0c0.4,0,0.7,0,1,0.1c0.3,0.1,0.5,0.2,0.7,0.4c0.2,0.2,0.3,0.4,0.4,0.6
		c0.1,0.2,0.2,0.5,0.2,0.8v3.9c0,0.1-0.1,0.1-0.1,0.1H102.5z M102.2,140.3c0-0.1-0.1-0.1-0.1-0.1h-1c-0.1,0-0.2,0-0.3,0
		c0,0-0.3,0-0.5,0.1c-0.2,0.1-0.3,0.1-0.4,0.2c-0.1,0.1-0.2,0.2-0.3,0.3c-0.1,0.1-0.1,0.3-0.1,0.4c0,0.1,0,0.2,0.1,0.3
		c0,0.1,0.1,0.2,0.2,0.3c0.1,0.1,0.2,0.1,0.3,0.2c0.1,0,0.3,0.1,0.5,0.1c0.2,0,0.5-0.1,0.8-0.2c0.3-0.1,0.6-0.4,0.9-0.7V140.3z"/>
	<path fill="#F39600" d="M109.9,142.9c-0.1,0-0.1-0.1-0.1-0.1v-3.9c0-0.1,0-0.2,0-0.3c0,0,0-0.2,0-0.3c0-0.1,0-0.2-0.1-0.3
		c0-0.1-0.1-0.1-0.1-0.1c0,0-0.1,0-0.2,0c-0.1,0-0.1,0-0.2,0.1c-0.1,0-0.1,0.1-0.2,0.2c-0.1,0.1-0.2,0.2-0.2,0.4
		c-0.1,0.2-0.2,0.4-0.3,0.6v3.6c0,0.1-0.1,0.1-0.1,0.1h-0.7c-0.1,0-0.1-0.1-0.1-0.1v-3.8c0-0.1,0-0.2,0-0.3c0,0,0-0.3,0-0.4
		c0-0.1,0-0.2-0.1-0.3c0-0.1-0.1-0.1-0.1-0.2c0,0-0.1,0-0.2,0c-0.1,0-0.1,0-0.2,0.1c-0.1,0-0.1,0.1-0.2,0.2
		c-0.1,0.1-0.2,0.2-0.3,0.4c-0.1,0.2-0.2,0.4-0.3,0.7v3.6c0,0.1-0.1,0.1-0.1,0.1h-0.7c-0.1,0-0.1-0.1-0.1-0.1v-5.6
		c0-0.1,0.1-0.1,0.1-0.1h0.5c0.1,0,0.1,0.1,0.1,0.1l0,0.9c0,0.1,0,0.1,0.1,0c0,0,0.1-0.3,0.2-0.4c0.1-0.2,0.2-0.3,0.3-0.4
		c0.1-0.1,0.2-0.2,0.3-0.2c0.1,0,0.2-0.1,0.4-0.1c0.3,0,0.6,0.1,0.7,0.3c0.2,0.2,0.2,0.5,0.2,1c0.1-0.2,0.2-0.4,0.3-0.5
		c0.1-0.2,0.2-0.3,0.3-0.4c0.1-0.1,0.2-0.2,0.3-0.2c0.1-0.1,0.3-0.1,0.4-0.1c0.7,0,1.1,0.6,1.1,1.7v4.1c0,0.1-0.1,0.1-0.1,0.1H109.9
		z"/>
	<path fill="#F39600" d="M117.1,141.3c0,0.2,0,0.4-0.1,0.6c-0.1,0.2-0.2,0.3-0.3,0.4c-0.1,0.1-0.3,0.2-0.4,0.3
		c-0.2,0.1-0.3,0.2-0.5,0.2c-0.2,0.1-0.4,0.1-0.6,0.1c-0.2,0-0.4,0-0.6,0c-0.4,0-0.8,0-1.1-0.1c-0.3,0-0.7-0.1-1-0.2v-0.8
		c0-0.1,0.1-0.1,0.1-0.1c0,0,0.6,0.1,0.9,0.2c0.3,0.1,0.7,0.1,1,0.1c0.5,0,0.8-0.1,1.1-0.2c0.2-0.1,0.3-0.3,0.3-0.6
		c0-0.1,0-0.2-0.1-0.3c0-0.1-0.1-0.2-0.2-0.2c-0.1-0.1-0.2-0.2-0.4-0.2c-0.2-0.1-0.5-0.2-0.8-0.3c-0.3-0.1-0.5-0.2-0.7-0.3
		c-0.2-0.1-0.4-0.2-0.6-0.4c-0.2-0.1-0.3-0.3-0.4-0.5c-0.1-0.2-0.1-0.4-0.1-0.6c0-0.2,0-0.3,0.1-0.5c0.1-0.2,0.2-0.4,0.4-0.5
		c0.2-0.2,0.4-0.3,0.7-0.4c0.3-0.1,0.7-0.2,1.2-0.2c0.2,0,0.5,0,0.8,0c0.3,0,0.6,0.1,0.9,0.1v0.8c0,0.1-0.1,0.1-0.1,0.1
		c0,0-0.5-0.1-0.8-0.1c-0.3,0-0.5-0.1-0.7-0.1c-0.3,0-0.5,0-0.6,0.1c-0.2,0-0.3,0.1-0.4,0.2c-0.1,0.1-0.2,0.1-0.2,0.2
		c0,0.1-0.1,0.2-0.1,0.3c0,0.1,0,0.2,0.1,0.3c0,0.1,0.1,0.2,0.2,0.2c0.1,0.1,0.3,0.2,0.5,0.2c0.2,0.1,0.5,0.2,0.8,0.3
		c0.3,0.1,0.6,0.2,0.9,0.3c0.2,0.1,0.4,0.2,0.6,0.4c0.1,0.1,0.3,0.3,0.3,0.5C117.1,140.9,117.1,141.1,117.1,141.3z"/>
	<g>
		<path fill="#637F8D" d="M124.9,134.7c0.1,0,0.1,0.1,0.1,0.1l-3.9,9.2c0,0.1-0.1,0.1-0.2,0.1h-0.7c-0.1,0-0.1-0.1-0.1-0.1l3.9-9.2
			c0-0.1,0.1-0.1,0.2-0.1H124.9z"/>
	</g>
	<path fill="#F39600" d="M134.2,139c0,0.4,0,0.7-0.1,1c-0.1,0.3-0.1,0.6-0.3,0.9c-0.1,0.3-0.3,0.5-0.5,0.8c-0.2,0.2-0.4,0.4-0.7,0.6
		c-0.3,0.2-0.6,0.3-1,0.4c-0.4,0.1-0.8,0.1-1.3,0.1h-1.5c-0.1,0-0.1-0.1-0.1-0.1v-7.3c0-0.1,0.1-0.1,0.1-0.1h1.7c0.1,0,0.2,0,0.3,0
		c0,0,1.8,0,2.5,0.9C133.9,136.8,134.2,137.7,134.2,139z M133.1,139.1c0-0.5-0.1-1-0.2-1.4c-0.1-0.4-0.3-0.7-0.5-0.9
		c-0.2-0.2-0.5-0.4-0.8-0.5c-0.3-0.1-0.7-0.2-1.1-0.2h-0.8c-0.1,0-0.1,0.1-0.1,0.1v5.6c0,0.1,0.1,0.1,0.1,0.1h0.6
		C132.2,142,133.1,141,133.1,139.1z"/>
	<path fill="#F39600" d="M140.8,139.6c0,0.1,0,0.3,0,0.4c0,0.1,0,0.2,0,0.3h-4c-0.1,0-0.1,0.1-0.1,0.1c0,0,0.1,0.9,0.5,1.2
		c0.3,0.3,0.8,0.5,1.4,0.5c0.2,0,0.3,0,0.5,0c0.2,0,0.3,0,0.5-0.1c0.2,0,0.3,0,0.5-0.1c0.1,0,0.3-0.1,0.4-0.1v0.7
		c0,0.1-0.1,0.1-0.1,0.2c0,0-0.5,0.1-0.8,0.2c-0.3,0-0.7,0.1-1.1,0.1c-0.5,0-0.9-0.1-1.3-0.2c-0.4-0.1-0.7-0.3-0.9-0.6
		c-0.2-0.3-0.4-0.6-0.5-0.9c-0.1-0.4-0.2-0.8-0.2-1.3c0-0.4,0.1-0.8,0.2-1.2c0.1-0.4,0.3-0.7,0.5-1c0.2-0.3,0.5-0.5,0.8-0.7
		c0.3-0.2,0.7-0.2,1.1-0.2c0.4,0,0.8,0.1,1.1,0.2c0.3,0.1,0.6,0.3,0.8,0.5c0.2,0.2,0.4,0.5,0.5,0.9
		C140.7,138.9,140.8,139.2,140.8,139.6z M139.6,139.5c0.1,0,0.1-0.1,0.1-0.1c0,0,0-0.4-0.1-0.6c-0.1-0.2-0.2-0.4-0.3-0.6
		c-0.1-0.2-0.3-0.3-0.5-0.4c-0.2-0.1-0.4-0.1-0.7-0.1c-0.2,0-0.4,0-0.6,0.1c-0.2,0.1-0.3,0.2-0.5,0.4c-0.1,0.2-0.2,0.3-0.3,0.6
		c-0.1,0.2-0.1,0.5-0.2,0.7H139.6z"/>
	<path fill="#F39600" d="M144.4,135.6c0-0.1-0.1-0.1-0.1-0.1h-1.5c-0.1,0-0.1-0.1-0.1-0.1v-0.6c0-0.1,0.1-0.1,0.1-0.1h2.5
		c0.1,0,0.1,0.1,0.1,0.1v7.1c0,0.1,0.1,0.1,0.1,0.1h1.5c0.1,0,0.1,0.1,0.1,0.1v0.6c0,0.1-0.1,0.1-0.1,0.1h-4.4
		c-0.1,0-0.1-0.1-0.1-0.1v-0.6c0-0.1,0.1-0.1,0.1-0.1h1.7c0.1,0,0.1-0.1,0.1-0.1V135.6z"/>
	<path fill="#F39600" d="M151,138c0-0.1-0.1-0.1-0.1-0.1h-1.5c-0.1,0-0.1-0.1-0.1-0.1v-0.6c0-0.1,0.1-0.1,0.1-0.1h2.5
		c0.1,0,0.1,0.1,0.1,0.1v4.7c0,0.1,0.1,0.1,0.1,0.1h1.5c0.1,0,0.1,0.1,0.1,0.1v0.6c0,0.1-0.1,0.1-0.1,0.1h-4.4
		c-0.1,0-0.1-0.1-0.1-0.1v-0.6c0-0.1,0.1-0.1,0.1-0.1h1.7c0.1,0,0.1-0.1,0.1-0.1V138z M151.4,134.6c0.1,0,0.2,0,0.3,0.1
		c0.1,0,0.2,0.1,0.3,0.2c0.1,0.1,0.1,0.2,0.2,0.3c0,0.1,0.1,0.2,0.1,0.3c0,0.1,0,0.2-0.1,0.3c0,0.1-0.1,0.2-0.2,0.3
		c-0.1,0.1-0.2,0.1-0.3,0.2c-0.1,0-0.2,0.1-0.3,0.1c-0.1,0-0.2,0-0.3-0.1c-0.1,0-0.2-0.1-0.3-0.2c-0.1-0.1-0.1-0.2-0.2-0.3
		c0-0.1-0.1-0.2-0.1-0.3c0-0.1,0-0.2,0.1-0.3c0-0.1,0.1-0.2,0.2-0.3c0.1-0.1,0.2-0.1,0.3-0.2C151.2,134.6,151.3,134.6,151.4,134.6z"
		/>
	<path fill="#F39600" d="M154.6,137.2c0-0.1,0-0.1,0.1-0.1h0.9c0.1,0,0.1,0.1,0.2,0.1l1.3,3.6c0,0.1,0.1,0.2,0.1,0.2l0.2,0.7
		c0,0.1,0.1,0.1,0.1,0l0.2-0.7c0-0.1,0.1-0.2,0.1-0.2l1.3-3.6c0-0.1,0.1-0.1,0.2-0.1h0.9c0.1,0,0.1,0.1,0.1,0.1l-2.2,5.6
		c0,0.1-0.1,0.1-0.2,0.1h-0.9c-0.1,0-0.1-0.1-0.2-0.1L154.6,137.2z"/>
	<path fill="#F39600" d="M166.6,139.6c0,0.1,0,0.3,0,0.4c0,0.1,0,0.2,0,0.3h-4c-0.1,0-0.1,0.1-0.1,0.1c0,0,0.1,0.9,0.5,1.2
		c0.3,0.3,0.8,0.5,1.4,0.5c0.2,0,0.3,0,0.5,0c0.2,0,0.3,0,0.5-0.1c0.2,0,0.3,0,0.5-0.1c0.1,0,0.3-0.1,0.4-0.1v0.7
		c0,0.1-0.1,0.1-0.1,0.2c0,0-0.5,0.1-0.8,0.2c-0.3,0-0.7,0.1-1.1,0.1c-0.5,0-0.9-0.1-1.3-0.2c-0.4-0.1-0.7-0.3-0.9-0.6
		c-0.2-0.3-0.4-0.6-0.5-0.9c-0.1-0.4-0.2-0.8-0.2-1.3c0-0.4,0.1-0.8,0.2-1.2c0.1-0.4,0.3-0.7,0.5-1c0.2-0.3,0.5-0.5,0.8-0.7
		c0.3-0.2,0.7-0.2,1.1-0.2c0.4,0,0.8,0.1,1.1,0.2c0.3,0.1,0.6,0.3,0.8,0.5c0.2,0.2,0.4,0.5,0.5,0.9
		C166.5,138.9,166.6,139.2,166.6,139.6z M165.4,139.5c0.1,0,0.1-0.1,0.1-0.1c0,0,0-0.4-0.1-0.6c-0.1-0.2-0.2-0.4-0.3-0.6
		c-0.1-0.2-0.3-0.3-0.5-0.4c-0.2-0.1-0.4-0.1-0.7-0.1c-0.2,0-0.4,0-0.6,0.1c-0.2,0.1-0.3,0.2-0.5,0.4c-0.1,0.2-0.2,0.3-0.3,0.6
		c-0.1,0.2-0.1,0.5-0.2,0.7H165.4z"/>
	<path fill="#F39600" d="M168.6,137.2c0-0.1,0.1-0.1,0.1-0.1h0.7c0.1,0,0.1,0.1,0.1,0.1l0,0.8c0,0.1,0,0.1,0.1,0
		c0,0,0.6-0.6,0.9-0.8c0.3-0.2,0.7-0.3,1-0.3c0.6,0,1.1,0.2,1.4,0.6c0.3,0.4,0.5,1,0.4,1.7h-0.9c-0.1,0-0.1-0.1-0.1-0.1
		c0,0-0.1-0.8-0.2-1c-0.2-0.2-0.4-0.3-0.7-0.3c-0.1,0-0.3,0-0.4,0.1c-0.1,0-0.3,0.1-0.4,0.2c-0.1,0.1-0.3,0.2-0.5,0.4
		c-0.2,0.2-0.3,0.4-0.5,0.6v3.6c0,0.1-0.1,0.1-0.1,0.1h-0.8c-0.1,0-0.1-0.1-0.1-0.1V137.2z"/>
	<path fill="#F39600" d="M177,138c0-0.1-0.1-0.1-0.1-0.1h-1.5c-0.1,0-0.1-0.1-0.1-0.1v-0.6c0-0.1,0.1-0.1,0.1-0.1h2.5
		c0.1,0,0.1,0.1,0.1,0.1v4.7c0,0.1,0.1,0.1,0.1,0.1h1.5c0.1,0,0.1,0.1,0.1,0.1v0.6c0,0.1-0.1,0.1-0.1,0.1h-4.4
		c-0.1,0-0.1-0.1-0.1-0.1v-0.6c0-0.1,0.1-0.1,0.1-0.1h1.7c0.1,0,0.1-0.1,0.1-0.1V138z M177.3,134.6c0.1,0,0.2,0,0.3,0.1
		c0.1,0,0.2,0.1,0.3,0.2c0.1,0.1,0.1,0.2,0.2,0.3c0,0.1,0.1,0.2,0.1,0.3c0,0.1,0,0.2-0.1,0.3c0,0.1-0.1,0.2-0.2,0.3
		c-0.1,0.1-0.2,0.1-0.3,0.2c-0.1,0-0.2,0.1-0.3,0.1c-0.1,0-0.2,0-0.3-0.1c-0.1,0-0.2-0.1-0.3-0.2c-0.1-0.1-0.1-0.2-0.2-0.3
		c0-0.1-0.1-0.2-0.1-0.3c0-0.1,0-0.2,0.1-0.3c0-0.1,0.1-0.2,0.2-0.3c0.1-0.1,0.2-0.1,0.3-0.2C177.1,134.6,177.2,134.6,177.3,134.6z"
		/>
	<path fill="#F39600" d="M181.6,137.2c0-0.1,0.1-0.1,0.1-0.1h0.6c0.1,0,0.1,0.1,0.1,0.1l0,0.7c0,0.1,0,0.1,0.1,0
		c0,0,0.2-0.3,0.4-0.4c0.2-0.1,0.3-0.2,0.5-0.3c0.2-0.1,0.3-0.1,0.5-0.2c0.2,0,0.3,0,0.5,0c0.6,0,1.1,0.2,1.4,0.5
		c0.3,0.4,0.5,0.9,0.5,1.6v3.7c0,0.1-0.1,0.1-0.1,0.1h-0.8c-0.1,0-0.1-0.1-0.1-0.1v-3.5c0-0.1,0-0.2,0-0.3c0,0-0.1-0.7-0.2-0.9
		c-0.2-0.2-0.4-0.3-0.8-0.3c-0.1,0-0.2,0-0.4,0.1c-0.1,0-0.2,0.1-0.4,0.2c-0.1,0.1-0.3,0.2-0.4,0.4c-0.1,0.2-0.3,0.3-0.5,0.6v3.7
		c0,0.1-0.1,0.1-0.1,0.1h-0.8c-0.1,0-0.1-0.1-0.1-0.1V137.2z"/>
	<path fill="#F39600" d="M192.7,137.9c-0.1,0-0.1,0-0.1,0.1c0,0,0.1,0.2,0.2,0.4c0.1,0.2,0.1,0.4,0.1,0.6c0,0.3-0.1,0.6-0.2,0.8
		c-0.1,0.2-0.3,0.5-0.5,0.6c-0.2,0.2-0.4,0.3-0.7,0.4c-0.3,0.1-0.6,0.1-0.9,0.1c-0.2,0-0.5,0-0.7-0.1c-0.2-0.1-0.4-0.1-0.5-0.2
		c-0.1,0.1-0.1,0.2-0.2,0.3c-0.1,0.1-0.1,0.2-0.1,0.3c0,0.1,0.1,0.3,0.2,0.4c0.1,0.1,0.3,0.1,0.6,0.2l1.4,0.1c0.1,0,0.2,0,0.3,0
		c0,0,0.4,0,0.7,0.1c0.2,0.1,0.5,0.2,0.6,0.3c0.2,0.1,0.3,0.3,0.4,0.5c0.1,0.2,0.1,0.4,0.1,0.6c0,0.3-0.1,0.5-0.2,0.7
		c-0.1,0.2-0.3,0.4-0.5,0.6c-0.2,0.2-0.5,0.3-0.9,0.4c-0.4,0.1-0.8,0.2-1.3,0.2c-0.5,0-0.9,0-1.2-0.1s-0.6-0.2-0.8-0.3
		c-0.2-0.1-0.4-0.3-0.5-0.5c-0.1-0.2-0.1-0.4-0.1-0.6c0-0.3,0.1-0.5,0.2-0.7c0.1-0.2,0.3-0.4,0.6-0.6c-0.1,0-0.2-0.1-0.3-0.2
		c-0.1-0.1-0.1-0.1-0.2-0.2c0-0.1-0.1-0.2-0.1-0.3c0-0.1,0-0.2,0-0.3c0-0.3,0.1-0.5,0.2-0.7c0.1-0.2,0.3-0.4,0.4-0.6
		c-0.1-0.1-0.1-0.2-0.2-0.3c-0.1-0.1-0.1-0.2-0.1-0.3c0-0.1-0.1-0.2-0.1-0.3c0-0.1,0-0.2,0-0.4c0-0.3,0.1-0.6,0.2-0.8
		c0.1-0.2,0.3-0.5,0.5-0.6c0.2-0.2,0.4-0.3,0.7-0.4c0.3-0.1,0.6-0.1,0.9-0.1c0.1,0,0.3,0,0.4,0c0.1,0,0.2,0,0.3,0.1h2
		c0.1,0,0.1,0.1,0.1,0.1v0.6c0,0.1-0.1,0.1-0.1,0.1H192.7z M189.1,143.7c0,0.3,0.1,0.5,0.4,0.6c0.3,0.1,0.7,0.2,1.2,0.2
		c0.3,0,0.6,0,0.8-0.1c0.2-0.1,0.4-0.1,0.5-0.2c0.1-0.1,0.2-0.2,0.3-0.3c0.1-0.1,0.1-0.2,0.1-0.4c0-0.2-0.1-0.4-0.3-0.5
		c-0.2-0.1-0.5-0.2-0.9-0.2l-1.4,0c-0.1,0-0.2,0-0.2,0.1c0,0-0.1,0.1-0.2,0.2c-0.1,0.1-0.1,0.2-0.2,0.2c0,0.1-0.1,0.2-0.1,0.2
		C189.1,143.5,189.1,143.6,189.1,143.7z M189.4,138.9c0,0.2,0,0.4,0.1,0.5c0.1,0.2,0.1,0.3,0.3,0.4c0.1,0.1,0.2,0.2,0.4,0.3
		c0.2,0.1,0.3,0.1,0.5,0.1c0.2,0,0.4,0,0.5-0.1c0.2-0.1,0.3-0.2,0.4-0.3c0.1-0.1,0.2-0.2,0.2-0.4c0.1-0.2,0.1-0.3,0.1-0.5
		c0-0.2,0-0.4-0.1-0.5c-0.1-0.2-0.1-0.3-0.3-0.4c-0.1-0.1-0.2-0.2-0.4-0.3c-0.2-0.1-0.3-0.1-0.5-0.1c-0.2,0-0.4,0-0.5,0.1
		c-0.2,0.1-0.3,0.2-0.4,0.3c-0.1,0.1-0.2,0.2-0.2,0.4C189.5,138.6,189.4,138.8,189.4,138.9z"/>
	<path fill="#F39600" d="M205.4,141.3c0,0.2,0,0.4-0.1,0.6c-0.1,0.2-0.2,0.3-0.3,0.4c-0.1,0.1-0.3,0.2-0.4,0.3
		c-0.2,0.1-0.3,0.2-0.5,0.2c-0.2,0.1-0.4,0.1-0.6,0.1c-0.2,0-0.4,0-0.6,0c-0.4,0-0.8,0-1.1-0.1c-0.3,0-0.7-0.1-1-0.2v-0.8
		c0-0.1,0.1-0.1,0.1-0.1c0,0,0.6,0.1,0.9,0.2c0.3,0.1,0.7,0.1,1,0.1c0.5,0,0.8-0.1,1.1-0.2c0.2-0.1,0.3-0.3,0.3-0.6
		c0-0.1,0-0.2-0.1-0.3c0-0.1-0.1-0.2-0.2-0.2c-0.1-0.1-0.2-0.2-0.4-0.2c-0.2-0.1-0.5-0.2-0.8-0.3c-0.3-0.1-0.5-0.2-0.7-0.3
		c-0.2-0.1-0.4-0.2-0.6-0.4c-0.2-0.1-0.3-0.3-0.4-0.5c-0.1-0.2-0.1-0.4-0.1-0.6c0-0.2,0-0.3,0.1-0.5c0.1-0.2,0.2-0.4,0.4-0.5
		c0.2-0.2,0.4-0.3,0.7-0.4c0.3-0.1,0.7-0.2,1.2-0.2c0.2,0,0.5,0,0.8,0c0.3,0,0.6,0.1,0.9,0.1v0.8c0,0.1-0.1,0.1-0.1,0.1
		c0,0-0.5-0.1-0.8-0.1c-0.3,0-0.5-0.1-0.7-0.1c-0.3,0-0.5,0-0.6,0.1c-0.2,0-0.3,0.1-0.4,0.2c-0.1,0.1-0.2,0.1-0.2,0.2
		c0,0.1-0.1,0.2-0.1,0.3c0,0.1,0,0.2,0.1,0.3c0,0.1,0.1,0.2,0.2,0.2c0.1,0.1,0.3,0.2,0.5,0.2c0.2,0.1,0.5,0.2,0.8,0.3
		c0.3,0.1,0.6,0.2,0.9,0.3c0.2,0.1,0.4,0.2,0.6,0.4c0.1,0.1,0.3,0.3,0.3,0.5C205.4,140.9,205.4,141.1,205.4,141.3z"/>
	<path fill="#F39600" d="M212,142.7c0,0.1-0.1,0.1-0.1,0.1h-0.7c-0.1,0-0.1-0.1-0.1-0.1l0-0.7c0-0.1,0-0.1-0.1,0
		c0,0-0.3,0.3-0.4,0.4c-0.2,0.1-0.3,0.2-0.5,0.3c-0.2,0.1-0.3,0.1-0.5,0.2c-0.2,0-0.3,0-0.5,0c-0.6,0-1.1-0.2-1.4-0.5
		c-0.3-0.4-0.5-0.9-0.5-1.6v-3.7c0-0.1,0.1-0.1,0.1-0.1h0.8c0.1,0,0.1,0.1,0.1,0.1v3.5c0,0.1,0,0.2,0,0.2c0,0,0.3,1.2,1,1.2
		c0.1,0,0.2,0,0.4-0.1c0.1,0,0.2-0.1,0.4-0.2c0.1-0.1,0.3-0.2,0.4-0.4c0.1-0.2,0.3-0.3,0.5-0.6v-3.7c0-0.1,0.1-0.1,0.1-0.1h0.8
		c0.1,0,0.1,0.1,0.1,0.1V142.7z"/>
	<path fill="#F39600" d="M218.6,142.5c0,0.1-0.1,0.1-0.1,0.2c0,0-0.4,0.1-0.7,0.2c-0.3,0-0.6,0.1-0.9,0.1c-0.9,0-1.6-0.2-2.1-0.7
		c-0.5-0.5-0.7-1.2-0.7-2.2c0-0.5,0.1-0.9,0.2-1.3c0.1-0.4,0.3-0.7,0.6-1c0.3-0.3,0.6-0.5,0.9-0.6c0.4-0.1,0.8-0.2,1.2-0.2
		c0.3,0,0.6,0,0.8,0.1c0.3,0,0.5,0.1,0.8,0.2v0.8c0,0.1-0.1,0.1-0.1,0.1c0,0-0.4-0.2-0.7-0.2c-0.3-0.1-0.5-0.1-0.8-0.1
		c-0.3,0-0.5,0-0.7,0.1c-0.2,0.1-0.4,0.2-0.6,0.4c-0.2,0.2-0.3,0.4-0.4,0.7c-0.1,0.3-0.2,0.6-0.2,0.9c0,0.7,0.2,1.2,0.5,1.6
		c0.3,0.3,0.8,0.5,1.4,0.5c0.3,0,0.5,0,0.8-0.1c0.3-0.1,0.5-0.2,0.7-0.3V142.5z"/>
	<path fill="#F39600" d="M225,142.5c0,0.1-0.1,0.1-0.1,0.2c0,0-0.4,0.1-0.7,0.2c-0.3,0-0.6,0.1-0.9,0.1c-0.9,0-1.6-0.2-2.1-0.7
		c-0.5-0.5-0.7-1.2-0.7-2.2c0-0.5,0.1-0.9,0.2-1.3c0.1-0.4,0.3-0.7,0.6-1c0.3-0.3,0.6-0.5,0.9-0.6c0.4-0.1,0.8-0.2,1.2-0.2
		c0.3,0,0.6,0,0.8,0.1c0.3,0,0.5,0.1,0.8,0.2v0.8c0,0.1-0.1,0.1-0.1,0.1c0,0-0.4-0.2-0.7-0.2c-0.3-0.1-0.5-0.1-0.8-0.1
		c-0.3,0-0.5,0-0.7,0.1c-0.2,0.1-0.4,0.2-0.6,0.4c-0.2,0.2-0.3,0.4-0.4,0.7c-0.1,0.3-0.2,0.6-0.2,0.9c0,0.7,0.2,1.2,0.5,1.6
		c0.3,0.3,0.8,0.5,1.4,0.5c0.3,0,0.5,0,0.8-0.1c0.3-0.1,0.5-0.2,0.7-0.3V142.5z"/>
	<path fill="#F39600" d="M231.9,139.6c0,0.1,0,0.3,0,0.4c0,0.1,0,0.2,0,0.3h-4c-0.1,0-0.1,0.1-0.1,0.1c0,0,0.1,0.9,0.5,1.2
		c0.3,0.3,0.8,0.5,1.4,0.5c0.2,0,0.3,0,0.5,0c0.2,0,0.3,0,0.5-0.1c0.2,0,0.3,0,0.5-0.1c0.1,0,0.3-0.1,0.4-0.1v0.7
		c0,0.1-0.1,0.1-0.1,0.2c0,0-0.5,0.1-0.8,0.2c-0.3,0-0.7,0.1-1.1,0.1c-0.5,0-0.9-0.1-1.3-0.2c-0.4-0.1-0.7-0.3-0.9-0.6
		c-0.2-0.3-0.4-0.6-0.5-0.9c-0.1-0.4-0.2-0.8-0.2-1.3c0-0.4,0.1-0.8,0.2-1.2c0.1-0.4,0.3-0.7,0.5-1c0.2-0.3,0.5-0.5,0.8-0.7
		c0.3-0.2,0.7-0.2,1.1-0.2c0.4,0,0.8,0.1,1.1,0.2c0.3,0.1,0.6,0.3,0.8,0.5c0.2,0.2,0.4,0.5,0.5,0.9
		C231.8,138.9,231.9,139.2,231.9,139.6z M230.7,139.5c0.1,0,0.1-0.1,0.1-0.1c0,0,0-0.4-0.1-0.6c-0.1-0.2-0.2-0.4-0.3-0.6
		c-0.1-0.2-0.3-0.3-0.5-0.4c-0.2-0.1-0.4-0.1-0.7-0.1c-0.2,0-0.4,0-0.6,0.1c-0.2,0.1-0.3,0.2-0.5,0.4c-0.1,0.2-0.2,0.3-0.3,0.6
		c-0.1,0.2-0.1,0.5-0.2,0.7H230.7z"/>
	<path fill="#F39600" d="M238.2,141.3c0,0.2,0,0.4-0.1,0.6c-0.1,0.2-0.2,0.3-0.3,0.4c-0.1,0.1-0.3,0.2-0.4,0.3
		c-0.2,0.1-0.3,0.2-0.5,0.2c-0.2,0.1-0.4,0.1-0.6,0.1c-0.2,0-0.4,0-0.6,0c-0.4,0-0.8,0-1.1-0.1c-0.3,0-0.7-0.1-1-0.2v-0.8
		c0-0.1,0.1-0.1,0.1-0.1c0,0,0.6,0.1,0.9,0.2c0.3,0.1,0.7,0.1,1,0.1c0.5,0,0.8-0.1,1.1-0.2c0.2-0.1,0.3-0.3,0.3-0.6
		c0-0.1,0-0.2-0.1-0.3c0-0.1-0.1-0.2-0.2-0.2c-0.1-0.1-0.2-0.2-0.4-0.2c-0.2-0.1-0.5-0.2-0.8-0.3c-0.3-0.1-0.5-0.2-0.7-0.3
		c-0.2-0.1-0.4-0.2-0.6-0.4c-0.2-0.1-0.3-0.3-0.4-0.5c-0.1-0.2-0.1-0.4-0.1-0.6c0-0.2,0-0.3,0.1-0.5c0.1-0.2,0.2-0.4,0.4-0.5
		c0.2-0.2,0.4-0.3,0.7-0.4c0.3-0.1,0.7-0.2,1.2-0.2c0.2,0,0.5,0,0.8,0c0.3,0,0.6,0.1,0.9,0.1v0.8c0,0.1-0.1,0.1-0.1,0.1
		c0,0-0.5-0.1-0.8-0.1c-0.3,0-0.5-0.1-0.7-0.1c-0.3,0-0.5,0-0.6,0.1c-0.2,0-0.3,0.1-0.4,0.2c-0.1,0.1-0.2,0.1-0.2,0.2
		c0,0.1-0.1,0.2-0.1,0.3c0,0.1,0,0.2,0.1,0.3c0,0.1,0.1,0.2,0.2,0.2c0.1,0.1,0.3,0.2,0.5,0.2c0.2,0.1,0.5,0.2,0.8,0.3
		c0.3,0.1,0.6,0.2,0.9,0.3c0.2,0.1,0.4,0.2,0.6,0.4c0.1,0.1,0.3,0.3,0.3,0.5C238.2,140.9,238.2,141.1,238.2,141.3z"/>
	<path fill="#F39600" d="M244.7,141.3c0,0.2,0,0.4-0.1,0.6c-0.1,0.2-0.2,0.3-0.3,0.4c-0.1,0.1-0.3,0.2-0.4,0.3
		c-0.2,0.1-0.3,0.2-0.5,0.2c-0.2,0.1-0.4,0.1-0.6,0.1c-0.2,0-0.4,0-0.6,0c-0.4,0-0.8,0-1.1-0.1c-0.3,0-0.7-0.1-1-0.2v-0.8
		c0-0.1,0.1-0.1,0.1-0.1c0,0,0.6,0.1,0.9,0.2c0.3,0.1,0.7,0.1,1,0.1c0.5,0,0.8-0.1,1.1-0.2c0.2-0.1,0.3-0.3,0.3-0.6
		c0-0.1,0-0.2-0.1-0.3c0-0.1-0.1-0.2-0.2-0.2c-0.1-0.1-0.2-0.2-0.4-0.2c-0.2-0.1-0.5-0.2-0.8-0.3c-0.3-0.1-0.5-0.2-0.7-0.3
		c-0.2-0.1-0.4-0.2-0.6-0.4c-0.2-0.1-0.3-0.3-0.4-0.5c-0.1-0.2-0.1-0.4-0.1-0.6c0-0.2,0-0.3,0.1-0.5c0.1-0.2,0.2-0.4,0.4-0.5
		c0.2-0.2,0.4-0.3,0.7-0.4c0.3-0.1,0.7-0.2,1.2-0.2c0.2,0,0.5,0,0.8,0c0.3,0,0.6,0.1,0.9,0.1v0.8c0,0.1-0.1,0.1-0.1,0.1
		c0,0-0.5-0.1-0.8-0.1c-0.3,0-0.5-0.1-0.7-0.1c-0.3,0-0.5,0-0.6,0.1c-0.2,0-0.3,0.1-0.4,0.2c-0.1,0.1-0.2,0.1-0.2,0.2
		c0,0.1-0.1,0.2-0.1,0.3c0,0.1,0,0.2,0.1,0.3c0,0.1,0.1,0.2,0.2,0.2c0.1,0.1,0.3,0.2,0.5,0.2c0.2,0.1,0.5,0.2,0.8,0.3
		c0.3,0.1,0.6,0.2,0.9,0.3c0.2,0.1,0.4,0.2,0.6,0.4c0.1,0.1,0.3,0.3,0.3,0.5C244.6,140.9,244.7,141.1,244.7,141.3z"/>
	<path fill="#637F8D" d="M10.2,142.2l-3-2.5c-0.1,0-0.1-0.1,0-0.2l3-2.4c0.1,0,0.1-0.1,0-0.2l-0.5-0.5c0,0-0.1-0.1-0.2,0l-3.5,2.9
		c0,0,0,0,0,0C6,139.5,6,139.6,6,139.7c0,0.1,0.1,0.2,0.1,0.2c0,0,0,0,0,0l3.5,2.9c0.1,0,0.1,0,0.2,0l0.5-0.5
		C10.3,142.4,10.3,142.3,10.2,142.2z"/>
	<path fill="#637F8D" d="M248,137.2l3,2.5c0.1,0,0.1,0.1,0,0.2l-3,2.4c-0.1,0-0.1,0.1,0,0.2l0.5,0.5c0,0,0.1,0.1,0.2,0l3.5-2.9
		c0,0,0,0,0,0c0.1-0.1,0.1-0.1,0.1-0.2c0-0.1-0.1-0.2-0.1-0.2c0,0,0,0,0,0l-3.5-2.9c-0.1,0-0.1,0-0.2,0L248,137
		C247.9,137.1,247.9,137.2,248,137.2z"/>
</g>
</svg>
