<?xml version="1.0" encoding="utf-8"?>
<!-- Generator: Adobe Illustrator 18.0.0, SVG Export Plug-In . SVG Version: 6.00 Build 0)  -->
<!DOCTYPE svg PUBLIC "-//W3C//DTD SVG 1.1//EN" "http://www.w3.org/Graphics/SVG/1.1/DTD/svg11.dtd">
<svg version="1.1" xmlns="http://www.w3.org/2000/svg" xmlns:xlink="http://www.w3.org/1999/xlink" x="0px" y="0px"
	 viewBox="0 0 31.1 27.4" enable-background="new 0 0 31.1 27.4" xml:space="preserve">

<g  id="facebook-icon">
	<path class="icon-svg-bg" fill="#78909C" d="M8.9,26.7c-0.5,0-1-0.3-1.3-0.8L1,14.4c-0.2-0.4-0.2-1.1,0-1.5L7.6,1.4C7.9,1,8.4,0.7,8.9,0.7h13.3
		c0.5,0,1,0.3,1.3,0.7l6.7,11.5c0.2,0.4,0.2,1.1,0,1.5l-6.7,11.5c-0.2,0.4-0.8,0.8-1.3,0.8H8.9z"/>
	<path class="icon-svg-symbol" id="f_3_" fill="#FFFFFF" d="M16.3,20.8v-6.7h2.9l0.5-2.9h-3.3V9.9c0-0.9,0.5-1.4,1.4-1.4h1.4V5.6c-0.5,0-1.5,0-2.4,0
		c-2.4,0-3.3,1.4-3.3,3.8v1.9h-2.9v2.9h2.9v6.7H16.3z"/>
</g>





</svg>
