<?xml version="1.0" encoding="utf-8"?>
<!-- Generator: Adobe Illustrator 18.0.0, SVG Export Plug-In . SVG Version: 6.00 Build 0)  -->
<!DOCTYPE svg PUBLIC "-//W3C//DTD SVG 1.1//EN" "http://www.w3.org/Graphics/SVG/1.1/DTD/svg11.dtd">
<svg version="1.1" xmlns="http://www.w3.org/2000/svg" xmlns:xlink="http://www.w3.org/1999/xlink" x="0px" y="0px"
	 viewBox="0 0 31.1 27.4" enable-background="new 0 0 31.1 27.4" xml:space="preserve">
<g id="In">
	<path class="icon-svg-bg" fill="#78909C" d="M8.9,26.7c-0.5,0-1-0.3-1.3-0.8L1,14.4c-0.2-0.4-0.2-1.1,0-1.5L7.6,1.4C7.9,1,8.4,0.7,8.9,0.7h13.3
		c0.5,0,1,0.3,1.3,0.7l6.7,11.5c0.2,0.4,0.2,1.1,0,1.5l-6.7,11.5c-0.2,0.4-0.8,0.8-1.3,0.8H8.9z"/>
	<path class="icon-svg-symbol" id="linkedin-icon_2_" fill="#FFFFFF" d="M13,8c0,0.8-0.7,1.5-1.6,1.5S9.8,8.8,9.8,8c0-0.8,0.7-1.5,1.6-1.5S13,7.1,13,8z
		 M12.8,10.5h-2.7v8.2h2.7V10.5z M17.2,10.5h-2.6v8.2h2.6c0,0,0-3,0-4.3c0-1.2,0.6-1.8,1.7-1.8c1,0,1.5,0.7,1.5,1.8
		c0,1.2,0,4.3,0,4.3h2.7c0,0,0-3,0-5.2c0-2.2-1.3-3.3-3.2-3.3c-1.9,0-2.7,1.4-2.7,1.4V10.5L17.2,10.5z"/>
</g>
</svg>
