<?xml version="1.0" encoding="utf-8"?>
<!-- Generator: Adobe Illustrator 18.0.0, SVG Export Plug-In . SVG Version: 6.00 Build 0)  -->
<!DOCTYPE svg PUBLIC "-//W3C//DTD SVG 1.1//EN" "http://www.w3.org/Graphics/SVG/1.1/DTD/svg11.dtd">
<svg version="1.1" xmlns="http://www.w3.org/2000/svg" xmlns:xlink="http://www.w3.org/1999/xlink" x="0px" y="0px"
	 viewBox="0 0 31.1 27.4" enable-background="new 0 0 31.1 27.4" xml:space="preserve">

<g id="Location">
	<g>
		<g>
			<path class="icon-svg-bg" fill="#78909C" d="M8.9,26.7c-0.5,0-1-0.3-1.3-0.8L1,14.4c-0.2-0.4-0.2-1.1,0-1.5L7.6,1.4C7.9,1,8.4,0.7,8.9,0.7h13.3
				c0.5,0,1,0.3,1.3,0.7l6.7,11.5c0.2,0.4,0.2,1.1,0,1.5l-6.7,11.5c-0.2,0.4-0.8,0.8-1.3,0.8H8.9z"/>
		</g>
		<path class="icon-svg-symbol" fill="#FFFFFF" d="M15.6,6.8c-2.8,0-5,2.2-5,5c0,3.8,5,9.3,5,9.3s5-5.5,5-9.3C20.6,9.1,18.3,6.8,15.6,6.8z M15.6,13.6
			c-1,0-1.8-0.8-1.8-1.8s0.8-1.8,1.8-1.8c1,0,1.8,0.8,1.8,1.8S16.5,13.6,15.6,13.6z"/>
	</g>
</g>

</svg>
