<?xml version="1.0" encoding="utf-8"?>
<!-- Generator: Adobe Illustrator 18.0.0, SVG Export Plug-In . SVG Version: 6.00 Build 0)  -->
<!DOCTYPE svg PUBLIC "-//W3C//DTD SVG 1.1//EN" "http://www.w3.org/Graphics/SVG/1.1/DTD/svg11.dtd">
<svg version="1.1" xmlns="http://www.w3.org/2000/svg" xmlns:xlink="http://www.w3.org/1999/xlink" x="0px" y="0px"
	 viewBox="0 0 31.1 27.4" enable-background="new 0 0 31.1 27.4" xml:space="preserve">

<g id="tell">
	<g>
		<g>
			<path class="icon-svg-bg" fill="#78909C" d="M8.9,26.7c-0.5,0-1-0.3-1.3-0.8L1,14.4C0.7,14,0.7,13.3,1,13L7.6,1.4C7.9,1,8.4,0.7,8.9,0.7h13.3
				c0.5,0,1,0.3,1.3,0.7L30.2,13c0.2,0.4,0.2,1.1,0,1.5l-6.7,11.5c-0.2,0.4-0.8,0.8-1.3,0.8H8.9z"/>
		</g>
		<path class="icon-svg-symbol" fill="#FFFFFF" d="M11.5,12.2c1.1,2.2,2.9,4,5.1,5.1l1.7-1.7c0.2-0.2,0.5-0.3,0.8-0.2c0.9,0.3,1.8,0.4,2.8,0.4
			c0.4,0,0.8,0.3,0.8,0.8v2.7c0,0.4-0.4,0.8-0.8,0.8c-7.3,0-13.2-5.9-13.2-13.2c0-0.4,0.4-0.8,0.8-0.8h2.7c0.4,0,0.8,0.4,0.8,0.8
			c0,1,0.2,1.9,0.4,2.8c0.1,0.3,0,0.6-0.2,0.8L11.5,12.2z"/>
	</g>
</g>
</svg>
