<?xml version="1.0" encoding="utf-8"?>
<!-- Generator: Adobe Illustrator 17.0.0, SVG Export Plug-In . SVG Version: 6.00 Build 0)  -->
<!DOCTYPE svg PUBLIC "-//W3C//DTD SVG 1.1//EN" "http://www.w3.org/Graphics/SVG/1.1/DTD/svg11.dtd">
<svg version="1.1" id="Layer_1" xmlns="http://www.w3.org/2000/svg" xmlns:xlink="http://www.w3.org/1999/xlink" x="0px" y="0px"
	 width="240.881px" height="189.238px" viewBox="0 0 240.881 189.238" enable-background="new 0 0 240.881 189.238"
	 xml:space="preserve">
<g>
	<g>
		<path fill="#394147" d="M66.446,13.938v0.649h-1.672v-0.649c0-0.093-0.033-0.173-0.1-0.24c-0.067-0.066-0.147-0.101-0.24-0.101
			h-7.115c-0.093,0-0.173,0.034-0.24,0.101c-0.066,0.067-0.1,0.147-0.1,0.24v2.382c0,0.093,0.033,0.173,0.1,0.239
			c0.067,0.067,0.147,0.101,0.24,0.101h7.115c0.557,0,1.031,0.196,1.424,0.588c0.391,0.393,0.588,0.866,0.588,1.424v2.382
			c0,0.557-0.197,1.031-0.588,1.423c-0.393,0.393-0.867,0.588-1.424,0.588h-7.115c-0.557,0-1.031-0.195-1.424-0.588
			c-0.391-0.392-0.587-0.866-0.587-1.423v-0.649h1.671v0.649c0,0.093,0.033,0.173,0.1,0.239c0.067,0.067,0.147,0.101,0.24,0.101
			h7.115c0.093,0,0.173-0.033,0.24-0.101c0.066-0.066,0.1-0.146,0.1-0.239v-2.382c0-0.093-0.033-0.173-0.1-0.24
			c-0.067-0.067-0.147-0.101-0.24-0.101h-7.115c-0.557,0-1.031-0.195-1.424-0.588c-0.391-0.392-0.587-0.866-0.587-1.423v-2.382
			c0-0.558,0.196-1.031,0.587-1.424c0.393-0.392,0.867-0.588,1.424-0.588h7.115c0.557,0,1.031,0.196,1.424,0.588
			C66.249,12.906,66.446,13.38,66.446,13.938z"/>
		<path fill="#394147" d="M69.091,11.926h11.137v1.671h-4.732v9.467h-1.672v-9.467h-4.732V11.926z"/>
		<path fill="#394147" d="M84.977,11.926h7.115c0.558,0,1.031,0.196,1.423,0.588c0.393,0.393,0.588,0.866,0.588,1.424v9.126h-1.67
			v-3.898h-7.797v3.898h-1.67v-9.126c0-0.558,0.195-1.031,0.588-1.424C83.945,12.122,84.419,11.926,84.977,11.926z M84.636,17.495
			h7.797v-3.558c0-0.093-0.034-0.173-0.102-0.24c-0.066-0.066-0.146-0.101-0.239-0.101h-7.115c-0.093,0-0.173,0.034-0.239,0.101
			c-0.068,0.067-0.102,0.147-0.102,0.24V17.495z"/>
		<path fill="#394147" d="M108.534,13.952v3.125c0,0.547-0.195,1.019-0.587,1.415c-0.392,0.397-0.866,0.596-1.423,0.596h-1.129
			l3.139,3.743v0.232h-1.979l-3.341-3.976h-3.805c-0.084,0-0.197-0.01-0.341-0.03v4.006h-1.671V11.942h9.127
			c0.557,0,1.031,0.199,1.423,0.596C108.339,12.935,108.534,13.406,108.534,13.952z M99.409,17.418h7.115
			c0.092,0,0.172-0.034,0.239-0.101c0.067-0.067,0.101-0.147,0.101-0.24v-3.125c0-0.093-0.033-0.172-0.101-0.239
			s-0.147-0.101-0.239-0.101h-7.115c-0.094,0-0.174,0.033-0.24,0.101c-0.067,0.067-0.101,0.146-0.101,0.239v3.125
			c0,0.093,0.033,0.173,0.101,0.24C99.235,17.384,99.315,17.418,99.409,17.418z"/>
		<path fill="#394147" d="M111.165,11.926h11.137v1.671h-4.733v9.467h-1.671v-9.467h-4.732V11.926z"/>
		<path fill="#394147" d="M134.444,21.053v-9.127h1.67v9.127c0,0.557-0.195,1.031-0.588,1.423c-0.392,0.393-0.865,0.588-1.423,0.588
			h-7.115c-0.557,0-1.031-0.195-1.423-0.588c-0.393-0.392-0.588-0.866-0.588-1.423v-9.127h1.67v9.127
			c0,0.093,0.033,0.173,0.102,0.239c0.066,0.067,0.146,0.101,0.239,0.101h7.115c0.093,0,0.173-0.033,0.239-0.101
			C134.411,21.226,134.444,21.146,134.444,21.053z"/>
		<path fill="#394147" d="M139.362,11.942h9.126c0.558,0,1.031,0.199,1.424,0.596c0.392,0.397,0.588,0.869,0.588,1.415v3.125
			c0,0.547-0.196,1.019-0.588,1.415c-0.393,0.397-0.866,0.596-1.424,0.596h-7.115c-0.082,0-0.196-0.01-0.34-0.03v4.006h-1.671
			V11.942z M148.829,17.077v-3.125c0-0.093-0.034-0.172-0.101-0.239c-0.067-0.067-0.147-0.101-0.24-0.101h-7.115
			c-0.093,0-0.173,0.033-0.239,0.101c-0.067,0.067-0.101,0.146-0.101,0.239v3.125c0,0.093,0.033,0.173,0.101,0.24
			c0.066,0.066,0.146,0.101,0.239,0.101h7.115c0.093,0,0.173-0.034,0.24-0.101C148.795,17.25,148.829,17.17,148.829,17.077z"/>
		<path fill="#394147" d="M168.922,11.926h1.671v11.138h-1.671V18.33h-8.059v4.733h-1.671V11.926h1.671v4.733h8.059V11.926z"/>
		<path fill="#394147" d="M175.93,11.926h7.115c0.557,0,1.031,0.196,1.423,0.588c0.392,0.393,0.588,0.866,0.588,1.424v9.126h-1.67
			v-3.898h-7.797v3.898h-1.67v-9.126c0-0.558,0.195-1.031,0.588-1.424C174.898,12.122,175.373,11.926,175.93,11.926z
			 M175.589,17.495h7.797v-3.558c0-0.093-0.034-0.173-0.101-0.24c-0.067-0.066-0.147-0.101-0.24-0.101h-7.115
			c-0.093,0-0.173,0.034-0.24,0.101c-0.066,0.067-0.101,0.147-0.101,0.24V17.495z"/>
		<path fill="#394147" d="M199.426,13.938v0.649h-1.67v-0.649c0-0.093-0.034-0.173-0.101-0.24c-0.067-0.066-0.147-0.101-0.24-0.101
			H190.3c-0.093,0-0.173,0.034-0.24,0.101c-0.066,0.067-0.101,0.147-0.101,0.24v2.382c0,0.093,0.034,0.173,0.101,0.239
			c0.067,0.067,0.147,0.101,0.24,0.101h7.115c0.557,0,1.031,0.196,1.423,0.588c0.393,0.393,0.588,0.866,0.588,1.424v2.382
			c0,0.557-0.195,1.031-0.588,1.423c-0.392,0.393-0.866,0.588-1.423,0.588H190.3c-0.557,0-1.031-0.195-1.423-0.588
			c-0.393-0.392-0.588-0.866-0.588-1.423v-0.649h1.67v0.649c0,0.093,0.034,0.173,0.101,0.239c0.067,0.067,0.147,0.101,0.24,0.101
			h7.115c0.093,0,0.173-0.033,0.24-0.101c0.066-0.066,0.101-0.146,0.101-0.239v-2.382c0-0.093-0.034-0.173-0.101-0.24
			c-0.067-0.067-0.147-0.101-0.24-0.101H190.3c-0.557,0-1.031-0.195-1.423-0.588c-0.393-0.392-0.588-0.866-0.588-1.423v-2.382
			c0-0.558,0.195-1.031,0.588-1.424c0.392-0.392,0.866-0.588,1.423-0.588h7.115c0.557,0,1.031,0.196,1.423,0.588
			C199.23,12.906,199.426,13.38,199.426,13.938z"/>
		<path fill="#394147" d="M213.688,13.938v0.649h-1.67v-0.649c0-0.093-0.034-0.173-0.101-0.24c-0.067-0.066-0.147-0.101-0.24-0.101
			h-7.115c-0.093,0-0.173,0.034-0.24,0.101c-0.066,0.067-0.101,0.147-0.101,0.24v2.382c0,0.093,0.034,0.173,0.101,0.239
			c0.067,0.067,0.147,0.101,0.24,0.101h7.115c0.557,0,1.031,0.196,1.423,0.588c0.393,0.393,0.588,0.866,0.588,1.424v2.382
			c0,0.557-0.195,1.031-0.588,1.423c-0.392,0.393-0.866,0.588-1.423,0.588h-7.115c-0.557,0-1.031-0.195-1.423-0.588
			c-0.393-0.392-0.588-0.866-0.588-1.423v-0.649h1.67v0.649c0,0.093,0.034,0.173,0.101,0.239c0.067,0.067,0.147,0.101,0.24,0.101
			h7.115c0.093,0,0.173-0.033,0.24-0.101c0.066-0.066,0.101-0.146,0.101-0.239v-2.382c0-0.093-0.034-0.173-0.101-0.24
			c-0.067-0.067-0.147-0.101-0.24-0.101h-7.115c-0.557,0-1.031-0.195-1.423-0.588c-0.393-0.392-0.588-0.866-0.588-1.423v-2.382
			c0-0.558,0.195-1.031,0.588-1.424c0.392-0.392,0.866-0.588,1.423-0.588h7.115c0.557,0,1.031,0.196,1.423,0.588
			C213.492,12.906,213.688,13.38,213.688,13.938z"/>
		<path fill="#394147" d="M216.905,23.064V11.911h1.671v9.481h9.466v1.671H216.905z"/>
		<path fill="#394147" d="M240.881,11.926v1.671h-8.539v3.063h6.868v1.671h-6.868v3.063h8.539v1.671h-10.209V11.926H240.881z"/>
		<path fill="#394147" d="M55.401,71.849V60.696h1.67v9.481h9.467v1.671H55.401z"/>
		<path fill="#394147" d="M79.377,60.711v1.671h-8.538v3.063h6.867v1.671h-6.867v3.063h8.538v1.671h-10.21V60.711H79.377z"/>
		<path fill="#394147" d="M93.669,62.723v0.665h-1.67v-0.665c0-0.093-0.033-0.173-0.101-0.24c-0.067-0.066-0.147-0.101-0.239-0.101
			h-7.116c-0.093,0-0.173,0.034-0.239,0.101c-0.067,0.067-0.102,0.147-0.102,0.24v7.115c0,0.093,0.034,0.173,0.102,0.239
			c0.066,0.067,0.146,0.101,0.239,0.101h7.116c0.092,0,0.172-0.033,0.239-0.101c0.067-0.066,0.101-0.146,0.101-0.239v-2.413h-2.63
			v-1.671h4.3v4.084c0,0.557-0.195,1.031-0.588,1.423c-0.392,0.393-0.865,0.588-1.422,0.588h-7.116
			c-0.557,0-1.031-0.195-1.423-0.588c-0.393-0.392-0.588-0.866-0.588-1.423v-7.115c0-0.558,0.195-1.031,0.588-1.424
			c0.392-0.392,0.866-0.588,1.423-0.588h7.116c0.557,0,1.03,0.196,1.422,0.588C93.474,61.692,93.669,62.165,93.669,62.723z"/>
		<path fill="#394147" d="M98.96,60.711h7.115c0.557,0,1.031,0.196,1.423,0.588c0.392,0.393,0.587,0.866,0.587,1.424v9.126h-1.67
			V67.95h-7.796v3.898h-1.671v-9.126c0-0.558,0.195-1.031,0.588-1.424C97.929,60.907,98.402,60.711,98.96,60.711z M98.619,66.28
			h7.796v-3.558c0-0.093-0.033-0.173-0.101-0.24c-0.067-0.066-0.147-0.101-0.239-0.101H98.96c-0.094,0-0.174,0.034-0.24,0.101
			c-0.067,0.067-0.101,0.147-0.101,0.24V66.28z"/>
		<path fill="#394147" d="M111.411,71.849V60.696h1.671v9.481h9.467v1.671H111.411z"/>
		<path fill="#394147" d="M133.067,60.711h7.115c0.557,0,1.031,0.196,1.422,0.588c0.393,0.393,0.588,0.866,0.588,1.424v9.126h-1.67
			V67.95h-7.796v3.898h-1.671v-9.126c0-0.558,0.195-1.031,0.588-1.424C132.036,60.907,132.51,60.711,133.067,60.711z M132.727,66.28
			h7.796v-3.558c0-0.093-0.033-0.173-0.1-0.24c-0.068-0.066-0.148-0.101-0.24-0.101h-7.115c-0.094,0-0.174,0.034-0.24,0.101
			c-0.067,0.067-0.101,0.147-0.101,0.24V66.28z"/>
		<path fill="#394147" d="M156.563,62.723v0.649h-1.67v-0.649c0-0.093-0.034-0.173-0.101-0.24c-0.067-0.066-0.147-0.101-0.24-0.101
			h-7.115c-0.093,0-0.173,0.034-0.24,0.101c-0.066,0.067-0.101,0.147-0.101,0.24v2.382c0,0.093,0.034,0.173,0.101,0.239
			c0.067,0.067,0.147,0.101,0.24,0.101h7.115c0.557,0,1.031,0.196,1.423,0.588c0.393,0.393,0.588,0.866,0.588,1.424v2.382
			c0,0.557-0.195,1.031-0.588,1.423c-0.392,0.393-0.866,0.588-1.423,0.588h-7.115c-0.557,0-1.031-0.195-1.423-0.588
			c-0.393-0.392-0.588-0.866-0.588-1.423v-0.649h1.67v0.649c0,0.093,0.034,0.173,0.101,0.239c0.067,0.067,0.147,0.101,0.24,0.101
			h7.115c0.093,0,0.173-0.033,0.24-0.101c0.066-0.066,0.101-0.146,0.101-0.239v-2.382c0-0.093-0.034-0.173-0.101-0.24
			c-0.067-0.067-0.147-0.101-0.24-0.101h-7.115c-0.557,0-1.031-0.195-1.423-0.588c-0.393-0.392-0.588-0.866-0.588-1.423v-2.382
			c0-0.558,0.195-1.031,0.588-1.424c0.392-0.392,0.866-0.588,1.423-0.588h7.115c0.557,0,1.031,0.196,1.423,0.588
			C156.368,61.692,156.563,62.165,156.563,62.723z"/>
		<path fill="#394147" d="M159.766,60.727h9.126c0.558,0,1.031,0.199,1.424,0.596c0.392,0.397,0.588,0.869,0.588,1.415v3.125
			c0,0.547-0.196,1.019-0.588,1.415c-0.393,0.397-0.866,0.596-1.424,0.596h-7.115c-0.082,0-0.196-0.01-0.34-0.03v4.006h-1.671
			V60.727z M169.232,65.863v-3.125c0-0.093-0.034-0.172-0.101-0.239c-0.067-0.067-0.147-0.101-0.24-0.101h-7.115
			c-0.093,0-0.173,0.033-0.239,0.101c-0.067,0.067-0.101,0.146-0.101,0.239v3.125c0,0.093,0.033,0.173,0.101,0.24
			c0.066,0.066,0.146,0.101,0.239,0.101h7.115c0.093,0,0.173-0.034,0.24-0.101C169.198,66.035,169.232,65.955,169.232,65.863z"/>
		<path fill="#394147" d="M183.787,60.711v1.671h-8.539v3.063h6.868v1.671h-6.868v3.063h8.539v1.671h-10.209V60.711H183.787z"/>
		<path fill="#394147" d="M198.049,62.382h-9.096c-0.093,0-0.173,0.034-0.239,0.101c-0.067,0.067-0.101,0.147-0.101,0.24v7.115
			c0,0.093,0.033,0.173,0.101,0.239c0.066,0.067,0.146,0.101,0.239,0.101h9.096v1.671h-9.096c-0.557,0-1.031-0.195-1.423-0.588
			c-0.393-0.392-0.588-0.866-0.588-1.423v-7.115c0-0.558,0.195-1.031,0.588-1.424c0.392-0.392,0.866-0.588,1.423-0.588h9.096V62.382
			z"/>
		<path fill="#394147" d="M200.647,60.711h11.137v1.671h-4.733v9.467h-1.67v-9.467h-4.733V60.711z"/>
		<path fill="#394147" d="M225.551,62.723v0.649h-1.67v-0.649c0-0.093-0.034-0.173-0.101-0.24c-0.067-0.066-0.147-0.101-0.24-0.101
			h-7.115c-0.093,0-0.173,0.034-0.24,0.101c-0.066,0.067-0.101,0.147-0.101,0.24v2.382c0,0.093,0.034,0.173,0.101,0.239
			c0.067,0.067,0.147,0.101,0.24,0.101h7.115c0.557,0,1.031,0.196,1.423,0.588c0.393,0.393,0.588,0.866,0.588,1.424v2.382
			c0,0.557-0.195,1.031-0.588,1.423c-0.392,0.393-0.866,0.588-1.423,0.588h-7.115c-0.557,0-1.031-0.195-1.423-0.588
			c-0.393-0.392-0.588-0.866-0.588-1.423v-0.649h1.67v0.649c0,0.093,0.034,0.173,0.101,0.239c0.067,0.067,0.147,0.101,0.24,0.101
			h7.115c0.093,0,0.173-0.033,0.24-0.101c0.066-0.066,0.101-0.146,0.101-0.239v-2.382c0-0.093-0.034-0.173-0.101-0.24
			c-0.067-0.067-0.147-0.101-0.24-0.101h-7.115c-0.557,0-1.031-0.195-1.423-0.588c-0.393-0.392-0.588-0.866-0.588-1.423v-2.382
			c0-0.558,0.195-1.031,0.588-1.424c0.392-0.392,0.866-0.588,1.423-0.588h7.115c0.557,0,1.031,0.196,1.423,0.588
			C225.355,61.692,225.551,62.165,225.551,62.723z"/>
		<path fill="#394147" d="M66.507,111.522v3.125c0,0.547-0.195,1.019-0.587,1.415c-0.392,0.397-0.866,0.596-1.423,0.596h-1.129
			l3.139,3.743v0.232h-1.979l-3.341-3.976h-3.805c-0.084,0-0.197-0.01-0.341-0.03v4.006H55.37v-11.122h9.127
			c0.557,0,1.031,0.199,1.423,0.596C66.312,110.504,66.507,110.976,66.507,111.522z M57.382,114.988h7.115
			c0.092,0,0.172-0.034,0.239-0.101c0.067-0.067,0.101-0.147,0.101-0.24v-3.125c0-0.093-0.033-0.172-0.101-0.239
			s-0.147-0.101-0.239-0.101h-7.115c-0.094,0-0.174,0.033-0.24,0.101c-0.067,0.067-0.101,0.146-0.101,0.239v3.125
			c0,0.093,0.033,0.173,0.101,0.24C57.208,114.953,57.288,114.988,57.382,114.988z"/>
		<path fill="#394147" d="M79.935,109.495v1.671h-8.539v3.063h6.867v1.671h-6.867v3.063h8.539v1.671h-10.21v-11.138H79.935z"/>
		<path fill="#394147" d="M94.196,111.166h-9.096c-0.094,0-0.174,0.034-0.24,0.101c-0.066,0.067-0.101,0.147-0.101,0.24v7.115
			c0,0.093,0.034,0.173,0.101,0.239c0.066,0.067,0.146,0.101,0.24,0.101h9.096v1.671h-9.096c-0.557,0-1.031-0.195-1.424-0.588
			c-0.392-0.392-0.588-0.866-0.588-1.423v-7.115c0-0.558,0.196-1.031,0.588-1.424c0.393-0.392,0.867-0.588,1.424-0.588h9.096
			V111.166z"/>
		<path fill="#394147" d="M108.473,111.522v3.125c0,0.547-0.196,1.019-0.587,1.415c-0.393,0.397-0.867,0.596-1.424,0.596h-1.129
			l3.14,3.743v0.232h-1.979l-3.342-3.976h-3.805c-0.083,0-0.196-0.01-0.34-0.03v4.006h-1.672v-11.122h9.127
			c0.557,0,1.031,0.199,1.424,0.596C108.276,110.504,108.473,110.976,108.473,111.522z M99.347,114.988h7.115
			c0.093,0,0.173-0.034,0.24-0.101c0.066-0.067,0.1-0.147,0.1-0.24v-3.125c0-0.093-0.033-0.172-0.1-0.239
			c-0.067-0.067-0.147-0.101-0.24-0.101h-7.115c-0.093,0-0.173,0.033-0.24,0.101c-0.066,0.067-0.1,0.146-0.1,0.239v3.125
			c0,0.093,0.033,0.173,0.1,0.24C99.174,114.953,99.254,114.988,99.347,114.988z"/>
		<path fill="#394147" d="M121.095,118.622v-9.127h1.671v9.127c0,0.557-0.196,1.031-0.588,1.423
			c-0.392,0.393-0.866,0.588-1.423,0.588h-7.115c-0.557,0-1.031-0.195-1.424-0.588c-0.392-0.392-0.588-0.866-0.588-1.423v-9.127
			h1.671v9.127c0,0.093,0.033,0.173,0.101,0.239c0.066,0.067,0.146,0.101,0.24,0.101h7.115c0.092,0,0.172-0.033,0.239-0.101
			C121.062,118.795,121.095,118.715,121.095,118.622z"/>
		<path fill="#394147" d="M126.029,120.633v-11.138h1.671v11.138H126.029z"/>
		<path fill="#394147" d="M130.407,109.495h11.137v1.671h-4.733v9.467h-1.671v-9.467h-4.732V109.495z"/>
		<path fill="#394147" d="M150.562,114.647l4.315-5.151h1.995v11.138h-1.671v-8.91l-4.64,5.522l-4.641-5.522v8.91h-1.671v-11.138
			h1.979L150.562,114.647z"/>
		<path fill="#394147" d="M170.392,109.495v1.671h-8.539v3.063h6.868v1.671h-6.868v3.063h8.539v1.671h-10.209v-11.138H170.392z"/>
		<path fill="#394147" d="M183.014,118.405v-8.91h1.671v11.138h-1.98l-7.486-8.91v8.91h-1.671v-11.138h1.979L183.014,118.405z"/>
		<path fill="#394147" d="M187.407,109.495h11.137v1.671h-4.733v9.467h-1.67v-9.467h-4.733V109.495z"/>
		<path fill="#394147" d="M55.401,169.418V158.28h1.67v11.138H55.401z"/>
		<path fill="#394147" d="M69.802,167.191v-8.91h1.671v11.138h-1.979l-7.487-8.91v8.91h-1.671V158.28h1.98L69.802,167.191z"/>
		<path fill="#394147" d="M74.782,158.28h10.209v1.671h-8.538v3.063h6.868v1.671h-6.868v4.733h-1.671V158.28z"/>
		<path fill="#394147" d="M98.604,160.307v3.125c0,0.547-0.196,1.019-0.587,1.415c-0.393,0.397-0.867,0.596-1.424,0.596h-1.129
			l3.14,3.743v0.232h-1.979l-3.342-3.976h-3.805c-0.083,0-0.196-0.01-0.34-0.03v4.006h-1.672v-11.122h9.127
			c0.557,0,1.031,0.199,1.424,0.596C98.407,159.289,98.604,159.761,98.604,160.307z M89.478,163.773h7.115
			c0.093,0,0.173-0.034,0.24-0.101c0.066-0.067,0.1-0.147,0.1-0.24v-3.125c0-0.093-0.033-0.172-0.1-0.239
			c-0.067-0.067-0.147-0.101-0.24-0.101h-7.115c-0.093,0-0.173,0.033-0.24,0.101c-0.066,0.067-0.1,0.146-0.1,0.239v3.125
			c0,0.093,0.033,0.173,0.1,0.24C89.305,163.738,89.385,163.773,89.478,163.773z"/>
		<path fill="#394147" d="M103.832,158.28h7.115c0.558,0,1.031,0.196,1.423,0.588c0.393,0.393,0.588,0.866,0.588,1.424v9.126h-1.67
			v-3.898h-7.797v3.898h-1.67v-9.126c0-0.558,0.195-1.031,0.588-1.424C102.801,158.477,103.274,158.28,103.832,158.28z
			 M103.491,163.85h7.797v-3.558c0-0.093-0.034-0.173-0.102-0.24c-0.066-0.066-0.146-0.101-0.239-0.101h-7.115
			c-0.093,0-0.173,0.034-0.239,0.101c-0.068,0.067-0.102,0.147-0.102,0.24V163.85z"/>
		<path fill="#394147" d="M127.329,160.292v0.649h-1.672v-0.649c0-0.093-0.033-0.173-0.1-0.24c-0.067-0.066-0.147-0.101-0.24-0.101
			h-7.115c-0.093,0-0.173,0.034-0.24,0.101c-0.066,0.067-0.1,0.147-0.1,0.24v2.382c0,0.093,0.033,0.173,0.1,0.239
			c0.067,0.067,0.147,0.101,0.24,0.101h7.115c0.557,0,1.031,0.196,1.424,0.588c0.391,0.393,0.588,0.866,0.588,1.424v2.382
			c0,0.557-0.197,1.031-0.588,1.423c-0.393,0.393-0.867,0.588-1.424,0.588h-7.115c-0.557,0-1.031-0.195-1.424-0.588
			c-0.391-0.392-0.587-0.866-0.587-1.423v-0.649h1.671v0.649c0,0.093,0.033,0.173,0.1,0.239c0.067,0.067,0.147,0.101,0.24,0.101
			h7.115c0.093,0,0.173-0.033,0.24-0.101c0.066-0.066,0.1-0.146,0.1-0.239v-2.382c0-0.093-0.033-0.173-0.1-0.24
			c-0.067-0.067-0.147-0.101-0.24-0.101h-7.115c-0.557,0-1.031-0.195-1.424-0.588c-0.391-0.392-0.587-0.866-0.587-1.423v-2.382
			c0-0.558,0.196-1.031,0.587-1.424c0.393-0.392,0.867-0.588,1.424-0.588h7.115c0.557,0,1.031,0.196,1.424,0.588
			C127.132,159.261,127.329,159.735,127.329,160.292z"/>
		<path fill="#394147" d="M129.974,158.28h11.137v1.671h-4.732v9.467h-1.672v-9.467h-4.732V158.28z"/>
		<path fill="#394147" d="M154.939,160.307v3.125c0,0.547-0.196,1.019-0.588,1.415c-0.393,0.397-0.866,0.596-1.423,0.596h-1.13
			l3.141,3.743v0.232h-1.98l-3.341-3.976h-3.806c-0.082,0-0.195-0.01-0.34-0.03v4.006h-1.671v-11.122h9.127
			c0.557,0,1.03,0.199,1.423,0.596C154.743,159.289,154.939,159.761,154.939,160.307z M145.813,163.773h7.116
			c0.093,0,0.172-0.034,0.239-0.101c0.067-0.067,0.101-0.147,0.101-0.24v-3.125c0-0.093-0.033-0.172-0.101-0.239
			s-0.146-0.101-0.239-0.101h-7.116c-0.093,0-0.173,0.033-0.239,0.101c-0.067,0.067-0.101,0.146-0.101,0.239v3.125
			c0,0.093,0.033,0.173,0.101,0.24C145.64,163.738,145.72,163.773,145.813,163.773z"/>
		<path fill="#394147" d="M167.561,167.407v-9.127h1.671v9.127c0,0.557-0.196,1.031-0.588,1.423
			c-0.392,0.393-0.866,0.588-1.423,0.588h-7.116c-0.557,0-1.031-0.195-1.423-0.588c-0.392-0.392-0.588-0.866-0.588-1.423v-9.127
			h1.671v9.127c0,0.093,0.033,0.173,0.101,0.239c0.067,0.067,0.146,0.101,0.239,0.101h7.116c0.093,0,0.172-0.033,0.239-0.101
			C167.527,167.58,167.561,167.5,167.561,167.407z"/>
		<path fill="#394147" d="M183.586,159.951h-9.096c-0.093,0-0.173,0.034-0.239,0.101c-0.067,0.067-0.101,0.147-0.101,0.24v7.115
			c0,0.093,0.033,0.173,0.101,0.239c0.066,0.067,0.146,0.101,0.239,0.101h9.096v1.671h-9.096c-0.557,0-1.031-0.195-1.423-0.588
			c-0.393-0.392-0.588-0.866-0.588-1.423v-7.115c0-0.558,0.195-1.031,0.588-1.424c0.392-0.392,0.866-0.588,1.423-0.588h9.096
			V159.951z"/>
		<path fill="#394147" d="M186.185,158.28h11.137v1.671h-4.733v9.467h-1.67v-9.467h-4.733V158.28z"/>
		<path fill="#394147" d="M209.464,167.407v-9.127h1.671v9.127c0,0.557-0.196,1.031-0.588,1.423
			c-0.392,0.393-0.866,0.588-1.423,0.588h-7.116c-0.557,0-1.031-0.195-1.423-0.588c-0.392-0.392-0.588-0.866-0.588-1.423v-9.127
			h1.671v9.127c0,0.093,0.033,0.173,0.101,0.239c0.067,0.067,0.146,0.101,0.239,0.101h7.116c0.093,0,0.172-0.033,0.239-0.101
			C209.431,167.58,209.464,167.5,209.464,167.407z"/>
		<path fill="#394147" d="M225.505,160.307v3.125c0,0.547-0.196,1.019-0.588,1.415c-0.393,0.397-0.866,0.596-1.423,0.596h-1.13
			l3.141,3.743v0.232h-1.98l-3.341-3.976h-3.806c-0.082,0-0.195-0.01-0.34-0.03v4.006h-1.671v-11.122h9.127
			c0.557,0,1.03,0.199,1.423,0.596C225.309,159.289,225.505,159.761,225.505,160.307z M216.378,163.773h7.116
			c0.093,0,0.172-0.034,0.239-0.101c0.067-0.067,0.101-0.147,0.101-0.24v-3.125c0-0.093-0.033-0.172-0.101-0.239
			s-0.146-0.101-0.239-0.101h-7.116c-0.093,0-0.173,0.033-0.239,0.101c-0.067,0.067-0.101,0.146-0.101,0.239v3.125
			c0,0.093,0.033,0.173,0.101,0.24C216.205,163.738,216.285,163.773,216.378,163.773z"/>
		<path fill="#394147" d="M238.932,158.28v1.671h-8.539v3.063h6.868v1.671h-6.868v3.063h8.539v1.671h-10.209V158.28H238.932z"/>
		<path fill="#394147" d="M65.626,177.319v1.671h-8.539v3.063h6.868v1.671h-6.868v3.063h8.539v1.671H55.417v-11.138H65.626z"/>
		<path fill="#394147" d="M77.784,177.319h1.979v0.232l-4.485,5.337l4.485,5.336v0.232h-1.979l-3.589-4.27l-3.589,4.27h-1.98v-0.232
			l4.471-5.336l-4.471-5.337v-0.232h1.98l3.589,4.27L77.784,177.319z"/>
		<path fill="#394147" d="M82.888,177.334h9.127c0.557,0,1.031,0.199,1.423,0.596c0.392,0.397,0.588,0.869,0.588,1.415v3.125
			c0,0.547-0.196,1.019-0.588,1.415c-0.392,0.397-0.866,0.596-1.423,0.596h-7.115c-0.083,0-0.196-0.01-0.341-0.03v4.006h-1.671
			V177.334z M92.354,182.47v-3.125c0-0.093-0.033-0.172-0.1-0.239c-0.068-0.067-0.147-0.101-0.24-0.101h-7.115
			c-0.094,0-0.174,0.033-0.24,0.101s-0.101,0.146-0.101,0.239v3.125c0,0.093,0.034,0.173,0.101,0.24
			c0.066,0.066,0.146,0.101,0.24,0.101h7.115c0.093,0,0.172-0.034,0.24-0.101C92.321,182.643,92.354,182.563,92.354,182.47z"/>
		<path fill="#394147" d="M106.911,177.319v1.671h-8.539v3.063h6.867v1.671h-6.867v3.063h8.539v1.671h-10.21v-11.138H106.911z"/>
		<path fill="#394147" d="M119.532,186.229v-8.91h1.671v11.138h-1.979l-7.487-8.91v8.91h-1.671v-11.138h1.98L119.532,186.229z"/>
		<path fill="#394147" d="M135.542,179.33v0.649h-1.671v-0.649c0-0.093-0.033-0.173-0.101-0.24c-0.066-0.066-0.146-0.101-0.24-0.101
			h-7.115c-0.092,0-0.172,0.034-0.239,0.101c-0.067,0.067-0.101,0.147-0.101,0.24v2.382c0,0.093,0.033,0.173,0.101,0.239
			c0.067,0.067,0.147,0.101,0.239,0.101h7.115c0.558,0,1.031,0.196,1.424,0.588c0.392,0.393,0.588,0.866,0.588,1.424v2.382
			c0,0.557-0.196,1.031-0.588,1.423c-0.393,0.393-0.866,0.588-1.424,0.588h-7.115c-0.557,0-1.031-0.195-1.423-0.588
			c-0.392-0.392-0.587-0.866-0.587-1.423v-0.649h1.67v0.649c0,0.093,0.033,0.173,0.101,0.239c0.067,0.067,0.147,0.101,0.239,0.101
			h7.115c0.094,0,0.174-0.033,0.24-0.101c0.067-0.066,0.101-0.146,0.101-0.239v-2.382c0-0.093-0.033-0.173-0.101-0.24
			c-0.066-0.067-0.146-0.101-0.24-0.101h-7.115c-0.557,0-1.031-0.195-1.423-0.588c-0.392-0.392-0.587-0.866-0.587-1.423v-2.382
			c0-0.558,0.195-1.031,0.587-1.424c0.392-0.392,0.866-0.588,1.423-0.588h7.115c0.558,0,1.031,0.196,1.424,0.588
			C135.346,178.299,135.542,178.773,135.542,179.33z"/>
		<path fill="#394147" d="M148.984,177.319v1.671h-8.539v3.063h6.868v1.671h-6.868v3.063h8.539v1.671h-10.209v-11.138H148.984z"/>
		<path fill="#394147" d="M163.199,179.33v0.649h-1.67v-0.649c0-0.093-0.034-0.173-0.101-0.24c-0.067-0.066-0.147-0.101-0.24-0.101
			h-7.115c-0.093,0-0.173,0.034-0.24,0.101c-0.066,0.067-0.101,0.147-0.101,0.24v2.382c0,0.093,0.034,0.173,0.101,0.239
			c0.067,0.067,0.147,0.101,0.24,0.101h7.115c0.557,0,1.031,0.196,1.423,0.588c0.393,0.393,0.588,0.866,0.588,1.424v2.382
			c0,0.557-0.195,1.031-0.588,1.423c-0.392,0.393-0.866,0.588-1.423,0.588h-7.115c-0.557,0-1.031-0.195-1.423-0.588
			c-0.393-0.392-0.588-0.866-0.588-1.423v-0.649h1.67v0.649c0,0.093,0.034,0.173,0.101,0.239c0.067,0.067,0.147,0.101,0.24,0.101
			h7.115c0.093,0,0.173-0.033,0.24-0.101c0.066-0.066,0.101-0.146,0.101-0.239v-2.382c0-0.093-0.034-0.173-0.101-0.24
			c-0.067-0.067-0.147-0.101-0.24-0.101h-7.115c-0.557,0-1.031-0.195-1.423-0.588c-0.393-0.392-0.588-0.866-0.588-1.423v-2.382
			c0-0.558,0.195-1.031,0.588-1.424c0.392-0.392,0.866-0.588,1.423-0.588h7.115c0.557,0,1.031,0.196,1.423,0.588
			C163.004,178.299,163.199,178.773,163.199,179.33z"/>
	</g>
	<g>
		<g>
			<g>
				<path fill="#78909C" d="M7.06,32.309l0.153-0.944c0.101-0.62,1.047-6.093,3.308-7.311c0.482-0.26,0.979-0.392,1.476-0.392
					c1.769,0,2.852,1.653,2.896,1.724c0.646,0.836,1.406,2.966-0.608,4.671c-2.159,1.828-6.104,2.162-6.271,2.175L7.06,32.309z
					 M11.996,25.163c-0.246,0-0.503,0.071-0.765,0.212c-0.991,0.534-1.887,3.112-2.347,5.23c1.205-0.202,3.227-0.674,4.431-1.693
					c1.413-1.196,0.465-2.517,0.352-2.664C13.626,26.191,12.939,25.163,11.996,25.163z"/>
			</g>
			<g>
				<path fill="#CFD8DC" d="M13.106,19.097l5.218-7.334c0.19,0.007,0.312,0.018,0.348,0.022h0.001l0.065-0.604l0.061-0.086
					c-0.017-0.001-0.034,0-0.052-0.001l0.025-0.227c-0.088-0.01-8.87-0.854-12.028,8.622l-0.096,0.289l3.314,2.946l3.385-3.215
					l-0.322-0.338L13.106,19.097z"/>
				<path fill="#263238" d="M9.979,23.743L5.78,20.011l0.251-0.758c2.833-8.499,9.995-9.159,12.123-9.159
					c0.433,0,0.688,0.027,0.704,0.028l0.738,0.086l-0.02,0.18l0.566,0.032l-0.68,1.029l-0.125,1.15l-0.647-0.06l-4.681,6.578
					l0.396,0.417L9.979,23.743z M7.516,19.547l2.43,2.159l2.341-2.225l-0.331-0.349l0.586-0.535l4.967-6.981
					C15.138,11.767,9.826,12.877,7.516,19.547z"/>
			</g>
			<g>
				<path fill="#CFD8DC" d="M28.573,20.065l-0.898,0.071l-0.004-0.015l-7.286,6.416l-0.437-0.462l-3.233,3.063l3.078,3.802
					l0.295-0.087C20.18,32.828,29.363,30.018,28.573,20.065z"/>
				<path fill="#263238" d="M19.523,33.801l-3.828-4.729l4.28-4.057l0.456,0.481l7.652-6.738l0.155,0.581l1.022-0.081l0.06,0.747
					c0.836,10.538-8.923,13.539-9.021,13.568L19.523,33.801z M17.734,29.206l2.322,2.87c1.23-0.425,7.995-3.13,7.812-11.128
					l-7.53,6.631l-0.419-0.442L17.734,29.206z"/>
			</g>
			<g>
				<path fill="#CFD8DC" d="M12.723,18.868l8.001,8.001l12.002-10.002c0,0,7.078-5.539,5.693-15.695c0,0-7.693-2.462-14.771,4.462
					S12.723,18.868,12.723,18.868z"/>
				<path fill="#263238" d="M20.678,27.884l-8.902-8.902l0.307-0.504c0.039-0.063,3.978-6.469,11.041-13.378
					c7.348-7.189,15.382-4.688,15.524-4.641l0.45,0.144l0.064,0.469c1.427,10.462-5.672,16.15-5.975,16.387L20.678,27.884z
					 M13.679,18.764l7.091,7.091l11.476-9.563c0.083-0.065,6.507-5.248,5.492-14.518c-1.72-0.376-7.87-1.174-13.565,4.398
					C18.366,11.851,14.729,17.155,13.679,18.764z"/>
			</g>
			<g>
				<path fill="#78909C" d="M29.726,13.925c-2.365,0-4.289-1.924-4.289-4.289s1.924-4.289,4.289-4.289s4.289,1.924,4.289,4.289
					S32.091,13.925,29.726,13.925z M29.726,6.847c-1.538,0-2.789,1.251-2.789,2.789s1.251,2.789,2.789,2.789
					s2.789-1.251,2.789-2.789S31.264,6.847,29.726,6.847z"/>
			</g>
			<g>
				
					<rect x="13.342" y="19.637" transform="matrix(0.7071 0.7071 -0.7071 0.7071 19.8629 -7.6022)" fill="#263238" width="11.533" height="1.078"/>
			</g>
		</g>
	</g>
	<g>
		<g>
			<g>
				<circle fill="#CFD8DC" cx="19.817" cy="104.356" r="10.335"/>
				<path fill="#263238" d="M19.816,115.442c-2.961,0-5.744-1.153-7.838-3.247s-3.247-4.877-3.247-7.838
					c0-2.962,1.153-5.745,3.247-7.839s4.877-3.247,7.838-3.247c2.962,0,5.745,1.153,7.839,3.247c4.322,4.322,4.322,11.354,0,15.677
					C25.562,114.288,22.778,115.442,19.816,115.442z M19.816,94.771c-2.56,0-4.967,0.997-6.777,2.808s-2.808,4.218-2.808,6.778
					c0,2.56,0.997,4.967,2.808,6.777s4.218,2.808,6.777,2.808c2.561,0,4.968-0.997,6.778-2.808c3.737-3.737,3.737-9.818,0-13.556
					C24.784,95.768,22.377,94.771,19.816,94.771z"/>
			</g>
			<g>
				<line fill="#CFD8DC" x1="27.291" y1="111.498" x2="28.589" y2="112.797"/>
				
					<rect x="27.022" y="111.397" transform="matrix(0.7074 0.7068 -0.7068 0.7074 87.4464 13.0679)" fill="#263238" width="1.836" height="1.5"/>
			</g>
			<g>
				
					<rect x="30.741" y="110.941" transform="matrix(0.7071 -0.7071 0.7071 0.7071 -73.1202 57.6116)" fill="#CFD8DC" width="4.484" height="12.257"/>
				<path fill="#263238" d="M35.731,124.049l-9.728-9.728l4.231-4.231l9.728,9.728L35.731,124.049z M28.125,114.322l7.606,7.606
					l2.11-2.11l-7.606-7.606L28.125,114.322z"/>
			</g>
			<g>
				
					<rect x="27.525" y="112.273" transform="matrix(0.7071 -0.7071 0.7071 0.7071 -71.788 54.3955)" fill="#CFD8DC" width="4.484" height="3.16"/>
				<path fill="#263238" d="M29.299,117.616l-3.295-3.295l4.231-4.231l3.295,3.295L29.299,117.616z M28.125,114.322l1.174,1.174
					l2.11-2.11l-1.174-1.174L28.125,114.322z"/>
			</g>
		</g>
		<g>
			<g>
				<path fill="#78909C" d="M20.239,103.408c-1.857,0-3.369-1.512-3.369-3.369s1.512-3.369,3.369-3.369s3.369,1.512,3.369,3.369
					S22.097,103.408,20.239,103.408z M20.239,98.17c-1.03,0-1.869,0.839-1.869,1.869s0.839,1.869,1.869,1.869
					s1.869-0.839,1.869-1.869S21.27,98.17,20.239,98.17z"/>
			</g>
			<g>
				<path fill="#78909C" d="M25.526,111.537H14.955l-0.161-2.957c-0.001-3,2.406-5.407,5.366-5.407c2.742,0,5.035,2.053,5.333,4.774
					c0.021,0.194,0.033,0.393,0.033,0.592V111.537z M16.375,110.037h7.651v-1.498c0-0.145-0.008-0.286-0.023-0.428
					c-0.215-1.96-1.867-3.438-3.843-3.438c-2.133,0-3.867,1.734-3.867,3.866L16.375,110.037z"/>
			</g>
		</g>
	</g>
	<g>
		<g>
			<g>
				<g>
					<rect x="7.721" y="143.982" fill="#CFD8DC" width="15.96" height="44.362"/>
					<path fill="#263238" d="M24.431,189.094H6.971v-45.862h17.46V189.094z M8.471,187.594h14.46v-42.862H8.471V187.594z"/>
				</g>
			</g>
			<g>
				<g>
					<rect x="23.826" y="155.948" fill="#CFD8DC" width="16.486" height="32.54"/>
					<path fill="#263238" d="M41.063,189.238H23.076v-34.04h17.986V189.238z M24.576,187.738h14.986v-31.04H24.576V187.738z"/>
				</g>
			</g>
		</g>
		<g>
			<g>
				<rect x="9.895" y="146.393" fill="#78909C" width="2.321" height="1.5"/>
			</g>
			<g>
				<rect x="14.54" y="146.393" fill="#78909C" width="2.321" height="1.5"/>
			</g>
			<g>
				<rect x="19.186" y="146.393" fill="#78909C" width="2.321" height="1.5"/>
			</g>
		</g>
		<g>
			<g>
				<rect x="9.895" y="150.54" fill="#78909C" width="2.321" height="1.5"/>
			</g>
			<g>
				<rect x="14.54" y="150.54" fill="#78909C" width="2.321" height="1.5"/>
			</g>
			<g>
				<rect x="19.186" y="150.54" fill="#78909C" width="2.321" height="1.5"/>
			</g>
		</g>
		<g>
			<g>
				<rect x="9.895" y="154.687" fill="#78909C" width="2.321" height="1.5"/>
			</g>
			<g>
				<rect x="14.54" y="154.687" fill="#78909C" width="2.321" height="1.5"/>
			</g>
			<g>
				<rect x="19.186" y="154.687" fill="#78909C" width="2.321" height="1.5"/>
			</g>
		</g>
		<g>
			<g>
				<rect x="9.895" y="158.834" fill="#78909C" width="2.321" height="1.5"/>
			</g>
			<g>
				<rect x="14.54" y="158.834" fill="#78909C" width="2.321" height="1.5"/>
			</g>
			<g>
				<rect x="19.186" y="158.834" fill="#78909C" width="2.321" height="1.5"/>
			</g>
		</g>
		<g>
			<g>
				<rect x="9.895" y="162.981" fill="#78909C" width="2.321" height="1.5"/>
			</g>
			<g>
				<rect x="14.54" y="162.981" fill="#78909C" width="2.321" height="1.5"/>
			</g>
			<g>
				<rect x="19.186" y="162.981" fill="#78909C" width="2.321" height="1.5"/>
			</g>
		</g>
		<g>
			<g>
				<rect x="9.895" y="167.128" fill="#78909C" width="2.321" height="1.5"/>
			</g>
			<g>
				<rect x="14.54" y="167.128" fill="#78909C" width="2.321" height="1.5"/>
			</g>
			<g>
				<rect x="19.186" y="167.128" fill="#78909C" width="2.321" height="1.5"/>
			</g>
		</g>
		<g>
			<g>
				<rect x="9.895" y="171.275" fill="#78909C" width="2.321" height="1.5"/>
			</g>
			<g>
				<rect x="14.54" y="171.275" fill="#78909C" width="2.321" height="1.5"/>
			</g>
			<g>
				<rect x="19.186" y="171.275" fill="#78909C" width="2.321" height="1.5"/>
			</g>
		</g>
		<g>
			<g>
				<rect x="9.895" y="175.422" fill="#78909C" width="2.321" height="1.5"/>
			</g>
			<g>
				<rect x="14.54" y="175.422" fill="#78909C" width="2.321" height="1.5"/>
			</g>
			<g>
				<rect x="19.186" y="175.422" fill="#78909C" width="2.321" height="1.5"/>
			</g>
		</g>
		<g>
			<g>
				<rect x="9.895" y="179.57" fill="#78909C" width="2.321" height="1.5"/>
			</g>
			<g>
				<rect x="14.54" y="179.57" fill="#78909C" width="2.321" height="1.5"/>
			</g>
			<g>
				<rect x="19.186" y="179.57" fill="#78909C" width="2.321" height="1.5"/>
			</g>
		</g>
		<g>
			<g>
				<rect x="9.895" y="183.716" fill="#78909C" width="2.321" height="1.5"/>
			</g>
			<g>
				<rect x="14.54" y="183.716" fill="#78909C" width="2.321" height="1.5"/>
			</g>
			<g>
				<rect x="19.186" y="183.716" fill="#78909C" width="2.321" height="1.5"/>
			</g>
		</g>
		<g>
			<g>
				<rect x="26.918" y="158.834" fill="#78909C" width="10.609" height="1.5"/>
			</g>
			<g>
				<rect x="26.918" y="162.981" fill="#78909C" width="10.609" height="1.5"/>
			</g>
			<g>
				<rect x="26.918" y="167.128" fill="#78909C" width="10.609" height="1.5"/>
			</g>
			<g>
				<rect x="26.918" y="171.275" fill="#78909C" width="10.609" height="1.5"/>
			</g>
			<g>
				<rect x="26.918" y="175.422" fill="#78909C" width="10.609" height="1.5"/>
			</g>
			<g>
				<rect x="26.918" y="179.57" fill="#78909C" width="10.609" height="1.5"/>
			</g>
		</g>
	</g>
	<g>
		<g>
			<polygon fill="#78909C" points="3.438,67.898 2.064,67.294 8.952,51.664 14.921,66.871 13.524,67.419 8.872,55.566 			"/>
		</g>
		<g>
			<polygon fill="#78909C" points="25.996,67.898 24.623,67.294 31.511,51.664 37.479,66.871 36.083,67.419 31.431,55.566 			"/>
		</g>
		<g>
			<g>
				<rect x="4.291" y="51.455" fill="#CFD8DC" width="32.104" height="1.054"/>
				<rect x="3.541" y="50.705" fill="#263238" width="33.604" height="2.554"/>
			</g>
			<g>
				<line fill="#CFD8DC" x1="20.344" y1="47.446" x2="20.344" y2="77.398"/>
				<rect x="19.594" y="47.447" fill="#263238" width="1.5" height="29.951"/>
			</g>
			<g>
				<line fill="#CFD8DC" x1="14.223" y1="77.398" x2="26.465" y2="77.398"/>
				<rect x="14.223" y="76.648" fill="#263238" width="12.242" height="1.5"/>
			</g>
		</g>
		<g>
			<path fill="#CFD8DC" d="M1.535,67.145h14.106c0,0-1.946,2.497-7.053,2.497S1.535,67.145,1.535,67.145z"/>
			<path fill="#263238" d="M8.588,70.392c-5.411,0-7.556-2.672-7.645-2.786L0,66.395h17.178l-0.944,1.211
				C16.145,67.719,13.999,70.392,8.588,70.392z M3.795,67.895c1.031,0.514,2.587,0.997,4.793,0.997c2.205,0,3.761-0.482,4.793-0.997
				H3.795z"/>
		</g>
		<g>
			<path fill="#CFD8DC" d="M23.992,67.145h14.106c0,0-1.946,2.497-7.053,2.497S23.992,67.145,23.992,67.145z"/>
			<path fill="#263238" d="M31.045,70.392c-5.411,0-7.556-2.672-7.645-2.786l-0.943-1.211h17.178l-0.944,1.211
				C38.602,67.719,36.456,70.392,31.045,70.392z M26.252,67.895c1.031,0.514,2.587,0.997,4.793,0.997
				c2.205,0,3.761-0.482,4.793-0.997H26.252z"/>
		</g>
	</g>
</g>
</svg>
