<?xml version="1.0" encoding="utf-8"?>
<!-- Generator: Adobe Illustrator 17.0.0, SVG Export Plug-In . SVG Version: 6.00 Build 0)  -->
<!DOCTYPE svg PUBLIC "-//W3C//DTD SVG 1.1//EN" "http://www.w3.org/Graphics/SVG/1.1/DTD/svg11.dtd">
<svg version="1.1" id="Layer_1" xmlns="http://www.w3.org/2000/svg" xmlns:xlink="http://www.w3.org/1999/xlink" x="0px" y="0px"
	 width="375.642px" height="252.973px" viewBox="0 0 375.642 252.973" enable-background="new 0 0 375.642 252.973"
	 xml:space="preserve">
<g>
	<g>
		<g>
			<g>
				<path fill="none" stroke="#78909C" stroke-width="1.4" stroke-miterlimit="10" d="M327.406,26.591
					c-1.226-1.762-3.445-2.565-5.291-2.565c-0.965,0-1.861,0.283-2.621,0.766c-0.062-5.198-4.283-9.394-9.486-9.394
					c-3.262,0-6.137,1.648-7.846,4.157c-1.254-0.951-2.811-1.521-4.507-1.521c-4.13,0-7.478,3.354-7.478,7.492
					c0,1.368,0.372,2.647,1.011,3.751c-0.38-0.144-0.787-0.232-1.218-0.232c-1.912,0-3.461,1.552-3.461,3.467
					c0,1.916,1.549,3.5,3.461,3.5h24.623"/>
				<path fill="none" stroke="#78909C" stroke-width="1.4" stroke-miterlimit="10" d="M293.38,25.482
					c0-2.351,1.906-4.257,4.257-4.257"/>
				<path fill="none" stroke="#78909C" stroke-width="1.4" stroke-miterlimit="10" d="M306.525,20.245
					c0.968-0.877,2.251-1.411,3.66-1.411c1.811,0,3.415,0.883,4.407,2.241"/>
			</g>
			<g>
				<path fill="none" stroke="#78909C" stroke-width="1.4" stroke-miterlimit="10" d="M356.335,46.32h13.539
					c2.799,0,5.068-2.319,5.068-5.125c0-2.803-2.268-5.077-5.068-5.077c-0.631,0-1.227,0.129-1.783,0.34
					c0.936-1.617,1.48-3.49,1.48-5.493c0-6.059-4.903-10.971-10.95-10.971c-2.483,0-4.763,0.835-6.599,2.227
					c-2.503-3.674-6.712-6.087-11.489-6.087c-7.619,0-13.8,6.144-13.891,13.755c-1.113-0.707-2.426-1.121-3.839-1.121
					c-3.966,0-9.108,2.53-9.108,8.319c0,3.86,1.101,9.233,8.807,9.233h26.516H356.335z"/>
				<path fill="none" stroke="#78909C" stroke-width="1.4" stroke-miterlimit="10" d="M365.029,30.899
					c0-3.443-2.791-6.234-6.234-6.234"/>
				<path fill="none" stroke="#78909C" stroke-width="1.4" stroke-miterlimit="10" d="M345.781,23.231
					c-1.417-1.284-3.296-2.066-5.359-2.066c-2.651,0-5.001,1.292-6.453,3.282"/>
			</g>
		</g>
		<g>
			<path fill="none" stroke="#78909C" stroke-width="1.5" stroke-miterlimit="10" d="M372.266,105.823V93.486h-10.342V87.3h-5.579
				V76.748h1.334v-2.547h-3.319l-0.885-8.45c0,0,3.8-8.49,2.102-9.542c-1.698-1.051-3.719,4.69-3.719,4.69l-2.669-0.161
				c0,0-0.162-3.72-2.83-4.771c-2.669-1.051,0.647,10.835,0.647,10.835l0.296,7.399h-1.024v2.547h0.849V87.3h-3.154v-4.609
				L309.89,68.158v-2.144h-1.326l-0.676-2.547l2.305-3.699l-1.759-3.093l1.152-2.365l2.183,0.364c0,0,0.485-7.156-5.883-6.914
				c-6.368,0.243-6.671,7.399-6.671,7.399l3.578-1.516l0.243,4.852l1.092,0.121l-1.009,7.399h-1.174v2.477l-33.658,14.2V87.3h-2.911
				V76.748h0.849v-2.547h-1.024l0.296-7.399c0,0,3.316-11.887,0.647-10.835c-2.668,1.051-2.83,4.771-2.83,4.771l-2.669,0.161
				c0,0-2.021-5.741-3.719-4.69c-1.698,1.051,2.102,9.542,2.102,9.542l-0.885,8.45h-3.319v2.547h1.334V87.3h-5.58v6.186H236.63
				v11.292"/>
		</g>
		<g>
			<g>
				<g>
					<g>
						<path fill="#78909C" d="M43.854,27.712H12.426c-2.821,0-5.117-2.318-5.117-5.167c0-2.926,2.504-5.304,5.416-5.116
							c-0.483-1.208-0.734-2.5-0.734-3.801c0-5.659,4.596-10.263,10.245-10.263c2.005,0,3.923,0.576,5.59,1.67
							C30.247,1.87,34,0,38.002,0c6.604,0,12.103,5.094,12.745,11.566c0.855-0.364,1.775-0.554,2.709-0.554
							c2.232,0,5.491,0.936,7.327,3.574l-1.148,0.8c-1.527-2.195-4.283-2.974-6.179-2.974c-1.049,0-2.076,0.3-2.972,0.868
							l-1.06,0.673l-0.016-1.256C49.335,6.468,44.218,1.4,38.002,1.4c-3.775,0-7.304,1.869-9.437,5l-0.414,0.609l-0.587-0.445
							c-1.551-1.177-3.394-1.799-5.329-1.799c-4.877,0-8.845,3.976-8.845,8.863c0,1.551,0.413,3.085,1.195,4.438l0.987,1.707
							l-1.842-0.702c-2.529-0.964-5.022,0.99-5.022,3.474c0,2.077,1.667,3.767,3.717,3.767h31.428V27.712z"/>
					</g>
					<g>
						<path fill="#78909C" d="M17.479,13.57h-1.4c0-3.382,2.752-6.134,6.134-6.134v1.4C19.603,8.836,17.479,10.959,17.479,13.57z"/>
					</g>
					<g>
						<path fill="#78909C" d="M43.288,8.358c-1.176-1.611-3.067-2.573-5.06-2.573c-1.556,0-3.048,0.575-4.201,1.619l-0.939-1.038
							c1.411-1.277,3.236-1.981,5.141-1.981c2.438,0,4.752,1.177,6.19,3.148L43.288,8.358z"/>
					</g>
				</g>
				<g>
					<g>
						<path fill="#78909C" d="M114.414,40.868H97.133v-1.4h17.281c3.181,0,5.769-2.62,5.769-5.841c0-3.187-2.588-5.779-5.769-5.779
							c-0.668,0-1.35,0.13-2.027,0.388l-1.842,0.7l0.987-1.705c1.174-2.03,1.795-4.333,1.795-6.661
							c0-7.335-5.956-13.303-13.276-13.303c-2.905,0-5.672,0.934-8,2.7l-0.587,0.445L91.05,9.804
							C87.866,5.13,82.601,2.34,76.964,2.34c-9.279,0-16.918,7.565-17.029,16.865l-0.016,1.255l-1.06-0.673
							c-1.363-0.865-2.928-1.322-4.524-1.322c-4.224,0-10.925,2.692-10.925,9.918c0,7.459,3.448,11.084,10.541,11.084h33.844v1.4
							H53.951c-7.924,0-11.941-4.201-11.941-12.485c0-7.352,6.351-11.318,12.325-11.318c1.474,0,2.922,0.333,4.249,0.971
							c0.709-9.527,8.725-17.096,18.38-17.096c5.86,0,11.35,2.787,14.826,7.49c2.447-1.679,5.288-2.562,8.261-2.562
							c8.093,0,14.677,6.596,14.677,14.703c0,2.045-0.434,4.073-1.263,5.945c0.317-0.045,0.634-0.068,0.949-0.068
							c3.953,0,7.169,3.221,7.169,7.18C121.583,37.62,118.367,40.868,114.414,40.868z"/>
					</g>
					<g>
						<path fill="#78909C" d="M108.931,20.485h-1.4c0-4.001-3.255-7.256-7.257-7.256v-1.4
							C105.047,11.828,108.931,15.711,108.931,20.485z"/>
					</g>
					<g>
						<path fill="#78909C" d="M69.151,12.663l-1.131-0.825c2.045-2.803,5.335-4.477,8.802-4.477c2.708,0,5.305,1.001,7.31,2.818
							l-0.939,1.037c-1.748-1.583-4.01-2.455-6.37-2.455C73.802,8.761,70.934,10.22,69.151,12.663z"/>
					</g>
				</g>
				<g>
					<path fill="#78909C" d="M5.808,112.792H0v-1.4h4.407V96.194H2.29v-5.42h3.592C6.295,87.677,8.873,74.5,23.097,69.658v-1.803
						h2.21V57.194h-2.01v-3.612h2.144c0.336-1.395,1.416-4.814,4.017-5.343v-2.821h2.614v2.821c2.599,0.529,3.679,3.949,4.015,5.343
						h2.145v3.612H36.22v10.661h2.211v1.803C52.654,74.5,55.232,87.677,55.646,90.773h3.592v5.42h-1.909v14.12l15.802-0.052V91.441
						h-1.556v-8.1h1.954l7.377-7.82v-9.796h2.782V52.591h-2.052l-0.93-5.801l0.392-0.247c0.031-0.02,3.115-1.957,6.627-3.622v-8.524
						l-0.987-1.077v-2.049h1.09c0.255-1.335,1.092-4.364,3.486-4.864V15.57h2.926v10.838c2.395,0.5,3.232,3.529,3.487,4.864h1.089
						v2.049l-0.986,1.077v8.525c3.511,1.665,6.595,3.602,6.626,3.622l0.392,0.247l-0.931,5.801h-2.049v13.135h2.779v9.795
						l7.378,7.821h1.954v8.1h-1.556v18.788l1.965-0.084l0.061,1.398l-3.426,0.147V90.041h1.556v-5.299h-1.157l-8.175-8.665v-8.952
						h-2.779V51.19h2.256l0.594-3.704c-0.971-0.591-3.618-2.158-6.481-3.485l-0.406-0.188v-9.961l0.986-1.077v-0.104h-0.912
						l-0.069-0.624c-0.005-0.043-0.509-4.311-2.895-4.311h-0.7V16.97h-0.125v10.767h-0.7c-2.357,0-2.889,4.267-2.893,4.31
						l-0.068,0.625h-0.915v0.104l0.987,1.077v9.961l-0.406,0.188c-2.864,1.327-5.512,2.894-6.482,3.485l0.593,3.704h2.259v15.936
						h-2.782v8.951l-8.174,8.665h-1.157v5.299h1.556v21.617l-18.603,0.061V94.793h1.909v-2.62h-3.474l-0.042-0.656
						c-0.011-0.156-1.186-15.674-16.805-20.688l-0.486-0.156v-1.418h-2.211V55.794h2.011v-0.811h-1.9l-0.101-0.582
						c-0.008-0.048-0.901-4.831-3.458-4.831h-1.214c-2.559,0-3.452,4.782-3.46,4.831l-0.101,0.581l-1.899,0.001v0.811h2.01v13.462
						h-2.21v1.418l-0.486,0.156C8.392,75.844,7.217,91.362,7.206,91.518l-0.042,0.655L3.69,92.174v2.62h2.117V112.792z"/>
				</g>
			</g>
			<g>
				<polygon fill="#FF9800" points="281.832,251.973 77.832,251.973 77.832,72.931 179.832,21.068 281.832,72.931 				"/>
				<path fill="#394147" d="M281.832,252.973h-204c-0.553,0-1-0.447-1-1V72.931c0-0.376,0.211-0.721,0.547-0.892l102-51.863
					c0.285-0.145,0.621-0.145,0.906,0l102,51.863c0.336,0.171,0.547,0.515,0.547,0.892v179.042
					C282.832,252.526,282.385,252.973,281.832,252.973z M78.832,250.973h202V73.544l-101-51.354l-101,51.354V250.973z"/>
			</g>
			<g>
				<g>
					<g>
						<path fill="#646565" d="M199.832,121.662c0,0,4-6,0-6S195.832,121.662,199.832,121.662
							C199.832,121.662,195.832,121.662,199.832,121.662z"/>
					</g>
				</g>
				<g>
					<g>
						<path fill="#646565" d="M189.832,118.271c0,0,4-6,0-6S185.832,118.271,189.832,118.271
							C189.832,118.271,185.832,118.271,189.832,118.271z"/>
					</g>
				</g>
			</g>
			<g>
				<rect x="107.832" y="88.973" fill="#90A4AE" width="142" height="84"/>
				<path fill="#394147" d="M249.832,173.973h-142c-0.553,0-1-0.447-1-1v-84c0-0.552,0.447-1,1-1h142c0.553,0,1,0.448,1,1v84
					C250.832,173.526,250.385,173.973,249.832,173.973z M108.832,171.973h140v-82h-140V171.973z"/>
			</g>
			<g>
				<g>
					<g>
						<path fill="#E6E7E8" d="M181.625,58.387c-5.665,0-10.275-4.608-10.275-10.274c0-5.666,4.61-10.275,10.275-10.275
							c4.955,0,9.103,3.526,10.065,8.201h4.402c-1.01-7.08-7.111-12.542-14.467-12.542c-8.06,0-14.618,6.557-14.618,14.617
							c0,8.06,6.558,14.614,14.618,14.614c7.356,0,13.456-5.46,14.467-12.54h-4.402C190.728,54.862,186.58,58.387,181.625,58.387z"
							/>
					</g>
					<g>
						<path fill="#E6E7E8" d="M184.033,51.467c-0.13,0.224-0.448,0.408-0.707,0.408h-3.4c-0.259,0-0.578-0.184-0.708-0.408
							l-1.7-2.945c-0.129-0.224-0.129-0.593,0-0.817l1.7-2.945c0.13-0.225,0.448-0.409,0.708-0.409h3.4
							c0.259,0,0.578,0.184,0.707,0.409l0.738,1.279h3.975c-0.9-3.085-3.749-5.347-7.12-5.347c-4.093,0-7.422,3.329-7.422,7.422
							c0,4.093,3.33,7.422,7.422,7.422c3.371,0,6.221-2.262,7.12-5.347h-3.975L184.033,51.467z"/>
					</g>
				</g>
			</g>
			<g>
				<path fill="#384046" d="M113.801,216.086h5.279c0.576,0,1.066,0.203,1.473,0.608c0.405,0.405,0.607,0.896,0.607,1.472v5.12
					c0,0.576-0.202,1.066-0.607,1.472c-0.406,0.406-0.896,0.608-1.473,0.608h-5.279c-0.576,0-1.067-0.202-1.473-0.608
					c-0.405-0.405-0.607-0.896-0.607-1.472v-5.12c0-0.576,0.202-1.066,0.607-1.472S113.225,216.086,113.801,216.086z
					 M119.08,217.815h-5.279c-0.097,0-0.18,0.034-0.248,0.104c-0.07,0.069-0.104,0.152-0.104,0.248v5.12
					c0,0.096,0.034,0.179,0.104,0.248c0.068,0.069,0.151,0.104,0.248,0.104h5.279c0.097,0,0.179-0.035,0.248-0.104
					s0.104-0.152,0.104-0.248v-5.12c0-0.096-0.035-0.179-0.104-0.248S119.177,217.815,119.08,217.815z"/>
				<path fill="#384046" d="M136.841,216.086h1.84l-3.488,9.28h-1.408l-3.12-6.896l-2.943,6.896l-0.032-0.016l0.016,0.016h-1.392
					l-3.648-9.28h1.841l2.512,6.16l2.672-6.16h1.968l2.832,6.16L136.841,216.086z"/>
				<path fill="#384046" d="M147.976,216.086c0.576,0,1.066,0.203,1.473,0.608c0.405,0.405,0.607,0.896,0.607,1.472v7.2h-1.728v-7.2
					c0-0.096-0.035-0.179-0.104-0.248s-0.151-0.104-0.248-0.104h-5.279c-0.097,0-0.179,0.034-0.248,0.104s-0.104,0.152-0.104,0.248
					v7.2h-1.728v-9.28H147.976z"/>
				<path fill="#384046" d="M165.784,213.046h1.728v12.32h-7.359c-0.576,0-1.067-0.202-1.473-0.608
					c-0.405-0.405-0.607-0.896-0.607-1.472v-5.12c0-0.576,0.202-1.066,0.607-1.472s0.896-0.608,1.473-0.608h5.632V213.046z
					 M160.152,223.639h5.279c0.097,0,0.179-0.035,0.248-0.104s0.104-0.152,0.104-0.248v-5.12c0-0.096-0.035-0.179-0.104-0.248
					s-0.151-0.104-0.248-0.104h-5.279c-0.097,0-0.179,0.034-0.248,0.104s-0.104,0.152-0.104,0.248v5.12
					c0,0.096,0.035,0.179,0.104,0.248S160.056,223.639,160.152,223.639z"/>
				<path fill="#384046" d="M177.399,216.086c0.576,0,1.066,0.203,1.473,0.608c0.405,0.405,0.607,0.896,0.607,1.472v3.424h-7.712
					v1.696c0,0.096,0.034,0.179,0.104,0.248c0.068,0.069,0.151,0.104,0.248,0.104h7.359v1.728h-7.359
					c-0.576,0-1.067-0.202-1.473-0.608c-0.405-0.405-0.607-0.896-0.607-1.472v-5.12c0-0.576,0.202-1.066,0.607-1.472
					s0.896-0.608,1.473-0.608H177.399z M171.768,219.863h5.984v-1.696c0-0.096-0.035-0.179-0.104-0.248s-0.151-0.104-0.248-0.104
					h-5.279c-0.097,0-0.18,0.034-0.248,0.104c-0.07,0.069-0.104,0.152-0.104,0.248V219.863z"/>
				<path fill="#384046" d="M189.464,213.046h1.728v12.32h-7.359c-0.576,0-1.067-0.202-1.473-0.608
					c-0.405-0.405-0.607-0.896-0.607-1.472v-5.12c0-0.576,0.202-1.066,0.607-1.472s0.896-0.608,1.473-0.608h5.632V213.046z
					 M183.832,223.639h5.279c0.097,0,0.179-0.035,0.248-0.104s0.104-0.152,0.104-0.248v-5.12c0-0.096-0.035-0.179-0.104-0.248
					s-0.151-0.104-0.248-0.104h-5.279c-0.097,0-0.179,0.034-0.248,0.104s-0.104,0.152-0.104,0.248v5.12
					c0,0.096,0.035,0.179,0.104,0.248S183.735,223.639,183.832,223.639z"/>
				<path fill="#384046" d="M193.976,213.046h1.728v1.729h-1.728V213.046z M193.976,225.367v-9.28h1.728v9.28H193.976z"/>
				<path fill="#384046" d="M200.456,223.639h7.359v1.728h-7.359c-0.576,0-1.067-0.202-1.473-0.608
					c-0.405-0.405-0.607-0.896-0.607-1.472v-5.12c0-0.576,0.202-1.066,0.607-1.472s0.896-0.608,1.473-0.608h7.327v1.729h-7.327
					c-0.097,0-0.18,0.034-0.248,0.104c-0.07,0.069-0.104,0.152-0.104,0.248v5.12c0,0.096,0.034,0.179,0.104,0.248
					C200.276,223.604,200.359,223.639,200.456,223.639z"/>
				<path fill="#384046" d="M217.96,216.086c0.575,0,1.066,0.203,1.472,0.608s0.608,0.896,0.608,1.472v7.2h-7.36
					c-0.576,0-1.066-0.202-1.472-0.608c-0.406-0.405-0.608-0.896-0.608-1.472v-3.424h7.712v-1.696c0-0.096-0.035-0.179-0.104-0.248
					c-0.07-0.069-0.152-0.104-0.248-0.104h-7.36v-1.729H217.96z M218.312,223.639v-2.049h-5.984v1.696
					c0,0.096,0.035,0.179,0.104,0.248s0.152,0.104,0.248,0.104H218.312z"/>
				<path fill="#384046" d="M228.343,217.815h-3.808v5.472c0,0.096,0.034,0.179,0.104,0.248s0.152,0.104,0.248,0.104h3.456v1.728
					h-3.456c-0.576,0-1.066-0.202-1.472-0.608c-0.405-0.405-0.608-0.896-0.608-1.472v-5.12v-5.12h1.729v3.04h3.808V217.815z"/>
				<path fill="#384046" d="M237.782,216.086c0.576,0,1.066,0.203,1.473,0.608c0.405,0.405,0.607,0.896,0.607,1.472v3.424h-7.712
					v1.696c0,0.096,0.034,0.179,0.104,0.248c0.068,0.069,0.151,0.104,0.248,0.104h7.359v1.728h-7.359
					c-0.576,0-1.067-0.202-1.473-0.608c-0.405-0.405-0.607-0.896-0.607-1.472v-5.12c0-0.576,0.202-1.066,0.607-1.472
					s0.896-0.608,1.473-0.608H237.782z M232.15,219.863h5.984v-1.696c0-0.096-0.035-0.179-0.104-0.248s-0.151-0.104-0.248-0.104
					h-5.279c-0.097,0-0.18,0.034-0.248,0.104c-0.07,0.069-0.104,0.152-0.104,0.248V219.863z"/>
				<path fill="#384046" d="M249.847,213.046h1.728v12.32h-7.359c-0.576,0-1.067-0.202-1.473-0.608
					c-0.405-0.405-0.607-0.896-0.607-1.472v-5.12c0-0.576,0.202-1.066,0.607-1.472s0.896-0.608,1.473-0.608h5.632V213.046z
					 M244.215,223.639h5.279c0.097,0,0.179-0.035,0.248-0.104s0.104-0.152,0.104-0.248v-5.12c0-0.096-0.035-0.179-0.104-0.248
					s-0.151-0.104-0.248-0.104h-5.279c-0.097,0-0.179,0.034-0.248,0.104s-0.104,0.152-0.104,0.248v5.12
					c0,0.096,0.035,0.179,0.104,0.248S244.118,223.639,244.215,223.639z"/>
				<path fill="#384046" d="M100.137,228.046h1.728v12.32h-7.359c-0.576,0-1.067-0.202-1.473-0.608
					c-0.405-0.405-0.607-0.896-0.607-1.472v-5.12c0-0.576,0.202-1.066,0.607-1.472s0.896-0.608,1.473-0.608h5.632V228.046z
					 M94.505,238.639h5.279c0.097,0,0.179-0.035,0.248-0.104s0.104-0.152,0.104-0.248v-5.12c0-0.096-0.035-0.179-0.104-0.248
					s-0.151-0.104-0.248-0.104h-5.279c-0.097,0-0.179,0.034-0.248,0.104s-0.104,0.152-0.104,0.248v5.12
					c0,0.096,0.035,0.179,0.104,0.248S94.408,238.639,94.505,238.639z"/>
				<path fill="#384046" d="M111.752,231.086c0.576,0,1.066,0.203,1.473,0.608c0.405,0.405,0.607,0.896,0.607,1.472v3.424h-7.712
					v1.696c0,0.096,0.034,0.179,0.104,0.248c0.068,0.069,0.151,0.104,0.248,0.104h7.359v1.728h-7.359
					c-0.576,0-1.067-0.202-1.473-0.608c-0.405-0.405-0.607-0.896-0.607-1.472v-5.12c0-0.576,0.202-1.066,0.607-1.472
					s0.896-0.608,1.473-0.608H111.752z M106.12,234.863h5.984v-1.696c0-0.096-0.035-0.179-0.104-0.248s-0.151-0.104-0.248-0.104
					h-5.279c-0.097,0-0.18,0.034-0.248,0.104c-0.07,0.069-0.104,0.152-0.104,0.248V234.863z"/>
				<path fill="#384046" d="M125.305,231.086h1.983l-5.12,9.28h-1.728l-5.12-9.28h2l3.984,7.328L125.305,231.086z"/>
				<path fill="#384046" d="M135.88,231.086c0.576,0,1.066,0.203,1.473,0.608c0.405,0.405,0.607,0.896,0.607,1.472v3.424h-7.712
					v1.696c0,0.096,0.034,0.179,0.104,0.248c0.068,0.069,0.151,0.104,0.248,0.104h7.359v1.728h-7.359
					c-0.576,0-1.067-0.202-1.473-0.608c-0.405-0.405-0.607-0.896-0.607-1.472v-5.12c0-0.576,0.202-1.066,0.607-1.472
					s0.896-0.608,1.473-0.608H135.88z M130.248,234.863h5.984v-1.696c0-0.096-0.035-0.179-0.104-0.248s-0.151-0.104-0.248-0.104
					h-5.279c-0.097,0-0.18,0.034-0.248,0.104c-0.07,0.069-0.104,0.152-0.104,0.248V234.863z"/>
				<path fill="#384046" d="M140.616,233.167v-5.12h1.728v10.24c0,0.096,0.035,0.179,0.104,0.248s0.152,0.104,0.248,0.104h1.728
					v1.728h-1.728c-0.576,0-1.066-0.202-1.472-0.608c-0.406-0.405-0.608-0.896-0.608-1.472V233.167z"/>
				<path fill="#384046" d="M148.601,231.086h5.279c0.576,0,1.066,0.203,1.473,0.608c0.405,0.405,0.607,0.896,0.607,1.472v5.12
					c0,0.576-0.202,1.066-0.607,1.472c-0.406,0.406-0.896,0.608-1.473,0.608h-5.279c-0.576,0-1.067-0.202-1.473-0.608
					c-0.405-0.405-0.607-0.896-0.607-1.472v-5.12c0-0.576,0.202-1.066,0.607-1.472S148.024,231.086,148.601,231.086z
					 M153.88,232.815h-5.279c-0.097,0-0.18,0.034-0.248,0.104c-0.07,0.069-0.104,0.152-0.104,0.248v5.12
					c0,0.096,0.034,0.179,0.104,0.248c0.068,0.069,0.151,0.104,0.248,0.104h5.279c0.097,0,0.179-0.035,0.248-0.104
					s0.104-0.152,0.104-0.248v-5.12c0-0.096-0.035-0.179-0.104-0.248S153.977,232.815,153.88,232.815z"/>
				<path fill="#384046" d="M166.088,231.086c0.576,0,1.066,0.203,1.473,0.608c0.405,0.405,0.607,0.896,0.607,1.472v5.12
					c0,0.576-0.202,1.066-0.607,1.472c-0.406,0.406-0.896,0.608-1.473,0.608h-5.632v3.68h-1.728v-12.96H166.088z M166.44,238.287
					v-5.12c0-0.096-0.035-0.179-0.104-0.248s-0.151-0.104-0.248-0.104h-5.279c-0.097,0-0.179,0.034-0.248,0.104
					s-0.104,0.152-0.104,0.248v5.12c0,0.096,0.035,0.179,0.104,0.248s0.151,0.104,0.248,0.104h5.279
					c0.097,0,0.179-0.035,0.248-0.104S166.44,238.382,166.44,238.287z"/>
				<path fill="#384046" d="M182.296,231.086c0.576,0,1.066,0.203,1.473,0.608c0.405,0.405,0.607,0.896,0.607,1.472v7.2h-1.712v-7.2
					c0-0.096-0.034-0.179-0.104-0.248c-0.07-0.069-0.158-0.104-0.265-0.104h-3.664c-0.096,0-0.179,0.034-0.248,0.104
					s-0.104,0.152-0.104,0.248v7.2h-1.729v-7.2c0-0.096-0.034-0.179-0.104-0.248s-0.152-0.104-0.248-0.104h-3.68
					c-0.097,0-0.179,0.034-0.248,0.104s-0.104,0.152-0.104,0.248v7.2h-1.728v-9.28H182.296z"/>
				<path fill="#384046" d="M194.487,231.086c0.576,0,1.066,0.203,1.473,0.608c0.405,0.405,0.607,0.896,0.607,1.472v3.424h-7.712
					v1.696c0,0.096,0.034,0.179,0.104,0.248c0.068,0.069,0.151,0.104,0.248,0.104h7.359v1.728h-7.359
					c-0.576,0-1.067-0.202-1.473-0.608c-0.405-0.405-0.607-0.896-0.607-1.472v-5.12c0-0.576,0.202-1.066,0.607-1.472
					s0.896-0.608,1.473-0.608H194.487z M188.855,234.863h5.984v-1.696c0-0.096-0.035-0.179-0.104-0.248s-0.151-0.104-0.248-0.104
					h-5.279c-0.097,0-0.18,0.034-0.248,0.104c-0.07,0.069-0.104,0.152-0.104,0.248V234.863z"/>
				<path fill="#384046" d="M206.695,231.086c0.576,0,1.066,0.203,1.473,0.608c0.405,0.405,0.607,0.896,0.607,1.472v7.2h-1.728v-7.2
					c0-0.096-0.035-0.179-0.104-0.248s-0.151-0.104-0.248-0.104h-5.279c-0.097,0-0.179,0.034-0.248,0.104s-0.104,0.152-0.104,0.248
					v7.2h-1.728v-9.28H206.695z"/>
				<path fill="#384046" d="M217.079,232.815h-3.808v5.472c0,0.096,0.034,0.179,0.104,0.248s0.152,0.104,0.248,0.104h3.456v1.728
					h-3.456c-0.576,0-1.066-0.202-1.472-0.608c-0.405-0.405-0.608-0.896-0.608-1.472v-5.12v-5.12h1.729v3.04h3.808V232.815z"/>
				<path fill="#384046" d="M230.455,232.815h-3.808v5.472c0,0.096,0.034,0.179,0.104,0.248s0.152,0.104,0.248,0.104h3.456v1.728
					h-3.456c-0.576,0-1.066-0.202-1.472-0.608c-0.405-0.405-0.608-0.896-0.608-1.472v-5.12v-5.12h1.729v3.04h3.808V232.815z"/>
				<path fill="#384046" d="M239.895,231.086c0.576,0,1.066,0.203,1.473,0.608c0.405,0.405,0.607,0.896,0.607,1.472v3.424h-7.712
					v1.696c0,0.096,0.034,0.179,0.104,0.248c0.068,0.069,0.151,0.104,0.248,0.104h7.359v1.728h-7.359
					c-0.576,0-1.067-0.202-1.473-0.608c-0.405-0.405-0.607-0.896-0.607-1.472v-5.12c0-0.576,0.202-1.066,0.607-1.472
					s0.896-0.608,1.473-0.608H239.895z M234.263,234.863h5.984v-1.696c0-0.096-0.035-0.179-0.104-0.248s-0.151-0.104-0.248-0.104
					h-5.279c-0.097,0-0.18,0.034-0.248,0.104c-0.07,0.069-0.104,0.152-0.104,0.248V234.863z"/>
				<path fill="#384046" d="M252.071,231.086c0.575,0,1.066,0.203,1.472,0.608s0.608,0.896,0.608,1.472v7.2h-7.36
					c-0.576,0-1.066-0.202-1.472-0.608c-0.406-0.405-0.608-0.896-0.608-1.472v-3.424h7.712v-1.696c0-0.096-0.035-0.179-0.104-0.248
					c-0.07-0.069-0.152-0.104-0.248-0.104h-7.36v-1.729H252.071z M252.423,238.639v-2.049h-5.984v1.696
					c0,0.096,0.035,0.179,0.104,0.248s0.152,0.104,0.248,0.104H252.423z"/>
				<path fill="#384046" d="M268.358,231.086c0.576,0,1.066,0.203,1.473,0.608c0.405,0.405,0.607,0.896,0.607,1.472v7.2h-1.712v-7.2
					c0-0.096-0.034-0.179-0.104-0.248c-0.07-0.069-0.158-0.104-0.265-0.104h-3.664c-0.096,0-0.179,0.034-0.248,0.104
					s-0.104,0.152-0.104,0.248v7.2h-1.729v-7.2c0-0.096-0.034-0.179-0.104-0.248s-0.152-0.104-0.248-0.104h-3.68
					c-0.097,0-0.179,0.034-0.248,0.104s-0.104,0.152-0.104,0.248v7.2h-1.728v-9.28H268.358z"/>
			</g>
			<g>
				
					<path fill="none" stroke="#FF9800" stroke-width="2" stroke-linecap="round" stroke-linejoin="round" stroke-miterlimit="10" d="
					M97.545,138.594"/>
			</g>
			<g>
				<g>
					<path fill="#F2F2F2" d="M96.274,95.511c0,0,2.515-1.194,2.607-5.009l1.092-6.398c0,0,0.335-1.545-0.568-1.613
						c-0.79-0.06-0.962,0.643-0.962,0.643l-1.308,3.993c0,0-0.144,0.86-1.15,0.821c-0.67-0.027-0.964-0.462-0.964-0.462
						l0.188-10.381c0,0-0.297-0.739-0.944-0.562c-0.646,0.177-0.482,0.891-0.482,0.891l-0.813,7.31c0,0-0.139,0.418-0.635,0.68
						c-0.497,0.263-0.743-0.176-0.808-0.41c-0.065-0.236-2.603-8.712-2.603-8.712s-0.183-0.898-0.888-0.704
						c-0.705,0.193-0.555,0.973-0.555,0.973l1.696,8.867c0,0-0.033,0.514-0.62,0.676c-0.587,0.161-0.83-0.437-0.83-0.437
						l-3.719-6.653c0,0-0.715-0.624-1.244-0.479c-0.529,0.145-0.485,0.765-0.421,1c0.065,0.235,3.613,7.095,3.613,7.095
						s0.171,0.991-0.342,1.195c-0.513,0.204-0.957-0.261-0.957-0.261l-2.672-2.657c0,0-0.353-0.598-0.824-0.47
						c-0.47,0.129-0.635,0.68-0.635,0.68l4.974,9.803c0,0,2.061,2.91,4.999,2.105"/>
					<path fill="#394147" d="M89.454,97.924c-2.713,0-4.48-2.446-4.565-2.565c-0.021-0.03-0.04-0.062-0.057-0.094l-4.975-9.803
						c-0.087-0.172-0.104-0.37-0.05-0.555c0.029-0.097,0.309-0.955,1.154-1.188c0.67-0.181,1.275,0.219,1.611,0.72l2.613,2.598
						c0.013,0.013,0.028,0.025,0.045,0.037c0.003-0.068,0.002-0.144-0.003-0.212c-3.522-6.813-3.583-7.027-3.608-7.12
						c-0.204-0.755,0.06-1.682,0.947-1.924c0.869-0.24,1.764,0.488,1.934,0.637c0.064,0.057,0.119,0.124,0.161,0.199l3.72,6.654
						c0,0,0.005,0.008,0.012,0.021l-1.647-8.62c-0.113-0.587,0.084-1.562,1.093-1.838c0.384-0.105,0.754-0.057,1.075,0.139
						c0.56,0.344,0.72,1.009,0.746,1.139c0.223,0.734,2.148,7.167,2.527,8.448c0.022-0.025,0.039-0.048,0.051-0.066l0.787-7.075
						c-0.092-0.669,0.222-1.414,1.042-1.638c0.886-0.244,1.575,0.351,1.838,1.005c0.038,0.093,0.057,0.193,0.055,0.294
						l-0.183,10.029c0.06,0.025,0.139,0.047,0.238,0.051c0.098,0.004,0.328,0.014,0.384-0.217l1.331-4.08
						c0.095-0.401,0.602-1.245,1.73-1.158c0.399,0.03,0.748,0.219,0.981,0.532c0.512,0.687,0.31,1.776,0.264,1.988l-1.077,6.313
						c-0.125,4.184-2.913,5.557-3.032,5.613c-0.379,0.179-0.822,0.019-1-0.355c-0.177-0.372-0.02-0.817,0.351-0.997
						c0.097-0.048,2.105-1.094,2.184-4.353c0.001-0.036,0.005-0.072,0.011-0.108l1.092-6.398c0.055-0.265,0.063-0.578,0.028-0.736
						c-0.05,0.009-0.08,0.032-0.09,0.07l-1.311,4.006c-0.118,0.535-0.591,1.432-1.905,1.379c-1.021-0.042-1.504-0.715-1.556-0.792
						c-0.087-0.128-0.132-0.279-0.129-0.434l0.166-9.138l-0.723,6.491c-0.006,0.052-0.017,0.104-0.033,0.153
						c-0.039,0.118-0.271,0.723-0.996,1.106c-0.369,0.196-0.763,0.221-1.106,0.072c-0.542-0.233-0.729-0.783-0.774-0.946
						c-0.062-0.22-1.767-5.919-2.518-8.428l1.627,8.512c0.013,0.062,0.017,0.125,0.012,0.189c-0.024,0.389-0.299,1.111-1.169,1.351
						c-0.809,0.221-1.479-0.273-1.725-0.878l-3.607-6.441c-0.12-0.088-0.26-0.168-0.365-0.211c0.001,0.016,0.004,0.031,0.007,0.042
						c0.125,0.287,2.251,4.422,3.556,6.946c0.035,0.068,0.06,0.142,0.073,0.217c0.126,0.734-0.008,1.703-0.805,2.02
						c-0.771,0.306-1.48-0.132-1.776-0.441l-2.508-2.494l4.535,8.938c0.245,0.324,1.918,2.389,4.159,1.776
						c0.401-0.113,0.813,0.126,0.922,0.525c0.109,0.4-0.126,0.812-0.525,0.921C90.265,97.873,89.85,97.924,89.454,97.924z"/>
				</g>
				<g>
					<path fill="#CCCCCC" d="M204.676,110.299c-9.431,19.419-29.343,32.806-52.381,32.806c-28.583,0-51.925-20.153-56.838-47.32
						l-4.32,1.19c4.813,24.53,24.015,43.901,48.455,48.962c0,0,2.78,12.321,1.444,26.717l30.5,0.112
						c1.534-14.8-0.258-28.477-0.258-28.477c16.732-5.345,30.392-17.565,37.657-33.339"/>
					<path fill="#394147" d="M171.536,173.973c-0.001,0-0.002,0-0.004,0l-30.5-0.215c-0.28-0.001-0.548-0.172-0.736-0.38
						c-0.188-0.207-0.281-0.51-0.256-0.79c1.138-12.269-0.769-23.132-1.295-25.794c-24.682-5.376-43.718-24.79-48.59-49.619
						c-0.101-0.513,0.212-1.021,0.716-1.159l4.32-1.192c0.268-0.077,0.56-0.034,0.798,0.117c0.238,0.149,0.401,0.392,0.452,0.668
						c4.872,26.942,28.362,46.498,55.854,46.498c22.096,0,41.822-12.356,51.481-32.244c0.241-0.497,0.839-0.705,1.336-0.462
						c0.497,0.241,0.704,0.839,0.463,1.336c-9.996,20.584-30.412,33.37-53.28,33.37c-28.094,0-52.151-19.729-57.618-47.068
						l-2.374,0.654c5.043,23.816,23.591,42.318,47.491,47.267c0.384,0.08,0.686,0.377,0.772,0.76
						c0.027,0.121,2.66,12.017,1.558,25.94l28.506,0.105c1.344-14.173-0.327-27.211-0.344-27.344
						c-0.063-0.479,0.227-0.936,0.687-1.082c16.353-5.224,29.857-17.181,37.054-32.806c0.231-0.502,0.824-0.723,1.326-0.49
						c0.502,0.231,0.722,0.825,0.49,1.327c-7.314,15.883-20.944,28.096-37.478,33.618c0.353,3.198,1.479,15.303,0.165,27.987
						C172.478,173.483,172.048,173.973,171.536,173.973z"/>
				</g>
				<g>
					<polygon fill="#F2F2F2" points="168.816,129.838 138.222,126.502 135.978,102.973 169.428,102.973 					"/>
					<path fill="#394147" d="M168.816,130.837c-0.036,0-0.072-0.002-0.108-0.006l-30.595-3.336
						c-0.472-0.052-0.842-0.427-0.887-0.899l-2.243-23.528c-0.027-0.28,0.065-0.559,0.255-0.768s0.459-0.327,0.74-0.327h33.449
						c0.27,0,0.527,0.108,0.715,0.301c0.188,0.193,0.291,0.453,0.285,0.722l-0.611,26.864c-0.007,0.28-0.13,0.545-0.341,0.729
						C169.292,130.75,169.058,130.837,168.816,130.837z M139.14,125.595l28.702,3.13l0.563-24.752h-31.326L139.14,125.595z"/>
				</g>
				<g>
					<g>
						<path fill="#394147" d="M153.832,142.973h-4c-0.553,0-1-0.447-1-1v-3c0-0.553,0.447-1,1-1s1,0.447,1,1v2h2v-2
							c0-0.553,0.447-1,1-1s1,0.447,1,1v3C154.832,142.526,154.385,142.973,153.832,142.973z"/>
					</g>
				</g>
				<g>
					<g>
						<path fill="#394147" d="M137.016,120.973c-0.551,0-0.998-0.59-1-1.141c-0.02-4.595-0.03-15.489-0.03-15.828
							c0-0.552,0.447-1.036,1-1.036s1,0.43,1,0.982c0,0.34,0.011,11.291,0.03,15.883c0.002,0.552-0.443,1.14-0.996,1.14
							C137.019,120.973,137.017,120.973,137.016,120.973z"/>
					</g>
					<g>
						<path fill="#394147" d="M170.307,118.973c-0.002,0-0.003,0-0.005,0c-0.552,0-0.998-0.615-0.995-1.167
							c0.024-5.248,0.038-13.417,0.038-13.793c0-0.552,0.447-1.041,1-1.041s1,0.427,1,0.98c0,0.376-0.014,8.622-0.038,13.874
							C171.304,118.376,170.856,118.973,170.307,118.973z"/>
					</g>
				</g>
				<g>
					<path fill="#394147" d="M142.026,117.788c-0.231,0-0.464-0.08-0.652-0.242c-0.419-0.36-0.466-0.991-0.105-1.41
						c0.077-0.09,1.938-2.216,4.793-2.371c1.919-0.106,3.737,0.669,5.474,2.293c0.403,0.377,0.425,1.01,0.048,1.414
						c-0.38,0.403-1.012,0.423-1.413,0.047c-1.324-1.238-2.658-1.836-4-1.757c-1.981,0.107-3.372,1.663-3.386,1.679
						C142.587,117.67,142.307,117.788,142.026,117.788z"/>
				</g>
				<g>
					<path fill="#394147" d="M165.104,117.788c-0.245,0-0.49-0.089-0.683-0.27c-1.32-1.233-2.683-1.825-3.982-1.758
						c-1.997,0.1-3.392,1.667-3.406,1.683c-0.361,0.415-0.992,0.459-1.409,0.098c-0.415-0.361-0.463-0.988-0.104-1.406
						c0.077-0.09,1.938-2.216,4.792-2.371c1.885-0.102,3.736,0.668,5.475,2.293c0.403,0.377,0.425,1.01,0.048,1.413
						C165.638,117.682,165.37,117.788,165.104,117.788z"/>
				</g>
				<g>
					<path fill="#394147" d="M152.832,126.973h-1c-0.553,0-1-0.447-1-1v-8c0-0.552,0.447-1,1-1s1,0.448,1,1v7c0.553,0,1,0.447,1,1
						S153.385,126.973,152.832,126.973z"/>
				</g>
				<g>
					<path fill="#394147" d="M153.405,134.485c-2.74,0-5.175-0.741-7.235-2.203c-0.451-0.319-0.557-0.943-0.237-1.394
						c0.318-0.451,0.945-0.559,1.394-0.237c1.716,1.217,3.762,1.834,6.079,1.834c3,0,5.631-0.97,7.818-2.883
						c0.413-0.364,1.046-0.323,1.411,0.095c0.363,0.416,0.321,1.048-0.095,1.411C159.978,133.349,156.903,134.485,153.405,134.485z"
						/>
				</g>
				<g>
					<polyline fill="#FF9800" points="153.621,143.139 150.969,148.136 145.972,143.241 					"/>
					<path fill="#394147" d="M150.97,149.136c-0.26,0-0.512-0.102-0.7-0.286l-4.997-4.896c-0.395-0.386-0.4-1.02-0.014-1.414
						c0.387-0.393,1.019-0.401,1.414-0.014l4.041,3.959l2.023-3.815c0.259-0.488,0.865-0.673,1.353-0.415
						c0.488,0.26,0.674,0.864,0.415,1.353l-2.651,4.997c-0.148,0.278-0.419,0.471-0.73,0.52
						C151.072,149.132,151.021,149.136,150.97,149.136z"/>
				</g>
				<g>
					<polyline fill="#FF9800" points="155.026,143.343 158.21,148.646 163.717,142.833 					"/>
					<path fill="#394147" d="M158.21,149.646c-0.036,0-0.072-0.002-0.108-0.006c-0.311-0.034-0.588-0.211-0.749-0.479l-3.184-5.303
						c-0.284-0.474-0.131-1.088,0.343-1.372c0.475-0.285,1.088-0.13,1.372,0.343l2.506,4.174l4.602-4.857
						c0.38-0.401,1.013-0.418,1.413-0.038c0.401,0.38,0.418,1.013,0.038,1.413l-5.507,5.813
						C158.746,149.534,158.483,149.646,158.21,149.646z"/>
				</g>
				<g>
					
						<path fill="none" stroke="#394147" stroke-width="2" stroke-linecap="round" stroke-linejoin="round" stroke-miterlimit="10" d="
						M161.882,99.899"/>
				</g>
				<g>
					<path fill="#394147" d="M142.3,113.035c-0.439,0-0.843-0.292-0.964-0.737c-0.146-0.533,0.169-1.083,0.702-1.228l6.73-1.836
						c0.527-0.142,1.082,0.168,1.228,0.702c0.146,0.533-0.169,1.083-0.702,1.228l-6.73,1.836
						C142.476,113.023,142.388,113.035,142.3,113.035z"/>
				</g>
				<g>
					<path fill="#394147" d="M166.369,113.035c-0.06,0-0.121-0.005-0.183-0.017l-7.75-1.428c-0.543-0.1-0.902-0.622-0.802-1.165
						c0.101-0.542,0.612-0.903,1.165-0.802l7.75,1.428c0.543,0.1,0.902,0.622,0.802,1.165
						C167.263,112.698,166.843,113.035,166.369,113.035z"/>
				</g>
				<g>
					<path fill="#FF9800" d="M171.886,103.557c0-5.734-1.457-11.958-11.949-11.958c-9.666,0-13.388-0.402-13.928,1.3
						c-0.453-1.682-3.154-1.3-3.154-1.3c-7.14,0-8.829,6.224-8.829,11.958c0,5.733-0.194,8.34-0.194,8.34v7.076h2v-8
						c2,0,3.075,0,3.597,0c3.408,0,5.098-1.848,5.936-3.3c0.993,0.975,2.568,1.3,5.074,1.3c7.007,0,15.392,0,15.392,0v10h6v-7.076
						C171.832,111.897,171.886,109.29,171.886,103.557z"/>
					<path fill="#394147" d="M171.832,119.973h-6c-0.553,0-1-0.448-1-1v-9h-14.393c-2.23,0-3.73-0.262-4.826-0.875
						c-1.133,1.467-3.039,2.875-6.184,2.875h-2.598v7c0,0.552-0.447,1-1,1h-2c-0.553,0-1-0.448-1-1v-7.077
						c0.005-0.1,0.194-2.723,0.194-8.339c0-8.329,3.468-12.928,9.766-12.958c0.121-0.014,0.376-0.037,0.7-0.037
						c1.098,0,1.989,0.265,2.609,0.753c1.223-0.708,3.359-0.758,6.275-0.758c0.876,0,1.854,0.008,2.942,0.017
						c1.36,0.012,2.895,0.024,4.617,0.024c11.606,0,12.949,7.396,12.949,12.958c0,5.678-0.054,8.334-0.054,8.36v7.056
						C172.832,119.525,172.385,119.973,171.832,119.973z M166.832,117.973h4v-6.077c0.001-0.046,0.054-2.686,0.054-8.339
						c0-5.691-1.326-10.958-10.949-10.958c-1.729,0-3.269-0.013-4.634-0.024c-1.082-0.009-2.055-0.017-2.926-0.017
						c-1.56,0-5.211,0-5.415,0.645c-0.134,0.423-0.505,0.713-0.975,0.698c-0.444-0.01-0.828-0.311-0.944-0.74
						c-0.149-0.555-1.225-0.598-1.551-0.598c-0.277,0-0.477,0.024-0.501,0.028c-0.044,0.006-0.092,0.009-0.137,0.009
						c-5.194,0-7.828,3.687-7.828,10.958c0,3.422-0.068,5.727-0.124,7.047c0.146-0.37,0.508-0.631,0.93-0.631h3.598
						c2.292,0,3.997-0.942,5.069-2.8c0.154-0.268,0.425-0.449,0.73-0.491c0.311-0.043,0.614,0.06,0.836,0.277
						c0.725,0.71,2.032,1.014,4.374,1.014h15.393c0.553,0,1,0.448,1,1V117.973z M134.832,117.973v-6.041
						c-0.001,0.02-0.002,0.033-0.003,0.039L134.832,117.973z"/>
				</g>
				<g>
					<path fill="#FF9800" d="M137.563,117.44c0,0,3.254,1.427,3.254,4.283c0,2.856,7.977,6.119,12.386,5.813
						c4.409-0.306,14.066-3.366,14.066-5.507c0-2.142,1.154-5.711,2.834-5.201c1.68,0.51,3.149,12.442-4.303,17.643
						c-6.742,4.705-12.792,5.473-20.679,2.142C137.878,133.553,132.63,123.354,137.563,117.44z"/>
				</g>
				<g>
					<path fill="#394147" d="M153.405,134.485c-2.74,0-5.175-0.741-7.235-2.203c-0.451-0.319-0.557-0.943-0.237-1.394
						c0.318-0.451,0.945-0.559,1.394-0.237c1.716,1.217,3.762,1.834,6.079,1.834c3,0,5.631-0.97,7.818-2.883
						c0.413-0.364,1.046-0.323,1.411,0.095c0.363,0.416,0.321,1.048-0.095,1.411C159.978,133.349,156.903,134.485,153.405,134.485z"
						/>
				</g>
				<g>
					<path fill="#394147" d="M154.879,154.973c-0.281,0-0.551,0.09-0.74-0.118l-10.13-11.046c-0.371-0.409-0.341-0.99,0.067-1.361
						c0.41-0.37,1.042-0.315,1.413,0.094l9.352,10.308l9.327-11.337c0.35-0.428,0.98-0.487,1.407-0.134
						c0.427,0.351,0.488,0.982,0.138,1.409l-10.062,12.029c-0.185,0.225-0.457,0.157-0.748,0.157
						C154.896,154.973,154.887,154.973,154.879,154.973z"/>
				</g>
				<g>
					<g>
						<path fill="#F2F2F2" d="M251.671,93.349c0,0-1.661-0.789-1.721-3.308l-0.721-4.224c0,0-0.221-1.02,0.375-1.065
							c0.521-0.039,0.634,0.425,0.634,0.425l0.864,2.636c0,0,0.095,0.568,0.759,0.542c0.442-0.018,0.636-0.305,0.636-0.305
							l-0.124-6.854c0,0,0.197-0.488,0.623-0.371c0.427,0.117,0.318,0.588,0.318,0.588l0.537,4.826c0,0,0.091,0.276,0.419,0.449
							c0.328,0.173,0.49-0.117,0.533-0.271c0.042-0.156,1.719-5.753,1.719-5.753s0.121-0.592,0.586-0.465
							c0.465,0.127,0.366,0.643,0.366,0.643l-1.12,5.854c0,0,0.022,0.34,0.41,0.446c0.387,0.106,0.548-0.288,0.548-0.288
							l2.456-4.393c0,0,0.472-0.412,0.821-0.316c0.349,0.096,0.321,0.505,0.278,0.66c-0.043,0.155-2.385,4.684-2.385,4.684
							s-0.113,0.655,0.226,0.789c0.339,0.134,0.632-0.173,0.632-0.173l1.764-1.754c0,0,0.233-0.395,0.543-0.31
							c0.31,0.085,0.419,0.448,0.419,0.448l-3.284,6.472c0,0-1.361,1.921-3.3,1.39"/>
						<path fill="#394147" d="M256.175,95.448c-0.303,0-0.622-0.04-0.956-0.131c-0.532-0.146-0.846-0.696-0.7-1.229
							c0.146-0.533,0.696-0.847,1.229-0.7c1.094,0.301,1.99-0.711,2.185-0.958l1.67-3.292c-0.358,0.179-0.813,0.249-1.262,0.07
							c-0.476-0.188-0.78-0.621-0.859-1.175c-0.283,0.131-0.619,0.174-0.98,0.074c-0.52-0.143-0.855-0.488-1.021-0.862
							c-0.14,0.172-0.314,0.308-0.512,0.393c-0.369,0.159-0.781,0.135-1.163-0.065c-0.118-0.063-0.225-0.134-0.319-0.211l0.013,0.67
							c0.004,0.207-0.057,0.41-0.173,0.581c-0.231,0.34-0.727,0.713-1.423,0.742c-0.434,0.014-0.818-0.107-1.108-0.312l0.142,0.831
							c0.009,0.048,0.014,0.096,0.015,0.145c0.043,1.825,1.121,2.412,1.167,2.436c0.481,0.253,0.682,0.851,0.438,1.337
							c-0.244,0.487-0.823,0.694-1.313,0.461c-0.09-0.042-2.184-1.072-2.289-4.111l-0.71-4.155
							c-0.046-0.206-0.187-1.065,0.271-1.678c0.242-0.325,0.603-0.521,1.015-0.552c0.898-0.072,1.523,0.545,1.681,1.185l0.245,0.744
							l-0.082-4.471c-0.002-0.134,0.022-0.268,0.073-0.393c0.263-0.652,0.966-1.193,1.814-0.96c0.79,0.216,1.118,0.929,1.063,1.566
							l0.252,2.261c0.375-1.256,0.794-2.654,0.99-3.31c0.013-0.083,0.167-0.665,0.7-0.993c0.328-0.202,0.723-0.253,1.107-0.149
							c0.891,0.243,1.22,1.087,1.085,1.795l-0.503,2.628l0.941-1.684c0.056-0.1,0.129-0.19,0.215-0.265
							c0.205-0.18,0.93-0.749,1.745-0.527c0.36,0.099,0.659,0.33,0.841,0.651c0.299,0.526,0.179,1.083,0.135,1.241
							c-0.025,0.091-0.051,0.188-1.099,2.233c0.324-0.232,0.735-0.351,1.179-0.229c0.625,0.171,0.984,0.695,1.113,1.127
							c0.073,0.246,0.05,0.51-0.066,0.739l-3.283,6.472c-0.021,0.043-0.047,0.085-0.076,0.125
							C259.537,93.63,258.222,95.448,256.175,95.448z"/>
					</g>
					<g>
						<path fill="#F2F2F2" d="M251.671,93.349c0,0-1.661-0.789-1.721-3.308l-0.721-4.224c0,0-0.221-1.02,0.375-1.065
							c0.521-0.039,0.634,0.425,0.634,0.425l0.864,2.636c0,0,0.095,0.568,0.759,0.542c0.442-0.018,0.636-0.305,0.636-0.305
							l-0.124-6.854c0,0,0.197-0.488,0.623-0.371c0.427,0.117,0.318,0.588,0.318,0.588l0.537,4.826c0,0,0.091,0.276,0.419,0.449
							c0.328,0.173,0.49-0.117,0.533-0.271c0.042-0.156,1.719-5.753,1.719-5.753s0.121-0.592,0.586-0.465
							c0.465,0.127,0.366,0.643,0.366,0.643l-1.12,5.854c0,0,0.022,0.34,0.41,0.446c0.387,0.106,0.548-0.288,0.548-0.288
							l2.456-4.393c0,0,0.472-0.412,0.821-0.316c0.349,0.096,0.321,0.505,0.278,0.66c-0.043,0.155-2.385,4.684-2.385,4.684
							s-0.113,0.655,0.226,0.789c0.339,0.134,0.632-0.173,0.632-0.173l1.764-1.754c0,0,0.233-0.395,0.543-0.31
							c0.31,0.085,0.419,0.448,0.419,0.448l-3.284,6.472c0,0-1.361,1.921-3.3,1.39"/>
						<path fill="#394147" d="M256.174,95.198c-0.282,0-0.579-0.037-0.889-0.122c-0.399-0.109-0.635-0.522-0.525-0.921
							c0.109-0.399,0.521-0.637,0.922-0.525c1.287,0.35,2.278-0.826,2.463-1.063l2.265-4.464l-0.539,0.537
							c-0.307,0.32-0.879,0.56-1.438,0.338c-0.586-0.232-0.751-0.854-0.715-1.393c-0.264,0.252-0.684,0.412-1.15,0.283
							c-0.624-0.171-0.932-0.686-0.96-1.12c-0.005-0.063-0.001-0.127,0.012-0.19l0.133-0.696c-0.126,0.422-0.211,0.708-0.224,0.755
							c-0.103,0.365-0.348,0.659-0.659,0.793c-0.3,0.129-0.637,0.107-0.948-0.057c-0.387-0.205-0.595-0.496-0.698-0.689l0.025,1.374
							c0.003,0.155-0.043,0.307-0.13,0.436c-0.188,0.276-0.622,0.608-1.227,0.633c-0.892,0.037-1.401-0.611-1.515-1.097
							l-0.028-0.088l0.341,1.996c0.006,0.036,0.01,0.072,0.011,0.109c0.047,1.988,1.251,2.626,1.302,2.652
							c0.365,0.187,0.518,0.634,0.337,1.002c-0.182,0.367-0.618,0.524-0.99,0.348c-0.084-0.04-2.053-1.008-2.146-3.911l-0.713-4.172
							c-0.042-0.19-0.169-0.958,0.226-1.487c0.199-0.266,0.495-0.427,0.833-0.453c0.766-0.051,1.288,0.457,1.419,0.995l0.769,2.335
							l-0.112-6.125c-0.002-0.101,0.017-0.201,0.055-0.295c0.222-0.55,0.811-1.004,1.518-0.813c0.664,0.182,0.934,0.79,0.877,1.327
							l0.39,3.508c0.447-1.498,1.153-3.853,1.343-4.487c0.014-0.08,0.145-0.577,0.592-0.852c0.269-0.165,0.591-0.208,0.911-0.121
							c0.744,0.204,1.019,0.912,0.904,1.507l-0.795,4.158l1.698-3.045c0.042-0.075,0.096-0.143,0.161-0.199
							c0.182-0.159,0.83-0.66,1.514-0.474c0.296,0.081,0.541,0.271,0.689,0.533c0.251,0.442,0.148,0.916,0.111,1.051
							c-0.021,0.079-0.054,0.201-1.807,3.601l0.735-0.731c0.277-0.399,0.776-0.707,1.327-0.558c0.525,0.145,0.835,0.606,0.939,0.958
							c0.055,0.184,0.037,0.382-0.05,0.554l-3.283,6.472c-0.017,0.033-0.036,0.064-0.057,0.094
							C259.337,93.48,258.094,95.198,256.174,95.198z"/>
					</g>
					<g>
						<g>
							<path fill="#CCCCCC" d="M161.882,136.787c6.421,4.488,15.316,8.972,23.257,10.616c0,0,2.144,12.464,1.368,25.248
								l28.985-0.314c1.207-13.515-0.378-26.492-0.378-26.492c22.339-7.136,38.889-27.227,40.814-51.437l-3.861-0.733
								c-2.052,28.536-25.852,51.049-54.911,51.049c-11.585,0-24.57-5.128-33.439-11.239"/>
							<path fill="#394147" d="M186.507,173.973c-0.273,0-0.535-0.273-0.725-0.472c-0.191-0.201-0.29-0.553-0.273-0.831
								c0.658-10.859-0.831-21.659-1.25-24.395c-7.17-1.615-15.691-5.576-22.95-10.65c-0.452-0.316-0.563-0.95-0.246-1.403
								c0.315-0.452,0.938-0.569,1.393-0.251c5.618,3.927,14.581,8.734,22.887,10.454c0.402,0.084,0.713,0.404,0.782,0.808
								c0.021,0.123,2.037,12.029,1.439,24.406l27.008-0.292c1.038-12.926-0.436-25.256-0.45-25.382
								c-0.059-0.477,0.23-0.928,0.688-1.073c22.217-7.098,37.851-26.535,40.045-49.671l-1.881-0.357
								c-2.635,28.61-26.938,50.859-55.817,50.859c-12.856,0-25.996-5.896-34.006-11.415c-0.455-0.313-0.569-0.936-0.256-1.391
								c0.313-0.453,0.937-0.568,1.391-0.256c9.754,6.72,22.656,11.062,32.871,11.062c28.211,0,51.893-22.015,53.914-50.12
								c0.021-0.285,0.161-0.547,0.388-0.721c0.227-0.175,0.515-0.243,0.796-0.19l3.861,0.732c0.501,0.095,0.851,0.553,0.811,1.062
								c-1.914,24.069-17.865,44.415-40.729,52.056c0.319,3.077,1.322,14.35,0.292,25.884c-0.046,0.512-0.472,1.066-0.985,1.072
								l-28.984,0.475C186.514,173.973,186.511,173.973,186.507,173.973z"/>
						</g>
						<g>
							<g>
								<g>
									<g>
										<polyline fill="#F2F2F2" points="194.832,138.973 194.832,144.466 202.169,144.08 201.684,139.983 										"/>
										<path fill="#394147" d="M194.832,144.973c-0.256,0-0.502,0.148-0.688-0.028c-0.199-0.189-0.312-0.205-0.312-0.479v-5.492
											c0-0.553,0.447-1,1-1s1,0.447,1,1v4.438l5.218-0.274l-0.359-3.037c-0.064-0.548,0.327-1.045,0.876-1.11
											c0.537-0.071,1.044,0.327,1.11,0.876l0.485,4.097c0.032,0.274-0.05,0.55-0.229,0.762
											c-0.178,0.211-0.436,0.094-0.712,0.109l-7.337,0.14C194.867,144.973,194.85,144.973,194.832,144.973z"/>
									</g>
								</g>
								<g>
									<g>
										<path fill="#F2F2F2" d="M215.388,108.823c0,0.52-0.026,16.648-0.074,17.154c-0.774,7.992-7.51,14.24-15.705,14.24
											c-8.311,0-15.121-6.425-15.734-14.58c-0.03-0.396-0.045-16.411-0.045-16.814"/>
										<path fill="#394147" d="M199.609,141.217c-8.729,0-16.078-6.811-16.731-15.505c-0.034-0.465-0.048-16.727-0.048-16.889
											c0-0.552,0.447-1,1-1s1,0.448,1,1c0,0.751,0.017,16.135,0.043,16.756c0.575,7.64,7.049,13.638,14.736,13.638
											c7.649,0,13.973-5.733,14.709-13.336c0.041-0.686,0.069-15.717,0.069-17.058c0-0.552,0.447-1,1-1s1,0.448,1,1
											c0,0.165-0.022,16.662-0.079,17.25C215.474,134.708,208.294,141.217,199.609,141.217z"/>
									</g>
									<g>
										<path fill="#FFAC33" d="M220.052,112.566c0-5.424-4.092-16.566-14.017-16.566c-8.982,0-12.597-0.378-13.202,1.134
											c-0.509-1.47-2.966-1.134-2.966-1.134c-6.755,0-9.948,10.006-10.591,19.653c-0.361,5.412-3.151,48.108-3.151,48.108
											l14.471-0.579c0,0-3.448-29.602-3.473-29.778c-1.731-12.025,1.488-19.745,3.783-23.515
											c0.591,1.903,2.003,3.853,5.286,4.091c21.289,1.544,16.529,21.611,16.529,21.611l0.064,28.942l10.613-3.28
											C223.397,161.253,220.052,117.989,220.052,112.566z"/>
										<path fill="#394147" d="M212.784,165.533c-0.211,0-0.419-0.066-0.593-0.194c-0.256-0.188-0.406-0.486-0.407-0.804
											l-0.064-28.942c0-0.077,0.009-0.156,0.026-0.231c0.02-0.083,1.898-8.363-2.456-14.289
											c-2.647-3.603-7.079-5.653-13.172-6.095c-2.752-0.2-4.354-1.458-5.287-2.888c-1.979,3.951-4.188,10.962-2.719,21.171
											c0.024,0.176,2.667,22.857,3.477,29.806c0.032,0.276-0.052,0.554-0.233,0.765c-0.181,0.212-0.441,0.339-0.72,0.35
											l-14.472,0.578c-0.273,0.022-0.558-0.098-0.756-0.301s-0.301-0.48-0.282-0.764c0,0,2.791-42.697,3.151-48.109
											c0.662-9.926,4.038-20.53,11.528-20.587c0.113-0.012,0.349-0.033,0.649-0.033c1.034,0,1.872,0.233,2.466,0.674
											c1.165-0.639,3.14-0.683,5.839-0.683c0.838,0,1.776,0.008,2.822,0.018c1.311,0.011,2.789,0.024,4.453,0.024
											c10.482,0,15.017,11.632,15.017,17.566c0,5.324,3.309,48.177,3.342,48.61c0.036,0.466-0.256,0.895-0.702,1.032
											l-10.612,3.28C212.982,165.518,212.883,165.533,212.784,165.533z M213.72,135.701l0.062,27.478l8.557-2.646
											c-0.469-6.097-3.286-42.909-3.286-47.967c0-5.258-3.931-15.566-13.017-15.566c-1.67,0-3.155-0.013-4.471-0.024
											c-1.039-0.009-1.972-0.018-2.805-0.018c-1.183,0-4.78,0-4.999,0.548c-0.154,0.388-0.541,0.655-0.952,0.628
											c-0.418-0.01-0.785-0.278-0.922-0.672c-0.126-0.364-0.822-0.494-1.432-0.494c-0.252,0-0.433,0.021-0.457,0.024
											c-0.043,0.005-0.089,0.009-0.132,0.009c-6.159,0-9.017,10.084-9.593,18.72c-0.326,4.893-2.639,40.256-3.079,46.998
											l12.283-0.49c-0.616-5.286-3.297-28.298-3.347-28.691c-1.795-12.472,1.686-20.495,3.92-24.166
											c0.205-0.334,0.57-0.519,0.978-0.473c0.39,0.048,0.716,0.321,0.832,0.696c0.656,2.114,2.097,3.223,4.402,3.39
											c6.711,0.487,11.639,2.814,14.648,6.918C215.562,126.243,213.969,134.554,213.72,135.701z"/>
									</g>
								</g>
								<g>
									<path fill="#394147" d="M196.948,123.143c-0.245,0-0.49-0.089-0.683-0.27c-1.235-1.155-2.485-1.708-3.726-1.648
										c-1.866,0.092-3.174,1.559-3.187,1.574c-0.363,0.414-0.994,0.457-1.409,0.097c-0.415-0.361-0.463-0.988-0.104-1.405
										c0.074-0.086,1.849-2.114,4.573-2.262c1.817-0.095,3.563,0.637,5.217,2.184c0.403,0.377,0.425,1.01,0.048,1.413
										C197.481,123.037,197.215,123.143,196.948,123.143z"/>
								</g>
								<g>
									<path fill="#394147" d="M202.081,123.143c-0.231,0-0.463-0.079-0.652-0.242c-0.419-0.359-0.466-0.991-0.105-1.41
										c0.074-0.086,1.848-2.113,4.571-2.262c1.804-0.101,3.562,0.636,5.218,2.184c0.403,0.377,0.425,1.01,0.048,1.413
										c-0.379,0.404-1.013,0.424-1.413,0.048c-1.243-1.161-2.519-1.708-3.744-1.647c-1.852,0.101-3.151,1.555-3.164,1.569
										C202.642,123.025,202.362,123.143,202.081,123.143z"/>
								</g>
								<g>
									<path fill="#394147" d="M201.832,131.973h-2c-0.553,0-1-0.447-1-1v-7c0-0.553,0.447-1,1-1s1,0.447,1,1v6h1
										c0.553,0,1,0.447,1,1S202.385,131.973,201.832,131.973z"/>
								</g>
								<g>
									<path fill="#394147" d="M199.363,137.78c-10.118,0-12.284-10.562-12.305-10.668c-0.105-0.541,0.248-1.064,0.789-1.171
										c0.55-0.104,1.067,0.247,1.174,0.788c0.073,0.37,1.888,9.051,10.342,9.051c3.587,0,6.577-1.449,8.889-4.307
										c0.347-0.43,0.976-0.496,1.406-0.148c0.43,0.347,0.496,0.977,0.148,1.406C207.136,136.034,203.524,137.78,199.363,137.78z"
										/>
								</g>
							</g>
							<g>
								<path fill="#FF9800" d="M199.999,145.137c0,0-4.58,8.012-10.755-1.057"/>
								<path fill="#394147" d="M195.171,149.404c-2.33,0-4.601-1.601-6.752-4.762c-0.312-0.456-0.193-1.078,0.264-1.389
									c0.457-0.314,1.079-0.191,1.389,0.264c1.773,2.605,3.567,3.914,5.221,3.885c2.249-0.088,3.823-2.734,3.839-2.761
									c0.274-0.48,0.885-0.647,1.364-0.372c0.479,0.274,0.646,0.885,0.372,1.364c-0.085,0.148-2.115,3.635-5.497,3.767
									C195.304,149.403,195.236,149.404,195.171,149.404z"/>
							</g>
							<g>
								<path fill="#FF9800" d="M199.471,145.137c0,0,6.174,7.625,10.805-1.443"/>
								<path fill="#394147" d="M204.853,149.136c-3.39,0-6.042-3.226-6.159-3.37c-0.348-0.429-0.281-1.059,0.148-1.406
									c0.428-0.347,1.057-0.28,1.405,0.146l0,0c0.024,0.028,2.362,2.889,4.953,2.611c1.547-0.165,2.956-1.471,4.186-3.879
									c0.251-0.491,0.856-0.686,1.346-0.436c0.491,0.251,0.687,0.854,0.436,1.346c-1.56,3.053-3.499,4.721-5.766,4.958
									C205.217,149.126,205.033,149.136,204.853,149.136z"/>
							</g>
						</g>
					</g>
				</g>
				<g>
					<path fill="#FF9800" d="M137.563,117.44c0,0,3.254,1.427,3.254,4.283c0,2.856,7.977,6.119,12.386,5.813
						c4.409-0.306,14.066-3.366,14.066-5.507c0-2.142,1.154-5.711,2.834-5.201c1.68,0.51,3.149,12.442-4.303,17.643
						c-6.742,4.705-12.792,5.473-20.679,2.142C137.878,133.553,132.63,123.354,137.563,117.44z"/>
					<path fill="#394147" d="M154.063,139.654c-2.901,0-5.953-0.694-9.331-2.121c-4.614-1.949-8.523-6.596-9.729-11.563
						c-0.852-3.509-0.215-6.765,1.792-9.171c0.286-0.341,0.765-0.454,1.169-0.275c0.157,0.069,3.854,1.73,3.854,5.199
						c0,1.75,6.235,4.833,10.785,4.833c0.183,0,0.36-0.005,0.531-0.018c4.753-0.329,12.687-3.277,13.144-4.569
						c-0.008-2.051,1.053-6.19,3.504-6.19c0.205,0,0.411,0.031,0.612,0.092c0.913,0.277,1.543,1.467,1.871,3.538
						c0.582,3.666,0.099,11.702-5.893,15.882C162.107,138.267,158.195,139.654,154.063,139.654z M137.839,118.74
						c-1.516,2.298-1.343,4.904-0.893,6.758c1.046,4.313,4.568,8.504,8.563,10.192c3.127,1.32,5.925,1.963,8.553,1.963
						c3.704,0,7.252-1.272,11.165-4.004c3.992-2.786,4.953-7.491,5.171-10.048c0.264-3.103-0.321-5.247-0.669-5.8
						c-0.521,0.209-1.46,2.265-1.46,4.227c0,3.476-11.786,6.282-14.997,6.505c-0.216,0.015-0.439,0.021-0.67,0.021
						c-4.32,0-12.785-3.093-12.785-6.833C139.817,120.273,138.627,119.255,137.839,118.74z"/>
				</g>
				<g>
					<path fill="#394147" d="M153.405,134.485c-2.74,0-5.175-0.741-7.235-2.203c-0.451-0.319-0.557-0.943-0.237-1.394
						c0.318-0.451,0.945-0.559,1.394-0.237c1.716,1.217,3.762,1.834,6.079,1.834c3,0,5.631-0.97,7.818-2.883
						c0.413-0.364,1.046-0.323,1.411,0.095c0.363,0.416,0.321,1.048-0.095,1.411C159.978,133.349,156.903,134.485,153.405,134.485z"
						/>
				</g>
			</g>
		</g>
	</g>
	
		<text transform="matrix(1 0 0 1 127.252 78.8015)" fill="#E6E7E8" font-family="'Orbitron-Black'" font-size="12" letter-spacing="1">CyberCraft</text>
</g>
</svg>
