<?xml version="1.0" encoding="utf-8"?>
<!-- Generator: Adobe Illustrator 17.0.0, SVG Export Plug-In . SVG Version: 6.00 Build 0)  -->
<!DOCTYPE svg PUBLIC "-//W3C//DTD SVG 1.1//EN" "http://www.w3.org/Graphics/SVG/1.1/DTD/svg11.dtd">
<svg version="1.1" id="Layer_1" xmlns="http://www.w3.org/2000/svg" xmlns:xlink="http://www.w3.org/1999/xlink" x="0px" y="0px"
	 width="326.71px" height="275.225px" viewBox="0 0 326.71 275.225" enable-background="new 0 0 326.71 275.225"
	 xml:space="preserve">
<g>
	<path fill="none" stroke="#78909C" stroke-width="1.4" stroke-miterlimit="10" stroke-dasharray="4" d="M279.832,111.634h14.316
		c3.119,0,5.671-2.549,5.671-5.665l0.452-5.534"/>
	<g>
		<g>
			<g>
				<polygon fill="#B0BEC5" points="275.874,274.225 71.874,274.225 71.874,95.014 173.874,43.152 275.874,95.014 				"/>
				<path fill="#3C4248" d="M276.874,275.225h-206V94.401l103-52.371l103,52.371V275.225z M72.874,273.225h202V95.627l-101-51.354
					l-101,51.354V273.225z"/>
			</g>
			<g>
				<path fill="#394147" d="M197.604,122.732h14.454c1.047,0,1.938,0.368,2.675,1.105c0.736,0.736,1.104,1.628,1.104,2.675v5.352
					c0,1.047-0.368,1.938-1.104,2.675c-0.737,0.737-1.628,1.105-2.675,1.105h-7.533c-0.174,0-0.324,0.063-0.45,0.189
					s-0.188,0.275-0.188,0.45v1.6h-3.141v-1.6c0-1.047,0.367-1.938,1.104-2.676c0.736-0.736,1.628-1.104,2.675-1.104h7.533
					c0.174,0,0.324-0.063,0.45-0.189c0.126-0.126,0.188-0.276,0.188-0.45v-5.352c0-0.174-0.063-0.324-0.188-0.45
					s-0.276-0.189-0.45-0.189h-14.454V122.732z M203.886,143.671h-3.141v-3.141h3.141V143.671z"/>
			</g>
			<g>
				<rect x="106.874" y="111.225" fill="#546E7A" width="141" height="84"/>
				<path fill="#3C4248" d="M248.874,196.225h-143v-86h143V196.225z M107.874,194.225h139v-82h-139V194.225z"/>
			</g>
			<g>
				<g>
					<path fill="#E0E8ED" d="M192.874,165.27c0,0,11.1,32.786,33.328,0l0.388,3.479c0,0-14.716,29.054-33.716,5.541V165.27z"/>
					<path fill="#394147" d="M207.979,184.474c-5.415,0-10.759-3.215-15.882-9.555c-0.145-0.179-0.223-0.4-0.223-0.629v-9.021
						c0-0.489,0.354-0.906,0.837-0.986c0.476-0.078,0.952,0.2,1.11,0.665c0.047,0.139,4.824,13.893,13.861,13.893
						c5.381,0,11.334-4.755,17.691-14.133c0.236-0.347,0.66-0.51,1.068-0.409c0.406,0.101,0.707,0.443,0.754,0.86l0.388,3.479
						c0.021,0.193-0.014,0.389-0.103,0.563C227.166,169.824,219.611,184.474,207.979,184.474z M193.874,173.935
						c4.654,5.667,9.398,8.539,14.104,8.539c9.634,0,16.542-12.003,17.583-13.921l-0.061-0.545
						c-6.207,8.519-12.194,12.833-17.818,12.833c-6.887,0-11.439-6.328-13.809-10.837V173.935z"/>
				</g>
				<g>
					<path fill="#FFFFFF" d="M226.693,165.27l0.634,3.479c11.157,0.978,12.637-4.023,12.637-4.023L226.693,165.27z"/>
					<path fill="#394147" d="M230.084,169.626C230.083,169.626,230.083,169.626,230.084,169.626c-0.893,0-1.842-0.044-2.822-0.13
						c-0.337-0.029-0.612-0.28-0.673-0.612l-0.634-3.479c-0.038-0.214,0.017-0.434,0.152-0.604c0.136-0.169,0.338-0.271,0.556-0.28
						l13.271-0.544c0.235-0.021,0.474,0.098,0.622,0.288s0.196,0.441,0.127,0.674C240.627,165.13,239.191,169.626,230.084,169.626z
						 M227.962,168.047c0.734,0.053,1.445,0.079,2.121,0.079c5.138,0,7.467-1.523,8.469-2.592l-10.966,0.449L227.962,168.047z"/>
				</g>
				<g>
					<g>
						<g>
							<g>
								<path fill="#E0E8ED" d="M192.874,195.032l-33-0.161v-29.586c0-1.013,0.954-2.06,1.967-2.06h28.765
									c1.013,0,2.267,1.047,2.267,2.06V195.032z"/>
								<path fill="#394147" d="M192.874,196.225c-0.002,0-0.003,0-0.005,0l-33-0.257c-0.551-0.003-0.995-0.545-0.995-1.096v-29.586
									c0-1.602,1.414-3.061,2.968-3.061h28.765c1.471,0,3.268,1.412,3.268,3.061v29.747c0,0.266-0.106,0.618-0.295,0.805
									C193.392,196.024,193.139,196.225,192.874,196.225z M160.874,193.876l31,0.151v-28.742c0-0.384-0.732-1.061-1.268-1.061
									h-28.765c-0.443,0-0.968,0.575-0.968,1.061V193.876z"/>
							</g>
							<g>
								<g>
									<path fill="#FFFFFF" d="M189.208,119.589c0,0.602-0.03,17.288-0.089,17.874c-0.893,8.91-8.414,15.867-17.56,15.867
										c-9.012,0-16.447-6.755-17.517-15.478c-0.087-0.711-0.132-17.527-0.132-18.262"/>
									<path fill="#394147" d="M171.56,154.079c-9.282,0-17.132-6.938-18.261-16.137c-0.097-0.792-0.138-18.181-0.138-18.353
										c0-0.414,0.336-0.75,0.75-0.75s0.75,0.336,0.75,0.75c0,1.478,0.049,17.374,0.127,18.176
										c1.036,8.443,8.246,14.814,16.771,14.814c8.718,0,15.945-6.53,16.813-15.191c0.053-0.699,0.086-16.34,0.086-17.799
										c0-0.414,0.336-0.75,0.75-0.75s0.75,0.336,0.75,0.75c0,0.17-0.026,17.286-0.094,17.949
										C188.921,146.968,181.051,154.079,171.56,154.079z"/>
								</g>
								<g>
									<path fill="#37474F" d="M180.897,120.198l1.997,14.33c0,0,3.246-1.536,5.992,0c0,0,3.867-7.779,2.869-14.176
										c-0.999-6.397,0.877-8.598-5.865-10.389c0,0-0.749-3.838-11.236-5.118c-6.198-0.756-27.15,3.097-25.902,10.774
										C150.002,123.295,169.661,126.355,180.897,120.198z"/>
									<path fill="#394147" d="M182.895,135.277c-0.123,0-0.245-0.03-0.356-0.09c-0.21-0.113-0.354-0.32-0.387-0.556
										l-1.851-13.284c-3.842,1.863-8.722,2.878-13.881,2.878c-0.001,0-0.001,0-0.002,0c-8.46,0-17.498-2.914-18.404-8.489
										c-0.243-1.497,0.209-2.933,1.347-4.27c4.228-4.971,17.33-7.466,23.478-7.466c0.728,0,1.37,0.034,1.908,0.099
										c8.96,1.093,11.182,4.043,11.72,5.242c5.1,1.436,5.427,3.259,5.663,7.134c0.066,1.081,0.142,2.307,0.368,3.759
										c1.022,6.558-2.776,14.299-2.938,14.626c-0.092,0.184-0.254,0.322-0.45,0.382c-0.197,0.061-0.409,0.039-0.588-0.062
										c-0.696-0.39-1.507-0.587-2.408-0.587c-1.588,0-2.884,0.604-2.897,0.61C183.113,135.253,183.004,135.277,182.895,135.277z
										 M186.112,133.095c0.865,0,1.672,0.145,2.409,0.433c0.876-1.985,3.278-8.032,2.493-13.061
										c-0.237-1.522-0.314-2.785-0.383-3.899c-0.212-3.474-0.283-4.645-4.934-5.88c-0.277-0.074-0.488-0.3-0.544-0.582
										c-0.004-0.013-0.965-3.343-10.59-4.517c-0.479-0.059-1.06-0.088-1.727-0.088c-6.701,0-18.733,2.703-22.335,6.938
										c-0.851,1-1.181,2.248-1.009,3.306c0.67,4.123,7.946,7.48,16.924,7.48h0.002c5.351,0,10.363-1.38,14.117-3.437
										c0.217-0.119,0.477-0.247,0.697-0.136c0.22,0.111,0.372,0.261,0.406,0.505l1.868,13.377
										C184.154,133.335,185.08,133.095,186.112,133.095z"/>
								</g>
								<g>
									<path fill="#394147" d="M161.178,137.225h-7.019c-0.518,0-0.917-0.169-1.187-0.503c-0.417-0.518-0.285-1.123-0.189-1.565
										c0.045-0.206,0.091-0.417,0.091-0.605v-2.235c0-0.209-0.039-0.496-0.077-0.805c-0.131-1.061-0.266-2.158,0.323-2.824
										c0.264-0.298,0.633-0.462,1.039-0.462h7.019c1.77,0,2.696,3.04,2.696,4.091v2.235
										C163.874,135.975,162.614,137.225,161.178,137.225z M154.81,135.225h6.368c0.313,0,0.696-0.311,0.696-0.674v-2.235
										c0-0.554-0.496-1.785-0.827-2.091h-6.363c0.01,0.324,0.064,0.764,0.099,1.042c0.05,0.402,0.092,0.776,0.092,1.049v2.235
										C154.874,134.794,154.846,135.225,154.81,135.225z"/>
								</g>
								<g>
									<path fill="#394147" d="M175.889,137.225h-6.754c-0.662,0-1.663,0-2.02-0.807c-0.321-0.726,0.204-1.304,0.486-1.614
										c0.085-0.093,0.22-0.241,0.272-0.328v-2.16c-0.018-0.082-0.184-0.42-0.293-0.645c-0.384-0.786-0.862-1.764-0.325-2.624
										c0.341-0.546,0.973-0.823,1.879-0.823h6.754c1.317,0,1.985,1.376,1.985,4.091v2.235
										C177.874,136.325,177.206,137.225,175.889,137.225z M169.733,135.225h6.099c0.021-0.108,0.042-0.307,0.042-0.674v-2.235
										c0-1.096-0.132-1.794-0.246-2.091h-6.493c-0.007,0-0.014,0-0.02,0c0.077,0.188,0.186,0.41,0.263,0.568
										c0.255,0.522,0.496,1.015,0.496,1.523v2.235C169.874,134.798,169.818,135.023,169.733,135.225z"/>
								</g>
								<g>
									<path fill="#394147" d="M181.874,135.225h-5c-0.553,0-1-0.448-1-1s0.447-1,1-1h5c0.553,0,1,0.448,1,1
										S182.427,135.225,181.874,135.225z"/>
								</g>
								<g>
									<path fill="#394147" d="M168.874,135.225h-6c-0.553,0-1-0.448-1-1s0.447-1,1-1h6c0.553,0,1,0.448,1,1
										S169.427,135.225,168.874,135.225z"/>
								</g>
								<g>
									<path fill="#394147" d="M169.874,142.225h-5c-0.553,0-1-0.448-1-1v-3c0-0.552,0.447-1,1-1s1,0.448,1,1v2h4
										c0.553,0,1,0.448,1,1S170.427,142.225,169.874,142.225z"/>
								</g>
								<g>
									<path fill="#394147" d="M177.589,149.614c-0.06,0-0.119-0.007-0.179-0.021c-5.863-1.428-11.093-1.446-11.145-1.446
										c-0.414,0-0.75-0.336-0.75-0.75s0.336-0.75,0.75-0.75c0.22,0,5.453,0.017,11.5,1.489c0.402,0.098,0.649,0.504,0.551,0.906
										C178.233,149.385,177.927,149.614,177.589,149.614z"/>
								</g>
							</g>
							<g>
								<path fill="#FFFFFF" d="M172.874,163.225v-9.878c0,0,5-1.121,7-2.049v11.927"/>
								<path fill="#394147" d="M179.874,164.225c-0.553,0-1-0.447-1-1v-10.47c-1.684,0.569-3.854,1.112-5,1.386v9.084
									c0,0.553-0.447,1-1,1s-1-0.447-1-1v-9.878c0-0.468,0.324-0.873,0.781-0.976c0.049-0.011,4.919-1.109,6.798-1.98
									c0.312-0.144,0.671-0.12,0.959,0.064c0.288,0.184,0.462,0.502,0.462,0.843v11.927
									C180.874,163.777,180.427,164.225,179.874,164.225z"/>
							</g>
							<g>
								<polygon fill="#FFFFFF" points="176.61,163.225 170.255,163.225 170.175,167.379 176.232,163.554 181.874,167.545 
									181.874,163.488 								"/>
								<path fill="#394147" d="M181.874,168.545c-0.203,0-0.405-0.062-0.577-0.184l-5.096-3.604l-5.492,3.468
									c-0.312,0.196-0.705,0.206-1.025,0.025s-0.516-0.522-0.509-0.891l0.08-4.154c0.011-0.544,0.455-0.98,1-0.98h6.355
									l5.313,0.265c0.532,0.027,0.95,0.466,0.95,0.999v4.057c0,0.374-0.208,0.717-0.54,0.888
									C182.188,168.508,182.031,168.545,181.874,168.545z M179.089,164.35l1.785,1.263v-1.173L179.089,164.35z M171.235,164.225
									l-0.025,1.319l2.089-1.319H171.235z"/>
							</g>
							<g>
								<path fill="#394147" d="M176.61,171.225c-0.251,0-0.485-0.195-0.625-0.404l-3.152-4.78c-0.229-0.345-0.135-0.828,0.21-1.057
									c0.346-0.23,0.811-0.143,1.04,0.201l2.499,3.758l2.303-3.787c0.214-0.354,0.675-0.468,1.03-0.252
									c0.354,0.215,0.467,0.676,0.251,1.03l-2.915,4.862c-0.133,0.219-0.369,0.429-0.626,0.429
									C176.62,171.225,176.615,171.225,176.61,171.225z"/>
							</g>
							<g>
								<path fill="#E0E8ED" d="M159.874,165.27c0,0-10.626,32.786-32.854,0l-0.625,3.479c0,0,15.479,29.054,33.479,5.541V165.27z"
									/>
								<path fill="#394147" d="M145.256,184.474C145.256,184.474,145.256,184.474,145.256,184.474
									c-11.483,0-19.412-14.632-19.744-15.254c-0.105-0.198-0.142-0.427-0.102-0.647l0.625-3.479
									c0.072-0.4,0.379-0.717,0.776-0.802c0.401-0.084,0.809,0.274,1.036,0.609c6.357,9.378,12.269,14.325,17.567,14.325
									c0.001,0,0.001,0,0.002,0c8.903,0,13.461-13.933,13.506-14.072c0.151-0.468,0.618-0.856,1.107-0.775
									c0.486,0.076,0.844,0.399,0.844,0.891v9.021c0,0.22-0.072,0.434-0.206,0.607
									C155.804,181.252,150.618,184.474,145.256,184.474z M127.442,168.573c1.166,2.038,8.368,13.9,17.813,13.9
									c4.634,0,9.215-2.867,13.618-8.524v-3.813c-2.315,4.502-6.727,11.089-13.457,11.089h-0.002
									c-5.591,0-11.584-4.572-17.836-13.22L127.442,168.573z"/>
							</g>
							<g>
								<path fill="#FFFFFF" d="M127.002,165.27l-0.634,3.479c-11.157,0.978-12.637-4.023-12.637-4.023L127.002,165.27z"/>
								<path fill="#394147" d="M123.612,169.626c-9.109,0-10.544-4.496-10.6-4.688c-0.069-0.232-0.021-0.483,0.127-0.674
									c0.149-0.19,0.375-0.312,0.622-0.288l13.271,0.544c0.218,0.009,0.42,0.111,0.556,0.28c0.136,0.17,0.19,0.39,0.152,0.604
									l-0.634,3.479c-0.061,0.332-0.336,0.583-0.673,0.612C125.453,169.582,124.504,169.626,123.612,169.626z M115.144,165.534
									c1.001,1.068,3.329,2.592,8.469,2.592c0.675,0,1.387-0.026,2.121-0.079l0.376-2.063L115.144,165.534z"/>
							</g>
						</g>
					</g>
					<g>
						<path fill="#394147" d="M160.853,133.133c-0.414,0-0.75-0.336-0.75-0.75v-0.761c0-0.414,0.336-0.75,0.75-0.75
							s0.75,0.336,0.75,0.75v0.761C161.603,132.797,161.267,133.133,160.853,133.133z"/>
					</g>
					<g>
						<path fill="#394147" d="M175.052,133.133c-0.414,0-0.75-0.336-0.75-0.75v-0.761c0-0.414,0.336-0.75,0.75-0.75
							s0.75,0.336,0.75,0.75v0.761C175.802,132.797,175.466,133.133,175.052,133.133z"/>
					</g>
				</g>
			</g>
			<g>
				<path fill="#78909C" d="M167.985,0.365l11.629,0.022c0.75,0,1.391,0.267,1.924,0.798c0.532,0.533,0.799,1.182,0.799,1.946v4.363
					c0,0.75-0.267,1.392-0.799,1.924c-0.533,0.532-1.174,0.798-1.924,0.798h-6.163c-0.239,0-0.446,0.087-0.618,0.259
					c-0.173,0.173-0.259,0.379-0.259,0.619v0.944h-1.845v-0.944c0-0.765,0.266-1.409,0.799-1.935
					c0.531-0.524,1.173-0.787,1.923-0.787h6.163c0.24,0,0.446-0.086,0.619-0.259c0.172-0.173,0.259-0.379,0.259-0.619V3.132
					c0-0.24-0.087-0.446-0.259-0.619c-0.173-0.172-0.379-0.258-0.619-0.258h-11.629V0.365z M172.574,16.561h-1.845v-1.845h1.845
					V16.561z"/>
			</g>
			<g>
				<path fill="#78909C" d="M83.384,155.1l11.629,0.022c0.75,0,1.391,0.267,1.924,0.798c0.532,0.533,0.799,1.182,0.799,1.946v4.363
					c0,0.75-0.267,1.392-0.799,1.924c-0.533,0.532-1.174,0.798-1.924,0.798H88.85c-0.239,0-0.446,0.087-0.618,0.259
					c-0.173,0.173-0.259,0.379-0.259,0.619v0.944h-1.845v-0.944c0-0.765,0.266-1.409,0.799-1.935
					c0.531-0.524,1.173-0.787,1.923-0.787h6.163c0.24,0,0.446-0.086,0.619-0.259c0.172-0.173,0.259-0.379,0.259-0.619v-4.363
					c0-0.24-0.087-0.446-0.259-0.619c-0.173-0.172-0.379-0.258-0.619-0.258H83.384V155.1z M87.973,171.295h-1.845v-1.845h1.845
					V171.295z"/>
			</g>
			<g>
				<path fill="#78909C" d="M224.666,63.518l-1.4-0.025l0.072-4l1.4,0.025L224.666,63.518z M224.811,55.52l-1.4-0.025l0.072-4
					l1.4,0.025L224.811,55.52z M224.955,47.521l-1.4-0.025l0.072-3.999l1.4,0.025L224.955,47.521z M225.101,39.521l-1.4-0.024
					l0.02-1.105c0.027-1.175,0.515-2.263,1.373-3.069l0.959,1.021c-0.583,0.547-0.914,1.285-0.932,2.077L225.101,39.521z
					 M256.29,35.766l-2.979-0.023l0.012-1.4l2.979,0.023L256.29,35.766z M249.311,35.711l-4-0.032l0.012-1.4l4,0.032L249.311,35.711
					z M241.312,35.647l-4-0.031l0.012-1.4l4,0.031L241.312,35.647z M233.312,35.584l-4-0.032l0.012-1.4l4,0.032L233.312,35.584z"/>
			</g>
			<g>
				<g>
					<path fill="#78909C" d="M29.473,113.042l-1.4-0.034l0.013-0.523l1.4,0.034L29.473,113.042z M29.582,108.52l-1.4-0.033
						l0.096-3.999l1.4,0.033L29.582,108.52z M29.774,100.522l-1.4-0.034l0.097-3.999l1.4,0.034L29.774,100.522z M29.968,92.524
						l-1.4-0.033l0.029-1.223c-0.001-1.019,0.215-2.022,0.643-2.965l1.275,0.578c-0.345,0.76-0.519,1.568-0.518,2.403L29.968,92.524
						z M32.855,86.248l-0.725-1.198c1.134-0.685,2.433-1.047,3.757-1.047h0.433v1.4h-0.433
						C34.819,85.402,33.771,85.694,32.855,86.248z M84.32,85.402h-4v-1.4h4V85.402z M76.32,85.402h-4v-1.4h4V85.402z M68.32,85.402
						h-4v-1.4h4V85.402z M60.32,85.402h-4v-1.4h4V85.402z M52.32,85.402h-4v-1.4h4V85.402z M44.32,85.402h-4v-1.4h4V85.402z"/>
				</g>
				<g>
					<g>
						<g>
							<path fill="#78909C" d="M24.738,161.796H0v-66.27h24.738V161.796z M1.4,160.396h21.938V96.926H1.4V160.396z"/>
						</g>
					</g>
					<g>
						<g>
							<path fill="#78909C" d="M49.059,162.006H23.551v-48.983h25.508V162.006z M24.951,160.605h22.707v-46.182H24.951V160.605z"/>
						</g>
					</g>
				</g>
				<g>
					<g>
						<rect x="3.879" y="100.148" fill="#78909C" width="3.395" height="1.4"/>
					</g>
					<g>
						<rect x="10.672" y="100.148" fill="#78909C" width="3.395" height="1.4"/>
					</g>
					<g>
						<rect x="17.465" y="100.148" fill="#78909C" width="3.395" height="1.4"/>
					</g>
				</g>
				<g>
					<g>
						<rect x="3.879" y="106.212" fill="#78909C" width="3.395" height="1.4"/>
					</g>
					<g>
						<rect x="10.672" y="106.212" fill="#78909C" width="3.395" height="1.4"/>
					</g>
					<g>
						<rect x="17.465" y="106.212" fill="#78909C" width="3.395" height="1.4"/>
					</g>
				</g>
				<g>
					<g>
						<rect x="3.879" y="112.276" fill="#78909C" width="3.395" height="1.4"/>
					</g>
					<g>
						<rect x="10.672" y="112.276" fill="#78909C" width="3.395" height="1.4"/>
					</g>
					<g>
						<rect x="17.465" y="112.276" fill="#78909C" width="3.395" height="1.4"/>
					</g>
				</g>
				<g>
					<g>
						<rect x="3.879" y="118.34" fill="#78909C" width="3.395" height="1.4"/>
					</g>
					<g>
						<rect x="10.672" y="118.34" fill="#78909C" width="3.395" height="1.4"/>
					</g>
					<g>
						<rect x="17.465" y="118.34" fill="#78909C" width="3.395" height="1.4"/>
					</g>
				</g>
				<g>
					<g>
						<rect x="3.879" y="124.404" fill="#78909C" width="3.395" height="1.4"/>
					</g>
					<g>
						<rect x="10.672" y="124.404" fill="#78909C" width="3.395" height="1.4"/>
					</g>
					<g>
						<rect x="17.465" y="124.404" fill="#78909C" width="3.395" height="1.4"/>
					</g>
				</g>
				<g>
					<g>
						<rect x="3.879" y="130.468" fill="#78909C" width="3.395" height="1.4"/>
					</g>
					<g>
						<rect x="10.672" y="130.468" fill="#78909C" width="3.395" height="1.4"/>
					</g>
					<g>
						<rect x="17.465" y="130.468" fill="#78909C" width="3.395" height="1.4"/>
					</g>
				</g>
				<g>
					<g>
						<rect x="3.879" y="136.533" fill="#78909C" width="3.395" height="1.4"/>
					</g>
					<g>
						<rect x="10.672" y="136.533" fill="#78909C" width="3.395" height="1.4"/>
					</g>
					<g>
						<rect x="17.465" y="136.533" fill="#78909C" width="3.395" height="1.4"/>
					</g>
				</g>
				<g>
					<g>
						<rect x="3.879" y="142.597" fill="#78909C" width="3.395" height="1.4"/>
					</g>
					<g>
						<rect x="10.672" y="142.597" fill="#78909C" width="3.395" height="1.4"/>
					</g>
					<g>
						<rect x="17.465" y="142.597" fill="#78909C" width="3.395" height="1.4"/>
					</g>
				</g>
				<g>
					<g>
						<rect x="3.879" y="148.661" fill="#78909C" width="3.395" height="1.4"/>
					</g>
					<g>
						<rect x="10.672" y="148.661" fill="#78909C" width="3.395" height="1.4"/>
					</g>
					<g>
						<rect x="17.465" y="148.661" fill="#78909C" width="3.395" height="1.4"/>
					</g>
				</g>
				<g>
					<g>
						<rect x="3.879" y="154.725" fill="#78909C" width="3.395" height="1.4"/>
					</g>
					<g>
						<rect x="10.672" y="154.725" fill="#78909C" width="3.395" height="1.4"/>
					</g>
					<g>
						<rect x="17.465" y="154.725" fill="#78909C" width="3.395" height="1.4"/>
					</g>
				</g>
				<g>
					<g>
						<rect x="28.772" y="118.34" fill="#78909C" width="15.513" height="1.4"/>
					</g>
					<g>
						<rect x="28.772" y="124.404" fill="#78909C" width="15.513" height="1.4"/>
					</g>
					<g>
						<rect x="28.772" y="130.468" fill="#78909C" width="15.513" height="1.4"/>
					</g>
					<g>
						<rect x="28.772" y="136.533" fill="#78909C" width="15.513" height="1.4"/>
					</g>
					<g>
						<rect x="28.772" y="142.597" fill="#78909C" width="15.513" height="1.4"/>
					</g>
					<g>
						<rect x="28.772" y="148.661" fill="#78909C" width="15.513" height="1.4"/>
					</g>
				</g>
			</g>
			<g>
				<g>
					<path fill="#ECEFF1" d="M279.832,37.525c0,1.432-1.161,2.592-2.592,2.592h-16.493c-1.432,0-2.592-1.161-2.592-2.592V13.542
						c0-1.432,1.161-2.592,2.592-2.592h16.493c1.432,0,2.592,1.161,2.592,2.592V37.525z"/>
					<path fill="#78909C" d="M277.239,40.818h-16.492c-1.815,0-3.293-1.477-3.293-3.292V13.542c0-1.815,1.478-3.292,3.293-3.292
						h16.492c1.815,0,3.293,1.477,3.293,3.292v23.983C280.532,39.341,279.055,40.818,277.239,40.818z M260.747,11.65
						c-1.044,0-1.893,0.849-1.893,1.892v23.983c0,1.043,0.849,1.892,1.893,1.892h16.492c1.044,0,1.893-0.849,1.893-1.892V13.542
						c0-1.043-0.849-1.892-1.893-1.892H260.747z"/>
				</g>
				<g>
					<rect x="263.059" y="16.052" fill="#78909C" width="2.626" height="1.024"/>
				</g>
				<g>
					<rect x="263.059" y="22.459" fill="#78909C" width="2.626" height="1.024"/>
				</g>
				<g>
					<rect x="263.059" y="28.866" fill="#78909C" width="2.626" height="1.024"/>
				</g>
				<g>
					<rect x="263.059" y="35.273" fill="#78909C" width="2.626" height="1.024"/>
				</g>
				<g>
					<rect x="267.995" y="16.052" fill="#78909C" width="6.932" height="1.024"/>
				</g>
				<g>
					<rect x="267.995" y="22.459" fill="#78909C" width="6.932" height="1.024"/>
				</g>
				<g>
					<rect x="267.995" y="28.866" fill="#78909C" width="6.932" height="1.024"/>
				</g>
				<g>
					<rect x="267.995" y="35.273" fill="#78909C" width="6.932" height="1.024"/>
				</g>
				<g>
					<rect x="262.386" y="9.542" fill="#ECEFF1" width="13.992" height="3.186"/>
					<path fill="#78909C" d="M277.077,13.428h-15.392V8.842h15.392V13.428z M263.086,12.027h12.591v-1.785h-12.591V12.027z"/>
				</g>
			</g>
			<g>
				<g>
					<g>
						<path fill="#78909C" d="M101.232,16.203c-0.811,0-1.637-0.247-2.455-0.732c-3.368-2.001-5.609-7.059-5.703-7.273l-0.357-0.818
							l0.88-0.153c0.106-0.018,2.646-0.453,5.338-0.453c2.79,0,4.723,0.477,5.744,1.418c2.262,2.083,1.12,4.844,0.199,6.013
							C104.857,14.24,103.538,16.203,101.232,16.203z M94.764,8.47c0.756,1.467,2.509,4.478,4.729,5.796
							c0.6,0.356,1.185,0.537,1.74,0.537c1.56,0,2.502-1.402,2.511-1.417c0.109-0.143,1.857-2.442-0.014-4.165
							c-0.519-0.478-1.771-1.048-4.795-1.048C97.319,8.173,95.728,8.343,94.764,8.47z"/>
					</g>
					<g>
						<path fill="#ECEFF1" d="M112.817,9.096l12.316,3.621c0.079,0.26,0.12,0.429,0.132,0.48l0,0.001l0.845-0.193l0.144,0.042
							c-0.007-0.024-0.015-0.046-0.022-0.07l0.317-0.072c-0.028-0.123-2.978-12.355-17.223-12.202l-0.434,0.005l-2.428,5.839
							l5.911,3.067l0.307-0.591L112.817,9.096z"/>
						<path fill="#78909C" d="M124.75,14.033l-0.165-0.673c-0.004-0.017-0.011-0.044-0.021-0.081l-11.544-3.394l-0.348,0.671
							l-7.104-3.685l2.854-6.859L109.59,0c14.65,0,17.614,12.625,17.643,12.752l0.15,0.679l-0.302,0.068l0.121,0.493l-1.11-0.267
							L124.75,14.033z M113.086,8.445l12.48,3.669C124.558,9.342,120.694,1.4,109.59,1.4l-0.229,0.001l-2.004,4.819l4.719,2.448
							l0.313-0.604L113.086,8.445z"/>
					</g>
					<g>
						<path fill="#ECEFF1" d="M118.712,30.399l-0.514-1.177l0.018-0.013l-12.041-6.835l0.419-0.805l-5.635-2.933l-3.693,5.92
							l0.254,0.357C97.599,25.026,105.662,36.098,118.712,30.399z"/>
						<path fill="#78909C" d="M111.359,32.729C111.359,32.729,111.359,32.729,111.359,32.729c-9.022,0-14.357-7.334-14.41-7.409
							l-0.524-0.738l4.283-6.865l6.83,3.555l-0.431,0.827l12.384,7.029l-0.43,0.322l0.572,1.311l-0.642,0.28
							C116.428,32.161,113.859,32.729,111.359,32.729z M98.106,24.53c0.322,0.43,5.233,6.798,13.252,6.798h0.001
							c2.099,0,4.257-0.438,6.427-1.301l-0.149-0.342l-12.395-7.036l0.407-0.782l-4.439-2.311L98.106,24.53z"/>
					</g>
					<g>
						<path fill="#ECEFF1" d="M112.947,8.473l-7.062,14.512l19.071,11.524c0,0,10.763,6.964,23.81,0.369
							c0,0-0.263-11.518-12.893-17.837C123.243,10.722,112.947,8.473,112.947,8.473z"/>
						<path fill="#78909C" d="M137.179,38.417c-0.001,0-0.001,0-0.002,0c-7.384,0-12.392-3.184-12.601-3.319l-19.601-11.844
							l7.583-15.582l0.538,0.117c0.104,0.023,10.526,2.341,23.09,8.626c12.857,6.433,13.276,18.328,13.279,18.447l0.01,0.441
							l-0.395,0.199C145.257,37.437,141.252,38.417,137.179,38.417z M106.794,22.717l18.524,11.194
							c0.065,0.042,4.906,3.105,11.858,3.106c0.001,0,0.002,0,0.002,0c3.705,0,7.354-0.859,10.854-2.556
							c-0.214-2.117-1.76-11.434-12.473-16.793c-10.8-5.403-19.967-7.831-22.228-8.384L106.794,22.717z"/>
					</g>
					<g>
						<path fill="#78909C" d="M133.31,32.847c-2.45,0-4.633-1.556-5.434-3.873c-0.501-1.451-0.407-3.01,0.265-4.391
							c0.672-1.38,1.841-2.417,3.292-2.917c0.607-0.21,1.239-0.316,1.877-0.316c2.449,0,4.632,1.557,5.433,3.873
							c0.501,1.451,0.407,3.01-0.265,4.391c-0.672,1.38-1.841,2.417-3.292,2.918C134.578,32.741,133.946,32.847,133.31,32.847z
							 M133.31,22.749c-0.481,0-0.96,0.081-1.42,0.24c-1.098,0.379-1.981,1.163-2.49,2.207c-0.508,1.044-0.579,2.224-0.199,3.321
							c0.604,1.752,2.256,2.93,4.109,2.93c0.481,0,0.959-0.081,1.419-0.239c1.098-0.379,1.981-1.163,2.49-2.208
							c0.508-1.044,0.579-2.224,0.199-3.321C136.813,23.926,135.162,22.749,133.31,22.749z"/>
					</g>
					<g>
						
							<rect x="105.932" y="16.922" transform="matrix(-0.4376 0.8992 -0.8992 -0.4376 180.0145 -77.2162)" fill="#78909C" width="16.45" height="1.538"/>
					</g>
				</g>
			</g>
			<g>
				<path fill="#78909C" d="M218.371,83.518l13.97,0.027c0.9,0,1.671,0.32,2.311,0.959c0.639,0.64,0.959,1.419,0.959,2.338v5.241
					c0,0.901-0.32,1.672-0.959,2.311c-0.64,0.64-1.41,0.959-2.311,0.959h-7.403c-0.289,0-0.536,0.104-0.743,0.312
					c-0.208,0.207-0.312,0.455-0.312,0.742v1.136h-2.215v-1.136c0-0.918,0.319-1.692,0.959-2.323
					c0.639-0.631,1.409-0.946,2.311-0.946h7.403c0.288,0,0.536-0.103,0.743-0.311c0.207-0.207,0.311-0.454,0.311-0.743v-5.241
					c0-0.288-0.104-0.536-0.311-0.743s-0.455-0.312-0.743-0.312h-13.97V83.518z M223.883,102.973h-2.215v-2.216h2.215V102.973z"/>
			</g>
			<g>
				<g>
					<g>
						<path fill="#78909C" d="M311.701,104.193c-8.275,0-15.008-6.733-15.008-15.008s6.732-15.008,15.008-15.008
							s15.009,6.733,15.009,15.008S319.977,104.193,311.701,104.193z M311.701,75.577c-7.503,0-13.607,6.104-13.607,13.608
							s6.104,13.608,13.607,13.608c7.504,0,13.608-6.104,13.608-13.608S319.205,75.577,311.701,75.577z"/>
					</g>
					<g>
						<rect x="311.326" y="103.493" fill="#78909C" width="1.4" height="2.542"/>
					</g>
					<g>
						<path fill="#78909C" d="M315.949,123.704h-7.608v-18.369h7.608V123.704z M309.741,122.304h4.808v-15.568h-4.808V122.304z"/>
					</g>
					<g>
						<path fill="#78909C" d="M315.949,111.11h-7.608v-5.775h7.608V111.11z M309.741,109.71h4.808v-2.975h-4.808V109.71z"/>
					</g>
				</g>
				<g>
					<g>
						<path fill="#78909C" d="M311.673,87.6c-2.385,0-4.325-1.941-4.325-4.326s1.94-4.326,4.325-4.326
							c2.386,0,4.326,1.941,4.326,4.326S314.059,87.6,311.673,87.6z M311.673,80.348c-1.613,0-2.925,1.313-2.925,2.926
							s1.312,2.926,2.925,2.926s2.926-1.313,2.926-2.926S313.286,80.348,311.673,80.348z"/>
					</g>
					<g>
						<path fill="#78909C" d="M318.653,98.853h-13.977l-0.204-3.774c-0.001-3.948,3.18-7.129,7.09-7.129
							c3.624,0,6.654,2.712,7.049,6.31c0.027,0.257,0.042,0.518,0.042,0.782V98.853z M306.003,97.452h11.25v-2.411
							c0-0.212-0.011-0.422-0.034-0.629c-0.316-2.886-2.748-5.062-5.656-5.062c-3.138,0-5.69,2.553-5.69,5.691L306.003,97.452z"/>
					</g>
				</g>
			</g>
			<g>
				<g>
					<g>
						<path fill="#78909C" d="M51.805,36.825v0.566h-1.638v-0.566c0-0.216-0.078-0.402-0.233-0.556
							c-0.155-0.155-0.341-0.233-0.556-0.233H39.67c-0.217,0-0.402,0.078-0.556,0.233c-0.156,0.155-0.233,0.341-0.233,0.556v3.256
							c0,0.216,0.077,0.398,0.233,0.546c0.155,0.148,0.34,0.223,0.556,0.223h9.707c0.675,0,1.247,0.235,1.72,0.708
							c0.472,0.472,0.708,1.045,0.708,1.719v3.256c0,0.675-0.236,1.248-0.708,1.72c-0.473,0.472-1.045,0.708-1.72,0.708H39.67
							c-0.675,0-1.248-0.236-1.72-0.708c-0.472-0.472-0.708-1.045-0.708-1.72v-0.566h1.638v0.566c0,0.216,0.077,0.402,0.233,0.556
							c0.155,0.155,0.34,0.233,0.556,0.233h9.707c0.216,0,0.402-0.078,0.556-0.233c0.155-0.155,0.233-0.341,0.233-0.556v-3.256
							c0-0.216-0.078-0.397-0.233-0.546c-0.155-0.148-0.341-0.223-0.556-0.223H39.67c-0.675,0-1.248-0.235-1.72-0.708
							c-0.472-0.472-0.708-1.044-0.708-1.719v-3.256c0-0.675,0.236-1.247,0.708-1.72c0.472-0.472,1.045-0.708,1.72-0.708h9.707
							c0.675,0,1.247,0.236,1.72,0.708C51.569,35.578,51.805,36.151,51.805,36.825z"/>
					</g>
				</g>
				<g>
					<g>
						<rect x="42.967" y="32.106" fill="#78909C" width="1.645" height="3.078"/>
					</g>
				</g>
				<g>
					<g>
						<rect x="42.967" y="48.227" fill="#78909C" width="1.645" height="3.078"/>
					</g>
				</g>
			</g>
		</g>
		<g>
			<path fill="#384046" d="M111.759,239.047h5.279c0.576,0,1.066,0.203,1.473,0.608c0.404,0.405,0.607,0.896,0.607,1.472v5.12
				c0,0.576-0.203,1.066-0.607,1.472c-0.406,0.406-0.896,0.608-1.473,0.608h-5.279c-0.576,0-1.067-0.202-1.473-0.608
				c-0.405-0.405-0.607-0.896-0.607-1.472v-5.12c0-0.576,0.202-1.066,0.607-1.472S111.183,239.047,111.759,239.047z
				 M117.038,240.775h-5.279c-0.097,0-0.18,0.034-0.248,0.104c-0.07,0.069-0.104,0.152-0.104,0.248v5.12
				c0,0.096,0.034,0.179,0.104,0.248c0.068,0.069,0.151,0.104,0.248,0.104h5.279c0.096,0,0.179-0.035,0.248-0.104
				s0.104-0.152,0.104-0.248v-5.12c0-0.096-0.034-0.179-0.104-0.248S117.134,240.775,117.038,240.775z"/>
			<path fill="#384046" d="M134.798,239.047h1.84l-3.488,9.28h-1.407l-3.12-6.896l-2.943,6.896l-0.033-0.016l0.017,0.016h-1.392
				l-3.648-9.28h1.84l2.512,6.16l2.672-6.16h1.969l2.832,6.16L134.798,239.047z"/>
			<path fill="#384046" d="M145.935,239.047c0.575,0,1.066,0.203,1.471,0.608c0.406,0.405,0.609,0.896,0.609,1.472v7.2h-1.729v-7.2
				c0-0.096-0.035-0.179-0.104-0.248c-0.07-0.069-0.152-0.104-0.248-0.104h-5.281c-0.096,0-0.178,0.034-0.248,0.104
				c-0.068,0.069-0.104,0.152-0.104,0.248v7.2h-1.729v-9.28H145.935z"/>
			<path fill="#384046" d="M158.558,239.047h5.28c0.576,0,1.067,0.203,1.472,0.608c0.406,0.405,0.608,0.896,0.608,1.472v5.12
				c0,0.576-0.202,1.066-0.608,1.472c-0.404,0.406-0.896,0.608-1.472,0.608h-5.28c-0.576,0-1.066-0.202-1.472-0.608
				c-0.405-0.405-0.608-0.896-0.608-1.472v-5.12c0-0.576,0.203-1.066,0.608-1.472S157.981,239.047,158.558,239.047z
				 M163.838,240.775h-5.28c-0.096,0-0.178,0.034-0.248,0.104c-0.068,0.069-0.104,0.152-0.104,0.248v5.12
				c0,0.096,0.035,0.179,0.104,0.248c0.07,0.069,0.152,0.104,0.248,0.104h5.28c0.097,0,0.179-0.035,0.248-0.104
				s0.104-0.152,0.104-0.248v-5.12c0-0.096-0.035-0.179-0.104-0.248S163.935,240.775,163.838,240.775z"/>
			<path fill="#384046" d="M170.75,237.735c-0.097,0-0.179,0.034-0.248,0.104s-0.104,0.152-0.104,0.248v0.96h3.809v1.729h-3.809
				v7.552h-1.728v-5.12v-5.12c0-0.576,0.202-1.066,0.608-1.472c0.404-0.405,0.896-0.608,1.472-0.608h3.456v1.729H170.75z"/>
			<path fill="#384046" d="M178.351,237.735c-0.097,0-0.18,0.034-0.248,0.104c-0.07,0.069-0.104,0.152-0.104,0.248v0.96h3.808v1.729
				h-3.808v7.552h-1.728v-5.12v-5.12c0-0.576,0.201-1.066,0.607-1.472c0.405-0.405,0.896-0.608,1.473-0.608h3.455v1.729H178.351z"/>
			<path fill="#384046" d="M193.229,241.127v0.353h-1.728v-0.353c0-0.096-0.034-0.179-0.104-0.248
				c-0.068-0.069-0.151-0.104-0.248-0.104h-5.279c-0.096,0-0.179,0.034-0.248,0.104c-0.07,0.069-0.104,0.152-0.104,0.248v1.344
				c0,0.097,0.033,0.179,0.104,0.248c0.069,0.07,0.152,0.104,0.248,0.104h5.279c0.576,0,1.066,0.203,1.473,0.607
				c0.405,0.406,0.607,0.896,0.607,1.473v1.344c0,0.576-0.202,1.066-0.607,1.472c-0.406,0.406-0.896,0.608-1.473,0.608h-5.279
				c-0.576,0-1.066-0.202-1.473-0.608c-0.404-0.405-0.607-0.896-0.607-1.472v-0.352h1.729v0.352c0,0.096,0.033,0.179,0.104,0.248
				c0.069,0.069,0.152,0.104,0.248,0.104h5.279c0.097,0,0.18-0.035,0.248-0.104c0.07-0.069,0.104-0.152,0.104-0.248v-1.344
				c0-0.096-0.034-0.179-0.104-0.248c-0.068-0.069-0.151-0.104-0.248-0.104h-5.279c-0.576,0-1.066-0.202-1.473-0.607
				c-0.404-0.405-0.607-0.896-0.607-1.473v-1.344c0-0.576,0.203-1.066,0.607-1.472c0.406-0.405,0.896-0.608,1.473-0.608h5.279
				c0.576,0,1.066,0.203,1.473,0.608C193.027,240.061,193.229,240.551,193.229,241.127z"/>
			<path fill="#384046" d="M203.31,239.047c0.564,0,1.053,0.203,1.464,0.608s0.616,0.896,0.616,1.472v7.2h-1.729v-7.2
				c0-0.096-0.035-0.179-0.104-0.248c-0.07-0.069-0.152-0.104-0.248-0.104h-5.28c-0.096,0-0.179,0.034-0.248,0.104
				s-0.104,0.152-0.104,0.248v7.2h-1.728v-12.32h1.728v3.04H203.31z"/>
			<path fill="#384046" d="M209.758,239.047h5.28c0.576,0,1.066,0.203,1.472,0.608s0.608,0.896,0.608,1.472v5.12
				c0,0.576-0.203,1.066-0.608,1.472c-0.405,0.406-0.896,0.608-1.472,0.608h-5.28c-0.576,0-1.067-0.202-1.472-0.608
				c-0.406-0.405-0.608-0.896-0.608-1.472v-5.12c0-0.576,0.202-1.066,0.608-1.472C208.69,239.25,209.182,239.047,209.758,239.047z
				 M215.038,240.775h-5.28c-0.097,0-0.179,0.034-0.248,0.104s-0.104,0.152-0.104,0.248v5.12c0,0.096,0.035,0.179,0.104,0.248
				s0.151,0.104,0.248,0.104h5.28c0.096,0,0.178-0.035,0.248-0.104c0.068-0.069,0.104-0.152,0.104-0.248v-5.12
				c0-0.096-0.035-0.179-0.104-0.248C215.216,240.81,215.134,240.775,215.038,240.775z"/>
			<path fill="#384046" d="M221.614,239.047h5.184v1.729h-5.184c-0.097,0-0.18,0.034-0.248,0.104
				c-0.07,0.069-0.104,0.152-0.104,0.248v7.2h-1.728v-2.08v-5.12c0-0.576,0.202-1.066,0.607-1.472S221.038,239.047,221.614,239.047z
				"/>
			<path fill="#384046" d="M236.157,239.047c0.576,0,1.066,0.203,1.473,0.608c0.404,0.405,0.607,0.896,0.607,1.472v3.424h-7.712
				v1.696c0,0.096,0.034,0.179,0.104,0.248c0.068,0.069,0.151,0.104,0.248,0.104h7.359v1.728h-7.359
				c-0.576,0-1.067-0.202-1.473-0.608c-0.405-0.405-0.607-0.896-0.607-1.472v-5.12c0-0.576,0.202-1.066,0.607-1.472
				s0.896-0.608,1.473-0.608H236.157z M230.525,242.823h5.983v-1.696c0-0.096-0.034-0.179-0.104-0.248s-0.152-0.104-0.248-0.104
				h-5.279c-0.097,0-0.18,0.034-0.248,0.104c-0.07,0.069-0.104,0.152-0.104,0.248V242.823z"/>
			<path fill="#384046" d="M88.583,251.007h1.729v12.32h-7.36c-0.576,0-1.067-0.202-1.472-0.608
				c-0.406-0.405-0.608-0.896-0.608-1.472v-5.12c0-0.576,0.202-1.066,0.608-1.472c0.404-0.405,0.896-0.608,1.472-0.608h5.632
				V251.007z M82.951,261.6h5.28c0.096,0,0.178-0.035,0.248-0.104c0.068-0.069,0.104-0.152,0.104-0.248v-5.12
				c0-0.096-0.035-0.179-0.104-0.248c-0.07-0.069-0.152-0.104-0.248-0.104h-5.28c-0.097,0-0.179,0.034-0.248,0.104
				s-0.104,0.152-0.104,0.248v5.12c0,0.096,0.035,0.179,0.104,0.248S82.854,261.6,82.951,261.6z"/>
			<path fill="#384046" d="M100.198,254.047c0.576,0,1.067,0.203,1.473,0.608s0.607,0.896,0.607,1.472v3.424h-7.711v1.696
				c0,0.096,0.034,0.179,0.104,0.248s0.152,0.104,0.248,0.104h7.359v1.728h-7.359c-0.576,0-1.066-0.202-1.473-0.608
				c-0.404-0.405-0.607-0.896-0.607-1.472v-5.12c0-0.576,0.203-1.066,0.607-1.472c0.406-0.405,0.896-0.608,1.473-0.608H100.198z
				 M94.567,257.823h5.983v-1.696c0-0.096-0.034-0.179-0.104-0.248c-0.068-0.069-0.151-0.104-0.248-0.104h-5.279
				c-0.096,0-0.179,0.034-0.248,0.104s-0.104,0.152-0.104,0.248V257.823z"/>
			<path fill="#384046" d="M113.751,254.047h1.984l-5.121,9.28h-1.728l-5.12-9.28h2l3.984,7.328L113.751,254.047z"/>
			<path fill="#384046" d="M124.327,254.047c0.576,0,1.066,0.203,1.472,0.608s0.608,0.896,0.608,1.472v3.424h-7.713v1.696
				c0,0.096,0.035,0.179,0.104,0.248s0.151,0.104,0.248,0.104h7.36v1.728h-7.36c-0.576,0-1.067-0.202-1.472-0.608
				c-0.406-0.405-0.608-0.896-0.608-1.472v-5.12c0-0.576,0.202-1.066,0.608-1.472c0.404-0.405,0.896-0.608,1.472-0.608H124.327z
				 M118.694,257.823h5.984v-1.696c0-0.096-0.035-0.179-0.104-0.248c-0.07-0.069-0.152-0.104-0.248-0.104h-5.28
				c-0.097,0-0.179,0.034-0.248,0.104s-0.104,0.152-0.104,0.248V257.823z"/>
			<path fill="#384046" d="M129.063,256.127v-5.12h1.728v10.24c0,0.096,0.035,0.179,0.104,0.248s0.151,0.104,0.248,0.104h1.728
				v1.728h-1.728c-0.576,0-1.067-0.202-1.472-0.608c-0.406-0.405-0.608-0.896-0.608-1.472V256.127z"/>
			<path fill="#384046" d="M137.046,254.047h5.28c0.576,0,1.067,0.203,1.472,0.608c0.406,0.405,0.608,0.896,0.608,1.472v5.12
				c0,0.576-0.202,1.066-0.608,1.472c-0.404,0.406-0.896,0.608-1.472,0.608h-5.28c-0.576,0-1.066-0.202-1.472-0.608
				c-0.405-0.405-0.608-0.896-0.608-1.472v-5.12c0-0.576,0.203-1.066,0.608-1.472S136.47,254.047,137.046,254.047z M142.326,255.775
				h-5.28c-0.096,0-0.178,0.034-0.248,0.104c-0.068,0.069-0.104,0.152-0.104,0.248v5.12c0,0.096,0.035,0.179,0.104,0.248
				c0.07,0.069,0.152,0.104,0.248,0.104h5.28c0.097,0,0.179-0.035,0.248-0.104s0.104-0.152,0.104-0.248v-5.12
				c0-0.096-0.035-0.179-0.104-0.248S142.423,255.775,142.326,255.775z"/>
			<path fill="#384046" d="M154.534,254.047c0.576,0,1.066,0.203,1.472,0.608s0.608,0.896,0.608,1.472v5.12
				c0,0.576-0.203,1.066-0.608,1.472c-0.405,0.406-0.896,0.608-1.472,0.608h-5.633v3.68h-1.728v-12.96H154.534z M154.886,261.247
				v-5.12c0-0.096-0.035-0.179-0.104-0.248c-0.07-0.069-0.152-0.104-0.248-0.104h-5.28c-0.096,0-0.179,0.034-0.248,0.104
				s-0.104,0.152-0.104,0.248v5.12c0,0.096,0.035,0.179,0.104,0.248s0.152,0.104,0.248,0.104h5.28c0.096,0,0.178-0.035,0.248-0.104
				C154.851,261.426,154.886,261.343,154.886,261.247z"/>
			<path fill="#384046" d="M170.742,254.047c0.575,0,1.066,0.203,1.472,0.608s0.607,0.896,0.607,1.472v7.2h-1.711v-7.2
				c0-0.096-0.035-0.179-0.104-0.248s-0.157-0.104-0.264-0.104h-3.664c-0.097,0-0.179,0.034-0.248,0.104s-0.104,0.152-0.104,0.248
				v7.2h-1.728v-7.2c0-0.096-0.034-0.179-0.104-0.248c-0.068-0.069-0.151-0.104-0.248-0.104h-3.68c-0.096,0-0.179,0.034-0.248,0.104
				s-0.104,0.152-0.104,0.248v7.2h-1.729v-9.28H170.742z"/>
			<path fill="#384046" d="M182.934,254.047c0.576,0,1.067,0.203,1.472,0.608c0.406,0.405,0.608,0.896,0.608,1.472v3.424h-7.712
				v1.696c0,0.096,0.035,0.179,0.104,0.248c0.07,0.069,0.152,0.104,0.248,0.104h7.36v1.728h-7.36c-0.576,0-1.066-0.202-1.472-0.608
				c-0.405-0.405-0.608-0.896-0.608-1.472v-5.12c0-0.576,0.203-1.066,0.608-1.472s0.896-0.608,1.472-0.608H182.934z
				 M177.302,257.823h5.984v-1.696c0-0.096-0.035-0.179-0.104-0.248s-0.151-0.104-0.248-0.104h-5.28
				c-0.096,0-0.178,0.034-0.248,0.104c-0.068,0.069-0.104,0.152-0.104,0.248V257.823z"/>
			<path fill="#384046" d="M195.142,254.047c0.576,0,1.066,0.203,1.473,0.608c0.404,0.405,0.607,0.896,0.607,1.472v7.2h-1.728v-7.2
				c0-0.096-0.035-0.179-0.104-0.248s-0.152-0.104-0.248-0.104h-5.279c-0.096,0-0.18,0.034-0.248,0.104
				c-0.07,0.069-0.104,0.152-0.104,0.248v7.2h-1.728v-9.28H195.142z"/>
			<path fill="#384046" d="M205.525,255.775h-3.808v5.472c0,0.096,0.034,0.179,0.104,0.248s0.152,0.104,0.248,0.104h3.456v1.728
				h-3.456c-0.576,0-1.066-0.202-1.472-0.608c-0.405-0.405-0.608-0.896-0.608-1.472v-5.12v-5.12h1.729v3.04h3.808V255.775z"/>
			<path fill="#384046" d="M215.413,254.047h5.28c0.576,0,1.067,0.203,1.472,0.608c0.406,0.405,0.608,0.896,0.608,1.472v5.12
				c0,0.576-0.202,1.066-0.608,1.472c-0.404,0.406-0.896,0.608-1.472,0.608h-5.28c-0.576,0-1.066-0.202-1.472-0.608
				c-0.405-0.405-0.608-0.896-0.608-1.472v-5.12c0-0.576,0.203-1.066,0.608-1.472S214.837,254.047,215.413,254.047z
				 M220.693,255.775h-5.28c-0.096,0-0.178,0.034-0.248,0.104c-0.068,0.069-0.104,0.152-0.104,0.248v5.12
				c0,0.096,0.035,0.179,0.104,0.248c0.07,0.069,0.152,0.104,0.248,0.104h5.28c0.097,0,0.179-0.035,0.248-0.104
				s0.104-0.152,0.104-0.248v-5.12c0-0.096-0.035-0.179-0.104-0.248S220.79,255.775,220.693,255.775z"/>
			<path fill="#384046" d="M227.605,252.735c-0.097,0-0.179,0.034-0.248,0.104s-0.104,0.152-0.104,0.248v0.96h3.809v1.729h-3.809
				v7.552h-1.728v-5.12v-5.12c0-0.576,0.202-1.066,0.608-1.472c0.404-0.405,0.896-0.608,1.472-0.608h3.456v1.729H227.605z"/>
			<path fill="#384046" d="M235.206,252.735c-0.097,0-0.18,0.034-0.248,0.104c-0.07,0.069-0.104,0.152-0.104,0.248v0.96h3.808v1.729
				h-3.808v7.552h-1.728v-5.12v-5.12c0-0.576,0.201-1.066,0.607-1.472c0.405-0.405,0.896-0.608,1.473-0.608h3.455v1.729H235.206z"/>
			<path fill="#384046" d="M240.789,251.007h1.728v1.729h-1.728V251.007z M240.789,263.327v-9.28h1.728v9.28H240.789z"/>
			<path fill="#384046" d="M247.269,261.6h7.36v1.728h-7.36c-0.576,0-1.066-0.202-1.472-0.608c-0.405-0.405-0.608-0.896-0.608-1.472
				v-5.12c0-0.576,0.203-1.066,0.608-1.472s0.896-0.608,1.472-0.608h7.328v1.729h-7.328c-0.096,0-0.178,0.034-0.248,0.104
				c-0.068,0.069-0.104,0.152-0.104,0.248v5.12c0,0.096,0.035,0.179,0.104,0.248C247.091,261.564,247.173,261.6,247.269,261.6z"/>
			<path fill="#384046" d="M264.517,254.047c0.576,0,1.066,0.203,1.473,0.608c0.404,0.405,0.607,0.896,0.607,1.472v3.424h-7.712
				v1.696c0,0.096,0.034,0.179,0.104,0.248c0.068,0.069,0.151,0.104,0.248,0.104h7.359v1.728h-7.359
				c-0.576,0-1.067-0.202-1.473-0.608c-0.405-0.405-0.607-0.896-0.607-1.472v-5.12c0-0.576,0.202-1.066,0.607-1.472
				s0.896-0.608,1.473-0.608H264.517z M258.885,257.823h5.983v-1.696c0-0.096-0.034-0.179-0.104-0.248s-0.152-0.104-0.248-0.104
				h-5.279c-0.097,0-0.18,0.034-0.248,0.104c-0.07,0.069-0.104,0.152-0.104,0.248V257.823z"/>
		</g>
	</g>
	
		<text transform="matrix(1 0 0 1 133.2036 86.7081)" fill="#E6E7E8" font-family="'Orbitron-Black'" font-size="12" letter-spacing="1">Company</text>
	<path fill="none" stroke="#78909C" stroke-width="1.4" stroke-miterlimit="10" stroke-dasharray="4" d="M106.846,74.876
		l0.454-34.341c0.047-2.005,1.724-3.608,3.727-3.561l7,0.223"/>
</g>
</svg>
