<?xml version="1.0" encoding="utf-8"?>
<!-- Generator: Adobe Illustrator 19.2.0, SVG Export Plug-In . SVG Version: 6.00 Build 0)  -->
<svg version="1.1" id="Layer_1" xmlns="http://www.w3.org/2000/svg" xmlns:xlink="http://www.w3.org/1999/xlink" x="0px" y="0px"
	 viewBox="0 0 122.9 84" style="enable-background:new 0 0 122.9 84;" xml:space="preserve">
<style type="text/css">
	.st0{fill:none;}
	.st1{fill:#F8981D;}
	.st2{fill:#3A4248;}
	.st3{fill:#78909C;}
	.st4{fill:#D0D8DC;}
	.st5{fill:#263238;}
	.st6{fill:none;stroke:#D0D8DC;stroke-width:0;stroke-linecap:round;stroke-linejoin:round;}
	.st7{fill:#90A4AE;}
	.st8{fill:#E7E7E7;}
	.st9{fill:#394147;}
	.st10{fill:#F3F3F3;}
	.st11{fill:#CDCCCC;}
	.st12{fill:#FBAC35;}
	.st13{fill:#B0BEC5;}
	.st14{fill:#3D4349;}
	.st15{fill:#546E7A;}
	.st16{fill:#E0E8ED;}
	.st17{fill:#FFFFFF;}
	.st18{fill:#37474F;}
	.st19{fill:#ECEFF0;}
</style>
<g>
	<path class="st0" d="M69,57.1c-1.7,0.9-3.5,1.3-5.4,1.3c-2.1,0-4.1-0.6-6-1.7l3.5,4.5l4.8-0.2L69,57.1z"/>
	<path class="st0" d="M73,19.3c-1.8,1.1-6.5,3.9-11.5,7.2c-1.7,1.1-3.3,1.9-4.9,2.5l22.5-0.2L73,19.3z"/>
	<path class="st0" d="M102.3,29.2c-1.5,0.9-5,3-8.8,5.5c-1.1,0.7-2.2,1.3-3.3,1.7l16.7-0.2L102.3,29.2z"/>
	<path class="st0" d="M91.1,58.8l2.3,2.9l3.2-0.1l2-2.6c-1.1,0.5-2.3,0.7-3.5,0.7C93.7,59.7,92.4,59.4,91.1,58.8z"/>
	<path class="st0" d="M84.6,61.4l1.2-6.7c0-0.1,0.1-0.2,0.1-0.3c-1.7-2.3-3.1-5.3-3.9-8.7c-1.2,0.1-2.3-0.6-2.9-1.8
		c-1.1,3.2-2.6,6.1-4.3,8.3c0,0.1,0.1,0.1,0.1,0.2l1.5,8.3c1.7,0.4,3.4,0.9,4.9,1.5C82.3,61.9,83.4,61.6,84.6,61.4z"/>
	<path class="st0" d="M43.3,40.7c0.1,0.4,0.1,0.8,0.1,1.2c0,0.1,0,0.1,0,0.2c0.4,4.7,0.8,9.6,1.4,10.4c1.3,1.9,4.1,2.8,4.2,2.8
		c0.4,0.1,0.7,0.6,0.7,1c0,0.5-0.4,0.8-0.8,0.9c-6.3,1-10.1,1.8-12.7,2.5l0.4,1.7c2.1,0.5,4.1,1.2,5.8,2c2.5-1,5.3-1.8,8.2-2.4
		l1.6-8.7c0-0.2,0.1-0.3,0.2-0.5c-2.3-3-4-6.9-5.1-11.4c-0.1,0-0.3,0-0.4,0c-1.6,0-3-1.2-3.8-3c0,0.6,0.1,1.2,0.1,1.9
		C43.2,39.9,43.3,40.3,43.3,40.7z"/>
	<path class="st0" d="M27.9,62.1l0.7-0.7c-0.4,0-0.8,0.1-1.2,0.1c-0.1,0-0.2,0-0.3,0c-0.3,0-0.7,0-1.1,0l0.8,0.7L27.9,62.1z"/>
	<path class="st1" d="M105.2,61.1l-1.2-6.4c0,0,0,0,0-0.1c1.8-2.4,3.3-5.5,4.1-9.2c2.1,0.3,4-2.1,4-5.1c0-2.4-1.2-4.4-2.8-5
		c0.8-2.1,2.2-7.2-0.2-12.3c-0.1-0.2-0.2-0.5-0.3-0.7c-0.5-1.3-1.2-3-3.6-3.2c-1.7-3.2-6.1-5.6-10.3-5.6c-4.7,0-9.1,3.2-11.9,7.3
		c0.1-2.7-0.2-5.8-1.6-8.9c-0.1-0.3-0.3-0.6-0.4-0.9c-0.7-1.7-1.5-3.7-4.5-3.9c-2.1-4-7.6-7.1-13-7.1c-9,0-17,9.2-18.6,17.5
		c-1.1,5.7-0.2,9.2,0.5,10.9c-1.3,0.6-2.3,2.1-2.7,3.9c-0.2-2.6-0.5-4.9-0.8-6.7c-1.4-7.6-10.4-10.4-16.1-10.4c0,0,0,0,0,0
		c-5.6,0-10.2,2.4-12.9,6.7c-2,3.2-2.2,12.2-2.4,20.2c-0.1,4.6-0.2,9.4-0.7,10.5c-1.3,2.8-3.7,3.5-3.8,3.5c-0.4,0.1-0.7,0.5-0.7,1
		c0,0.5,0.3,0.9,0.8,0.9c0.4,0.1,6,1.3,11.7,2.2l-0.3,1.2c0,0.1,0,0.2,0,0.3c-6.8,1.3-12.4,4.7-15.1,8c-3.3,4.1-1.8,8.1-1.8,8.3
		c0.1,0.4,0.5,0.6,0.9,0.6c0.1,0,14.1,0.7,26,0.7c0,1.8,0.5,3.1,0.5,3.2c0.1,0.4,0.5,0.6,0.9,0.6c0.2,0,19.9,0.6,36.1,0.6
		c16.3,0,33,0,33,0c0.5,0,0.9-0.3,1-0.7c0-0.1,0.4-1.6,0.3-3.6c11.7,0,22.7,0,22.7,0c0.5,0,0.9-0.3,1-0.7c0.1-0.2,1.3-5.2-2.2-8.7
		C118.5,68.2,113.2,62.9,105.2,61.1z M96.9,82c-1.7,0-5.9,0-11.4,0v-6.7c0-0.6-0.4-1-1-1s-1,0.4-1,1V82c-4.5,0-9.7,0-15,0l-0.1-0.4
		c2.7-2.9,4.4-8,5.4-12l2.4-6.8c9.5,2.3,16,8.7,18.4,11.1C97.3,76.6,97.1,80.4,96.9,82z M19.3,62l0.8-2.9l5.8,5
		c-1.7,2.5-3.7,4.5-4.5,4.4C20.5,68.3,19.5,65.2,19.3,62z M11.5,53.6c0.5-1.1,0.7-3.7,0.8-7.9c0.7,0.9,1.6,1.4,2.5,1.4
		c0.9,3.8,2.5,6.9,4.5,9.2c-0.1,0-0.1,0-0.1,0c-0.3,0.1-0.6,0.4-0.7,0.7l-0.4,1.5c-3.4-0.6-6.9-1.2-9.1-1.7
		C9.9,56.1,10.8,55.1,11.5,53.6z M25.8,17.3C25.8,17.3,25.8,17.3,25.8,17.3c3.4,0,12.4,1.5,14,8.3c0,0.1-0.1,0.3,0,0.4
		c0.6,4.4,0.1,7.7-0.3,9.7l-6-9.2c-0.2-0.3-0.4-0.4-0.7-0.5c-0.3,0-0.6,0.1-0.8,0.3c0,0-4.7,5-9.5,8.1c-4.3,2.9-8.4,2.8-9.8,2.6
		c0.2-5.9,0.7-12,2-14.1C16.9,19.3,20.8,17.3,25.8,17.3z M46.9,17.8C48.3,10.3,55.5,2,63.5,2c5.4,0,10.1,3.4,11.4,6.5
		c0.2,0.4,0.5,0.6,0.9,0.6c2.2,0,2.6,1,3.3,2.7c0.1,0.3,0.3,0.7,0.4,1c2.5,5.3,1.3,10.8,0.4,13.4l-5.7-8.8c-0.3-0.4-0.9-0.6-1.3-0.3
		c-0.1,0-6,3.5-12.4,7.7c-5.3,3.5-10.4,3.6-13,3.3C46.9,27.1,45.7,23.8,46.9,17.8z M103.6,20.5c0.2,0.4,0.5,0.6,0.9,0.6
		c1.6,0,1.8,0.7,2.4,2c0.1,0.3,0.2,0.5,0.3,0.8c1.8,3.8,1.1,7.7,0.4,9.9l-4.2-6.5c-0.3-0.4-0.9-0.6-1.3-0.3c0,0-4.7,2.7-9.7,6.1
		c-2.7,1.8-5.4,2.4-7.4,2.6c0.1-0.5,0.1-1,0.1-1.6c0-2.8-1.3-5.2-3-5.9c0-0.1,0-0.2,0-0.3c1.1-5.8,6.8-12.2,12.8-12.2
		C99,15.5,102.6,18.1,103.6,20.5z M107.9,43.3c-0.3-0.2-0.6-0.2-0.9-0.1c-0.3,0.1-0.5,0.4-0.6,0.7c-1.6,8.1-6.2,13.8-11.3,13.8
		c-5.1,0-9.6-5.4-11.3-13.4c-0.1-0.3-0.3-0.6-0.6-0.7c-0.3-0.1-0.6-0.1-0.9,0c-0.1,0.1-0.3,0.1-0.4,0.1c-0.8,0-1.7-1.3-1.7-3.1
		c0-0.1,0-0.3,0-0.4c0.2,0,0.3,0,0.5,0c1.5,0,2.8-1,3.6-2.6c2,0,4-0.4,5.9-1.2c1.2-0.5,2.3-1,3.3-1.7c3.7-2.5,7.2-4.6,8.8-5.5
		l4.6,7.1l0.2,0.3c0.2,0.2,0.4,0.4,0.7,0.4c0.2,0.2,0.4,0.3,0.7,0.3c0.8,0,1.7,1.3,1.7,3.1s-0.9,3.1-1.7,3.1
		C108.2,43.4,108.1,43.4,107.9,43.3z M52.5,61.6l1.2-6.6l6.7,8.6l-3.8,10L52.5,61.6z M96.5,61.5l-0.9,1.2c-0.2,0.3-0.3,0.6-0.1,1
		l0.3,0.8H94l0.3-0.8c0.1-0.3,0.1-0.7-0.1-1l-0.8-1l-2.3-2.9c1.2,0.6,2.6,0.9,3.9,0.9c1.2,0,2.4-0.3,3.5-0.7L96.5,61.5z M76.4,60.7
		l-1.5-8.3c0-0.1,0-0.1-0.1-0.2c1.8-2.3,3.2-5.1,4.3-8.3c0.7,1.2,1.8,1.9,2.9,1.8c0.8,3.4,2.2,6.4,3.9,8.7c-0.1,0.1-0.1,0.2-0.1,0.3
		l-1.2,6.7c-1.1,0.2-2.3,0.5-3.3,0.8C79.7,61.6,78.1,61.1,76.4,60.7z M74.5,61.6l-4.2,12l-3.8-10l6.7-8.6L74.5,61.6z M63.8,81.9
		c-2.3,0-4.4-2.5-6-5.7l4.7-12.5c0.1-0.3,0.1-0.7-0.1-1l-1.2-1.5l-3.5-4.5c1.9,1.1,3.9,1.7,6,1.7c1.9,0,3.7-0.5,5.4-1.3l-3.1,4
		l-1.3,1.7c-0.2,0.3-0.3,0.6-0.1,1l4.8,12.9C67.9,79.6,66,81.9,63.8,81.9z M84.9,63.4l0.2,0.7c-0.3-0.2-0.7-0.3-1-0.5
		C84.4,63.5,84.6,63.4,84.9,63.4z M86.5,61.9l0.9-4.7l4.9,6.2l-1.6,4.2c-0.9-0.7-1.8-1.4-2.9-2L86.5,61.9z M95.5,66.5l0.8,6.3
		c-0.1-0.1-0.2-0.3-0.4-0.4c-0.5-0.5-1.1-1.1-1.9-1.8l0.3-4.1H95.5z M103.3,61.9l-3.1,8.7l-2.7-7.2l4.9-6.2L103.3,61.9z M46.8,30.1
		C46.8,30.1,46.9,30.1,46.8,30.1C46.9,30.1,46.9,30.1,46.8,30.1c0.1,0,0.2,0,0.2,0c0.7,0.1,1.5,0.1,2.4,0.1c2,0,4.5-0.3,7.2-1.3
		c1.6-0.6,3.2-1.4,4.9-2.5c5-3.3,9.6-6.1,11.5-7.2l6.1,9.5l0.1,0.2c0.2,0.3,0.4,0.4,0.7,0.4c0.2,0.2,0.4,0.3,0.7,0.3
		c1.1,0,2.4,1.7,2.4,4.2c0,2.5-1.3,4.2-2.4,4.2c-0.3,0-0.5-0.1-0.8-0.3c-0.3-0.2-0.6-0.2-0.9-0.1c-0.3,0.1-0.5,0.4-0.6,0.7
		c-2,10.5-8.1,17.8-14.8,17.8c-6.6,0-12.5-7-14.7-17.4c-0.1-0.3-0.3-0.6-0.6-0.7c-0.3-0.1-0.6-0.1-0.9,0c-0.2,0.1-0.4,0.2-0.7,0.2
		c-1.1,0-2.4-1.7-2.4-4.2C44.4,31.8,45.7,30.1,46.8,30.1z M34.6,62c-0.2,3.2-1.2,6.3-2,6.4c-0.7,0.1-2.5-2-3.9-4.4l5.1-4.9L34.6,62z
		 M38.6,64.8c-0.5-0.2-1.1,0.1-1.3,0.6c-0.1,0.2-0.1,0.4,0,0.6c-0.5,0.3-1,0.6-1.5,0.9c0.4-1.2,0.6-2.4,0.7-3.4
		c1.2,0.3,2.4,0.7,3.4,1.1c-0.3,0.1-0.5,0.3-0.8,0.4C38.8,64.9,38.6,64.8,38.6,64.8z M30.1,71.9c-1.5,1.8-2.2,3.7-2.6,5.3
		c0,0-0.1,0-0.1,0c-2.1,0-4-3.2-5.5-6.8c2-0.4,4.2-3.1,5.4-4.9c1,1.6,2.6,4,4.3,4.7C31,70.8,30.5,71.3,30.1,71.9z M27,61.5
		c0.1,0,0.2,0,0.3,0c0.5,0,0.9,0,1.2-0.1l-0.7,0.7l-0.6,0.5l-0.6-0.5l-0.8-0.7C26.3,61.5,26.7,61.5,27,61.5z M35.4,57
		c-0.1-0.2-0.2-0.4-0.4-0.5c2.1-2.4,3.7-5.7,4.7-9.6c0.8,0.1,1.5-0.2,2.1-0.7c0.4,4.1,0.8,6.6,1.4,7.6c0.6,0.9,1.4,1.6,2.3,2.1
		c-4.6,0.8-7.6,1.5-9.8,2L35.4,57z M39.9,44.9c-0.1,0-0.3-0.1-0.4-0.2c-0.3-0.2-0.6-0.2-0.9-0.1S38,45,37.9,45.3
		c-1.5,7.7-5.9,13-10.7,13c-4.8,0-9.1-5.1-10.6-12.7c-0.1-0.3-0.3-0.6-0.6-0.7c-0.3-0.1-0.6-0.1-0.9,0c-0.1,0.1-0.2,0.1-0.4,0.1
		c-0.7,0-1.5-1.2-1.5-2.9s0.8-2.9,1.5-2.9c0.2,0,0.4-0.1,0.6-0.2c2.2-0.2,5.1-0.9,8.1-2.9c3.7-2.5,7.3-5.9,8.9-7.5l6.5,10
		c0.2,0.3,0.6,0.5,0.9,0.5c0,0,0,0,0,0c0,0,0,0,0,0c0.7,0,1.5,1.2,1.5,2.9S40.6,44.9,39.9,44.9z M17.5,63.9c0.3,1.8,0.8,4,1.9,5.4
		c1,2.9,2.4,6.2,4.4,8.2c-9.3-0.1-19-0.5-21.7-0.6c-0.2-1.1-0.3-3.4,1.6-5.7C5.7,68.7,10.7,65.2,17.5,63.9z M31.6,73.1
		c2.8-3.5,9.8-8.2,19.2-10l1.3,3.8c0.6,2.3,1.6,5.6,3,8.6l0.5,1.3c0.1,0.2,0.3,0.4,0.5,0.5c1,1.8,2.1,3.4,3.4,4.6l0,0
		c-5.3,0-10.6-0.1-15.4-0.2c0-0.1,0.1-0.2,0.1-0.3v-6.2c0-0.6-0.4-1-1-1s-1,0.4-1,1v6.2c0,0.1,0,0.2,0.1,0.3
		c-6.1-0.1-11-0.3-12.8-0.3C29.1,80,28.8,76.6,31.6,73.1z M120.9,77.7c-1.4,0-4.5,0-8.5,0v-5c0-0.6-0.4-1-1-1s-1,0.4-1,1v5
		c-3.4,0-7.3,0-11.3,0l-1-7.1l1.3,3.4c0.1,0.4,0.5,0.6,0.9,0.6c0,0,0,0,0,0c0.4,0,0.8-0.3,0.9-0.7l3.8-10.8
		c7.3,1.8,12.2,6.7,14.1,8.6C121.1,73.6,121,76.4,120.9,77.7z M46.8,40.5c0.1,0,0.3,0,0.4,0c1.1,4.6,2.9,8.4,5.1,11.4
		c-0.1,0.1-0.2,0.3-0.2,0.5l-1.6,8.7c-2.9,0.6-5.6,1.4-8.2,2.4c-1.7-0.9-3.7-1.6-5.8-2l-0.4-1.7c2.6-0.6,6.4-1.5,12.7-2.5
		c0.5-0.1,0.8-0.5,0.8-0.9c0-0.5-0.3-0.9-0.7-1c0,0-2.9-0.9-4.2-2.8c-0.6-0.8-1-5.7-1.4-10.4c0-0.1,0-0.1,0-0.2c0-0.4,0-0.8-0.1-1.2
		c0-0.4-0.1-0.9-0.1-1.3c0-0.6-0.1-1.2-0.1-1.9C43.8,39.4,45.2,40.5,46.8,40.5z"/>
</g>
</svg>
