<?xml version="1.0" encoding="utf-8"?>
<!-- Generator: Adobe Illustrator 19.2.0, SVG Export Plug-In . SVG Version: 6.00 Build 0)  -->
<svg version="1.1" id="Layer_1" xmlns="http://www.w3.org/2000/svg" xmlns:xlink="http://www.w3.org/1999/xlink" x="0px" y="0px"
	 viewBox="0 0 119.9 94.5" style="enable-background:new 0 0 119.9 94.5;" xml:space="preserve">
<style type="text/css">
	.st0{fill:none;}
	.st1{fill:#F8981D;}
	.st2{fill:#3A4248;}
	.st3{fill:#78909C;}
	.st4{fill:#D0D8DC;}
	.st5{fill:#263238;}
	.st6{fill:none;stroke:#D0D8DC;stroke-width:0;stroke-linecap:round;stroke-linejoin:round;}
	.st7{fill:#90A4AE;}
	.st8{fill:#E7E7E7;}
	.st9{fill:#394147;}
	.st10{fill:#F3F3F3;}
	.st11{fill:#CDCCCC;}
	.st12{fill:#FBAC35;}
	.st13{fill:#B0BEC5;}
	.st14{fill:#3D4349;}
	.st15{fill:#546E7A;}
	.st16{fill:#E0E8ED;}
	.st17{fill:#FFFFFF;}
	.st18{fill:#37474F;}
	.st19{fill:#ECEFF0;}
</style>
<g>
	<circle class="st0" cx="97.9" cy="73.7" r="6.2"/>
	<path class="st1" d="M64.3,38.5h-7.9c-0.6,0-1,0.4-1,1v7.9c0,0.6,0.4,1,1,1h7.9c0.6,0,1-0.4,1-1v-7.9
		C65.3,38.9,64.9,38.5,64.3,38.5z M63.3,46.4h-5.9v-5.9h5.9V46.4z"/>
	<path class="st1" d="M49.6,50.9h-7.9c-0.6,0-1,0.4-1,1v7.9c0,0.6,0.4,1,1,1h7.9c0.6,0,1-0.4,1-1v-7.9
		C50.6,51.4,50.2,50.9,49.6,50.9z M48.6,58.9h-5.9v-5.9h5.9V58.9z"/>
	<path class="st1" d="M64.3,50.9h-7.9c-0.6,0-1,0.4-1,1v7.9c0,0.6,0.4,1,1,1h7.9c0.6,0,1-0.4,1-1v-7.9
		C65.3,51.4,64.9,50.9,64.3,50.9z M63.3,58.9h-5.9v-5.9h5.9V58.9z"/>
	<path class="st1" d="M49.6,63.4h-7.9c-0.6,0-1,0.4-1,1v7.9c0,0.6,0.4,1,1,1h7.9c0.6,0,1-0.4,1-1v-7.9
		C50.6,63.9,50.2,63.4,49.6,63.4z M48.6,71.3h-5.9v-5.9h5.9V71.3z"/>
	<path class="st1" d="M64.3,63.4h-7.9c-0.6,0-1,0.4-1,1v7.9c0,0.6,0.4,1,1,1h7.9c0.6,0,1-0.4,1-1v-7.9
		C65.3,63.9,64.9,63.4,64.3,63.4z M63.3,71.3h-5.9v-5.9h5.9V71.3z"/>
	<path class="st1" d="M73.2,44.5l-2.3,2.2c-0.4,0.4-0.4,1,0,1.4c0.2,0.2,0.5,0.3,0.7,0.3c0.2,0,0.5-0.1,0.7-0.3l2.3-2.2l2.2,2.2
		c0.2,0.2,0.5,0.3,0.7,0.3s0.5-0.1,0.7-0.3c0.4-0.4,0.4-1,0-1.4l-2.2-2.2l2.8-2.6c0.4-0.4,0.4-1,0-1.4s-1-0.4-1.4,0l-2.8,2.7
		L72,40.5c-0.4-0.4-1-0.4-1.4,0s-0.4,1,0,1.4L73.2,44.5z"/>
	<path class="st1" d="M73.2,55.8L70.9,58c-0.4,0.4-0.4,1,0,1.4c0.2,0.2,0.5,0.3,0.7,0.3c0.2,0,0.5-0.1,0.7-0.3l2.3-2.2l2.2,2.2
		c0.2,0.2,0.5,0.3,0.7,0.3s0.5-0.1,0.7-0.3c0.4-0.4,0.4-1,0-1.4l-2.2-2.2l2.8-2.6c0.4-0.4,0.4-1,0-1.4c-0.4-0.4-1-0.4-1.4,0
		l-2.8,2.7L72,51.8c-0.4-0.4-1-0.4-1.4,0s-0.4,1,0,1.4L73.2,55.8z"/>
	<path class="st1" d="M49.6,26.8C49.6,14.3,39.5,4.2,27,4.2S4.5,14.3,4.5,26.8c0,12.4,10.1,22.6,22.6,22.6S49.6,39.2,49.6,26.8z
		 M47.6,26.8c0,11.3-9.2,20.6-20.6,20.6S6.5,38.1,6.5,26.8S15.7,6.2,27,6.2S47.6,15.4,47.6,26.8z"/>
	<path class="st1" d="M26.1,15.1c0.6,0,1-0.4,1-1v-4c0-0.6-0.4-1-1-1s-1,0.4-1,1v4C25.1,14.6,25.6,15.1,26.1,15.1z"/>
	<path class="st1" d="M26.1,39.1c-0.6,0-1,0.4-1,1v4c0,0.6,0.4,1,1,1s1-0.4,1-1v-4C27.1,39.5,26.7,39.1,26.1,39.1z"/>
	<path class="st1" d="M44.4,27c0-0.6-0.4-1-1-1h-4c-0.6,0-1,0.4-1,1s0.4,1,1,1h4C44,28,44.4,27.5,44.4,27z"/>
	<path class="st1" d="M8.6,27c0,0.6,0.4,1,1,1h4c0.6,0,1-0.4,1-1s-0.4-1-1-1h-4C9,26,8.6,26.4,8.6,27z"/>
	<path class="st1" d="M23.5,25.8c-0.3,0.5-0.5,1.1-0.5,1.7c0,1.7,1.4,3.1,3.1,3.1s3.1-1.4,3.1-3.1c0-0.4-0.1-0.8-0.2-1.2l9.6-9.6
		c0.4-0.4,0.4-1,0-1.4s-1-0.4-1.4,0l-9.6,9.6c-0.4-0.3-1-0.4-1.5-0.4c-0.3,0-0.7,0.1-1,0.2l-4.2-3.7c-0.4-0.4-1-0.3-1.4,0.1
		c-0.4,0.4-0.3,1,0.1,1.4L23.5,25.8z M27.2,27.5c0,0.6-0.5,1.1-1.1,1.1S25,28.1,25,27.5c0-0.6,0.5-1.1,1.1-1.1S27.2,26.9,27.2,27.5z
		"/>
	<path class="st1" d="M119,68.9l-4.8-0.5c-0.7-2.7-1.2-4.1-1.6-4.8c0.5-0.6,1.8-1.8,2.9-2.7c0.2-0.2,0.3-0.5,0.3-0.7
		c0-0.3-0.1-0.6-0.3-0.8l-4.3-4c-0.4-0.3-0.9-0.4-1.3-0.1l-3.7,2.7l-3.8-1.7l-0.1-4.4c0-0.5-0.4-1-1-1l-6-0.2c-0.5,0-1,0.4-1,0.9
		l-0.5,5l-3.5,1.4L88,56.2v-26c0-3.6-2.9-6.5-6.5-6.5H53.3C51.8,10.4,40.5,0,26.8,0C12,0,0,12,0,26.8s12,26.8,26.8,26.8
		c1.3,0,2.5-0.1,3.7-0.3v21.5c0,3.6,2.9,6.5,6.5,6.5h44.6c0.4,0,0.7,0,1.1-0.1l-1.9,3.1c-0.2,0.4-0.2,0.8,0.1,1.2l3.7,4.5
		c0.3,0.4,1,0.5,1.4,0.2l3.8-2.9l3.5,1.3l0.1,5.1c0,0.3,0.1,0.5,0.3,0.7c0.2,0.2,0.4,0.3,0.7,0.3c0,0,0,0,0.1,0L101,94
		c0.5,0,0.9-0.4,0.9-0.9l0.6-4.1l3.1-2l3.9,3.4c0.4,0.4,1,0.3,1.4-0.1l4.1-4.6c0.3-0.3,0.3-0.8,0.1-1.2l-2.2-3.8l1.8-3.5l4.2-0.5
		c0.5-0.1,0.9-0.5,0.9-1v-6C119.9,69.4,119.5,68.9,119,68.9z M113.4,76l-2.3,4.5c-0.2,0.3-0.2,0.7,0,1l2.1,3.6l-3,3.3l-3.7-3.3
		c-0.3-0.3-0.8-0.3-1.2-0.1l-4.1,2.7c-0.2,0.2-0.4,0.4-0.4,0.7l-0.6,3.8l-4.8,0.3l-0.1-4.7c0-0.4-0.3-0.8-0.7-0.9l-4.7-1.7
		c-0.1,0-0.2-0.1-0.3-0.1c-0.2,0-0.4,0.1-0.6,0.2l-3.5,2.6l-2.6-3.2l2.2-3.6c0.2-0.3,0.2-0.6,0.1-0.9l-1.9-5.1
		c-0.1-0.4-0.5-0.6-0.8-0.6L77.8,74v-4l4.6-0.1c0.4,0,0.7-0.2,0.9-0.6l2.2-5.2c0.1-0.3,0.1-0.7-0.1-1l-2.6-3.2l2.8-2.9l4.1,3
		c0.3,0.2,0.6,0.2,0.9,0.1l4.6-1.8c0.4-0.1,0.6-0.5,0.6-0.8l0.5-4.6l4.1,0.2l0.1,4.1c0,0.4,0.2,0.7,0.6,0.9l4.9,2.2
		c0.3,0.1,0.7,0.1,1-0.1l3.5-2.5l2.9,2.7c-3,2.7-3,3.2-2.9,3.7c0,0.2,0.2,0.5,0.4,0.7c0.3,0.5,1.1,3,1.6,5.1
		c0.1,0.4,0.4,0.7,0.9,0.8l4.6,0.5V75l-3.8,0.5C113.8,75.5,113.5,75.7,113.4,76z M32.5,74.8V52.9c3.7-0.8,7-2.3,10-4.5h7.2
		c0.6,0,1-0.4,1-1v-7.9c0-0.2,0-0.3-0.1-0.4c0.9-1.7,1.6-3.5,2.1-5.4h26.5c0.6,0,1-0.4,1-1s-0.4-1-1-1H53c0.3-1.6,0.5-3.2,0.5-4.9
		c0-0.3,0-0.7,0-1h28c2.5,0,4.5,2,4.5,4.5v24.5c-0.4-0.3-0.9-0.2-1.3,0.1l-4,4.1c-0.4,0.4-0.4,0.9-0.1,1.3l2.7,3.4l-1.7,4.1l-2.4,0
		v-3.5c0-0.6-0.4-1-1-1h-7.9c-0.6,0-1,0.4-1,1v7.9c0,0.6,0.4,1,1,1h5.4v1.5c0,0.5,0.4,0.9,0.9,1l4.8,0.5l1,2.8
		c-0.3,0.1-0.7,0.1-1,0.1H37C34.5,79.3,32.5,77.3,32.5,74.8z M2,26.8C2,13.1,13.1,2,26.8,2s24.8,11.1,24.8,24.8
		c0,13.6-11.1,24.8-24.8,24.8S2,40.4,2,26.8z M48.6,42.2v4.3h-3.7C46.3,45.1,47.5,43.7,48.6,42.2z M76.8,68c-0.5,0-1,0.5-1,1v2.4
		h-4.4v-5.9h5.9V68L76.8,68z"/>
	<path class="st1" d="M97.9,65.5c-4.5,0-8.2,3.7-8.2,8.2s3.7,8.2,8.2,8.2s8.2-3.7,8.2-8.2S102.4,65.5,97.9,65.5z M91.7,73.7
		c0-3.4,2.8-6.2,6.2-6.2s6.2,2.8,6.2,6.2s-2.8,6.2-6.2,6.2S91.7,77.1,91.7,73.7z"/>
</g>
</svg>
