<?xml version="1.0" encoding="utf-8"?>
<!-- Generator: Adobe Illustrator 19.2.0, SVG Export Plug-In . SVG Version: 6.00 Build 0)  -->
<svg version="1.1" id="Layer_1" xmlns="http://www.w3.org/2000/svg" xmlns:xlink="http://www.w3.org/1999/xlink" x="0px" y="0px"
	 viewBox="0 0 93.1 107.8" style="enable-background:new 0 0 93.1 107.8;" xml:space="preserve">
<style type="text/css">
	.st0{fill:none;}
	.st1{fill:#F8981D;}
	.st2{fill:#3A4248;}
	.st3{fill:#78909C;}
	.st4{fill:#D0D8DC;}
	.st5{fill:#263238;}
	.st6{fill:none;stroke:#D0D8DC;stroke-width:0;stroke-linecap:round;stroke-linejoin:round;}
	.st7{fill:#90A4AE;}
	.st8{fill:#E7E7E7;}
	.st9{fill:#394147;}
	.st10{fill:#F3F3F3;}
	.st11{fill:#CDCCCC;}
	.st12{fill:#FBAC35;}
	.st13{fill:#B0BEC5;}
	.st14{fill:#3D4349;}
	.st15{fill:#546E7A;}
	.st16{fill:#E0E8ED;}
	.st17{fill:#FFFFFF;}
	.st18{fill:#37474F;}
	.st19{fill:#ECEFF0;}
</style>
<g>
	<path class="st0" d="M26.4,34.8v-0.5c-0.1,0.1-0.2,0.2-0.4,0.3C26.1,34.7,26.2,34.8,26.4,34.8z"/>
	<path class="st1" d="M13.8,42.2h-6c-0.6,0-1,0.4-1,1v5.4c0,0.6,0.4,1,1,1h6c0.6,0,1-0.4,1-1v-5.4C14.8,42.6,14.4,42.2,13.8,42.2z
		 M12.8,47.6h-4v-3.4h4V47.6z"/>
	<path class="st1" d="M25.3,42.2h-6c-0.6,0-1,0.4-1,1v5.4c0,0.6,0.4,1,1,1h6c0.6,0,1-0.4,1-1v-5.4C26.3,42.6,25.9,42.2,25.3,42.2z
		 M24.3,47.6h-4v-3.4h4V47.6z"/>
	<path class="st1" d="M13.8,52.1h-6c-0.6,0-1,0.4-1,1v5.4c0,0.6,0.4,1,1,1h6c0.6,0,1-0.4,1-1v-5.4C14.8,52.5,14.4,52.1,13.8,52.1z
		 M12.8,57.5h-4v-3.4h4V57.5z"/>
	<path class="st1" d="M25.3,52.1h-6c-0.6,0-1,0.4-1,1v5.4c0,0.6,0.4,1,1,1h6c0.6,0,1-0.4,1-1v-5.4C26.3,52.5,25.9,52.1,25.3,52.1z
		 M24.3,57.5h-4v-3.4h4V57.5z"/>
	<path class="st1" d="M13.8,62h-6c-0.6,0-1,0.4-1,1v5.4c0,0.6,0.4,1,1,1h6c0.6,0,1-0.4,1-1V63C14.8,62.4,14.4,62,13.8,62z
		 M12.8,67.4h-4V64h4V67.4z"/>
	<path class="st1" d="M25.3,62h-6c-0.6,0-1,0.4-1,1v5.4c0,0.6,0.4,1,1,1h6c0.6,0,1-0.4,1-1V63C26.3,62.4,25.9,62,25.3,62z
		 M24.3,67.4h-4V64h4V67.4z"/>
	<path class="st1" d="M13.8,71.9h-6c-0.6,0-1,0.4-1,1v5.4c0,0.6,0.4,1,1,1h6c0.6,0,1-0.4,1-1v-5.4C14.8,72.4,14.4,71.9,13.8,71.9z
		 M12.8,77.3h-4v-3.4h4V77.3z"/>
	<path class="st1" d="M25.3,71.9h-6c-0.6,0-1,0.4-1,1v5.4c0,0.6,0.4,1,1,1h6c0.6,0,1-0.4,1-1v-5.4C26.3,72.4,25.9,71.9,25.3,71.9z
		 M24.3,77.3h-4v-3.4h4V77.3z"/>
	<path class="st1" d="M13.8,81.8h-6c-0.6,0-1,0.4-1,1v5.4c0,0.6,0.4,1,1,1h6c0.6,0,1-0.4,1-1v-5.4C14.8,82.3,14.4,81.8,13.8,81.8z
		 M12.8,87.2h-4v-3.4h4V87.2z"/>
	<path class="st1" d="M25.3,81.8h-6c-0.6,0-1,0.4-1,1v5.4c0,0.6,0.4,1,1,1h6c0.6,0,1-0.4,1-1v-5.4C26.3,82.3,25.9,81.8,25.3,81.8z
		 M24.3,87.2h-4v-3.4h4V87.2z"/>
	<path class="st1" d="M13.8,91.7h-6c-0.6,0-1,0.4-1,1v5.4c0,0.6,0.4,1,1,1h6c0.6,0,1-0.4,1-1v-5.4C14.8,92.2,14.4,91.7,13.8,91.7z
		 M12.8,97.1h-4v-3.4h4V97.1z"/>
	<path class="st1" d="M25.3,91.7h-6c-0.6,0-1,0.4-1,1v5.4c0,0.6,0.4,1,1,1h6c0.6,0,1-0.4,1-1v-5.4C26.3,92.2,25.9,91.7,25.3,91.7z
		 M24.3,97.1h-4v-3.4h4V97.1z"/>
	<path class="st1" d="M86.6,34.6c0.7-0.5,1.1-1.1,1.1-1.8c0-1.6-2-2.8-4.6-2.8H70.6c-1.1,0-2.1,0.2-2.9,0.6
		c-0.8-6.1-4.1-11.2-8.4-13.3c1-0.6,1.7-1.4,1.7-2.4c0-1.9-2.4-3.3-5.7-3.3h-7.1V1c0-0.6-0.4-1-1-1s-1,0.4-1,1v10.6H39
		c-3.2,0-5.7,1.4-5.7,3.3c0,1,0.6,1.8,1.7,2.4c-4.5,2.2-7.9,7.6-8.5,14.1c-0.8-0.9-2.2-1.4-4-1.4H10c-2.6,0-4.6,1.2-4.6,2.8
		c0,0.7,0.4,1.3,1.1,1.8C2.7,36.7,0,41.6,0,47.3v56.2c0,0.6,0.4,1,1,1h25.4v2.3c0,0.6,0.4,1,1,1h39.5c0.6,0,1-0.4,1-1v-2.3h24.2
		c0.6,0,1-0.4,1-1V47.3C93.1,41.6,90.4,36.7,86.6,34.6z M91.1,102.5H67.9v-3.6c0.2,0.1,0.3,0.2,0.5,0.2h6c0.6,0,1-0.4,1-1v-5.4
		c0-0.6-0.4-1-1-1h-6c-0.2,0-0.4,0.1-0.5,0.2V89c0.2,0.1,0.3,0.2,0.5,0.2h6c0.6,0,1-0.4,1-1v-5.4c0-0.6-0.4-1-1-1h-6
		c-0.2,0-0.4,0.1-0.5,0.2v-2.9c0.2,0.1,0.3,0.2,0.5,0.2h6c0.6,0,1-0.4,1-1v-5.4c0-0.6-0.4-1-1-1h-6c-0.2,0-0.4,0.1-0.5,0.2v-2.9
		c0.2,0.1,0.3,0.2,0.5,0.2h6c0.6,0,1-0.4,1-1V63c0-0.6-0.4-1-1-1h-6c-0.2,0-0.4,0.1-0.5,0.2v-2.9c0.2,0.1,0.3,0.2,0.5,0.2h6
		c0.6,0,1-0.4,1-1v-5.4c0-0.6-0.4-1-1-1h-6c-0.2,0-0.4,0.1-0.5,0.2v-2.9c0.2,0.1,0.3,0.2,0.5,0.2h6c0.6,0,1-0.4,1-1v-5.4
		c0-0.6-0.4-1-1-1h-6c-0.2,0-0.4,0.1-0.5,0.2v-5.9c1-0.5,2-0.8,3.1-0.8h11.7c4.6,0,8.4,5.3,8.4,11.7V102.5z M28.4,105.8v-72
		c0-8.6,5-15.5,11.2-15.5h15.2c6.2,0,11.2,7,11.2,15.5v72H28.4z M2,47.3c0-6.5,3.8-11.7,8.4-11.7h11.7c1.6,0,3,0.6,4.3,1.7v65.2H2
		V47.3z M10,33.6c-1.6,0-2.5-0.6-2.6-0.8c0.1-0.2,1-0.8,2.6-0.8h12.5c1.6,0,2.5,0.6,2.6,0.8c-0.1,0.2-1,0.8-2.6,0.8h-0.4H10.4H10z
		 M39,16.3c-2.4,0-3.7-0.9-3.7-1.3s1.3-1.3,3.7-1.3h16.3c2.4,0,3.7,0.9,3.7,1.3s-1.3,1.3-3.7,1.3h-0.5H39.5H39z M83.1,32
		c1.6,0,2.5,0.6,2.6,0.8c-0.1,0.2-1,0.8-2.6,0.8h-0.4H71h-0.4c-1.6,0-2.5-0.6-2.6-0.8c0.1-0.2,1-0.8,2.6-0.8H83.1z M69.4,97.1v-3.4
		h4v3.4H69.4z M69.4,87.2v-3.4h4v3.4H69.4z M69.4,77.3v-3.4h4v3.4H69.4z M69.4,67.4V64h4v3.4H69.4z M69.4,57.5v-3.4h4v3.4H69.4z
		 M69.4,47.6v-3.4h4v3.4H69.4z M26.4,34.3v0.5c-0.1-0.1-0.3-0.2-0.4-0.2C26.1,34.5,26.3,34.4,26.4,34.3z"/>
	<path class="st1" d="M85.9,42.2h-6c-0.6,0-1,0.4-1,1v5.4c0,0.6,0.4,1,1,1h6c0.6,0,1-0.4,1-1v-5.4C86.9,42.6,86.5,42.2,85.9,42.2z
		 M84.9,47.6h-4v-3.4h4V47.6z"/>
	<path class="st1" d="M85.9,52.1h-6c-0.6,0-1,0.4-1,1v5.4c0,0.6,0.4,1,1,1h6c0.6,0,1-0.4,1-1v-5.4C86.9,52.5,86.5,52.1,85.9,52.1z
		 M84.9,57.5h-4v-3.4h4V57.5z"/>
	<path class="st1" d="M85.9,62h-6c-0.6,0-1,0.4-1,1v5.4c0,0.6,0.4,1,1,1h6c0.6,0,1-0.4,1-1V63C86.9,62.4,86.5,62,85.9,62z
		 M84.9,67.4h-4V64h4V67.4z"/>
	<path class="st1" d="M85.9,71.9h-6c-0.6,0-1,0.4-1,1v5.4c0,0.6,0.4,1,1,1h6c0.6,0,1-0.4,1-1v-5.4C86.9,72.4,86.5,71.9,85.9,71.9z
		 M84.9,77.3h-4v-3.4h4V77.3z"/>
	<path class="st1" d="M85.9,81.8h-6c-0.6,0-1,0.4-1,1v5.4c0,0.6,0.4,1,1,1h6c0.6,0,1-0.4,1-1v-5.4C86.9,82.3,86.5,81.8,85.9,81.8z
		 M84.9,87.2h-4v-3.4h4V87.2z"/>
	<path class="st1" d="M85.9,91.7h-6c-0.6,0-1,0.4-1,1v5.4c0,0.6,0.4,1,1,1h6c0.6,0,1-0.4,1-1v-5.4C86.9,92.2,86.5,91.7,85.9,91.7z
		 M84.9,97.1h-4v-3.4h4V97.1z"/>
	<path class="st1" d="M44,27.4h-7.8c-0.6,0-1,0.4-1,1v7c0,0.6,0.4,1,1,1H44c0.6,0,1-0.4,1-1v-7C45,27.9,44.6,27.4,44,27.4z M43,34.4
		h-5.8v-5H43V34.4z"/>
	<path class="st1" d="M58.9,27.4h-7.8c-0.6,0-1,0.4-1,1v7c0,0.6,0.4,1,1,1h7.8c0.6,0,1-0.4,1-1v-7C59.9,27.9,59.5,27.4,58.9,27.4z
		 M57.9,34.4h-5.8v-5h5.8V34.4z"/>
	<path class="st1" d="M44,40.3h-7.8c-0.6,0-1,0.4-1,1v7c0,0.6,0.4,1,1,1H44c0.6,0,1-0.4,1-1v-7C45,40.8,44.6,40.3,44,40.3z M43,47.3
		h-5.8v-5H43V47.3z"/>
	<path class="st1" d="M58.9,40.3h-7.8c-0.6,0-1,0.4-1,1v7c0,0.6,0.4,1,1,1h7.8c0.6,0,1-0.4,1-1v-7C59.9,40.8,59.5,40.3,58.9,40.3z
		 M57.9,47.3h-5.8v-5h5.8V47.3z"/>
	<path class="st1" d="M44,53.2h-7.8c-0.6,0-1,0.4-1,1v7c0,0.6,0.4,1,1,1H44c0.6,0,1-0.4,1-1v-7C45,53.6,44.6,53.2,44,53.2z M43,60.2
		h-5.8v-5H43V60.2z"/>
	<path class="st1" d="M58.9,53.2h-7.8c-0.6,0-1,0.4-1,1v7c0,0.6,0.4,1,1,1h7.8c0.6,0,1-0.4,1-1v-7C59.9,53.6,59.5,53.2,58.9,53.2z
		 M57.9,60.2h-5.8v-5h5.8V60.2z"/>
	<path class="st1" d="M44,66h-7.8c-0.6,0-1,0.4-1,1v7c0,0.6,0.4,1,1,1H44c0.6,0,1-0.4,1-1v-7C45,66.5,44.6,66,44,66z M43,73h-5.8v-5
		H43V73z"/>
	<path class="st1" d="M58.9,66h-7.8c-0.6,0-1,0.4-1,1v7c0,0.6,0.4,1,1,1h7.8c0.6,0,1-0.4,1-1v-7C59.9,66.5,59.5,66,58.9,66z
		 M57.9,73h-5.8v-5h5.8V73z"/>
	<path class="st1" d="M44,78.9h-7.8c-0.6,0-1,0.4-1,1v7c0,0.6,0.4,1,1,1H44c0.6,0,1-0.4,1-1v-7C45,79.4,44.6,78.9,44,78.9z M43,85.9
		h-5.8v-5H43V85.9z"/>
	<path class="st1" d="M58.9,78.9h-7.8c-0.6,0-1,0.4-1,1v7c0,0.6,0.4,1,1,1h7.8c0.6,0,1-0.4,1-1v-7C59.9,79.4,59.5,78.9,58.9,78.9z
		 M57.9,85.9h-5.8v-5h5.8V85.9z"/>
	<path class="st1" d="M44,91.8h-7.8c-0.6,0-1,0.4-1,1v7c0,0.6,0.4,1,1,1H44c0.6,0,1-0.4,1-1v-7C45,92.2,44.6,91.8,44,91.8z M43,98.8
		h-5.8v-5H43V98.8z"/>
	<path class="st1" d="M58.9,91.8h-7.8c-0.6,0-1,0.4-1,1v7c0,0.6,0.4,1,1,1h7.8c0.6,0,1-0.4,1-1v-7C59.9,92.2,59.5,91.8,58.9,91.8z
		 M57.9,98.8h-5.8v-5h5.8V98.8z"/>
</g>
</svg>
