<?xml version="1.0" encoding="utf-8"?>
<!-- Generator: Adobe Illustrator 19.2.0, SVG Export Plug-In . SVG Version: 6.00 Build 0)  -->
<svg version="1.1" id="Layer_1" xmlns="http://www.w3.org/2000/svg" xmlns:xlink="http://www.w3.org/1999/xlink" x="0px" y="0px"
	 viewBox="0 0 99 96.3" style="enable-background:new 0 0 99 96.3;" xml:space="preserve">
<style type="text/css">
	.st0{fill:none;}
	.st1{fill:#F8981D;}
	.st2{fill:#3A4248;}
	.st3{fill:#78909C;}
	.st4{fill:#D0D8DC;}
	.st5{fill:#263238;}
	.st6{fill:none;stroke:#D0D8DC;stroke-width:0;stroke-linecap:round;stroke-linejoin:round;}
	.st7{fill:#90A4AE;}
	.st8{fill:#E7E7E7;}
	.st9{fill:#394147;}
	.st10{fill:#F3F3F3;}
	.st11{fill:#CDCCCC;}
	.st12{fill:#FBAC35;}
	.st13{fill:#B0BEC5;}
	.st14{fill:#3D4349;}
	.st15{fill:#546E7A;}
	.st16{fill:#E0E8ED;}
	.st17{fill:#FFFFFF;}
	.st18{fill:#37474F;}
	.st19{fill:#ECEFF0;}
</style>
<g>
	<path class="st0" d="M66.9,74.5l1.2-1.1c-0.7,0.1-1.4,0.1-2.3,0.1c-0.1,0-0.2,0-0.4,0c-0.6,0-1.3,0-2.1-0.1l1.4,1.2L66.9,74.5z"/>
	<path class="st1" d="M96.1,85c-2.4-2.4-9-9-18.8-11c0,0,0,0,0,0l-0.7-2.5c3.3-0.8,8.2-1.9,16.4-3.2c0.5-0.1,0.8-0.5,0.8-0.9
		c0-0.5-0.3-0.9-0.7-1c0,0-3.8-1.2-5.4-3.6c-0.7-1.1-1.3-7.3-1.8-13.3c0-0.1,0-0.2,0-0.3c0-0.6-0.1-1.1-0.2-1.6
		c0-0.5-0.1-1.1-0.1-1.6c-0.5-6.5-1-13.2-1.7-17.4C82.2,19,71,15.5,63.9,15.5c0,0,0,0,0,0c-7,0-12.7,3-16.1,8.3
		c-2.5,4-2.8,15.4-3,25.5c-0.1,5.9-0.3,12-1,13.5c-1.6,3.6-4.9,4.6-5,4.6c-0.4,0.1-0.7,0.5-0.7,1c0,0.5,0.3,0.9,0.8,0.9
		c0.5,0.1,7.8,1.7,15,2.8L53.4,74c0,0.1,0,0.2,0,0.3c0,0,0,0.1,0,0.2c-8.6,1.6-15.8,5.9-19.2,10.1c-4.1,5-2.3,10-2.2,10.2
		c0.1,0.4,0.5,0.6,0.9,0.6c0.2,0,18.7,0.9,33.9,0.9c15.2,0,30.8-0.3,31-0.3c0.4,0,0.8-0.3,0.9-0.7C98.8,95,100.2,89.2,96.1,85z
		 M55.4,74.3l1.1-4.1l7.9,6.7c-2.1,3.1-4.9,6-6.1,5.9C56.9,82.6,55.7,78.3,55.4,74.3z M63.9,17.5C63.9,17.5,63.9,17.5,63.9,17.5
		c4.4,0,16,2,18,10.8c-0.1,0.2-0.1,0.3-0.1,0.5c0.8,6.1,0.1,10.6-0.5,13l-7.9-12.2c-0.2-0.3-0.4-0.4-0.7-0.5c-0.3,0-0.6,0.1-0.8,0.3
		c-0.1,0.1-6,6.3-12,10.3c-5.8,3.8-11.3,3.5-12.9,3.3c0,0,0,0,0,0c0.3-7.7,0.8-15.4,2.6-18.2C52.5,20.1,57.5,17.5,63.9,17.5z
		 M89.4,66.7c-6.4,1.1-10.5,2-13.3,2.7l-0.4-1.4c-0.1-0.3-0.3-0.6-0.6-0.7c2.8-3,4.9-7.3,6.1-12.6c0.2,0,0.4,0,0.5,0
		c1,0,1.8-0.4,2.5-1.2c0.5,5.4,1,8.8,1.8,10C86.9,65.1,88.2,66,89.4,66.7z M75.3,74.3c-0.3,4-1.4,8.3-2.7,8.4
		C71.4,83,69,80,67.3,76.9l7-6.6L75.3,74.3z M84,49c0,2.3-1.2,3.9-2.2,3.9c-0.2,0-0.5-0.1-0.7-0.2c-0.3-0.2-0.6-0.2-0.9-0.1
		c-0.3,0.1-0.5,0.4-0.6,0.7C77.6,63.2,71.9,70,65.7,70C59.5,70,54,63.5,52,53.7c-0.1-0.3-0.3-0.6-0.6-0.7c-0.3-0.1-0.6-0.1-0.9,0
		c-0.2,0.1-0.4,0.2-0.6,0.2c-1,0-2.2-1.6-2.2-3.9s1.2-3.9,2.2-3.9c0.3,0,0.5-0.1,0.7-0.3c2.7-0.3,6.4-1.2,10.2-3.7
		c4.9-3.3,9.6-7.8,11.5-9.7l8.4,12.9c0.2,0.3,0.5,0.5,0.9,0.5c0,0,0,0,0.1,0c0,0,0,0,0.1,0C82.8,45.1,84,46.7,84,49z M65.9,93.9
		c-3,0-5.6-4.5-7.3-9.1c2.6-0.2,5.7-4.1,7.2-6.4c1.4,2.4,4.1,6.5,6.7,6.5c0,0,0,0,0,0C71.1,89.4,68.8,93.9,65.9,93.9z M70.4,71
		c0.1-0.1,0.3-0.1,0.4-0.2l-0.1,0.1C70.6,70.9,70.5,70.9,70.4,71z M60.7,71.1l-1.3-1.1c0.8,0.5,1.5,0.9,2.3,1.2
		C61.4,71.2,61,71.2,60.7,71.1z M65.4,73.5c0.1,0,0.2,0,0.4,0c0.9,0,1.6-0.1,2.3-0.1l-1.2,1.1l-1.1,1.1l-1.1-1l-1.4-1.2
		C64.1,73.5,64.8,73.5,65.4,73.5z M82.9,43.3c0.1-0.4,0.3-1,0.5-1.7c0.1,0.7,0.1,1.3,0.2,2C83.3,43.5,83.1,43.4,82.9,43.3z
		 M46.8,45.1c0,0,0.1,0,0.1,0c-0.1,0.1-0.1,0.2-0.1,0.2C46.8,45.3,46.8,45.2,46.8,45.1z M46.6,52.9c0.8,1.5,2.2,2.5,3.7,2.3
		c1.2,5.1,3.4,9.4,6.1,12.3c-0.2-0.1-0.5-0.2-0.8-0.1c-0.3,0.1-0.6,0.4-0.7,0.7l-0.6,2.1c-4.7-0.8-9.5-1.7-12.4-2.3
		c1.2-0.9,2.6-2.3,3.6-4.4C46.2,62.1,46.4,58.5,46.6,52.9z M56,83.4c1.3,3.9,3.3,8.5,6.1,10.9c-5-0.1-10-0.2-14.5-0.3v-3.9
		c0-0.6-0.4-1-1-1s-1,0.4-1,1v3.8c-5.7-0.2-10.1-0.4-11.8-0.4c-0.3-1.3-0.6-4.5,2-7.7c2.6-3.2,9.1-7.7,17.9-9.4
		C53.9,78.6,54.6,81.7,56,83.4z M96.9,94c-1.6,0-5.5,0.1-10.6,0.1v-4.5c0-0.6-0.4-1-1-1s-1,0.4-1,1v4.5c-4.4,0-9.5,0.1-14.6,0.1
		c2.8-2.5,4.5-7.4,5.6-11.4c1.2-1.9,1.7-4.9,1.9-6.9c9.1,2,15.3,8.2,17.6,10.4C97.2,89,97.1,92.5,96.9,94z"/>
	<path class="st1" d="M37.1,53c0.2,0,0.5-0.1,0.7-0.3c0.3-0.3,0.4-0.8,0.2-1.2L34.1,44c5.9-0.4,9.6-5.1,9.6-12.2V12.3
		C43.8,5.5,38.3,0,31.5,0H12.3C5.5,0,0,5.5,0,12.3v19.5C0,38.5,5.5,44,12.3,44h10.9l13.4,8.8C36.8,52.9,36.9,53,37.1,53z M2,31.8
		V12.3C2,6.6,6.6,2,12.3,2h19.2c5.7,0,10.3,4.6,10.3,10.3v19.5c0,5-2.2,10.3-8.4,10.3h-0.9c-0.3,0-0.7,0.2-0.9,0.5
		c-0.2,0.3-0.2,0.7,0,1l2.9,5.5L24,42.2c-0.2-0.1-0.4-0.2-0.5-0.2H12.3C6.6,42,2,37.4,2,31.8z"/>
	<path class="st1" d="M26,22.8c0-2.3-1.8-4.1-4.1-4.1s-4.1,1.8-4.1,4.1s1.8,4.1,4.1,4.1S26,25,26,22.8z M21.9,24.9
		c-1.2,0-2.1-0.9-2.1-2.1s0.9-2.1,2.1-2.1s2.1,0.9,2.1,2.1S23.1,24.9,21.9,24.9z"/>
	<path class="st1" d="M33.2,26.9c2.3,0,4.1-1.8,4.1-4.1s-1.8-4.1-4.1-4.1s-4.1,1.8-4.1,4.1S30.9,26.9,33.2,26.9z M33.2,20.7
		c1.2,0,2.1,0.9,2.1,2.1s-0.9,2.1-2.1,2.1s-2.1-0.9-2.1-2.1S32,20.7,33.2,20.7z"/>
	<path class="st1" d="M10.8,18.7c-2.3,0-4.1,1.8-4.1,4.1s1.8,4.1,4.1,4.1s4.1-1.8,4.1-4.1S13.1,18.7,10.8,18.7z M10.8,24.9
		c-1.2,0-2.1-0.9-2.1-2.1s0.9-2.1,2.1-2.1s2.1,0.9,2.1,2.1S12,24.9,10.8,24.9z"/>
</g>
</svg>
