<?xml version="1.0" encoding="utf-8"?>
<!-- Generator: Adobe Illustrator 16.0.2, SVG Export Plug-In . SVG Version: 6.00 Build 0)  -->
<!DOCTYPE svg PUBLIC "-//W3C//DTD SVG 1.1//EN" "http://www.w3.org/Graphics/SVG/1.1/DTD/svg11.dtd">
<svg version="1.1" id="Layer_1" xmlns="http://www.w3.org/2000/svg" xmlns:xlink="http://www.w3.org/1999/xlink" x="0px" y="0px"
	 width="64px" height="64px" viewBox="0 0 64 64" enable-background="new 0 0 64 64" xml:space="preserve">
<g>
	<g>
		<path fill="#78909C" d="M17.592,60.32c-0.994,0-2.249-0.73-2.784-1.623L0.373,33.738c-0.498-0.864-0.498-2.326,0-3.189
			L14.809,5.597C15.344,4.698,16.598,4,17.592,4h28.812c1.062,0,2.255,0.698,2.784,1.597L63.63,30.549
			c0.493,0.863,0.493,2.325,0,3.189L49.188,58.697c-0.529,0.893-1.723,1.623-2.784,1.623H17.592z"/>
	</g>
	<path fill="#384046" d="M32,17.292c-5.988,0-10.831,4.844-10.831,10.831C21.169,36.246,32,48.236,32,48.236
		s10.831-11.99,10.831-20.114C42.831,22.136,37.989,17.292,32,17.292z M32,31.989c-2.134,0-3.869-1.73-3.869-3.867
		s1.735-3.867,3.869-3.867c2.134,0,3.869,1.73,3.869,3.867S34.135,31.989,32,31.989z"/>
</g>
</svg>
