<?xml version="1.0" encoding="utf-8"?>
<!-- Generator: Adobe Illustrator 16.0.2, SVG Export Plug-In . SVG Version: 6.00 Build 0)  -->
<!DOCTYPE svg PUBLIC "-//W3C//DTD SVG 1.1//EN" "http://www.w3.org/Graphics/SVG/1.1/DTD/svg11.dtd">
<svg version="1.1" id="Layer_1" xmlns="http://www.w3.org/2000/svg" xmlns:xlink="http://www.w3.org/1999/xlink" x="0px" y="0px"
	 width="64px" height="64px" viewBox="0 0 64 64" enable-background="new 0 0 64 64" xml:space="preserve">
<g>
	<g>
		<path fill="#78909C" d="M17.594,60.32c-0.996,0-2.25-0.732-2.785-1.625L0.372,33.736c-0.496-0.86-0.496-2.324,0-3.188
			L14.809,5.597C15.344,4.7,16.598,4,17.594,4h28.813c1.062,0,2.253,0.7,2.783,1.597l14.442,24.952c0.491,0.863,0.491,2.327,0,3.188
			L49.189,58.695c-0.53,0.893-1.722,1.625-2.783,1.625H17.594z"/>
	</g>
	<path fill="#384046" d="M43.865,21.325H22.204c-1.489,0-2.694,1.219-2.694,2.708l-0.013,16.246c0,1.488,1.218,2.707,2.707,2.707
		h21.661c1.489,0,2.708-1.219,2.708-2.707V24.033C46.573,22.544,45.354,21.325,43.865,21.325z M43.865,26.741l-10.83,6.769
		l-10.831-6.769v-2.708l10.831,6.77l10.83-6.77V26.741z"/>
</g>
</svg>
