<?xml version="1.0" encoding="utf-8"?>
<!-- Generator: Adobe Illustrator 16.0.2, SVG Export Plug-In . SVG Version: 6.00 Build 0)  -->
<!DOCTYPE svg PUBLIC "-//W3C//DTD SVG 1.1//EN" "http://www.w3.org/Graphics/SVG/1.1/DTD/svg11.dtd">
<svg version="1.1" id="Layer_1" xmlns="http://www.w3.org/2000/svg" xmlns:xlink="http://www.w3.org/1999/xlink" x="0px" y="0px"
	 width="64px" height="64px" viewBox="0 0 64 64" enable-background="new 0 0 64 64" xml:space="preserve">
<g>
	<g>
		<path fill="#78909C" d="M17.594,60.32c-0.996,0-2.25-0.73-2.785-1.625L0.372,33.736c-0.496-0.863-0.496-2.322,0-3.186
			L14.809,5.597C15.344,4.698,16.598,4,17.594,4h28.813c1.062,0,2.253,0.698,2.783,1.597l14.442,24.954
			c0.491,0.863,0.491,2.322,0,3.186L49.189,58.695c-0.53,0.895-1.722,1.625-2.783,1.625H17.594z"/>
	</g>
	<path fill="#384046" d="M23.252,28.835c2.426,4.771,6.333,8.661,11.102,11.106l3.707-3.707c0.453-0.457,1.13-0.605,1.718-0.406
		c1.89,0.627,3.927,0.961,6.017,0.961c0.927,0,1.684,0.756,1.684,1.688v5.877c0,0.926-0.757,1.686-1.684,1.686
		c-15.822,0-28.642-12.822-28.642-28.64c0-0.926,0.759-1.686,1.684-1.686h5.897c0.926,0,1.684,0.76,1.684,1.686
		c0,2.105,0.338,4.125,0.961,6.014c0.187,0.591,0.051,1.246-0.419,1.72L23.252,28.835z"/>
</g>
</svg>
