<?xml version="1.0" encoding="utf-8"?>
<!-- Generator: Adobe Illustrator 16.0.2, SVG Export Plug-In . SVG Version: 6.00 Build 0)  -->
<!DOCTYPE svg PUBLIC "-//W3C//DTD SVG 1.1//EN" "http://www.w3.org/Graphics/SVG/1.1/DTD/svg11.dtd">
<svg version="1.1" id="Layer_1" xmlns="http://www.w3.org/2000/svg" xmlns:xlink="http://www.w3.org/1999/xlink" x="0px" y="0px"
	 width="64px" height="64px" viewBox="0 0 64 64" enable-background="new 0 0 64 64" xml:space="preserve">
<g>
	<g>
		<path fill="#78909C" d="M17.592,60.32c-0.994,0-2.249-0.73-2.784-1.623L0.373,33.736c-0.498-0.862-0.498-2.324,0-3.188
			L14.809,5.597C15.344,4.698,16.598,4,17.592,4h28.812c1.062,0,2.255,0.698,2.784,1.597L63.63,30.549
			c0.493,0.863,0.493,2.325,0,3.188L49.188,58.697c-0.529,0.893-1.723,1.623-2.784,1.623H17.592z"/>
	</g>
	<path fill="#384046" d="M46.299,35.918c0.22-0.99,0.338-2.01,0.338-3.063c0-7.878-6.481-14.258-14.473-14.258
		c-0.849,0-1.673,0.067-2.478,0.207c-1.292-0.798-2.823-1.269-4.465-1.269c-4.638,0-8.395,3.702-8.395,8.269
		c0,1.529,0.423,2.96,1.155,4.187c-0.19,0.927-0.292,1.885-0.292,2.864c0,7.878,6.478,14.263,14.474,14.263
		c0.903,0,1.79-0.082,2.646-0.238c1.183,0.627,2.536,0.982,3.971,0.982c4.637,0,8.392-3.703,8.392-8.271
		C47.172,38.27,46.857,37.021,46.299,35.918z M38.67,40.135c-0.597,0.939-1.48,1.68-2.625,2.209
		c-1.141,0.521-2.498,0.785-4.046,0.785c-1.857,0-3.414-0.361-4.631-1.076c-0.869-0.521-1.586-1.221-2.13-2.094
		c-0.55-0.871-0.829-1.746-0.829-2.584c0-0.523,0.182-0.98,0.539-1.352c0.355-0.371,0.811-0.555,1.352-0.555
		c0.444,0,0.829,0.145,1.139,0.436c0.3,0.283,0.554,0.695,0.759,1.232c0.229,0.574,0.48,1.07,0.743,1.455
		c0.254,0.371,0.619,0.68,1.085,0.93c0.472,0.244,1.103,0.369,1.881,0.369c1.07,0,1.946-0.256,2.606-0.75
		c0.643-0.49,0.956-1.074,0.956-1.787c0-0.568-0.163-1.014-0.5-1.359c-0.351-0.365-0.816-0.648-1.379-0.84
		c-0.588-0.205-1.385-0.424-2.373-0.654c-1.346-0.318-2.484-0.697-3.392-1.121c-0.929-0.438-1.673-1.04-2.224-1.8
		c-0.554-0.771-0.837-1.734-0.837-2.866c0-1.083,0.296-2.061,0.88-2.898c0.577-0.838,1.426-1.489,2.509-1.934
		c1.074-0.436,2.353-0.66,3.795-0.66c1.155,0,2.17,0.146,3.02,0.44c0.853,0.292,1.57,0.689,2.135,1.178
		c0.569,0.491,0.994,1.02,1.259,1.563c0.269,0.55,0.406,1.103,0.406,1.633c0,0.513-0.178,0.978-0.533,1.382
		c-0.354,0.406-0.798,0.615-1.324,0.615c-0.482,0-0.856-0.127-1.117-0.383c-0.241-0.241-0.49-0.606-0.771-1.14
		c-0.324-0.677-0.711-1.213-1.162-1.591c-0.436-0.364-1.159-0.55-2.159-0.55c-0.927,0-1.682,0.205-2.24,0.613
		c-0.544,0.394-0.805,0.838-0.805,1.37c0,0.326,0.083,0.602,0.259,0.838c0.182,0.246,0.444,0.464,0.77,0.644
		c0.339,0.192,0.689,0.343,1.041,0.448c0.359,0.11,0.965,0.272,1.794,0.486c1.046,0.248,2.007,0.527,2.858,0.829
		c0.86,0.307,1.605,0.682,2.215,1.121c0.617,0.443,1.108,1.016,1.457,1.701c0.35,0.686,0.526,1.535,0.526,2.521
		C39.575,38.121,39.273,39.191,38.67,40.135z"/>
</g>
</svg>
