<?xml version="1.0" encoding="utf-8"?>
<!-- Generator: Adobe Illustrator 16.0.2, SVG Export Plug-In . SVG Version: 6.00 Build 0)  -->
<!DOCTYPE svg PUBLIC "-//W3C//DTD SVG 1.1//EN" "http://www.w3.org/Graphics/SVG/1.1/DTD/svg11.dtd">
<svg version="1.1" id="Layer_1" xmlns="http://www.w3.org/2000/svg" xmlns:xlink="http://www.w3.org/1999/xlink" x="0px" y="0px"
	 width="64px" height="64px" viewBox="0 0 64 64" enable-background="new 0 0 64 64" xml:space="preserve">
<g>
	<path class="" fill="#FF9800" d="M17.595,60.623c-0.999,0-2.25-0.732-2.786-1.623L0.371,33.736c-0.495-0.862-0.495-2.324,0-3.188
		L14.809,5.597C15.344,4.698,16.596,4,17.595,4h28.812c1.063,0,2.252,0.698,2.784,1.597L63.63,30.548
		c0.494,0.864,0.494,2.326,0,3.188L49.19,59c-0.532,0.891-1.722,1.623-2.784,1.623H17.595z"/>
	<path id="f_1_" fill="#384046" d="M33.681,47.602V33.193h6.182l1.025-6.177h-7.207v-3.087c0-2.056,1.031-3.088,3.093-3.088h3.089
		v-6.175c-1.033,0-3.339,0-5.15,0c-5.143,0-7.202,3.086-7.202,8.235v4.115h-6.177v6.177h6.177v14.408H33.681z"/>
</g>
</svg>
