<?xml version="1.0" encoding="utf-8"?>
<!-- Generator: Adobe Illustrator 16.0.2, SVG Export Plug-In . SVG Version: 6.00 Build 0)  -->
<!DOCTYPE svg PUBLIC "-//W3C//DTD SVG 1.1//EN" "http://www.w3.org/Graphics/SVG/1.1/DTD/svg11.dtd">
<svg version="1.1" id="Layer_1" xmlns="http://www.w3.org/2000/svg" xmlns:xlink="http://www.w3.org/1999/xlink" x="0px" y="0px"
	 width="64px" height="64px" viewBox="0 0 64 64" enable-background="new 0 0 64 64" xml:space="preserve">
<g>
	<path fill="#FF9800" d="M17.596,60.32c-0.999,0-2.251-0.732-2.786-1.625L0.372,33.736c-0.495-0.863-0.495-2.325,0-3.188
		L14.81,5.597C15.345,4.698,16.597,4,17.596,4h28.812c1.062,0,2.251,0.698,2.784,1.597l14.439,24.951
		c0.492,0.863,0.492,2.325,0,3.188L49.191,58.695c-0.533,0.893-1.723,1.625-2.784,1.625H17.596z"/>
	<path id="linkedin-icon_1_" fill="#384046" d="M26.554,19.726c0,1.811-1.567,3.277-3.501,3.277c-1.931,0-3.498-1.467-3.498-3.277
		c0-1.813,1.567-3.281,3.498-3.281C24.986,16.445,26.554,17.913,26.554,19.726z M26.044,25.336h-5.923v17.773h5.923V25.336z
		 M35.507,25.336h-5.678v17.773h5.678c0,0,0-6.59,0-9.329c0-2.5,1.237-3.994,3.606-3.994c2.173,0,3.224,1.435,3.224,3.994
		c0,2.556,0,9.329,0,9.329h5.89c0,0,0-6.496,0-11.256c0-4.762-2.907-7.063-6.958-7.063c-4.055,0-5.762,2.938-5.762,2.938V25.336
		L35.507,25.336z"/>
</g>
</svg>
