<?xml version="1.0" encoding="utf-8"?>
<!-- Generator: Adobe Illustrator 18.0.0, SVG Export Plug-In . SVG Version: 6.00 Build 0)  -->
<!DOCTYPE svg PUBLIC "-//W3C//DTD SVG 1.1 Tiny//EN" "http://www.w3.org/Graphics/SVG/1.1/DTD/svg11-tiny.dtd">
<svg version="1.1" baseProfile="tiny" id="Layer_1" xmlns="http://www.w3.org/2000/svg" xmlns:xlink="http://www.w3.org/1999/xlink"
	 x="0px" y="0px" viewBox="0 0 96.3 85.1" xml:space="preserve">
<path fill="#FFFFFF" d="M27.2,83.7c-1.5,0-3.3-1.1-4.1-2.4L2,44.8c-0.7-1.3-0.7-3.4,0-4.7L23.1,3.7c0.8-1.3,2.6-2.3,4.1-2.3h42.1
	c1.6,0,3.3,1,4.1,2.3l21.1,36.5c0.7,1.3,0.7,3.4,0,4.7L73.4,81.3c-0.8,1.3-2.5,2.4-4.1,2.4H27.2z"/>
<g>
	<path fill="#FF9800" d="M61,18.1H49.2c-5.2,0-8.9,1.1-12.1,3.8c-2.6,2.2-4.1,5.4-4.1,8.6c0,4.9,3.7,10.1,10.7,10.1
		c0.7,0,1.4-0.1,2.1-0.1l-0.1,0.2C45.3,41.4,45,42,45,43c0,1.9,0.9,3.1,1.8,4.2l0.1,0.1l-0.2,0c-2.9,0.2-8.2,0.6-12.1,2.9
		c-4.6,2.7-4.9,6.7-4.9,7.8c0,4.6,4.3,9.2,13.8,9.2c11.1,0,16.9-6.1,16.9-12.2c0-4.5-2.6-6.7-5.4-9l-2.3-1.8
		c-0.7-0.6-1.6-1.3-1.6-2.7c0-1.4,0.9-2.3,1.7-3.1l0.1-0.1c2.5-2,5.4-4.3,5.4-9.2c0-4.9-3.1-7.5-4.6-8.7h3.9c0,0,0.1,0,0.1,0
		l3.4-2.1c0.1-0.1,0.1-0.2,0.1-0.3C61.2,18.2,61.1,18.1,61,18.1z M46.7,64.7c-6.8,0-11.3-3.2-11.3-7.9c0-3.1,1.9-5.3,5.5-6.6
		c2.9-1,6.7-1,6.7-1c0.6,0,1,0,1.5,0.1c4.7,3.4,7,5.1,7,8.5C56.2,62.1,52.5,64.7,46.7,64.7z M46.7,38.8c-5.7,0-8-7.5-8-11.4
		c0-2,0.5-3.6,1.4-4.8c1-1.3,2.8-2.1,4.5-2.1c5.2,0,8.1,7,8.1,11.8c0,0.8,0,3.1-1.6,4.7C49.9,38.1,48.2,38.8,46.7,38.8z"/>
	<path fill="#FF9800" d="M77.5,41.1h-6.2v-6.2c0-0.1-0.1-0.3-0.3-0.3h-2.7c-0.1,0-0.3,0.1-0.3,0.3v6.2h-6.2c-0.1,0-0.3,0.1-0.3,0.3
		v2.7c0,0.1,0.1,0.3,0.3,0.3h6.2v6.2c0,0.1,0.1,0.3,0.3,0.3H71c0.1,0,0.3-0.1,0.3-0.3v-6.2h6.2c0.1,0,0.3-0.1,0.3-0.3v-2.7
		C77.7,41.2,77.6,41.1,77.5,41.1z"/>
</g>
</svg>
