<?xml version="1.0" encoding="utf-8"?>
<!-- Generator: Adobe Illustrator 18.0.0, SVG Export Plug-In . SVG Version: 6.00 Build 0)  -->
<!DOCTYPE svg PUBLIC "-//W3C//DTD SVG 1.1 Tiny//EN" "http://www.w3.org/Graphics/SVG/1.1/DTD/svg11-tiny.dtd">
<svg version="1.1" baseProfile="tiny" id="Layer_1" xmlns="http://www.w3.org/2000/svg" xmlns:xlink="http://www.w3.org/1999/xlink"
	 x="0px" y="0px" viewBox="0 0 96.3 85.1" xml:space="preserve">
<g>
	<g>
		<g>
			<path fill="#FF9800" d="M58.4,24.2v7.7L40.6,42.2l17.8,10.2V60L33.1,45.5v-6.6L58.4,24.2z"/>
		</g>
	</g>
	<g>
		<path fill="#FF9800" d="M68.9,84.4H27.4c-2,0-4.1-1.2-5.1-2.9L1.5,45.5c-0.9-1.6-0.9-4.2,0-5.9L22.3,3.7c1-1.7,3.2-3,5.1-3h41.5
			c1.9,0,4.1,1.3,5.1,3l20.8,35.9c0.9,1.6,0.9,4.2,0,5.9L74,81.4C73,83.1,70.8,84.4,68.9,84.4z M27.4,3.3c-1,0-2.3,0.8-2.9,1.7
			L3.7,40.9c-0.5,0.8-0.5,2.5,0,3.3l20.8,35.9c0.5,0.9,1.8,1.7,2.9,1.7h41.5c1,0,2.4-0.8,2.9-1.7l20.8-35.9c0.5-0.8,0.5-2.5,0-3.3
			L71.8,5c-0.5-0.9-1.9-1.7-2.9-1.7H27.4z"/>
	</g>
</g>
</svg>
