<?xml version="1.0" encoding="utf-8"?>
<!-- Generator: Adobe Illustrator 18.0.0, SVG Export Plug-In . SVG Version: 6.00 Build 0)  -->
<!DOCTYPE svg PUBLIC "-//W3C//DTD SVG 1.1 Tiny//EN" "http://www.w3.org/Graphics/SVG/1.1/DTD/svg11-tiny.dtd">
<svg version="1.1" baseProfile="tiny" id="Layer_1" xmlns="http://www.w3.org/2000/svg" xmlns:xlink="http://www.w3.org/1999/xlink"
	 x="0px" y="0px" viewBox="0 0 96.3 85.1" xml:space="preserve">
<g>
	<g>
		<g>
			<path fill="#FF9800" d="M37.9,60.9v-7.7l17.8-10.3L37.9,32.7V25l25.3,14.6v6.6L37.9,60.9z"/>
		</g>
	</g>
	<g>
		<path fill="#FF9800" d="M27.4,0.7h41.5c2,0,4.1,1.2,5.1,2.9l20.8,35.9c0.9,1.6,0.9,4.2,0,5.9L74,81.4c-1,1.7-3.2,3-5.1,3H27.4
			c-1.9,0-4.1-1.3-5.1-3L1.5,45.4c-0.9-1.6-0.9-4.2,0-5.9L22.3,3.7C23.3,2,25.5,0.7,27.4,0.7z M68.9,81.8c1,0,2.3-0.8,2.9-1.7
			l20.8-35.9c0.5-0.8,0.5-2.5,0-3.3L71.8,4.9C71.3,4,70,3.3,68.9,3.3H27.4c-1,0-2.4,0.8-2.9,1.7L3.7,40.9c-0.5,0.8-0.5,2.5,0,3.3
			l20.8,35.9c0.5,0.9,1.9,1.7,2.9,1.7H68.9z"/>
	</g>
</g>
</svg>
