<?xml version="1.0" encoding="utf-8"?>
<!-- Generator: Adobe Illustrator 18.0.0, SVG Export Plug-In . SVG Version: 6.00 Build 0)  -->
<!DOCTYPE svg PUBLIC "-//W3C//DTD SVG 1.1 Tiny//EN" "http://www.w3.org/Graphics/SVG/1.1/DTD/svg11-tiny.dtd">
<svg version="1.1" baseProfile="tiny" id="Layer_1" xmlns="http://www.w3.org/2000/svg" xmlns:xlink="http://www.w3.org/1999/xlink"
	 x="0px" y="0px" viewBox="0 0 96.3 85.1" xml:space="preserve">
<path fill="#FFFFFF" d="M27.2,83.7c-1.5,0-3.3-1.1-4.1-2.4L2,44.8c-0.7-1.3-0.7-3.4,0-4.7L23.1,3.7c0.8-1.3,2.6-2.3,4.1-2.3h42.1
	c1.6,0,3.3,1,4.1,2.3l21.1,36.5c0.7,1.3,0.7,3.4,0,4.7L73.4,81.3c-0.8,1.3-2.5,2.4-4.1,2.4H27.2z"/>
<g>
	<path fill="#FF9800" d="M75.8,26.3c-1.9,0.9-4,1.4-6.2,1.7c2.2-1.3,3.9-3.4,4.7-5.9c-2.1,1.2-4.4,2.1-6.8,2.6
		c-2-2.1-4.7-3.4-7.8-3.4C53.8,21.3,49,26.1,49,32c0,0.8,0.1,1.7,0.3,2.4c-8.9-0.4-16.8-4.7-22.1-11.2c-0.9,1.6-1.5,3.4-1.5,5.4
		c0,3.7,1.9,7,4.8,8.9c-1.8-0.1-3.4-0.5-4.9-1.3v0.1c0,5.2,3.7,9.5,8.6,10.5c-0.9,0.2-1.8,0.4-2.8,0.4c-0.7,0-1.4-0.1-2-0.2
		c1.4,4.3,5.3,7.4,10,7.5c-3.7,2.9-8.3,4.6-13.3,4.6c-0.9,0-1.7-0.1-2.6-0.1c4.8,3.1,10.4,4.8,16.5,4.8c19.7,0,30.5-16.4,30.5-30.5
		l0-1.4C72.6,30.4,74.4,28.5,75.8,26.3z"/>
</g>
</svg>
